M48
; DRILL file {KiCad (5.1.0)-1} date 05/04/2019 13:22:58
; FORMAT={-:-/ absolute / inch / decimal}
; #@! TF.CreationDate,2019-04-05T13:22:58+02:00
; #@! TF.GenerationSoftware,Kicad,Pcbnew,(5.1.0)-1
FMAT,2
INCH
T1C0.0197
T2C0.0276
T3C0.0354
T4C0.0394
T5C0.0472
T6C0.0512
T7C0.0630
T8C0.0709
T9C0.1260
T10C0.0787
T11C0.0866
%
G90
G05
T1
X2.1079Y-2.3181
X2.1079Y-2.3681
X2.1079Y-2.4181
X2.1079Y-2.4681
X2.1079Y-2.5181
X2.1579Y-2.3181
X2.1579Y-2.3681
X2.1579Y-2.4181
X2.1579Y-2.4681
X2.1579Y-2.5181
X2.2079Y-4.2181
X2.2079Y-4.3181
X2.2079Y-4.4181
X2.3079Y-4.2181
X2.3079Y-4.3181
X2.3079Y-4.4181
X2.4079Y-4.2181
X2.4079Y-4.3181
X2.4079Y-4.4181
X2.4079Y-4.9181
X2.4079Y-4.9681
X2.4579Y-4.9181
X2.4579Y-4.9681
X2.5079Y-4.2181
X2.5079Y-4.3181
X2.5079Y-4.4181
X2.5079Y-4.9181
X2.5079Y-4.9681
X2.5579Y-4.9181
X2.5579Y-4.9681
X2.6079Y-4.9181
X2.6079Y-4.9681
X3.5579Y-2.5181
X3.5579Y-2.5681
X3.5579Y-2.6181
X3.6079Y-2.6181
X3.6579Y-2.6181
X3.7079Y-2.6181
X3.7579Y-2.5181
X3.7579Y-2.5681
X3.7579Y-2.6181
X4.1079Y-3.7681
X4.1079Y-3.8181
X4.1079Y-3.8681
X4.1079Y-3.9181
X4.1079Y-3.9681
X4.1079Y-4.0181
X4.1079Y-4.0681
X4.1079Y-4.1181
X4.1079Y-4.1681
X4.1579Y-3.7681
X4.1579Y-3.8181
X4.1579Y-3.8681
X4.1579Y-3.9181
X4.1579Y-3.9681
X4.1579Y-4.0181
X4.1579Y-4.0681
X4.1579Y-4.1181
X4.1579Y-4.1681
X4.2079Y-2.1181
X4.2079Y-3.7681
X4.2079Y-3.8181
X4.2079Y-3.8681
X4.2079Y-3.9181
X4.2079Y-3.9681
X4.2079Y-4.0181
X4.2079Y-4.0681
X4.2079Y-4.1181
X4.2079Y-4.1681
X4.2579Y-3.7681
X4.2579Y-3.8181
X4.2579Y-3.8681
X4.2579Y-4.0681
X4.2579Y-4.1181
X4.2579Y-4.1681
X4.3079Y-3.7681
X4.3079Y-3.8181
X4.3079Y-3.8681
X4.3079Y-4.0681
X4.3079Y-4.1181
X4.3079Y-4.1681
X4.3579Y-3.7681
X4.3579Y-3.8181
X4.3579Y-3.8681
X4.3579Y-4.0681
X4.3579Y-4.1181
X4.3579Y-4.1681
X4.4079Y-2.1181
X4.4079Y-3.7681
X4.4079Y-3.8181
X4.4079Y-3.8681
X4.4079Y-4.0681
X4.4079Y-4.1181
X4.4079Y-4.1681
X4.4579Y-3.7681
X4.4579Y-3.8181
X4.4579Y-3.8681
X4.4579Y-3.9181
X4.4579Y-3.9681
X4.4579Y-4.0181
X4.4579Y-4.0681
X4.4579Y-4.1181
X4.4579Y-4.1681
X4.5079Y-3.7681
X4.5079Y-3.8181
X4.5079Y-3.8681
X4.5079Y-3.9181
X4.5079Y-3.9681
X4.5079Y-4.0181
X4.5079Y-4.0681
X4.5079Y-4.1181
X4.5079Y-4.1681
X4.5579Y-3.7681
X4.5579Y-3.8181
X4.5579Y-3.8681
X4.5579Y-3.9181
X4.5579Y-3.9681
X4.5579Y-4.0181
X4.5579Y-4.0681
X4.5579Y-4.1181
X4.5579Y-4.1681
X4.6079Y-2.1181
X4.8079Y-3.3181
X4.8079Y-3.3681
X4.8079Y-3.4181
X4.8079Y-3.4681
X4.8079Y-3.4681
X4.8079Y-4.1181
X4.8079Y-4.1681
X4.8079Y-4.2181
X4.8079Y-4.2681
X4.8579Y-2.7681
X4.8579Y-2.8181
X4.8579Y-2.8681
X4.8579Y-3.3181
X4.8579Y-3.3681
X4.8579Y-3.4181
X4.8579Y-3.4681
X4.8579Y-4.1181
X4.8579Y-4.1681
X4.8579Y-4.2181
X4.8579Y-4.2681
X4.9079Y-2.7681
X4.9079Y-2.8181
X4.9079Y-2.8681
X4.9079Y-3.3181
X4.9079Y-3.3681
X4.9079Y-3.4181
X4.9079Y-3.4681
X4.9079Y-4.1181
X4.9079Y-4.1681
X4.9079Y-4.2181
X4.9079Y-4.2681
X4.9579Y-2.7681
X4.9579Y-2.8181
X4.9579Y-2.8681
X4.9579Y-3.3181
X4.9579Y-3.3681
X4.9579Y-3.4181
X4.9579Y-3.4681
X4.9579Y-3.8181
X4.9579Y-4.1181
X4.9579Y-4.1681
X4.9579Y-4.2181
X4.9579Y-4.2681
X5.0079Y-3.8181
X5.0079Y-3.8681
X5.0579Y-3.8681
X5.0579Y-3.9181
X5.2079Y-2.1181
X5.3579Y-3.9181
X5.3579Y-3.9681
X5.3579Y-4.0181
X5.3579Y-4.0681
X5.4079Y-2.1181
X5.4579Y-2.7181
X5.4579Y-2.8181
X5.4579Y-3.9681
X5.4579Y-4.0681
X5.5079Y-4.3181
X5.5079Y-4.3681
X5.5079Y-4.4181
X5.5079Y-4.4681
X5.5579Y-2.7181
X5.5579Y-2.8181
X5.5579Y-3.9681
X5.5579Y-4.0681
X5.5579Y-4.3181
X5.5579Y-4.3681
X5.5579Y-4.4181
X5.5579Y-4.4681
X5.6079Y-2.1181
X5.6079Y-4.3181
X5.6079Y-4.3681
X5.6079Y-4.4181
X5.6079Y-4.4681
X5.6579Y-4.3181
X5.6579Y-4.3681
X5.6579Y-4.4181
X5.6579Y-4.4681
X5.7079Y-4.3181
X5.7079Y-4.3681
X5.7079Y-4.4181
X5.7079Y-4.4681
X5.8079Y-2.1181
X6.0079Y-2.1181
X6.0579Y-2.7681
X6.0579Y-3.2681
X6.0579Y-3.9681
X6.0579Y-4.4181
X6.1079Y-2.7681
X6.1079Y-3.2681
X6.1079Y-3.9681
X6.1079Y-4.4181
X6.1579Y-2.7681
X6.1579Y-3.2681
X6.1579Y-3.9681
X6.1579Y-4.4181
X6.2079Y-2.1181
X6.2079Y-2.7681
X6.2079Y-3.2681
X6.2079Y-3.9681
X6.2079Y-4.4181
X6.2579Y-2.7681
X6.2579Y-3.2681
X6.2579Y-3.9681
X6.2579Y-4.4181
X6.3079Y-2.7681
X6.3079Y-3.2681
X6.3079Y-3.9681
X6.3079Y-4.4181
X6.4079Y-2.1181
X6.5079Y-5.0181
X6.6079Y-2.1181
X6.6079Y-5.0181
X6.8079Y-2.1181
X6.8079Y-5.0181
X7.0079Y-2.1181
X7.0079Y-4.4181
X7.0079Y-4.5181
X7.0079Y-5.0181
X7.1079Y-4.4181
X7.1079Y-4.5181
X7.2079Y-2.1181
X7.2079Y-4.4181
X7.2079Y-4.5181
X7.2079Y-5.0181
X7.3079Y-2.7681
X7.3079Y-3.9681
X7.3079Y-4.4181
X7.3079Y-4.5181
X7.3579Y-2.7681
X7.3579Y-3.9681
X7.4079Y-2.7681
X7.4079Y-3.9681
X7.4579Y-2.7681
X7.4579Y-3.9681
X7.5079Y-2.7681
X7.5079Y-3.9681
X7.5579Y-2.7681
X7.5579Y-3.9681
X7.7079Y-2.1181
X7.7079Y-5.0181
X7.9079Y-2.1181
X7.9079Y-3.2681
X7.9079Y-3.3181
X7.9079Y-5.0181
X7.9579Y-3.2681
X7.9579Y-3.3181
X8.0079Y-3.2681
X8.0079Y-3.3181
X8.0579Y-3.2681
X8.0579Y-3.3181
X8.1079Y-2.1181
X8.1079Y-3.2681
X8.1079Y-3.3181
X8.1079Y-5.0181
X8.1579Y-3.2681
X8.1579Y-3.3181
X8.2079Y-3.2681
X8.2079Y-3.3181
X8.3079Y-5.0181
X8.5079Y-5.0181
X8.5579Y-2.7681
X8.5579Y-3.2681
X8.5579Y-3.9681
X8.6079Y-2.7681
X8.6079Y-3.2681
X8.6079Y-3.9681
X8.6579Y-2.7681
X8.6579Y-3.2681
X8.6579Y-3.9681
X8.7079Y-2.7681
X8.7079Y-3.2681
X8.7079Y-3.9681
X8.7079Y-5.0181
X8.7579Y-2.7681
X8.7579Y-3.2681
X8.7579Y-3.9681
X8.8079Y-2.7681
X8.8079Y-3.2681
X8.8079Y-3.9681
X8.9079Y-5.0181
X9.1079Y-5.0181
X9.3079Y-2.1181
X9.3079Y-5.0181
X9.5079Y-2.1181
X9.5079Y-5.0181
X9.8079Y-3.7181
X9.8079Y-3.9181
X9.8079Y-4.1181
X9.8079Y-4.3181
X9.8079Y-4.5181
X9.8079Y-4.7181
T2
X4.9699Y-4.6681
X4.9699Y-4.7681
X4.9699Y-4.8681
T3
X6.75Y-4.6787
X6.75Y-4.7787
X6.0Y-4.6787
X6.0Y-4.7787
X3.9579Y-2.1181
X3.9579Y-2.2181
X6.375Y-4.6787
X6.375Y-4.7787
T4
X8.9471Y-3.4933
X8.9471Y-3.5933
X8.9471Y-3.6933
X8.9471Y-3.7933
X8.9471Y-3.8933
X8.9471Y-3.9933
X8.9471Y-4.0933
X8.9471Y-4.1933
X9.0471Y-3.4933
X9.0471Y-3.5933
X9.0471Y-3.6933
X9.0471Y-3.7933
X9.0471Y-3.8933
X9.0471Y-3.9933
X9.0471Y-4.0933
X9.0471Y-4.1933
X7.0614Y-3.4933
X7.0614Y-3.5933
X7.0614Y-3.6933
X7.0614Y-3.7933
X7.0614Y-3.8933
X7.0614Y-3.9933
X7.0614Y-4.0933
X7.0614Y-4.1933
X7.1614Y-3.4933
X7.1614Y-3.5933
X7.1614Y-3.6933
X7.1614Y-3.7933
X7.1614Y-3.8933
X7.1614Y-3.9933
X7.1614Y-4.0933
X7.1614Y-4.1933
X9.5757Y-2.2933
X9.5757Y-2.3933
X9.5757Y-2.4933
X9.5757Y-2.5933
X9.5757Y-2.6933
X9.5757Y-2.7933
X9.5757Y-2.8933
X9.5757Y-2.9933
X9.6757Y-2.2933
X9.6757Y-2.3933
X9.6757Y-2.4933
X9.6757Y-2.5933
X9.6757Y-2.6933
X9.6757Y-2.7933
X9.6757Y-2.8933
X9.6757Y-2.9933
X5.1757Y-2.2933
X5.1757Y-2.3933
X5.1757Y-2.4933
X5.1757Y-2.5933
X5.1757Y-2.6933
X5.1757Y-2.7933
X5.1757Y-2.8933
X5.1757Y-2.9933
X5.2757Y-2.2933
X5.2757Y-2.3933
X5.2757Y-2.4933
X5.2757Y-2.5933
X5.2757Y-2.6933
X5.2757Y-2.7933
X5.2757Y-2.8933
X5.2757Y-2.9933
X8.3185Y-2.2933
X8.3185Y-2.3933
X8.3185Y-2.4933
X8.3185Y-2.5933
X8.3185Y-2.6933
X8.3185Y-2.7933
X8.3185Y-2.8933
X8.3185Y-2.9933
X8.4185Y-2.2933
X8.4185Y-2.3933
X8.4185Y-2.4933
X8.4185Y-2.5933
X8.4185Y-2.6933
X8.4185Y-2.7933
X8.4185Y-2.8933
X8.4185Y-2.9933
X3.6579Y-2.4181
X3.6579Y-2.5181
X8.3185Y-3.4933
X8.3185Y-3.5933
X8.3185Y-3.6933
X8.3185Y-3.7933
X8.3185Y-3.8933
X8.3185Y-3.9933
X8.3185Y-4.0933
X8.3185Y-4.1933
X8.4185Y-3.4933
X8.4185Y-3.5933
X8.4185Y-3.6933
X8.4185Y-3.7933
X8.4185Y-3.8933
X8.4185Y-3.9933
X8.4185Y-4.0933
X8.4185Y-4.1933
X9.5757Y-3.4933
X9.5757Y-3.5933
X9.5757Y-3.6933
X9.5757Y-3.7933
X9.5757Y-3.8933
X9.5757Y-3.9933
X9.5757Y-4.0933
X9.5757Y-4.1933
X9.6757Y-3.4933
X9.6757Y-3.5933
X9.6757Y-3.6933
X9.6757Y-3.7933
X9.6757Y-3.8933
X9.6757Y-3.9933
X9.6757Y-4.0933
X9.6757Y-4.1933
X5.8042Y-2.2933
X5.8042Y-2.3933
X5.8042Y-2.4933
X5.8042Y-2.5933
X5.8042Y-2.6933
X5.8042Y-2.7933
X5.8042Y-2.8933
X5.8042Y-2.9933
X5.9042Y-2.2933
X5.9042Y-2.3933
X5.9042Y-2.4933
X5.9042Y-2.5933
X5.9042Y-2.6933
X5.9042Y-2.7933
X5.9042Y-2.8933
X5.9042Y-2.9933
X6.4328Y-3.4933
X6.4328Y-3.5933
X6.4328Y-3.6933
X6.4328Y-3.7933
X6.4328Y-3.8933
X6.4328Y-3.9933
X6.4328Y-4.0933
X6.4328Y-4.1933
X6.5328Y-3.4933
X6.5328Y-3.5933
X6.5328Y-3.6933
X6.5328Y-3.7933
X6.5328Y-3.8933
X6.5328Y-3.9933
X6.5328Y-4.0933
X6.5328Y-4.1933
X5.1757Y-3.4933
X5.1757Y-3.5933
X5.1757Y-3.6933
X5.1757Y-3.7933
X5.1757Y-3.8933
X5.1757Y-3.9933
X5.1757Y-4.0933
X5.1757Y-4.1933
X5.2757Y-3.4933
X5.2757Y-3.5933
X5.2757Y-3.6933
X5.2757Y-3.7933
X5.2757Y-3.8933
X5.2757Y-3.9933
X5.2757Y-4.0933
X5.2757Y-4.1933
X7.0614Y-2.2933
X7.0614Y-2.3933
X7.0614Y-2.4933
X7.0614Y-2.5933
X7.0614Y-2.6933
X7.0614Y-2.7933
X7.0614Y-2.8933
X7.0614Y-2.9933
X7.1614Y-2.2933
X7.1614Y-2.3933
X7.1614Y-2.4933
X7.1614Y-2.5933
X7.1614Y-2.6933
X7.1614Y-2.7933
X7.1614Y-2.8933
X7.1614Y-2.9933
X3.8079Y-4.9181
X3.9079Y-4.9181
X4.0079Y-4.9181
X6.4328Y-2.2933
X6.4328Y-2.3933
X6.4328Y-2.4933
X6.4328Y-2.5933
X6.4328Y-2.6933
X6.4328Y-2.7933
X6.4328Y-2.8933
X6.4328Y-2.9933
X6.5328Y-2.2933
X6.5328Y-2.3933
X6.5328Y-2.4933
X6.5328Y-2.5933
X6.5328Y-2.6933
X6.5328Y-2.7933
X6.5328Y-2.8933
X6.5328Y-2.9933
X7.69Y-2.2933
X7.69Y-2.3933
X7.69Y-2.4933
X7.69Y-2.5933
X7.69Y-2.6933
X7.69Y-2.7933
X7.69Y-2.8933
X7.69Y-2.9933
X7.79Y-2.2933
X7.79Y-2.3933
X7.79Y-2.4933
X7.79Y-2.5933
X7.79Y-2.6933
X7.79Y-2.7933
X7.79Y-2.8933
X7.79Y-2.9933
X7.69Y-3.4933
X7.69Y-3.5933
X7.69Y-3.6933
X7.69Y-3.7933
X7.69Y-3.8933
X7.69Y-3.9933
X7.69Y-4.0933
X7.69Y-4.1933
X7.79Y-3.4933
X7.79Y-3.5933
X7.79Y-3.6933
X7.79Y-3.7933
X7.79Y-3.8933
X7.79Y-3.9933
X7.79Y-4.0933
X7.79Y-4.1933
X5.8042Y-3.4933
X5.8042Y-3.5933
X5.8042Y-3.6933
X5.8042Y-3.7933
X5.8042Y-3.8933
X5.8042Y-3.9933
X5.8042Y-4.0933
X5.8042Y-4.1933
X5.9042Y-3.4933
X5.9042Y-3.5933
X5.9042Y-3.6933
X5.9042Y-3.7933
X5.9042Y-3.8933
X5.9042Y-3.9933
X5.9042Y-4.0933
X5.9042Y-4.1933
X8.9471Y-2.2933
X8.9471Y-2.3933
X8.9471Y-2.4933
X8.9471Y-2.5933
X8.9471Y-2.6933
X8.9471Y-2.7933
X8.9471Y-2.8933
X8.9471Y-2.9933
X9.0471Y-2.2933
X9.0471Y-2.3933
X9.0471Y-2.4933
X9.0471Y-2.5933
X9.0471Y-2.6933
X9.0471Y-2.7933
X9.0471Y-2.8933
X9.0471Y-2.9933
T5
X2.5079Y-2.1681
X2.6079Y-2.1681
X2.7079Y-2.1681
X2.8079Y-2.1681
T6
X2.5164Y-3.2648
X2.5164Y-3.4648
X2.5164Y-3.6648
X2.5164Y-3.8648
X4.3164Y-3.1648
X4.3164Y-3.5648
X4.3164Y-3.9648
X4.3164Y-4.3648
T7
X2.2079Y-2.9681
X2.2079Y-3.5681
T8
X3.0728Y-2.316
X3.2579Y-2.1979
X3.2579Y-2.4341
T9
X9.7244Y-2.0866
X2.1654Y-4.9606
X7.4016Y-3.2677
X4.8819Y-2.0866
X7.4016Y-2.0866
X9.7244Y-4.9606
X7.4016Y-4.9606
X2.1654Y-2.0866
T11
X3.2579Y-2.0207
T10
G00X3.7762Y-3.1664
M15
G01X3.0675Y-3.1664
M16
G05
G00X3.7762Y-3.5601
M15
G01X3.0675Y-3.5601
M16
G05
G00X3.7762Y-3.9538
M15
G01X3.0675Y-3.9538
M16
G05
G00X3.7762Y-4.3475
M15
G01X3.0675Y-4.3475
M16
G05
T0
M30
