G04 #@! TF.GenerationSoftware,KiCad,Pcbnew,(5.1.0)-1*
G04 #@! TF.CreationDate,2019-04-05T13:22:55+02:00*
G04 #@! TF.ProjectId,psu-30w,7073752d-3330-4772-9e6b-696361645f70,rev?*
G04 #@! TF.SameCoordinates,Original*
G04 #@! TF.FileFunction,Legend,Top*
G04 #@! TF.FilePolarity,Positive*
%FSLAX46Y46*%
G04 Gerber Fmt 4.6, Leading zero omitted, Abs format (unit mm)*
G04 Created by KiCad (PCBNEW (5.1.0)-1) date 2019-04-05 13:22:55*
%MOMM*%
%LPD*%
G04 APERTURE LIST*
%ADD10C,0.150000*%
%ADD11C,0.100000*%
%ADD12C,0.300000*%
%ADD13C,0.010000*%
%ADD14C,0.120000*%
G04 APERTURE END LIST*
D10*
X104792380Y-125920000D02*
X103792380Y-125920000D01*
X104744761Y-125491428D02*
X104792380Y-125348571D01*
X104792380Y-125110476D01*
X104744761Y-125015238D01*
X104697142Y-124967619D01*
X104601904Y-124920000D01*
X104506666Y-124920000D01*
X104411428Y-124967619D01*
X104363809Y-125015238D01*
X104316190Y-125110476D01*
X104268571Y-125300952D01*
X104220952Y-125396190D01*
X104173333Y-125443809D01*
X104078095Y-125491428D01*
X103982857Y-125491428D01*
X103887619Y-125443809D01*
X103840000Y-125396190D01*
X103792380Y-125300952D01*
X103792380Y-125062857D01*
X103840000Y-124920000D01*
X103792380Y-124300952D02*
X103792380Y-124110476D01*
X103840000Y-124015238D01*
X103935238Y-123920000D01*
X104125714Y-123872380D01*
X104459047Y-123872380D01*
X104649523Y-123920000D01*
X104744761Y-124015238D01*
X104792380Y-124110476D01*
X104792380Y-124300952D01*
X104744761Y-124396190D01*
X104649523Y-124491428D01*
X104459047Y-124539047D01*
X104125714Y-124539047D01*
X103935238Y-124491428D01*
X103840000Y-124396190D01*
X103792380Y-124300952D01*
D11*
G36*
X249120000Y-110950000D02*
G01*
X127200000Y-110950000D01*
X127200000Y-109680000D01*
X249120000Y-109680000D01*
X249120000Y-110950000D01*
G37*
X249120000Y-110950000D02*
X127200000Y-110950000D01*
X127200000Y-109680000D01*
X249120000Y-109680000D01*
X249120000Y-110950000D01*
G36*
X249120000Y-80470000D02*
G01*
X127200000Y-80470000D01*
X127200000Y-79200000D01*
X249120000Y-79200000D01*
X249120000Y-80470000D01*
G37*
X249120000Y-80470000D02*
X127200000Y-80470000D01*
X127200000Y-79200000D01*
X249120000Y-79200000D01*
X249120000Y-80470000D01*
D12*
X115564285Y-108695714D02*
X117850000Y-108695714D01*
X120850000Y-110219523D02*
X119135714Y-110219523D01*
X119992857Y-110219523D02*
X119992857Y-106219523D01*
X119707142Y-106790952D01*
X119421428Y-107171904D01*
X119135714Y-107362380D01*
X121992857Y-106600476D02*
X122135714Y-106410000D01*
X122421428Y-106219523D01*
X123135714Y-106219523D01*
X123421428Y-106410000D01*
X123564285Y-106600476D01*
X123707142Y-106981428D01*
X123707142Y-107362380D01*
X123564285Y-107933809D01*
X121850000Y-110219523D01*
X123707142Y-110219523D01*
X124564285Y-106219523D02*
X125564285Y-110219523D01*
X126564285Y-106219523D01*
D10*
X249120000Y-109680000D02*
X249120000Y-104600000D01*
X127200000Y-109680000D02*
X249120000Y-109680000D01*
X127200000Y-104600000D02*
X127200000Y-109680000D01*
D12*
X115564285Y-78215714D02*
X117850000Y-78215714D01*
X120850000Y-79739523D02*
X119135714Y-79739523D01*
X119992857Y-79739523D02*
X119992857Y-75739523D01*
X119707142Y-76310952D01*
X119421428Y-76691904D01*
X119135714Y-76882380D01*
X121992857Y-76120476D02*
X122135714Y-75930000D01*
X122421428Y-75739523D01*
X123135714Y-75739523D01*
X123421428Y-75930000D01*
X123564285Y-76120476D01*
X123707142Y-76501428D01*
X123707142Y-76882380D01*
X123564285Y-77453809D01*
X121850000Y-79739523D01*
X123707142Y-79739523D01*
X124564285Y-75739523D02*
X125564285Y-79739523D01*
X126564285Y-75739523D01*
D10*
X249120000Y-79200000D02*
X249120000Y-74120000D01*
X127200000Y-79200000D02*
X249120000Y-79200000D01*
X127200000Y-74120000D02*
X127200000Y-79200000D01*
X64756000Y-59792761D02*
X64898857Y-59840380D01*
X65136952Y-59840380D01*
X65232190Y-59792761D01*
X65279809Y-59745142D01*
X65327428Y-59649904D01*
X65327428Y-59554666D01*
X65279809Y-59459428D01*
X65232190Y-59411809D01*
X65136952Y-59364190D01*
X64946476Y-59316571D01*
X64851238Y-59268952D01*
X64803619Y-59221333D01*
X64756000Y-59126095D01*
X64756000Y-59030857D01*
X64803619Y-58935619D01*
X64851238Y-58888000D01*
X64946476Y-58840380D01*
X65184571Y-58840380D01*
X65327428Y-58888000D01*
X65660761Y-58840380D02*
X65898857Y-59840380D01*
X66089333Y-59126095D01*
X66279809Y-59840380D01*
X66517904Y-58840380D01*
X66898857Y-59840380D02*
X66898857Y-58840380D01*
X67232190Y-58840380D02*
X67803619Y-58840380D01*
X67517904Y-59840380D02*
X67517904Y-58840380D01*
X68708380Y-59745142D02*
X68660761Y-59792761D01*
X68517904Y-59840380D01*
X68422666Y-59840380D01*
X68279809Y-59792761D01*
X68184571Y-59697523D01*
X68136952Y-59602285D01*
X68089333Y-59411809D01*
X68089333Y-59268952D01*
X68136952Y-59078476D01*
X68184571Y-58983238D01*
X68279809Y-58888000D01*
X68422666Y-58840380D01*
X68517904Y-58840380D01*
X68660761Y-58888000D01*
X68708380Y-58935619D01*
X69136952Y-59840380D02*
X69136952Y-58840380D01*
X69136952Y-59316571D02*
X69708380Y-59316571D01*
X69708380Y-59840380D02*
X69708380Y-58840380D01*
D12*
X94688571Y-128646571D02*
X94688571Y-127146571D01*
X95260000Y-127146571D01*
X95402857Y-127218000D01*
X95474285Y-127289428D01*
X95545714Y-127432285D01*
X95545714Y-127646571D01*
X95474285Y-127789428D01*
X95402857Y-127860857D01*
X95260000Y-127932285D01*
X94688571Y-127932285D01*
X96045714Y-127146571D02*
X96402857Y-128646571D01*
X96688571Y-127575142D01*
X96974285Y-128646571D01*
X97331428Y-127146571D01*
X98760000Y-128646571D02*
X98260000Y-127932285D01*
X97902857Y-128646571D02*
X97902857Y-127146571D01*
X98474285Y-127146571D01*
X98617142Y-127218000D01*
X98688571Y-127289428D01*
X98760000Y-127432285D01*
X98760000Y-127646571D01*
X98688571Y-127789428D01*
X98617142Y-127860857D01*
X98474285Y-127932285D01*
X97902857Y-127932285D01*
X100474285Y-128575142D02*
X100688571Y-128646571D01*
X101045714Y-128646571D01*
X101188571Y-128575142D01*
X101260000Y-128503714D01*
X101331428Y-128360857D01*
X101331428Y-128218000D01*
X101260000Y-128075142D01*
X101188571Y-128003714D01*
X101045714Y-127932285D01*
X100760000Y-127860857D01*
X100617142Y-127789428D01*
X100545714Y-127718000D01*
X100474285Y-127575142D01*
X100474285Y-127432285D01*
X100545714Y-127289428D01*
X100617142Y-127218000D01*
X100760000Y-127146571D01*
X101117142Y-127146571D01*
X101331428Y-127218000D01*
X101974285Y-127860857D02*
X102474285Y-127860857D01*
X102688571Y-128646571D02*
X101974285Y-128646571D01*
X101974285Y-127146571D01*
X102688571Y-127146571D01*
X104045714Y-128646571D02*
X103331428Y-128646571D01*
X103331428Y-127146571D01*
X99800000Y-60574571D02*
X99800000Y-59074571D01*
X100371428Y-59074571D01*
X100514285Y-59146000D01*
X100585714Y-59217428D01*
X100657142Y-59360285D01*
X100657142Y-59574571D01*
X100585714Y-59717428D01*
X100514285Y-59788857D01*
X100371428Y-59860285D01*
X99800000Y-59860285D01*
X101157142Y-59074571D02*
X101514285Y-60574571D01*
X101800000Y-59503142D01*
X102085714Y-60574571D01*
X102442857Y-59074571D01*
X103871428Y-60574571D02*
X103371428Y-59860285D01*
X103014285Y-60574571D02*
X103014285Y-59074571D01*
X103585714Y-59074571D01*
X103728571Y-59146000D01*
X103800000Y-59217428D01*
X103871428Y-59360285D01*
X103871428Y-59574571D01*
X103800000Y-59717428D01*
X103728571Y-59788857D01*
X103585714Y-59860285D01*
X103014285Y-59860285D01*
X80496000Y-67686571D02*
X80496000Y-66186571D01*
X81067428Y-66186571D01*
X81210285Y-66258000D01*
X81281714Y-66329428D01*
X81353142Y-66472285D01*
X81353142Y-66686571D01*
X81281714Y-66829428D01*
X81210285Y-66900857D01*
X81067428Y-66972285D01*
X80496000Y-66972285D01*
X81853142Y-66186571D02*
X82210285Y-67686571D01*
X82496000Y-66615142D01*
X82781714Y-67686571D01*
X83138857Y-66186571D01*
X84567428Y-67686571D02*
X84067428Y-66972285D01*
X83710285Y-67686571D02*
X83710285Y-66186571D01*
X84281714Y-66186571D01*
X84424571Y-66258000D01*
X84496000Y-66329428D01*
X84567428Y-66472285D01*
X84567428Y-66686571D01*
X84496000Y-66829428D01*
X84424571Y-66900857D01*
X84281714Y-66972285D01*
X83710285Y-66972285D01*
X97139571Y-68460000D02*
X95639571Y-68460000D01*
X97068142Y-67817142D02*
X97139571Y-67674285D01*
X97139571Y-67388571D01*
X97068142Y-67245714D01*
X96925285Y-67174285D01*
X96853857Y-67174285D01*
X96711000Y-67245714D01*
X96639571Y-67388571D01*
X96639571Y-67602857D01*
X96568142Y-67745714D01*
X96425285Y-67817142D01*
X96353857Y-67817142D01*
X96211000Y-67745714D01*
X96139571Y-67602857D01*
X96139571Y-67388571D01*
X96211000Y-67245714D01*
X97139571Y-66317142D02*
X97068142Y-66460000D01*
X96996714Y-66531428D01*
X96853857Y-66602857D01*
X96425285Y-66602857D01*
X96282428Y-66531428D01*
X96211000Y-66460000D01*
X96139571Y-66317142D01*
X96139571Y-66102857D01*
X96211000Y-65960000D01*
X96282428Y-65888571D01*
X96425285Y-65817142D01*
X96853857Y-65817142D01*
X96996714Y-65888571D01*
X97068142Y-65960000D01*
X97139571Y-66102857D01*
X97139571Y-66317142D01*
X97139571Y-64960000D02*
X97068142Y-65102857D01*
X96925285Y-65174285D01*
X95639571Y-65174285D01*
X97139571Y-63745714D02*
X96353857Y-63745714D01*
X96211000Y-63817142D01*
X96139571Y-63960000D01*
X96139571Y-64245714D01*
X96211000Y-64388571D01*
X97068142Y-63745714D02*
X97139571Y-63888571D01*
X97139571Y-64245714D01*
X97068142Y-64388571D01*
X96925285Y-64460000D01*
X96782428Y-64460000D01*
X96639571Y-64388571D01*
X96568142Y-64245714D01*
X96568142Y-63888571D01*
X96496714Y-63745714D01*
X96139571Y-63245714D02*
X96139571Y-62674285D01*
X95639571Y-63031428D02*
X96925285Y-63031428D01*
X97068142Y-62960000D01*
X97139571Y-62817142D01*
X97139571Y-62674285D01*
X97139571Y-62174285D02*
X96139571Y-62174285D01*
X95639571Y-62174285D02*
X95711000Y-62245714D01*
X95782428Y-62174285D01*
X95711000Y-62102857D01*
X95639571Y-62174285D01*
X95782428Y-62174285D01*
X97139571Y-61245714D02*
X97068142Y-61388571D01*
X96996714Y-61460000D01*
X96853857Y-61531428D01*
X96425285Y-61531428D01*
X96282428Y-61460000D01*
X96211000Y-61388571D01*
X96139571Y-61245714D01*
X96139571Y-61031428D01*
X96211000Y-60888571D01*
X96282428Y-60817142D01*
X96425285Y-60745714D01*
X96853857Y-60745714D01*
X96996714Y-60817142D01*
X97068142Y-60888571D01*
X97139571Y-61031428D01*
X97139571Y-61245714D01*
X96139571Y-60102857D02*
X97139571Y-60102857D01*
X96282428Y-60102857D02*
X96211000Y-60031428D01*
X96139571Y-59888571D01*
X96139571Y-59674285D01*
X96211000Y-59531428D01*
X96353857Y-59460000D01*
X97139571Y-59460000D01*
X98189571Y-66102857D02*
X98189571Y-65817142D01*
X98261000Y-65674285D01*
X98403857Y-65531428D01*
X98689571Y-65460000D01*
X99189571Y-65460000D01*
X99475285Y-65531428D01*
X99618142Y-65674285D01*
X99689571Y-65817142D01*
X99689571Y-66102857D01*
X99618142Y-66245714D01*
X99475285Y-66388571D01*
X99189571Y-66460000D01*
X98689571Y-66460000D01*
X98403857Y-66388571D01*
X98261000Y-66245714D01*
X98189571Y-66102857D01*
X98689571Y-64817142D02*
X100189571Y-64817142D01*
X98761000Y-64817142D02*
X98689571Y-64674285D01*
X98689571Y-64388571D01*
X98761000Y-64245714D01*
X98832428Y-64174285D01*
X98975285Y-64102857D01*
X99403857Y-64102857D01*
X99546714Y-64174285D01*
X99618142Y-64245714D01*
X99689571Y-64388571D01*
X99689571Y-64674285D01*
X99618142Y-64817142D01*
X99618142Y-62888571D02*
X99689571Y-63031428D01*
X99689571Y-63317142D01*
X99618142Y-63460000D01*
X99475285Y-63531428D01*
X98903857Y-63531428D01*
X98761000Y-63460000D01*
X98689571Y-63317142D01*
X98689571Y-63031428D01*
X98761000Y-62888571D01*
X98903857Y-62817142D01*
X99046714Y-62817142D01*
X99189571Y-63531428D01*
X98689571Y-62174285D02*
X99689571Y-62174285D01*
X98832428Y-62174285D02*
X98761000Y-62102857D01*
X98689571Y-61960000D01*
X98689571Y-61745714D01*
X98761000Y-61602857D01*
X98903857Y-61531428D01*
X99689571Y-61531428D01*
X168357142Y-115107142D02*
X169500000Y-115107142D01*
X168928571Y-115678571D02*
X168928571Y-114535714D01*
X171000000Y-115678571D02*
X170142857Y-115678571D01*
X170571428Y-115678571D02*
X170571428Y-114178571D01*
X170428571Y-114392857D01*
X170285714Y-114535714D01*
X170142857Y-114607142D01*
X171571428Y-114321428D02*
X171642857Y-114250000D01*
X171785714Y-114178571D01*
X172142857Y-114178571D01*
X172285714Y-114250000D01*
X172357142Y-114321428D01*
X172428571Y-114464285D01*
X172428571Y-114607142D01*
X172357142Y-114821428D01*
X171500000Y-115678571D01*
X172428571Y-115678571D01*
X172857142Y-114178571D02*
X173357142Y-115678571D01*
X173857142Y-114178571D01*
X161714285Y-114178571D02*
X161000000Y-114178571D01*
X160928571Y-114892857D01*
X161000000Y-114821428D01*
X161142857Y-114750000D01*
X161500000Y-114750000D01*
X161642857Y-114821428D01*
X161714285Y-114892857D01*
X161785714Y-115035714D01*
X161785714Y-115392857D01*
X161714285Y-115535714D01*
X161642857Y-115607142D01*
X161500000Y-115678571D01*
X161142857Y-115678571D01*
X161000000Y-115607142D01*
X160928571Y-115535714D01*
X162214285Y-114178571D02*
X162714285Y-115678571D01*
X163214285Y-114178571D01*
X149052142Y-115107142D02*
X150195000Y-115107142D01*
X151695000Y-115678571D02*
X150837857Y-115678571D01*
X151266428Y-115678571D02*
X151266428Y-114178571D01*
X151123571Y-114392857D01*
X150980714Y-114535714D01*
X150837857Y-114607142D01*
X152266428Y-114321428D02*
X152337857Y-114250000D01*
X152480714Y-114178571D01*
X152837857Y-114178571D01*
X152980714Y-114250000D01*
X153052142Y-114321428D01*
X153123571Y-114464285D01*
X153123571Y-114607142D01*
X153052142Y-114821428D01*
X152195000Y-115678571D01*
X153123571Y-115678571D01*
X153552142Y-114178571D02*
X154052142Y-115678571D01*
X154552142Y-114178571D01*
D13*
G36*
X228117021Y-124004383D02*
G01*
X228229815Y-124022403D01*
X228324532Y-124057240D01*
X228412820Y-124112824D01*
X228481708Y-124170387D01*
X228570985Y-124251043D01*
X228561764Y-124844813D01*
X228558092Y-125027161D01*
X228553185Y-125187138D01*
X228547259Y-125320398D01*
X228540531Y-125422597D01*
X228533215Y-125489388D01*
X228528682Y-125510515D01*
X228464039Y-125640447D01*
X228365156Y-125746790D01*
X228234234Y-125827495D01*
X228154416Y-125858587D01*
X228057401Y-125881043D01*
X227933181Y-125896657D01*
X227796469Y-125904510D01*
X227661977Y-125903682D01*
X227561750Y-125895639D01*
X227479100Y-125880486D01*
X227402494Y-125858762D01*
X227365289Y-125843378D01*
X227295828Y-125807221D01*
X227350151Y-125718152D01*
X227385851Y-125659517D01*
X227414151Y-125612856D01*
X227422236Y-125599441D01*
X227440936Y-125582739D01*
X227475683Y-125581315D01*
X227536704Y-125594149D01*
X227636432Y-125611360D01*
X227749266Y-125618545D01*
X227861821Y-125616045D01*
X227960712Y-125604200D01*
X228032554Y-125583351D01*
X228036495Y-125581426D01*
X228125629Y-125513658D01*
X228183004Y-125420085D01*
X228195604Y-125378260D01*
X228209201Y-125317937D01*
X228097142Y-125335927D01*
X227901911Y-125351530D01*
X227728087Y-125331806D01*
X227578513Y-125279053D01*
X227443331Y-125194529D01*
X227343008Y-125089560D01*
X227276243Y-124961693D01*
X227241735Y-124808473D01*
X227239477Y-124711596D01*
X227593500Y-124711596D01*
X227610019Y-124802132D01*
X227653340Y-124897393D01*
X227714100Y-124980089D01*
X227760671Y-125020371D01*
X227844400Y-125055127D01*
X227948721Y-125068563D01*
X228057225Y-125059925D01*
X228133929Y-125037497D01*
X228207333Y-125006827D01*
X228207333Y-124682755D01*
X228207016Y-124552031D01*
X228204275Y-124457258D01*
X228196425Y-124392055D01*
X228180779Y-124350042D01*
X228154652Y-124324838D01*
X228115358Y-124310062D01*
X228060211Y-124299333D01*
X228044861Y-124296743D01*
X227920526Y-124294942D01*
X227809174Y-124330081D01*
X227715859Y-124397515D01*
X227645634Y-124492600D01*
X227603553Y-124610692D01*
X227593500Y-124711596D01*
X227239477Y-124711596D01*
X227237713Y-124635922D01*
X227263320Y-124466510D01*
X227321969Y-124322639D01*
X227415211Y-124202038D01*
X227544596Y-124102438D01*
X227634867Y-124054307D01*
X227694702Y-124028637D01*
X227750255Y-124012362D01*
X227814214Y-124003425D01*
X227899264Y-123999769D01*
X227974500Y-123999250D01*
X228117021Y-124004383D01*
X228117021Y-124004383D01*
G37*
X228117021Y-124004383D02*
X228229815Y-124022403D01*
X228324532Y-124057240D01*
X228412820Y-124112824D01*
X228481708Y-124170387D01*
X228570985Y-124251043D01*
X228561764Y-124844813D01*
X228558092Y-125027161D01*
X228553185Y-125187138D01*
X228547259Y-125320398D01*
X228540531Y-125422597D01*
X228533215Y-125489388D01*
X228528682Y-125510515D01*
X228464039Y-125640447D01*
X228365156Y-125746790D01*
X228234234Y-125827495D01*
X228154416Y-125858587D01*
X228057401Y-125881043D01*
X227933181Y-125896657D01*
X227796469Y-125904510D01*
X227661977Y-125903682D01*
X227561750Y-125895639D01*
X227479100Y-125880486D01*
X227402494Y-125858762D01*
X227365289Y-125843378D01*
X227295828Y-125807221D01*
X227350151Y-125718152D01*
X227385851Y-125659517D01*
X227414151Y-125612856D01*
X227422236Y-125599441D01*
X227440936Y-125582739D01*
X227475683Y-125581315D01*
X227536704Y-125594149D01*
X227636432Y-125611360D01*
X227749266Y-125618545D01*
X227861821Y-125616045D01*
X227960712Y-125604200D01*
X228032554Y-125583351D01*
X228036495Y-125581426D01*
X228125629Y-125513658D01*
X228183004Y-125420085D01*
X228195604Y-125378260D01*
X228209201Y-125317937D01*
X228097142Y-125335927D01*
X227901911Y-125351530D01*
X227728087Y-125331806D01*
X227578513Y-125279053D01*
X227443331Y-125194529D01*
X227343008Y-125089560D01*
X227276243Y-124961693D01*
X227241735Y-124808473D01*
X227239477Y-124711596D01*
X227593500Y-124711596D01*
X227610019Y-124802132D01*
X227653340Y-124897393D01*
X227714100Y-124980089D01*
X227760671Y-125020371D01*
X227844400Y-125055127D01*
X227948721Y-125068563D01*
X228057225Y-125059925D01*
X228133929Y-125037497D01*
X228207333Y-125006827D01*
X228207333Y-124682755D01*
X228207016Y-124552031D01*
X228204275Y-124457258D01*
X228196425Y-124392055D01*
X228180779Y-124350042D01*
X228154652Y-124324838D01*
X228115358Y-124310062D01*
X228060211Y-124299333D01*
X228044861Y-124296743D01*
X227920526Y-124294942D01*
X227809174Y-124330081D01*
X227715859Y-124397515D01*
X227645634Y-124492600D01*
X227603553Y-124610692D01*
X227593500Y-124711596D01*
X227239477Y-124711596D01*
X227237713Y-124635922D01*
X227263320Y-124466510D01*
X227321969Y-124322639D01*
X227415211Y-124202038D01*
X227544596Y-124102438D01*
X227634867Y-124054307D01*
X227694702Y-124028637D01*
X227750255Y-124012362D01*
X227814214Y-124003425D01*
X227899264Y-123999769D01*
X227974500Y-123999250D01*
X228117021Y-124004383D01*
G36*
X203548166Y-125449167D02*
G01*
X203146000Y-125449167D01*
X203146000Y-125068167D01*
X203548166Y-125068167D01*
X203548166Y-125449167D01*
X203548166Y-125449167D01*
G37*
X203548166Y-125449167D02*
X203146000Y-125449167D01*
X203146000Y-125068167D01*
X203548166Y-125068167D01*
X203548166Y-125449167D01*
G36*
X232991000Y-125449167D02*
G01*
X232588833Y-125449167D01*
X232588833Y-125068167D01*
X232991000Y-125068167D01*
X232991000Y-125449167D01*
X232991000Y-125449167D01*
G37*
X232991000Y-125449167D02*
X232588833Y-125449167D01*
X232588833Y-125068167D01*
X232991000Y-125068167D01*
X232991000Y-125449167D01*
G36*
X204728387Y-123982857D02*
G01*
X204804630Y-123992571D01*
X204874085Y-124012834D01*
X204939567Y-124040243D01*
X205030111Y-124083531D01*
X205083680Y-124117860D01*
X205102904Y-124149231D01*
X205090411Y-124183641D01*
X205048831Y-124227090D01*
X205029089Y-124244508D01*
X204958340Y-124302144D01*
X204906371Y-124332101D01*
X204862598Y-124337191D01*
X204816435Y-124320226D01*
X204793585Y-124307076D01*
X204690804Y-124267636D01*
X204580457Y-124264472D01*
X204472524Y-124295333D01*
X204376985Y-124357970D01*
X204328188Y-124412000D01*
X204289920Y-124492164D01*
X204267090Y-124598350D01*
X204259860Y-124717099D01*
X204268392Y-124834953D01*
X204292849Y-124938452D01*
X204321133Y-124997640D01*
X204388347Y-125066237D01*
X204483611Y-125118184D01*
X204580251Y-125144182D01*
X204645809Y-125148371D01*
X204705726Y-125135639D01*
X204778586Y-125102507D01*
X204885373Y-125047104D01*
X205010520Y-125145424D01*
X205070386Y-125193028D01*
X205114650Y-125229311D01*
X205135135Y-125247547D01*
X205135666Y-125248393D01*
X205118208Y-125266283D01*
X205073286Y-125295330D01*
X205012075Y-125329404D01*
X204945753Y-125362372D01*
X204885497Y-125388103D01*
X204872604Y-125392716D01*
X204770892Y-125415112D01*
X204647065Y-125424799D01*
X204519536Y-125421289D01*
X204410379Y-125404970D01*
X204261824Y-125349305D01*
X204128580Y-125255214D01*
X204084926Y-125212789D01*
X204010426Y-125126136D01*
X203960509Y-125042454D01*
X203926888Y-124945086D01*
X203908196Y-124857585D01*
X203895004Y-124677581D01*
X203920383Y-124507589D01*
X203981975Y-124352294D01*
X204077419Y-124216382D01*
X204204356Y-124104539D01*
X204320750Y-124038376D01*
X204395302Y-124007584D01*
X204463089Y-123989825D01*
X204541346Y-123981837D01*
X204627666Y-123980292D01*
X204728387Y-123982857D01*
X204728387Y-123982857D01*
G37*
X204728387Y-123982857D02*
X204804630Y-123992571D01*
X204874085Y-124012834D01*
X204939567Y-124040243D01*
X205030111Y-124083531D01*
X205083680Y-124117860D01*
X205102904Y-124149231D01*
X205090411Y-124183641D01*
X205048831Y-124227090D01*
X205029089Y-124244508D01*
X204958340Y-124302144D01*
X204906371Y-124332101D01*
X204862598Y-124337191D01*
X204816435Y-124320226D01*
X204793585Y-124307076D01*
X204690804Y-124267636D01*
X204580457Y-124264472D01*
X204472524Y-124295333D01*
X204376985Y-124357970D01*
X204328188Y-124412000D01*
X204289920Y-124492164D01*
X204267090Y-124598350D01*
X204259860Y-124717099D01*
X204268392Y-124834953D01*
X204292849Y-124938452D01*
X204321133Y-124997640D01*
X204388347Y-125066237D01*
X204483611Y-125118184D01*
X204580251Y-125144182D01*
X204645809Y-125148371D01*
X204705726Y-125135639D01*
X204778586Y-125102507D01*
X204885373Y-125047104D01*
X205010520Y-125145424D01*
X205070386Y-125193028D01*
X205114650Y-125229311D01*
X205135135Y-125247547D01*
X205135666Y-125248393D01*
X205118208Y-125266283D01*
X205073286Y-125295330D01*
X205012075Y-125329404D01*
X204945753Y-125362372D01*
X204885497Y-125388103D01*
X204872604Y-125392716D01*
X204770892Y-125415112D01*
X204647065Y-125424799D01*
X204519536Y-125421289D01*
X204410379Y-125404970D01*
X204261824Y-125349305D01*
X204128580Y-125255214D01*
X204084926Y-125212789D01*
X204010426Y-125126136D01*
X203960509Y-125042454D01*
X203926888Y-124945086D01*
X203908196Y-124857585D01*
X203895004Y-124677581D01*
X203920383Y-124507589D01*
X203981975Y-124352294D01*
X204077419Y-124216382D01*
X204204356Y-124104539D01*
X204320750Y-124038376D01*
X204395302Y-124007584D01*
X204463089Y-123989825D01*
X204541346Y-123981837D01*
X204627666Y-123980292D01*
X204728387Y-123982857D01*
G36*
X207348891Y-124012686D02*
G01*
X207373155Y-124020974D01*
X207504134Y-124092943D01*
X207613209Y-124198016D01*
X207697282Y-124331370D01*
X207753254Y-124488181D01*
X207777331Y-124650125D01*
X207786939Y-124814167D01*
X207307969Y-124814167D01*
X207153834Y-124814290D01*
X207036899Y-124814967D01*
X206952030Y-124816662D01*
X206894094Y-124819837D01*
X206857956Y-124824955D01*
X206838484Y-124832479D01*
X206830543Y-124842871D01*
X206829001Y-124856594D01*
X206829000Y-124857343D01*
X206838389Y-124902442D01*
X206861926Y-124963747D01*
X206872580Y-124985945D01*
X206922752Y-125056017D01*
X206992778Y-125101587D01*
X207089488Y-125125719D01*
X207197112Y-125131667D01*
X207278215Y-125128956D01*
X207332785Y-125117986D01*
X207376432Y-125094499D01*
X207399269Y-125076538D01*
X207464786Y-125021409D01*
X207533184Y-125075170D01*
X207596121Y-125125266D01*
X207657986Y-125175422D01*
X207663091Y-125179621D01*
X207724600Y-125230311D01*
X207651369Y-125286168D01*
X207561333Y-125345542D01*
X207468031Y-125384993D01*
X207359033Y-125408280D01*
X207221909Y-125419159D01*
X207210000Y-125419584D01*
X207114112Y-125420799D01*
X207027431Y-125418386D01*
X206963420Y-125412861D01*
X206945416Y-125409449D01*
X206806439Y-125352702D01*
X206681091Y-125263660D01*
X206578261Y-125150509D01*
X206506840Y-125021432D01*
X206498191Y-124997693D01*
X206469995Y-124867555D01*
X206462243Y-124718813D01*
X206473605Y-124581334D01*
X206826147Y-124581334D01*
X207443639Y-124581334D01*
X207430277Y-124523125D01*
X207388611Y-124416551D01*
X207323478Y-124337485D01*
X207242203Y-124287645D01*
X207152110Y-124268746D01*
X207060523Y-124282505D01*
X206974766Y-124330638D01*
X206910867Y-124401417D01*
X206873300Y-124462502D01*
X206845827Y-124517276D01*
X206839821Y-124533709D01*
X206826147Y-124581334D01*
X206473605Y-124581334D01*
X206474565Y-124569725D01*
X206506590Y-124438547D01*
X206509733Y-124430053D01*
X206579936Y-124295750D01*
X206678889Y-124175588D01*
X206796021Y-124081577D01*
X206836972Y-124058283D01*
X206954899Y-124015122D01*
X207090326Y-123992384D01*
X207227057Y-123991196D01*
X207348891Y-124012686D01*
X207348891Y-124012686D01*
G37*
X207348891Y-124012686D02*
X207373155Y-124020974D01*
X207504134Y-124092943D01*
X207613209Y-124198016D01*
X207697282Y-124331370D01*
X207753254Y-124488181D01*
X207777331Y-124650125D01*
X207786939Y-124814167D01*
X207307969Y-124814167D01*
X207153834Y-124814290D01*
X207036899Y-124814967D01*
X206952030Y-124816662D01*
X206894094Y-124819837D01*
X206857956Y-124824955D01*
X206838484Y-124832479D01*
X206830543Y-124842871D01*
X206829001Y-124856594D01*
X206829000Y-124857343D01*
X206838389Y-124902442D01*
X206861926Y-124963747D01*
X206872580Y-124985945D01*
X206922752Y-125056017D01*
X206992778Y-125101587D01*
X207089488Y-125125719D01*
X207197112Y-125131667D01*
X207278215Y-125128956D01*
X207332785Y-125117986D01*
X207376432Y-125094499D01*
X207399269Y-125076538D01*
X207464786Y-125021409D01*
X207533184Y-125075170D01*
X207596121Y-125125266D01*
X207657986Y-125175422D01*
X207663091Y-125179621D01*
X207724600Y-125230311D01*
X207651369Y-125286168D01*
X207561333Y-125345542D01*
X207468031Y-125384993D01*
X207359033Y-125408280D01*
X207221909Y-125419159D01*
X207210000Y-125419584D01*
X207114112Y-125420799D01*
X207027431Y-125418386D01*
X206963420Y-125412861D01*
X206945416Y-125409449D01*
X206806439Y-125352702D01*
X206681091Y-125263660D01*
X206578261Y-125150509D01*
X206506840Y-125021432D01*
X206498191Y-124997693D01*
X206469995Y-124867555D01*
X206462243Y-124718813D01*
X206473605Y-124581334D01*
X206826147Y-124581334D01*
X207443639Y-124581334D01*
X207430277Y-124523125D01*
X207388611Y-124416551D01*
X207323478Y-124337485D01*
X207242203Y-124287645D01*
X207152110Y-124268746D01*
X207060523Y-124282505D01*
X206974766Y-124330638D01*
X206910867Y-124401417D01*
X206873300Y-124462502D01*
X206845827Y-124517276D01*
X206839821Y-124533709D01*
X206826147Y-124581334D01*
X206473605Y-124581334D01*
X206474565Y-124569725D01*
X206506590Y-124438547D01*
X206509733Y-124430053D01*
X206579936Y-124295750D01*
X206678889Y-124175588D01*
X206796021Y-124081577D01*
X206836972Y-124058283D01*
X206954899Y-124015122D01*
X207090326Y-123992384D01*
X207227057Y-123991196D01*
X207348891Y-124012686D01*
G36*
X208804056Y-123995257D02*
G01*
X208946838Y-124028307D01*
X209060216Y-124085783D01*
X209147894Y-124169443D01*
X209202791Y-124257966D01*
X209219471Y-124294202D01*
X209232109Y-124330437D01*
X209241388Y-124373287D01*
X209247995Y-124429372D01*
X209252613Y-124505308D01*
X209255929Y-124607715D01*
X209258626Y-124743210D01*
X209259677Y-124807605D01*
X209266771Y-125256127D01*
X209162916Y-125308754D01*
X208974383Y-125381701D01*
X208768716Y-125420102D01*
X208635694Y-125425545D01*
X208550538Y-125423187D01*
X208477771Y-125419205D01*
X208431237Y-125414392D01*
X208427083Y-125413582D01*
X208308362Y-125378862D01*
X208217200Y-125331962D01*
X208170186Y-125295617D01*
X208092345Y-125212094D01*
X208047187Y-125121479D01*
X208028954Y-125010570D01*
X208027960Y-124972917D01*
X208395333Y-124972917D01*
X208412258Y-125050425D01*
X208462728Y-125102158D01*
X208518521Y-125122903D01*
X208568421Y-125135101D01*
X208596416Y-125143617D01*
X208630815Y-125146711D01*
X208691147Y-125144361D01*
X208761576Y-125138003D01*
X208826263Y-125129071D01*
X208869372Y-125119001D01*
X208869782Y-125118846D01*
X208889811Y-125091132D01*
X208901978Y-125035486D01*
X208906278Y-124965572D01*
X208902709Y-124895049D01*
X208891268Y-124837581D01*
X208871952Y-124806829D01*
X208869852Y-124805848D01*
X208816538Y-124796077D01*
X208737907Y-124793486D01*
X208650279Y-124797620D01*
X208569975Y-124808023D01*
X208538922Y-124815083D01*
X208456911Y-124848744D01*
X208410884Y-124897154D01*
X208395413Y-124966280D01*
X208395333Y-124972917D01*
X208027960Y-124972917D01*
X208027866Y-124969372D01*
X208031726Y-124884251D01*
X208047312Y-124821051D01*
X208079916Y-124759853D01*
X208085990Y-124750536D01*
X208162664Y-124669896D01*
X208272060Y-124604142D01*
X208406387Y-124555882D01*
X208557855Y-124527721D01*
X208718671Y-124522268D01*
X208760458Y-124524843D01*
X208836015Y-124530310D01*
X208878752Y-124529448D01*
X208898013Y-124519705D01*
X208903144Y-124498532D01*
X208903333Y-124485848D01*
X208885851Y-124399394D01*
X208838575Y-124329569D01*
X208802426Y-124303201D01*
X208724696Y-124279502D01*
X208626163Y-124273587D01*
X208523994Y-124284523D01*
X208435359Y-124311380D01*
X208410588Y-124324446D01*
X208330694Y-124373823D01*
X208262472Y-124320196D01*
X208199237Y-124269857D01*
X208136815Y-124219248D01*
X208131980Y-124215273D01*
X208069711Y-124163976D01*
X208153147Y-124108894D01*
X208259056Y-124048892D01*
X208367543Y-124010511D01*
X208491741Y-123990322D01*
X208628166Y-123984872D01*
X208804056Y-123995257D01*
X208804056Y-123995257D01*
G37*
X208804056Y-123995257D02*
X208946838Y-124028307D01*
X209060216Y-124085783D01*
X209147894Y-124169443D01*
X209202791Y-124257966D01*
X209219471Y-124294202D01*
X209232109Y-124330437D01*
X209241388Y-124373287D01*
X209247995Y-124429372D01*
X209252613Y-124505308D01*
X209255929Y-124607715D01*
X209258626Y-124743210D01*
X209259677Y-124807605D01*
X209266771Y-125256127D01*
X209162916Y-125308754D01*
X208974383Y-125381701D01*
X208768716Y-125420102D01*
X208635694Y-125425545D01*
X208550538Y-125423187D01*
X208477771Y-125419205D01*
X208431237Y-125414392D01*
X208427083Y-125413582D01*
X208308362Y-125378862D01*
X208217200Y-125331962D01*
X208170186Y-125295617D01*
X208092345Y-125212094D01*
X208047187Y-125121479D01*
X208028954Y-125010570D01*
X208027960Y-124972917D01*
X208395333Y-124972917D01*
X208412258Y-125050425D01*
X208462728Y-125102158D01*
X208518521Y-125122903D01*
X208568421Y-125135101D01*
X208596416Y-125143617D01*
X208630815Y-125146711D01*
X208691147Y-125144361D01*
X208761576Y-125138003D01*
X208826263Y-125129071D01*
X208869372Y-125119001D01*
X208869782Y-125118846D01*
X208889811Y-125091132D01*
X208901978Y-125035486D01*
X208906278Y-124965572D01*
X208902709Y-124895049D01*
X208891268Y-124837581D01*
X208871952Y-124806829D01*
X208869852Y-124805848D01*
X208816538Y-124796077D01*
X208737907Y-124793486D01*
X208650279Y-124797620D01*
X208569975Y-124808023D01*
X208538922Y-124815083D01*
X208456911Y-124848744D01*
X208410884Y-124897154D01*
X208395413Y-124966280D01*
X208395333Y-124972917D01*
X208027960Y-124972917D01*
X208027866Y-124969372D01*
X208031726Y-124884251D01*
X208047312Y-124821051D01*
X208079916Y-124759853D01*
X208085990Y-124750536D01*
X208162664Y-124669896D01*
X208272060Y-124604142D01*
X208406387Y-124555882D01*
X208557855Y-124527721D01*
X208718671Y-124522268D01*
X208760458Y-124524843D01*
X208836015Y-124530310D01*
X208878752Y-124529448D01*
X208898013Y-124519705D01*
X208903144Y-124498532D01*
X208903333Y-124485848D01*
X208885851Y-124399394D01*
X208838575Y-124329569D01*
X208802426Y-124303201D01*
X208724696Y-124279502D01*
X208626163Y-124273587D01*
X208523994Y-124284523D01*
X208435359Y-124311380D01*
X208410588Y-124324446D01*
X208330694Y-124373823D01*
X208262472Y-124320196D01*
X208199237Y-124269857D01*
X208136815Y-124219248D01*
X208131980Y-124215273D01*
X208069711Y-124163976D01*
X208153147Y-124108894D01*
X208259056Y-124048892D01*
X208367543Y-124010511D01*
X208491741Y-123990322D01*
X208628166Y-123984872D01*
X208804056Y-123995257D01*
G36*
X209994206Y-123584600D02*
G01*
X210000401Y-123618173D01*
X210003260Y-123679459D01*
X210003996Y-123775445D01*
X210004000Y-123786157D01*
X210004000Y-124009834D01*
X210596666Y-124009834D01*
X210596666Y-124285000D01*
X210004000Y-124285000D01*
X210004000Y-124629540D01*
X210004834Y-124771253D01*
X210008522Y-124877209D01*
X210016838Y-124953973D01*
X210031557Y-125008108D01*
X210054454Y-125046177D01*
X210087304Y-125074744D01*
X210131233Y-125100038D01*
X210201789Y-125124734D01*
X210285357Y-125129196D01*
X210391679Y-125113383D01*
X210453077Y-125098731D01*
X210520308Y-125082508D01*
X210568719Y-125073086D01*
X210586479Y-125072272D01*
X210594698Y-125094552D01*
X210609771Y-125146031D01*
X210625650Y-125205009D01*
X210642218Y-125272333D01*
X210645419Y-125316575D01*
X210629033Y-125345137D01*
X210586838Y-125365424D01*
X210512613Y-125384841D01*
X210465488Y-125395637D01*
X210268112Y-125422772D01*
X210076217Y-125414779D01*
X210064596Y-125413070D01*
X209978667Y-125384599D01*
X209884811Y-125329548D01*
X209796713Y-125257736D01*
X209728061Y-125178983D01*
X209719010Y-125165127D01*
X209654750Y-125061005D01*
X209648420Y-124346829D01*
X209642091Y-123632653D01*
X209701337Y-123620884D01*
X209762719Y-123609634D01*
X209835445Y-123597498D01*
X209845250Y-123595959D01*
X209909302Y-123584940D01*
X209959959Y-123574433D01*
X209966958Y-123572642D01*
X209983462Y-123571753D01*
X209994206Y-123584600D01*
X209994206Y-123584600D01*
G37*
X209994206Y-123584600D02*
X210000401Y-123618173D01*
X210003260Y-123679459D01*
X210003996Y-123775445D01*
X210004000Y-123786157D01*
X210004000Y-124009834D01*
X210596666Y-124009834D01*
X210596666Y-124285000D01*
X210004000Y-124285000D01*
X210004000Y-124629540D01*
X210004834Y-124771253D01*
X210008522Y-124877209D01*
X210016838Y-124953973D01*
X210031557Y-125008108D01*
X210054454Y-125046177D01*
X210087304Y-125074744D01*
X210131233Y-125100038D01*
X210201789Y-125124734D01*
X210285357Y-125129196D01*
X210391679Y-125113383D01*
X210453077Y-125098731D01*
X210520308Y-125082508D01*
X210568719Y-125073086D01*
X210586479Y-125072272D01*
X210594698Y-125094552D01*
X210609771Y-125146031D01*
X210625650Y-125205009D01*
X210642218Y-125272333D01*
X210645419Y-125316575D01*
X210629033Y-125345137D01*
X210586838Y-125365424D01*
X210512613Y-125384841D01*
X210465488Y-125395637D01*
X210268112Y-125422772D01*
X210076217Y-125414779D01*
X210064596Y-125413070D01*
X209978667Y-125384599D01*
X209884811Y-125329548D01*
X209796713Y-125257736D01*
X209728061Y-125178983D01*
X209719010Y-125165127D01*
X209654750Y-125061005D01*
X209648420Y-124346829D01*
X209642091Y-123632653D01*
X209701337Y-123620884D01*
X209762719Y-123609634D01*
X209835445Y-123597498D01*
X209845250Y-123595959D01*
X209909302Y-123584940D01*
X209959959Y-123574433D01*
X209966958Y-123572642D01*
X209983462Y-123571753D01*
X209994206Y-123584600D01*
G36*
X213845055Y-124006562D02*
G01*
X213981710Y-124056274D01*
X214095333Y-124140417D01*
X214188787Y-124260674D01*
X214211504Y-124300623D01*
X214259311Y-124414733D01*
X214296549Y-124550435D01*
X214318282Y-124687366D01*
X214321840Y-124755959D01*
X214322000Y-124814167D01*
X213347526Y-124814167D01*
X213361096Y-124872375D01*
X213401647Y-124985451D01*
X213464596Y-125064442D01*
X213553525Y-125112070D01*
X213672018Y-125131061D01*
X213702105Y-125131667D01*
X213809844Y-125125469D01*
X213886990Y-125104616D01*
X213943756Y-125065723D01*
X213962166Y-125045439D01*
X213979815Y-125027986D01*
X213999354Y-125025586D01*
X214028675Y-125042039D01*
X214075668Y-125081142D01*
X214120916Y-125121855D01*
X214183076Y-125179152D01*
X214217894Y-125215706D01*
X214229595Y-125238986D01*
X214222404Y-125256457D01*
X214205583Y-125271517D01*
X214163212Y-125299316D01*
X214098610Y-125334818D01*
X214048050Y-125359745D01*
X213935764Y-125397109D01*
X213800232Y-125419361D01*
X213657243Y-125425703D01*
X213522584Y-125415340D01*
X213422253Y-125391320D01*
X213274013Y-125317666D01*
X213155487Y-125214824D01*
X213067977Y-125084991D01*
X213012786Y-124930364D01*
X212991218Y-124753139D01*
X212992783Y-124667380D01*
X213010202Y-124559487D01*
X213369500Y-124559487D01*
X213390234Y-124568992D01*
X213450849Y-124575915D01*
X213548956Y-124580083D01*
X213668479Y-124581334D01*
X213967458Y-124581334D01*
X213953984Y-124512542D01*
X213917269Y-124418353D01*
X213852811Y-124341771D01*
X213770002Y-124289819D01*
X213678231Y-124269520D01*
X213633785Y-124273076D01*
X213553834Y-124304599D01*
X213477664Y-124362449D01*
X213415336Y-124435726D01*
X213376909Y-124513527D01*
X213369500Y-124559487D01*
X213010202Y-124559487D01*
X213021360Y-124490378D01*
X213083237Y-124334861D01*
X213175048Y-124204137D01*
X213293426Y-124101513D01*
X213435006Y-124030298D01*
X213596421Y-123993800D01*
X213682502Y-123989596D01*
X213845055Y-124006562D01*
X213845055Y-124006562D01*
G37*
X213845055Y-124006562D02*
X213981710Y-124056274D01*
X214095333Y-124140417D01*
X214188787Y-124260674D01*
X214211504Y-124300623D01*
X214259311Y-124414733D01*
X214296549Y-124550435D01*
X214318282Y-124687366D01*
X214321840Y-124755959D01*
X214322000Y-124814167D01*
X213347526Y-124814167D01*
X213361096Y-124872375D01*
X213401647Y-124985451D01*
X213464596Y-125064442D01*
X213553525Y-125112070D01*
X213672018Y-125131061D01*
X213702105Y-125131667D01*
X213809844Y-125125469D01*
X213886990Y-125104616D01*
X213943756Y-125065723D01*
X213962166Y-125045439D01*
X213979815Y-125027986D01*
X213999354Y-125025586D01*
X214028675Y-125042039D01*
X214075668Y-125081142D01*
X214120916Y-125121855D01*
X214183076Y-125179152D01*
X214217894Y-125215706D01*
X214229595Y-125238986D01*
X214222404Y-125256457D01*
X214205583Y-125271517D01*
X214163212Y-125299316D01*
X214098610Y-125334818D01*
X214048050Y-125359745D01*
X213935764Y-125397109D01*
X213800232Y-125419361D01*
X213657243Y-125425703D01*
X213522584Y-125415340D01*
X213422253Y-125391320D01*
X213274013Y-125317666D01*
X213155487Y-125214824D01*
X213067977Y-125084991D01*
X213012786Y-124930364D01*
X212991218Y-124753139D01*
X212992783Y-124667380D01*
X213010202Y-124559487D01*
X213369500Y-124559487D01*
X213390234Y-124568992D01*
X213450849Y-124575915D01*
X213548956Y-124580083D01*
X213668479Y-124581334D01*
X213967458Y-124581334D01*
X213953984Y-124512542D01*
X213917269Y-124418353D01*
X213852811Y-124341771D01*
X213770002Y-124289819D01*
X213678231Y-124269520D01*
X213633785Y-124273076D01*
X213553834Y-124304599D01*
X213477664Y-124362449D01*
X213415336Y-124435726D01*
X213376909Y-124513527D01*
X213369500Y-124559487D01*
X213010202Y-124559487D01*
X213021360Y-124490378D01*
X213083237Y-124334861D01*
X213175048Y-124204137D01*
X213293426Y-124101513D01*
X213435006Y-124030298D01*
X213596421Y-123993800D01*
X213682502Y-123989596D01*
X213845055Y-124006562D01*
G36*
X215909500Y-124009834D02*
G01*
X216502166Y-124009834D01*
X216502166Y-124285000D01*
X215909500Y-124285000D01*
X215909500Y-124986757D01*
X215970287Y-125047544D01*
X216025547Y-125091475D01*
X216082863Y-125120925D01*
X216091451Y-125123486D01*
X216146111Y-125127302D01*
X216227507Y-125121552D01*
X216321585Y-125108005D01*
X216414293Y-125088427D01*
X216451600Y-125078186D01*
X216479584Y-125075174D01*
X216498276Y-125093011D01*
X216514610Y-125140525D01*
X216521349Y-125167009D01*
X216538195Y-125234284D01*
X216552303Y-125288181D01*
X216556757Y-125304058D01*
X216552126Y-125329815D01*
X216517097Y-125353730D01*
X216465842Y-125373834D01*
X216385324Y-125393966D01*
X216282505Y-125409105D01*
X216171891Y-125418219D01*
X216067990Y-125420279D01*
X215985307Y-125414251D01*
X215962416Y-125409613D01*
X215827450Y-125355112D01*
X215713550Y-125271887D01*
X215627716Y-125166294D01*
X215582285Y-125064488D01*
X215572676Y-125024469D01*
X215565059Y-124973073D01*
X215559231Y-124905467D01*
X215554987Y-124816820D01*
X215552125Y-124702301D01*
X215550438Y-124557078D01*
X215549725Y-124376319D01*
X215549666Y-124291742D01*
X215549828Y-124129048D01*
X215550288Y-123980805D01*
X215551005Y-123852079D01*
X215551939Y-123747939D01*
X215553049Y-123673453D01*
X215554294Y-123633688D01*
X215554958Y-123628410D01*
X215576778Y-123625062D01*
X215630311Y-123616509D01*
X215705488Y-123604365D01*
X215734875Y-123599593D01*
X215909500Y-123571198D01*
X215909500Y-124009834D01*
X215909500Y-124009834D01*
G37*
X215909500Y-124009834D02*
X216502166Y-124009834D01*
X216502166Y-124285000D01*
X215909500Y-124285000D01*
X215909500Y-124986757D01*
X215970287Y-125047544D01*
X216025547Y-125091475D01*
X216082863Y-125120925D01*
X216091451Y-125123486D01*
X216146111Y-125127302D01*
X216227507Y-125121552D01*
X216321585Y-125108005D01*
X216414293Y-125088427D01*
X216451600Y-125078186D01*
X216479584Y-125075174D01*
X216498276Y-125093011D01*
X216514610Y-125140525D01*
X216521349Y-125167009D01*
X216538195Y-125234284D01*
X216552303Y-125288181D01*
X216556757Y-125304058D01*
X216552126Y-125329815D01*
X216517097Y-125353730D01*
X216465842Y-125373834D01*
X216385324Y-125393966D01*
X216282505Y-125409105D01*
X216171891Y-125418219D01*
X216067990Y-125420279D01*
X215985307Y-125414251D01*
X215962416Y-125409613D01*
X215827450Y-125355112D01*
X215713550Y-125271887D01*
X215627716Y-125166294D01*
X215582285Y-125064488D01*
X215572676Y-125024469D01*
X215565059Y-124973073D01*
X215559231Y-124905467D01*
X215554987Y-124816820D01*
X215552125Y-124702301D01*
X215550438Y-124557078D01*
X215549725Y-124376319D01*
X215549666Y-124291742D01*
X215549828Y-124129048D01*
X215550288Y-123980805D01*
X215551005Y-123852079D01*
X215551939Y-123747939D01*
X215553049Y-123673453D01*
X215554294Y-123633688D01*
X215554958Y-123628410D01*
X215576778Y-123625062D01*
X215630311Y-123616509D01*
X215705488Y-123604365D01*
X215734875Y-123599593D01*
X215909500Y-123571198D01*
X215909500Y-124009834D01*
G36*
X217542756Y-123993018D02*
G01*
X217597294Y-124005949D01*
X217656642Y-124030864D01*
X217675154Y-124039794D01*
X217809010Y-124127865D01*
X217914141Y-124246021D01*
X217989230Y-124392089D01*
X218032961Y-124563890D01*
X218041855Y-124645989D01*
X218053382Y-124814167D01*
X217574107Y-124814167D01*
X217419912Y-124814292D01*
X217302919Y-124814974D01*
X217217996Y-124816674D01*
X217160011Y-124819851D01*
X217123834Y-124824968D01*
X217104334Y-124832483D01*
X217096377Y-124842858D01*
X217094834Y-124856554D01*
X217094833Y-124857180D01*
X217112364Y-124941468D01*
X217157870Y-125024240D01*
X217220720Y-125086609D01*
X217225851Y-125089946D01*
X217271243Y-125113290D01*
X217321965Y-125125586D01*
X217391634Y-125129028D01*
X217458341Y-125127368D01*
X217546968Y-125121789D01*
X217605508Y-125111486D01*
X217646179Y-125093267D01*
X217673782Y-125071111D01*
X217701558Y-125046709D01*
X217725500Y-125036252D01*
X217753519Y-125042753D01*
X217793526Y-125069222D01*
X217853431Y-125118670D01*
X217896877Y-125156019D01*
X217986531Y-125233288D01*
X217911747Y-125290328D01*
X217807877Y-125349069D01*
X217676277Y-125393009D01*
X217529609Y-125420018D01*
X217380536Y-125427968D01*
X217241721Y-125414728D01*
X217211250Y-125408139D01*
X217074148Y-125354317D01*
X216949147Y-125266998D01*
X216845624Y-125154684D01*
X216772956Y-125025877D01*
X216764363Y-125003000D01*
X216731186Y-124859087D01*
X216723231Y-124701926D01*
X216737490Y-124570070D01*
X217094833Y-124570070D01*
X217114754Y-124574066D01*
X217169538Y-124577438D01*
X217251716Y-124579910D01*
X217353819Y-124581206D01*
X217399499Y-124581334D01*
X217704165Y-124581334D01*
X217682352Y-124495398D01*
X217639423Y-124398645D01*
X217571364Y-124327068D01*
X217486635Y-124283161D01*
X217393701Y-124269417D01*
X217301022Y-124288329D01*
X217217062Y-124342390D01*
X217204789Y-124354695D01*
X217173747Y-124397107D01*
X217139778Y-124456518D01*
X217111027Y-124516973D01*
X217095640Y-124562516D01*
X217094833Y-124570070D01*
X216737490Y-124570070D01*
X216739958Y-124547248D01*
X216780828Y-124410788D01*
X216784993Y-124401417D01*
X216873718Y-124249449D01*
X216985108Y-124133141D01*
X217120137Y-124051831D01*
X217279778Y-124004857D01*
X217385560Y-123992999D01*
X217477391Y-123989543D01*
X217542756Y-123993018D01*
X217542756Y-123993018D01*
G37*
X217542756Y-123993018D02*
X217597294Y-124005949D01*
X217656642Y-124030864D01*
X217675154Y-124039794D01*
X217809010Y-124127865D01*
X217914141Y-124246021D01*
X217989230Y-124392089D01*
X218032961Y-124563890D01*
X218041855Y-124645989D01*
X218053382Y-124814167D01*
X217574107Y-124814167D01*
X217419912Y-124814292D01*
X217302919Y-124814974D01*
X217217996Y-124816674D01*
X217160011Y-124819851D01*
X217123834Y-124824968D01*
X217104334Y-124832483D01*
X217096377Y-124842858D01*
X217094834Y-124856554D01*
X217094833Y-124857180D01*
X217112364Y-124941468D01*
X217157870Y-125024240D01*
X217220720Y-125086609D01*
X217225851Y-125089946D01*
X217271243Y-125113290D01*
X217321965Y-125125586D01*
X217391634Y-125129028D01*
X217458341Y-125127368D01*
X217546968Y-125121789D01*
X217605508Y-125111486D01*
X217646179Y-125093267D01*
X217673782Y-125071111D01*
X217701558Y-125046709D01*
X217725500Y-125036252D01*
X217753519Y-125042753D01*
X217793526Y-125069222D01*
X217853431Y-125118670D01*
X217896877Y-125156019D01*
X217986531Y-125233288D01*
X217911747Y-125290328D01*
X217807877Y-125349069D01*
X217676277Y-125393009D01*
X217529609Y-125420018D01*
X217380536Y-125427968D01*
X217241721Y-125414728D01*
X217211250Y-125408139D01*
X217074148Y-125354317D01*
X216949147Y-125266998D01*
X216845624Y-125154684D01*
X216772956Y-125025877D01*
X216764363Y-125003000D01*
X216731186Y-124859087D01*
X216723231Y-124701926D01*
X216737490Y-124570070D01*
X217094833Y-124570070D01*
X217114754Y-124574066D01*
X217169538Y-124577438D01*
X217251716Y-124579910D01*
X217353819Y-124581206D01*
X217399499Y-124581334D01*
X217704165Y-124581334D01*
X217682352Y-124495398D01*
X217639423Y-124398645D01*
X217571364Y-124327068D01*
X217486635Y-124283161D01*
X217393701Y-124269417D01*
X217301022Y-124288329D01*
X217217062Y-124342390D01*
X217204789Y-124354695D01*
X217173747Y-124397107D01*
X217139778Y-124456518D01*
X217111027Y-124516973D01*
X217095640Y-124562516D01*
X217094833Y-124570070D01*
X216737490Y-124570070D01*
X216739958Y-124547248D01*
X216780828Y-124410788D01*
X216784993Y-124401417D01*
X216873718Y-124249449D01*
X216985108Y-124133141D01*
X217120137Y-124051831D01*
X217279778Y-124004857D01*
X217385560Y-123992999D01*
X217477391Y-123989543D01*
X217542756Y-123993018D01*
G36*
X219190333Y-123987859D02*
G01*
X219262593Y-124006769D01*
X219342618Y-124035670D01*
X219420314Y-124069810D01*
X219485590Y-124104437D01*
X219528350Y-124134798D01*
X219539583Y-124152297D01*
X219524258Y-124175361D01*
X219483948Y-124215850D01*
X219427146Y-124265284D01*
X219423057Y-124268628D01*
X219306531Y-124363550D01*
X219224095Y-124311377D01*
X219122712Y-124270580D01*
X219012614Y-124264676D01*
X218904423Y-124290897D01*
X218808763Y-124346478D01*
X218736256Y-124428653D01*
X218729638Y-124440127D01*
X218710136Y-124489550D01*
X218698511Y-124557006D01*
X218693427Y-124652264D01*
X218692916Y-124708334D01*
X218694428Y-124809058D01*
X218700249Y-124879018D01*
X218712309Y-124929718D01*
X218732539Y-124972660D01*
X218739079Y-124983500D01*
X218817054Y-125072096D01*
X218915228Y-125126714D01*
X219026160Y-125145441D01*
X219142411Y-125126363D01*
X219200199Y-125102054D01*
X219254894Y-125075336D01*
X219295947Y-125063717D01*
X219333604Y-125070066D01*
X219378110Y-125097252D01*
X219439711Y-125148145D01*
X219475178Y-125179055D01*
X219558939Y-125252261D01*
X219471940Y-125309834D01*
X219333512Y-125378127D01*
X219174507Y-125417619D01*
X219006659Y-125426859D01*
X218841703Y-125404397D01*
X218799860Y-125392916D01*
X218646545Y-125325152D01*
X218517914Y-125225580D01*
X218418415Y-125098649D01*
X218352499Y-124948806D01*
X218351217Y-124944451D01*
X218328268Y-124817071D01*
X218325182Y-124674541D01*
X218340911Y-124533345D01*
X218374406Y-124409967D01*
X218387115Y-124380250D01*
X218474759Y-124243021D01*
X218592110Y-124130580D01*
X218732396Y-124046237D01*
X218888844Y-123993299D01*
X219054682Y-123975075D01*
X219190333Y-123987859D01*
X219190333Y-123987859D01*
G37*
X219190333Y-123987859D02*
X219262593Y-124006769D01*
X219342618Y-124035670D01*
X219420314Y-124069810D01*
X219485590Y-124104437D01*
X219528350Y-124134798D01*
X219539583Y-124152297D01*
X219524258Y-124175361D01*
X219483948Y-124215850D01*
X219427146Y-124265284D01*
X219423057Y-124268628D01*
X219306531Y-124363550D01*
X219224095Y-124311377D01*
X219122712Y-124270580D01*
X219012614Y-124264676D01*
X218904423Y-124290897D01*
X218808763Y-124346478D01*
X218736256Y-124428653D01*
X218729638Y-124440127D01*
X218710136Y-124489550D01*
X218698511Y-124557006D01*
X218693427Y-124652264D01*
X218692916Y-124708334D01*
X218694428Y-124809058D01*
X218700249Y-124879018D01*
X218712309Y-124929718D01*
X218732539Y-124972660D01*
X218739079Y-124983500D01*
X218817054Y-125072096D01*
X218915228Y-125126714D01*
X219026160Y-125145441D01*
X219142411Y-125126363D01*
X219200199Y-125102054D01*
X219254894Y-125075336D01*
X219295947Y-125063717D01*
X219333604Y-125070066D01*
X219378110Y-125097252D01*
X219439711Y-125148145D01*
X219475178Y-125179055D01*
X219558939Y-125252261D01*
X219471940Y-125309834D01*
X219333512Y-125378127D01*
X219174507Y-125417619D01*
X219006659Y-125426859D01*
X218841703Y-125404397D01*
X218799860Y-125392916D01*
X218646545Y-125325152D01*
X218517914Y-125225580D01*
X218418415Y-125098649D01*
X218352499Y-124948806D01*
X218351217Y-124944451D01*
X218328268Y-124817071D01*
X218325182Y-124674541D01*
X218340911Y-124533345D01*
X218374406Y-124409967D01*
X218387115Y-124380250D01*
X218474759Y-124243021D01*
X218592110Y-124130580D01*
X218732396Y-124046237D01*
X218888844Y-123993299D01*
X219054682Y-123975075D01*
X219190333Y-123987859D01*
G36*
X223759942Y-123992798D02*
G01*
X223909896Y-124006234D01*
X224029732Y-124034757D01*
X224130256Y-124082623D01*
X224222275Y-124154088D01*
X224257815Y-124188889D01*
X224350766Y-124306774D01*
X224410948Y-124438548D01*
X224441058Y-124591664D01*
X224445763Y-124708334D01*
X224433459Y-124888388D01*
X224398135Y-125036384D01*
X224337253Y-125157315D01*
X224248274Y-125256172D01*
X224128659Y-125337947D01*
X224124339Y-125340315D01*
X224058008Y-125374693D01*
X224002490Y-125396860D01*
X223944227Y-125409955D01*
X223869655Y-125417118D01*
X223775089Y-125421164D01*
X223659239Y-125422740D01*
X223570605Y-125417520D01*
X223494400Y-125403979D01*
X223431137Y-125385704D01*
X223294250Y-125323493D01*
X223179975Y-125236535D01*
X223095039Y-125131089D01*
X223051071Y-125032054D01*
X223030412Y-124923582D01*
X223021759Y-124792164D01*
X223023376Y-124708334D01*
X223381333Y-124708334D01*
X223387938Y-124802480D01*
X223405439Y-124899392D01*
X223430367Y-124984551D01*
X223459252Y-125043439D01*
X223462410Y-125047552D01*
X223525706Y-125096100D01*
X223615582Y-125128871D01*
X223718775Y-125144388D01*
X223822019Y-125141176D01*
X223912052Y-125117758D01*
X223943449Y-125101078D01*
X224005955Y-125038594D01*
X224048284Y-124944717D01*
X224071702Y-124816282D01*
X224075153Y-124771834D01*
X224071888Y-124609187D01*
X224041844Y-124476934D01*
X223985971Y-124376219D01*
X223905218Y-124308184D01*
X223800534Y-124273973D01*
X223672869Y-124274729D01*
X223663522Y-124276057D01*
X223554913Y-124311032D01*
X223472277Y-124379186D01*
X223415942Y-124480016D01*
X223386237Y-124613016D01*
X223381333Y-124708334D01*
X223023376Y-124708334D01*
X223024473Y-124651469D01*
X223037916Y-124515166D01*
X223061451Y-124396923D01*
X223083759Y-124331828D01*
X223159743Y-124203132D01*
X223260982Y-124105592D01*
X223389087Y-124038402D01*
X223545664Y-124000754D01*
X223732324Y-123991843D01*
X223759942Y-123992798D01*
X223759942Y-123992798D01*
G37*
X223759942Y-123992798D02*
X223909896Y-124006234D01*
X224029732Y-124034757D01*
X224130256Y-124082623D01*
X224222275Y-124154088D01*
X224257815Y-124188889D01*
X224350766Y-124306774D01*
X224410948Y-124438548D01*
X224441058Y-124591664D01*
X224445763Y-124708334D01*
X224433459Y-124888388D01*
X224398135Y-125036384D01*
X224337253Y-125157315D01*
X224248274Y-125256172D01*
X224128659Y-125337947D01*
X224124339Y-125340315D01*
X224058008Y-125374693D01*
X224002490Y-125396860D01*
X223944227Y-125409955D01*
X223869655Y-125417118D01*
X223775089Y-125421164D01*
X223659239Y-125422740D01*
X223570605Y-125417520D01*
X223494400Y-125403979D01*
X223431137Y-125385704D01*
X223294250Y-125323493D01*
X223179975Y-125236535D01*
X223095039Y-125131089D01*
X223051071Y-125032054D01*
X223030412Y-124923582D01*
X223021759Y-124792164D01*
X223023376Y-124708334D01*
X223381333Y-124708334D01*
X223387938Y-124802480D01*
X223405439Y-124899392D01*
X223430367Y-124984551D01*
X223459252Y-125043439D01*
X223462410Y-125047552D01*
X223525706Y-125096100D01*
X223615582Y-125128871D01*
X223718775Y-125144388D01*
X223822019Y-125141176D01*
X223912052Y-125117758D01*
X223943449Y-125101078D01*
X224005955Y-125038594D01*
X224048284Y-124944717D01*
X224071702Y-124816282D01*
X224075153Y-124771834D01*
X224071888Y-124609187D01*
X224041844Y-124476934D01*
X223985971Y-124376219D01*
X223905218Y-124308184D01*
X223800534Y-124273973D01*
X223672869Y-124274729D01*
X223663522Y-124276057D01*
X223554913Y-124311032D01*
X223472277Y-124379186D01*
X223415942Y-124480016D01*
X223386237Y-124613016D01*
X223381333Y-124708334D01*
X223023376Y-124708334D01*
X223024473Y-124651469D01*
X223037916Y-124515166D01*
X223061451Y-124396923D01*
X223083759Y-124331828D01*
X223159743Y-124203132D01*
X223260982Y-124105592D01*
X223389087Y-124038402D01*
X223545664Y-124000754D01*
X223732324Y-123991843D01*
X223759942Y-123992798D01*
G36*
X225095640Y-123326234D02*
G01*
X225101686Y-123344770D01*
X225106551Y-123378246D01*
X225110413Y-123430366D01*
X225113453Y-123504835D01*
X225115851Y-123605358D01*
X225117786Y-123735640D01*
X225119440Y-123899387D01*
X225120992Y-124100303D01*
X225121614Y-124190424D01*
X225127583Y-125071937D01*
X225177553Y-125112385D01*
X225235233Y-125141612D01*
X225297011Y-125152834D01*
X225366500Y-125152834D01*
X225347412Y-125242792D01*
X225328742Y-125330710D01*
X225314529Y-125385272D01*
X225299234Y-125414260D01*
X225277320Y-125425454D01*
X225243250Y-125426636D01*
X225217138Y-125425834D01*
X225142093Y-125420547D01*
X225072591Y-125410320D01*
X225062615Y-125408122D01*
X224948209Y-125362376D01*
X224860573Y-125288393D01*
X224820217Y-125225988D01*
X224809903Y-125202796D01*
X224801434Y-125177102D01*
X224794627Y-125144731D01*
X224789302Y-125101505D01*
X224785279Y-125043250D01*
X224782377Y-124965788D01*
X224780414Y-124864945D01*
X224779209Y-124736543D01*
X224778583Y-124576406D01*
X224778355Y-124380359D01*
X224778333Y-124258577D01*
X224778086Y-124040341D01*
X224777816Y-123860629D01*
X224778225Y-123715636D01*
X224780017Y-123601560D01*
X224783896Y-123514597D01*
X224790564Y-123450943D01*
X224800727Y-123406794D01*
X224815086Y-123378348D01*
X224834346Y-123361800D01*
X224859211Y-123353347D01*
X224890383Y-123349185D01*
X224928566Y-123345511D01*
X224947666Y-123343084D01*
X225014228Y-123332449D01*
X225067291Y-123322126D01*
X225079281Y-123319159D01*
X225088232Y-123318932D01*
X225095640Y-123326234D01*
X225095640Y-123326234D01*
G37*
X225095640Y-123326234D02*
X225101686Y-123344770D01*
X225106551Y-123378246D01*
X225110413Y-123430366D01*
X225113453Y-123504835D01*
X225115851Y-123605358D01*
X225117786Y-123735640D01*
X225119440Y-123899387D01*
X225120992Y-124100303D01*
X225121614Y-124190424D01*
X225127583Y-125071937D01*
X225177553Y-125112385D01*
X225235233Y-125141612D01*
X225297011Y-125152834D01*
X225366500Y-125152834D01*
X225347412Y-125242792D01*
X225328742Y-125330710D01*
X225314529Y-125385272D01*
X225299234Y-125414260D01*
X225277320Y-125425454D01*
X225243250Y-125426636D01*
X225217138Y-125425834D01*
X225142093Y-125420547D01*
X225072591Y-125410320D01*
X225062615Y-125408122D01*
X224948209Y-125362376D01*
X224860573Y-125288393D01*
X224820217Y-125225988D01*
X224809903Y-125202796D01*
X224801434Y-125177102D01*
X224794627Y-125144731D01*
X224789302Y-125101505D01*
X224785279Y-125043250D01*
X224782377Y-124965788D01*
X224780414Y-124864945D01*
X224779209Y-124736543D01*
X224778583Y-124576406D01*
X224778355Y-124380359D01*
X224778333Y-124258577D01*
X224778086Y-124040341D01*
X224777816Y-123860629D01*
X224778225Y-123715636D01*
X224780017Y-123601560D01*
X224783896Y-123514597D01*
X224790564Y-123450943D01*
X224800727Y-123406794D01*
X224815086Y-123378348D01*
X224834346Y-123361800D01*
X224859211Y-123353347D01*
X224890383Y-123349185D01*
X224928566Y-123345511D01*
X224947666Y-123343084D01*
X225014228Y-123332449D01*
X225067291Y-123322126D01*
X225079281Y-123319159D01*
X225088232Y-123318932D01*
X225095640Y-123326234D01*
G36*
X226339026Y-123999986D02*
G01*
X226418430Y-124003346D01*
X226477414Y-124011058D01*
X226526930Y-124024850D01*
X226577930Y-124046450D01*
X226602510Y-124058307D01*
X226728440Y-124138456D01*
X226829552Y-124245476D01*
X226912232Y-124386167D01*
X226913975Y-124389868D01*
X226940924Y-124453254D01*
X226957251Y-124511788D01*
X226965332Y-124579623D01*
X226967539Y-124670911D01*
X226967385Y-124708334D01*
X226954067Y-124894065D01*
X226916088Y-125047650D01*
X226851583Y-125172612D01*
X226758687Y-125272477D01*
X226635534Y-125350769D01*
X226624564Y-125356090D01*
X226557715Y-125384663D01*
X226493262Y-125403012D01*
X226417206Y-125413856D01*
X226315552Y-125419916D01*
X226291750Y-125420766D01*
X226151551Y-125420906D01*
X226044924Y-125411204D01*
X225995416Y-125399641D01*
X225831535Y-125329395D01*
X225705083Y-125240242D01*
X225616347Y-125132420D01*
X225579615Y-125054107D01*
X225564945Y-124985661D01*
X225555338Y-124880268D01*
X225551215Y-124743060D01*
X225551088Y-124708527D01*
X225916743Y-124708527D01*
X225922074Y-124846758D01*
X225938475Y-124950090D01*
X225969351Y-125025257D01*
X226018103Y-125078991D01*
X226088136Y-125118026D01*
X226131763Y-125133996D01*
X226204360Y-125145411D01*
X226293688Y-125142916D01*
X226382334Y-125128577D01*
X226452880Y-125104459D01*
X226470421Y-125093833D01*
X226519999Y-125049053D01*
X226553982Y-124995236D01*
X226574935Y-124923969D01*
X226585428Y-124826836D01*
X226588049Y-124708334D01*
X226584055Y-124575233D01*
X226570335Y-124476472D01*
X226544209Y-124404646D01*
X226502998Y-124352353D01*
X226444850Y-124312629D01*
X226366353Y-124286153D01*
X226270542Y-124275563D01*
X226173198Y-124280542D01*
X226090107Y-124300772D01*
X226053105Y-124320510D01*
X225993144Y-124373974D01*
X225952837Y-124434884D01*
X225928933Y-124512486D01*
X225918184Y-124616030D01*
X225916743Y-124708527D01*
X225551088Y-124708527D01*
X225551087Y-124708334D01*
X225552100Y-124592056D01*
X225555869Y-124507761D01*
X225563754Y-124445119D01*
X225577115Y-124393803D01*
X225597310Y-124343485D01*
X225599847Y-124337917D01*
X225669124Y-124218189D01*
X225758230Y-124126298D01*
X225868416Y-124055485D01*
X225917164Y-124031313D01*
X225962092Y-124015248D01*
X226013669Y-124005656D01*
X226082362Y-124000900D01*
X226178640Y-123999343D01*
X226228250Y-123999250D01*
X226339026Y-123999986D01*
X226339026Y-123999986D01*
G37*
X226339026Y-123999986D02*
X226418430Y-124003346D01*
X226477414Y-124011058D01*
X226526930Y-124024850D01*
X226577930Y-124046450D01*
X226602510Y-124058307D01*
X226728440Y-124138456D01*
X226829552Y-124245476D01*
X226912232Y-124386167D01*
X226913975Y-124389868D01*
X226940924Y-124453254D01*
X226957251Y-124511788D01*
X226965332Y-124579623D01*
X226967539Y-124670911D01*
X226967385Y-124708334D01*
X226954067Y-124894065D01*
X226916088Y-125047650D01*
X226851583Y-125172612D01*
X226758687Y-125272477D01*
X226635534Y-125350769D01*
X226624564Y-125356090D01*
X226557715Y-125384663D01*
X226493262Y-125403012D01*
X226417206Y-125413856D01*
X226315552Y-125419916D01*
X226291750Y-125420766D01*
X226151551Y-125420906D01*
X226044924Y-125411204D01*
X225995416Y-125399641D01*
X225831535Y-125329395D01*
X225705083Y-125240242D01*
X225616347Y-125132420D01*
X225579615Y-125054107D01*
X225564945Y-124985661D01*
X225555338Y-124880268D01*
X225551215Y-124743060D01*
X225551088Y-124708527D01*
X225916743Y-124708527D01*
X225922074Y-124846758D01*
X225938475Y-124950090D01*
X225969351Y-125025257D01*
X226018103Y-125078991D01*
X226088136Y-125118026D01*
X226131763Y-125133996D01*
X226204360Y-125145411D01*
X226293688Y-125142916D01*
X226382334Y-125128577D01*
X226452880Y-125104459D01*
X226470421Y-125093833D01*
X226519999Y-125049053D01*
X226553982Y-124995236D01*
X226574935Y-124923969D01*
X226585428Y-124826836D01*
X226588049Y-124708334D01*
X226584055Y-124575233D01*
X226570335Y-124476472D01*
X226544209Y-124404646D01*
X226502998Y-124352353D01*
X226444850Y-124312629D01*
X226366353Y-124286153D01*
X226270542Y-124275563D01*
X226173198Y-124280542D01*
X226090107Y-124300772D01*
X226053105Y-124320510D01*
X225993144Y-124373974D01*
X225952837Y-124434884D01*
X225928933Y-124512486D01*
X225918184Y-124616030D01*
X225916743Y-124708527D01*
X225551088Y-124708527D01*
X225551087Y-124708334D01*
X225552100Y-124592056D01*
X225555869Y-124507761D01*
X225563754Y-124445119D01*
X225577115Y-124393803D01*
X225597310Y-124343485D01*
X225599847Y-124337917D01*
X225669124Y-124218189D01*
X225758230Y-124126298D01*
X225868416Y-124055485D01*
X225917164Y-124031313D01*
X225962092Y-124015248D01*
X226013669Y-124005656D01*
X226082362Y-124000900D01*
X226178640Y-123999343D01*
X226228250Y-123999250D01*
X226339026Y-123999986D01*
G36*
X230559715Y-124015956D02*
G01*
X230663200Y-124065280D01*
X230747386Y-124130317D01*
X230853819Y-124247763D01*
X230925648Y-124380342D01*
X230965995Y-124534971D01*
X230976189Y-124637251D01*
X230985475Y-124814167D01*
X230506571Y-124814167D01*
X230345934Y-124814107D01*
X230223334Y-124814973D01*
X230134479Y-124818332D01*
X230075078Y-124825755D01*
X230040839Y-124838808D01*
X230027470Y-124859060D01*
X230030680Y-124888080D01*
X230046177Y-124927436D01*
X230067779Y-124974523D01*
X230117918Y-125050027D01*
X230190806Y-125099555D01*
X230291929Y-125125744D01*
X230394366Y-125131667D01*
X230475892Y-125129008D01*
X230530635Y-125118282D01*
X230573962Y-125095363D01*
X230597109Y-125077233D01*
X230632438Y-125049407D01*
X230661259Y-125037834D01*
X230692882Y-125045143D01*
X230736619Y-125073964D01*
X230801778Y-125126927D01*
X230816446Y-125139183D01*
X230917310Y-125223503D01*
X230872572Y-125271124D01*
X230827361Y-125306838D01*
X230760906Y-125345851D01*
X230718792Y-125365985D01*
X230624359Y-125394836D01*
X230505006Y-125414151D01*
X230375740Y-125423107D01*
X230251571Y-125420880D01*
X230147507Y-125406647D01*
X230119195Y-125398869D01*
X229966482Y-125329758D01*
X229844775Y-125232101D01*
X229752590Y-125104494D01*
X229710352Y-125011693D01*
X229680928Y-124896025D01*
X229668400Y-124760768D01*
X229672374Y-124620808D01*
X229678481Y-124581334D01*
X230027098Y-124581334D01*
X230334299Y-124581334D01*
X230461479Y-124580391D01*
X230551008Y-124577298D01*
X230607534Y-124571652D01*
X230635702Y-124563054D01*
X230641035Y-124554875D01*
X230628078Y-124502054D01*
X230596900Y-124434442D01*
X230556946Y-124369287D01*
X230517662Y-124323838D01*
X230512228Y-124319658D01*
X230417519Y-124278191D01*
X230310884Y-124274839D01*
X230251938Y-124289014D01*
X230176671Y-124327552D01*
X230116978Y-124391199D01*
X230065513Y-124488093D01*
X230059699Y-124501959D01*
X230027098Y-124581334D01*
X229678481Y-124581334D01*
X229692455Y-124491029D01*
X229726815Y-124389234D01*
X229820374Y-124238554D01*
X229937119Y-124122751D01*
X230075740Y-124042735D01*
X230234929Y-123999417D01*
X230296024Y-123993045D01*
X230441048Y-123993011D01*
X230559715Y-124015956D01*
X230559715Y-124015956D01*
G37*
X230559715Y-124015956D02*
X230663200Y-124065280D01*
X230747386Y-124130317D01*
X230853819Y-124247763D01*
X230925648Y-124380342D01*
X230965995Y-124534971D01*
X230976189Y-124637251D01*
X230985475Y-124814167D01*
X230506571Y-124814167D01*
X230345934Y-124814107D01*
X230223334Y-124814973D01*
X230134479Y-124818332D01*
X230075078Y-124825755D01*
X230040839Y-124838808D01*
X230027470Y-124859060D01*
X230030680Y-124888080D01*
X230046177Y-124927436D01*
X230067779Y-124974523D01*
X230117918Y-125050027D01*
X230190806Y-125099555D01*
X230291929Y-125125744D01*
X230394366Y-125131667D01*
X230475892Y-125129008D01*
X230530635Y-125118282D01*
X230573962Y-125095363D01*
X230597109Y-125077233D01*
X230632438Y-125049407D01*
X230661259Y-125037834D01*
X230692882Y-125045143D01*
X230736619Y-125073964D01*
X230801778Y-125126927D01*
X230816446Y-125139183D01*
X230917310Y-125223503D01*
X230872572Y-125271124D01*
X230827361Y-125306838D01*
X230760906Y-125345851D01*
X230718792Y-125365985D01*
X230624359Y-125394836D01*
X230505006Y-125414151D01*
X230375740Y-125423107D01*
X230251571Y-125420880D01*
X230147507Y-125406647D01*
X230119195Y-125398869D01*
X229966482Y-125329758D01*
X229844775Y-125232101D01*
X229752590Y-125104494D01*
X229710352Y-125011693D01*
X229680928Y-124896025D01*
X229668400Y-124760768D01*
X229672374Y-124620808D01*
X229678481Y-124581334D01*
X230027098Y-124581334D01*
X230334299Y-124581334D01*
X230461479Y-124580391D01*
X230551008Y-124577298D01*
X230607534Y-124571652D01*
X230635702Y-124563054D01*
X230641035Y-124554875D01*
X230628078Y-124502054D01*
X230596900Y-124434442D01*
X230556946Y-124369287D01*
X230517662Y-124323838D01*
X230512228Y-124319658D01*
X230417519Y-124278191D01*
X230310884Y-124274839D01*
X230251938Y-124289014D01*
X230176671Y-124327552D01*
X230116978Y-124391199D01*
X230065513Y-124488093D01*
X230059699Y-124501959D01*
X230027098Y-124581334D01*
X229678481Y-124581334D01*
X229692455Y-124491029D01*
X229726815Y-124389234D01*
X229820374Y-124238554D01*
X229937119Y-124122751D01*
X230075740Y-124042735D01*
X230234929Y-123999417D01*
X230296024Y-123993045D01*
X230441048Y-123993011D01*
X230559715Y-124015956D01*
G36*
X231967933Y-123990675D02*
G01*
X232040961Y-124003825D01*
X232123611Y-124022877D01*
X232203641Y-124044481D01*
X232268810Y-124065287D01*
X232306877Y-124081946D01*
X232309912Y-124084250D01*
X232302731Y-124103648D01*
X232277403Y-124148751D01*
X232239287Y-124210059D01*
X232236598Y-124214218D01*
X232196444Y-124276350D01*
X232166751Y-124322592D01*
X232153656Y-124343381D01*
X232153545Y-124343585D01*
X232134532Y-124339006D01*
X232089333Y-124321021D01*
X232057526Y-124307008D01*
X231959661Y-124275251D01*
X231859147Y-124263929D01*
X231764228Y-124271306D01*
X231683147Y-124295643D01*
X231624147Y-124335202D01*
X231595473Y-124388246D01*
X231594000Y-124404731D01*
X231604293Y-124461309D01*
X231638904Y-124504722D01*
X231703425Y-124538973D01*
X231803452Y-124568064D01*
X231830848Y-124574184D01*
X231948890Y-124606275D01*
X232067983Y-124650294D01*
X232178237Y-124701494D01*
X232269764Y-124755130D01*
X232332675Y-124806456D01*
X232344504Y-124820713D01*
X232373033Y-124877431D01*
X232384859Y-124952051D01*
X232385601Y-125000630D01*
X232367326Y-125133623D01*
X232315650Y-125241027D01*
X232229075Y-125325076D01*
X232133461Y-125377097D01*
X232053481Y-125399408D01*
X231944712Y-125414085D01*
X231820083Y-125420705D01*
X231692517Y-125418847D01*
X231574943Y-125408089D01*
X231514968Y-125397277D01*
X231402704Y-125364980D01*
X231315111Y-125325985D01*
X231259124Y-125283788D01*
X231244496Y-125260956D01*
X231252601Y-125227130D01*
X231291839Y-125172973D01*
X231336549Y-125125038D01*
X231440767Y-125020820D01*
X231501508Y-125065415D01*
X231576785Y-125103188D01*
X231677110Y-125130370D01*
X231785844Y-125143752D01*
X231886350Y-125140127D01*
X231887868Y-125139903D01*
X231973277Y-125114845D01*
X232031121Y-125073171D01*
X232057574Y-125021151D01*
X232048807Y-124965056D01*
X232018592Y-124925716D01*
X231982973Y-124904653D01*
X231916243Y-124875499D01*
X231827910Y-124842087D01*
X231727483Y-124808250D01*
X231726281Y-124807869D01*
X231570009Y-124754380D01*
X231451056Y-124702941D01*
X231364864Y-124649424D01*
X231306872Y-124589700D01*
X231272521Y-124519638D01*
X231257250Y-124435109D01*
X231255333Y-124381362D01*
X231258650Y-124307684D01*
X231273538Y-124256225D01*
X231307403Y-124207080D01*
X231329593Y-124181758D01*
X231434505Y-124095034D01*
X231567367Y-124031142D01*
X231718839Y-123992880D01*
X231879580Y-123983044D01*
X231967933Y-123990675D01*
X231967933Y-123990675D01*
G37*
X231967933Y-123990675D02*
X232040961Y-124003825D01*
X232123611Y-124022877D01*
X232203641Y-124044481D01*
X232268810Y-124065287D01*
X232306877Y-124081946D01*
X232309912Y-124084250D01*
X232302731Y-124103648D01*
X232277403Y-124148751D01*
X232239287Y-124210059D01*
X232236598Y-124214218D01*
X232196444Y-124276350D01*
X232166751Y-124322592D01*
X232153656Y-124343381D01*
X232153545Y-124343585D01*
X232134532Y-124339006D01*
X232089333Y-124321021D01*
X232057526Y-124307008D01*
X231959661Y-124275251D01*
X231859147Y-124263929D01*
X231764228Y-124271306D01*
X231683147Y-124295643D01*
X231624147Y-124335202D01*
X231595473Y-124388246D01*
X231594000Y-124404731D01*
X231604293Y-124461309D01*
X231638904Y-124504722D01*
X231703425Y-124538973D01*
X231803452Y-124568064D01*
X231830848Y-124574184D01*
X231948890Y-124606275D01*
X232067983Y-124650294D01*
X232178237Y-124701494D01*
X232269764Y-124755130D01*
X232332675Y-124806456D01*
X232344504Y-124820713D01*
X232373033Y-124877431D01*
X232384859Y-124952051D01*
X232385601Y-125000630D01*
X232367326Y-125133623D01*
X232315650Y-125241027D01*
X232229075Y-125325076D01*
X232133461Y-125377097D01*
X232053481Y-125399408D01*
X231944712Y-125414085D01*
X231820083Y-125420705D01*
X231692517Y-125418847D01*
X231574943Y-125408089D01*
X231514968Y-125397277D01*
X231402704Y-125364980D01*
X231315111Y-125325985D01*
X231259124Y-125283788D01*
X231244496Y-125260956D01*
X231252601Y-125227130D01*
X231291839Y-125172973D01*
X231336549Y-125125038D01*
X231440767Y-125020820D01*
X231501508Y-125065415D01*
X231576785Y-125103188D01*
X231677110Y-125130370D01*
X231785844Y-125143752D01*
X231886350Y-125140127D01*
X231887868Y-125139903D01*
X231973277Y-125114845D01*
X232031121Y-125073171D01*
X232057574Y-125021151D01*
X232048807Y-124965056D01*
X232018592Y-124925716D01*
X231982973Y-124904653D01*
X231916243Y-124875499D01*
X231827910Y-124842087D01*
X231727483Y-124808250D01*
X231726281Y-124807869D01*
X231570009Y-124754380D01*
X231451056Y-124702941D01*
X231364864Y-124649424D01*
X231306872Y-124589700D01*
X231272521Y-124519638D01*
X231257250Y-124435109D01*
X231255333Y-124381362D01*
X231258650Y-124307684D01*
X231273538Y-124256225D01*
X231307403Y-124207080D01*
X231329593Y-124181758D01*
X231434505Y-124095034D01*
X231567367Y-124031142D01*
X231718839Y-123992880D01*
X231879580Y-123983044D01*
X231967933Y-123990675D01*
G36*
X234684333Y-125237235D02*
G01*
X234596202Y-125301076D01*
X234519274Y-125347114D01*
X234431349Y-125386492D01*
X234401861Y-125396459D01*
X234296164Y-125417183D01*
X234167671Y-125426627D01*
X234032232Y-125424997D01*
X233905695Y-125412501D01*
X233803910Y-125389348D01*
X233801679Y-125388586D01*
X233640703Y-125314144D01*
X233513155Y-125213789D01*
X233419251Y-125087857D01*
X233359208Y-124936685D01*
X233333241Y-124760611D01*
X233333306Y-124658689D01*
X233333378Y-124658185D01*
X233693152Y-124658185D01*
X233699461Y-124805362D01*
X233737371Y-124929722D01*
X233805274Y-125028000D01*
X233901560Y-125096930D01*
X233911750Y-125101666D01*
X233989070Y-125122276D01*
X234087173Y-125129946D01*
X234186414Y-125124292D01*
X234257841Y-125108430D01*
X234324500Y-125085192D01*
X234324500Y-124356341D01*
X234249698Y-124320670D01*
X234159099Y-124293749D01*
X234051659Y-124285421D01*
X233945734Y-124295531D01*
X233859680Y-124323923D01*
X233859571Y-124323981D01*
X233782828Y-124388627D01*
X233728072Y-124486335D01*
X233697467Y-124612764D01*
X233693152Y-124658185D01*
X233333378Y-124658185D01*
X233359166Y-124478437D01*
X233417756Y-124322706D01*
X233506640Y-124193895D01*
X233623379Y-124094402D01*
X233765537Y-124026627D01*
X233930677Y-123992967D01*
X234013085Y-123989596D01*
X234102797Y-123994118D01*
X234187489Y-124005021D01*
X234245125Y-124018852D01*
X234324500Y-124047178D01*
X234324500Y-123711006D01*
X234324814Y-123597064D01*
X234325683Y-123499601D01*
X234326995Y-123425741D01*
X234328637Y-123382604D01*
X234329791Y-123374410D01*
X234351611Y-123371062D01*
X234405144Y-123362509D01*
X234480322Y-123350365D01*
X234509708Y-123345593D01*
X234684333Y-123317198D01*
X234684333Y-125237235D01*
X234684333Y-125237235D01*
G37*
X234684333Y-125237235D02*
X234596202Y-125301076D01*
X234519274Y-125347114D01*
X234431349Y-125386492D01*
X234401861Y-125396459D01*
X234296164Y-125417183D01*
X234167671Y-125426627D01*
X234032232Y-125424997D01*
X233905695Y-125412501D01*
X233803910Y-125389348D01*
X233801679Y-125388586D01*
X233640703Y-125314144D01*
X233513155Y-125213789D01*
X233419251Y-125087857D01*
X233359208Y-124936685D01*
X233333241Y-124760611D01*
X233333306Y-124658689D01*
X233333378Y-124658185D01*
X233693152Y-124658185D01*
X233699461Y-124805362D01*
X233737371Y-124929722D01*
X233805274Y-125028000D01*
X233901560Y-125096930D01*
X233911750Y-125101666D01*
X233989070Y-125122276D01*
X234087173Y-125129946D01*
X234186414Y-125124292D01*
X234257841Y-125108430D01*
X234324500Y-125085192D01*
X234324500Y-124356341D01*
X234249698Y-124320670D01*
X234159099Y-124293749D01*
X234051659Y-124285421D01*
X233945734Y-124295531D01*
X233859680Y-124323923D01*
X233859571Y-124323981D01*
X233782828Y-124388627D01*
X233728072Y-124486335D01*
X233697467Y-124612764D01*
X233693152Y-124658185D01*
X233333378Y-124658185D01*
X233359166Y-124478437D01*
X233417756Y-124322706D01*
X233506640Y-124193895D01*
X233623379Y-124094402D01*
X233765537Y-124026627D01*
X233930677Y-123992967D01*
X234013085Y-123989596D01*
X234102797Y-123994118D01*
X234187489Y-124005021D01*
X234245125Y-124018852D01*
X234324500Y-124047178D01*
X234324500Y-123711006D01*
X234324814Y-123597064D01*
X234325683Y-123499601D01*
X234326995Y-123425741D01*
X234328637Y-123382604D01*
X234329791Y-123374410D01*
X234351611Y-123371062D01*
X234405144Y-123362509D01*
X234480322Y-123350365D01*
X234509708Y-123345593D01*
X234684333Y-123317198D01*
X234684333Y-125237235D01*
G36*
X235820817Y-123994442D02*
G01*
X235926085Y-124014676D01*
X235936632Y-124018224D01*
X236060505Y-124084353D01*
X236166196Y-124185417D01*
X236250811Y-124316877D01*
X236311457Y-124474190D01*
X236345241Y-124652818D01*
X236346028Y-124660709D01*
X236360796Y-124814167D01*
X235378244Y-124814167D01*
X235391290Y-124866150D01*
X235420850Y-124958957D01*
X235459547Y-125025958D01*
X235498343Y-125067823D01*
X235536527Y-125096884D01*
X235582288Y-125114430D01*
X235648735Y-125124215D01*
X235709137Y-125128188D01*
X235810169Y-125126698D01*
X235896790Y-125113134D01*
X235960772Y-125089835D01*
X235993886Y-125059141D01*
X235996666Y-125046457D01*
X236009745Y-125026685D01*
X236048703Y-125039881D01*
X236113125Y-125085839D01*
X236166000Y-125130986D01*
X236225042Y-125184565D01*
X236256514Y-125218190D01*
X236264679Y-125239814D01*
X236253800Y-125257388D01*
X236240083Y-125269153D01*
X236197825Y-125297107D01*
X236133390Y-125333042D01*
X236082550Y-125358591D01*
X235967959Y-125397405D01*
X235829908Y-125420052D01*
X235684384Y-125425729D01*
X235547373Y-125413635D01*
X235453370Y-125390174D01*
X235303389Y-125316716D01*
X235185125Y-125215510D01*
X235099070Y-125087388D01*
X235045712Y-124933186D01*
X235025541Y-124753737D01*
X235027402Y-124665326D01*
X235046900Y-124544292D01*
X235404079Y-124544292D01*
X235407583Y-124558965D01*
X235422421Y-124569185D01*
X235454969Y-124575741D01*
X235511603Y-124579423D01*
X235598699Y-124581022D01*
X235702979Y-124581334D01*
X236001958Y-124581334D01*
X235988484Y-124512542D01*
X235951654Y-124417424D01*
X235887842Y-124343049D01*
X235805794Y-124293048D01*
X235714256Y-124271054D01*
X235621972Y-124280700D01*
X235537953Y-124325402D01*
X235490714Y-124375159D01*
X235446414Y-124439255D01*
X235414477Y-124502286D01*
X235404079Y-124544292D01*
X235046900Y-124544292D01*
X235056038Y-124487572D01*
X235118738Y-124330996D01*
X235213209Y-124198918D01*
X235337159Y-124094661D01*
X235466552Y-124029413D01*
X235572873Y-124002243D01*
X235697020Y-123990442D01*
X235820817Y-123994442D01*
X235820817Y-123994442D01*
G37*
X235820817Y-123994442D02*
X235926085Y-124014676D01*
X235936632Y-124018224D01*
X236060505Y-124084353D01*
X236166196Y-124185417D01*
X236250811Y-124316877D01*
X236311457Y-124474190D01*
X236345241Y-124652818D01*
X236346028Y-124660709D01*
X236360796Y-124814167D01*
X235378244Y-124814167D01*
X235391290Y-124866150D01*
X235420850Y-124958957D01*
X235459547Y-125025958D01*
X235498343Y-125067823D01*
X235536527Y-125096884D01*
X235582288Y-125114430D01*
X235648735Y-125124215D01*
X235709137Y-125128188D01*
X235810169Y-125126698D01*
X235896790Y-125113134D01*
X235960772Y-125089835D01*
X235993886Y-125059141D01*
X235996666Y-125046457D01*
X236009745Y-125026685D01*
X236048703Y-125039881D01*
X236113125Y-125085839D01*
X236166000Y-125130986D01*
X236225042Y-125184565D01*
X236256514Y-125218190D01*
X236264679Y-125239814D01*
X236253800Y-125257388D01*
X236240083Y-125269153D01*
X236197825Y-125297107D01*
X236133390Y-125333042D01*
X236082550Y-125358591D01*
X235967959Y-125397405D01*
X235829908Y-125420052D01*
X235684384Y-125425729D01*
X235547373Y-125413635D01*
X235453370Y-125390174D01*
X235303389Y-125316716D01*
X235185125Y-125215510D01*
X235099070Y-125087388D01*
X235045712Y-124933186D01*
X235025541Y-124753737D01*
X235027402Y-124665326D01*
X235046900Y-124544292D01*
X235404079Y-124544292D01*
X235407583Y-124558965D01*
X235422421Y-124569185D01*
X235454969Y-124575741D01*
X235511603Y-124579423D01*
X235598699Y-124581022D01*
X235702979Y-124581334D01*
X236001958Y-124581334D01*
X235988484Y-124512542D01*
X235951654Y-124417424D01*
X235887842Y-124343049D01*
X235805794Y-124293048D01*
X235714256Y-124271054D01*
X235621972Y-124280700D01*
X235537953Y-124325402D01*
X235490714Y-124375159D01*
X235446414Y-124439255D01*
X235414477Y-124502286D01*
X235404079Y-124544292D01*
X235046900Y-124544292D01*
X235056038Y-124487572D01*
X235118738Y-124330996D01*
X235213209Y-124198918D01*
X235337159Y-124094661D01*
X235466552Y-124029413D01*
X235572873Y-124002243D01*
X235697020Y-123990442D01*
X235820817Y-123994442D01*
G36*
X197259361Y-124367741D02*
G01*
X197310176Y-124571840D01*
X197353818Y-124737446D01*
X197390089Y-124863894D01*
X197418792Y-124950525D01*
X197439731Y-124996674D01*
X197448742Y-125004667D01*
X197463367Y-124985768D01*
X197490360Y-124932835D01*
X197527334Y-124851513D01*
X197571903Y-124747448D01*
X197621682Y-124626284D01*
X197674284Y-124493667D01*
X197727323Y-124355242D01*
X197757384Y-124274417D01*
X197850725Y-124020417D01*
X198032445Y-124014301D01*
X198114160Y-124012855D01*
X198176824Y-124014230D01*
X198210782Y-124018105D01*
X198214166Y-124020321D01*
X198205547Y-124054917D01*
X198181388Y-124121871D01*
X198144234Y-124215267D01*
X198096631Y-124329188D01*
X198041124Y-124457718D01*
X197980258Y-124594938D01*
X197916581Y-124734933D01*
X197852636Y-124871786D01*
X197806608Y-124967625D01*
X197592784Y-125406834D01*
X197308596Y-125406834D01*
X197276952Y-125327459D01*
X197254792Y-125265653D01*
X197225532Y-125175476D01*
X197192352Y-125067733D01*
X197158431Y-124953229D01*
X197126950Y-124842768D01*
X197101089Y-124747156D01*
X197084028Y-124677196D01*
X197080713Y-124660709D01*
X197068186Y-124609841D01*
X197054901Y-124582717D01*
X197051959Y-124581334D01*
X197040192Y-124600237D01*
X197015951Y-124653194D01*
X196981505Y-124734576D01*
X196939124Y-124838754D01*
X196891076Y-124960098D01*
X196839632Y-125092980D01*
X196787060Y-125231770D01*
X196755427Y-125316875D01*
X196722250Y-125406834D01*
X196436698Y-125406834D01*
X196363883Y-125262241D01*
X196246759Y-125008942D01*
X196130734Y-124716893D01*
X196017228Y-124389674D01*
X196013137Y-124377068D01*
X195977385Y-124265491D01*
X195946770Y-124167737D01*
X195923495Y-124091019D01*
X195909764Y-124042553D01*
X195906999Y-124029549D01*
X195926564Y-124020771D01*
X195978873Y-124014041D01*
X196054352Y-124010369D01*
X196092208Y-124009983D01*
X196277416Y-124010132D01*
X196349349Y-124279858D01*
X196390063Y-124428239D01*
X196431326Y-124570931D01*
X196471317Y-124702332D01*
X196508213Y-124816841D01*
X196540193Y-124908857D01*
X196565436Y-124972779D01*
X196582119Y-125003004D01*
X196585070Y-125004667D01*
X196600437Y-124985571D01*
X196626323Y-124932511D01*
X196660302Y-124851829D01*
X196699950Y-124749865D01*
X196742838Y-124632962D01*
X196786543Y-124507460D01*
X196828638Y-124379701D01*
X196849030Y-124314661D01*
X196879376Y-124215967D01*
X196905534Y-124130917D01*
X196924799Y-124068299D01*
X196934469Y-124036903D01*
X196934658Y-124036292D01*
X196961297Y-124019017D01*
X197024965Y-124010542D01*
X197057519Y-124009834D01*
X197172201Y-124009834D01*
X197259361Y-124367741D01*
X197259361Y-124367741D01*
G37*
X197259361Y-124367741D02*
X197310176Y-124571840D01*
X197353818Y-124737446D01*
X197390089Y-124863894D01*
X197418792Y-124950525D01*
X197439731Y-124996674D01*
X197448742Y-125004667D01*
X197463367Y-124985768D01*
X197490360Y-124932835D01*
X197527334Y-124851513D01*
X197571903Y-124747448D01*
X197621682Y-124626284D01*
X197674284Y-124493667D01*
X197727323Y-124355242D01*
X197757384Y-124274417D01*
X197850725Y-124020417D01*
X198032445Y-124014301D01*
X198114160Y-124012855D01*
X198176824Y-124014230D01*
X198210782Y-124018105D01*
X198214166Y-124020321D01*
X198205547Y-124054917D01*
X198181388Y-124121871D01*
X198144234Y-124215267D01*
X198096631Y-124329188D01*
X198041124Y-124457718D01*
X197980258Y-124594938D01*
X197916581Y-124734933D01*
X197852636Y-124871786D01*
X197806608Y-124967625D01*
X197592784Y-125406834D01*
X197308596Y-125406834D01*
X197276952Y-125327459D01*
X197254792Y-125265653D01*
X197225532Y-125175476D01*
X197192352Y-125067733D01*
X197158431Y-124953229D01*
X197126950Y-124842768D01*
X197101089Y-124747156D01*
X197084028Y-124677196D01*
X197080713Y-124660709D01*
X197068186Y-124609841D01*
X197054901Y-124582717D01*
X197051959Y-124581334D01*
X197040192Y-124600237D01*
X197015951Y-124653194D01*
X196981505Y-124734576D01*
X196939124Y-124838754D01*
X196891076Y-124960098D01*
X196839632Y-125092980D01*
X196787060Y-125231770D01*
X196755427Y-125316875D01*
X196722250Y-125406834D01*
X196436698Y-125406834D01*
X196363883Y-125262241D01*
X196246759Y-125008942D01*
X196130734Y-124716893D01*
X196017228Y-124389674D01*
X196013137Y-124377068D01*
X195977385Y-124265491D01*
X195946770Y-124167737D01*
X195923495Y-124091019D01*
X195909764Y-124042553D01*
X195906999Y-124029549D01*
X195926564Y-124020771D01*
X195978873Y-124014041D01*
X196054352Y-124010369D01*
X196092208Y-124009983D01*
X196277416Y-124010132D01*
X196349349Y-124279858D01*
X196390063Y-124428239D01*
X196431326Y-124570931D01*
X196471317Y-124702332D01*
X196508213Y-124816841D01*
X196540193Y-124908857D01*
X196565436Y-124972779D01*
X196582119Y-125003004D01*
X196585070Y-125004667D01*
X196600437Y-124985571D01*
X196626323Y-124932511D01*
X196660302Y-124851829D01*
X196699950Y-124749865D01*
X196742838Y-124632962D01*
X196786543Y-124507460D01*
X196828638Y-124379701D01*
X196849030Y-124314661D01*
X196879376Y-124215967D01*
X196905534Y-124130917D01*
X196924799Y-124068299D01*
X196934469Y-124036903D01*
X196934658Y-124036292D01*
X196961297Y-124019017D01*
X197024965Y-124010542D01*
X197057519Y-124009834D01*
X197172201Y-124009834D01*
X197259361Y-124367741D01*
G36*
X199438879Y-124014193D02*
G01*
X199554634Y-124020417D01*
X199643814Y-124380250D01*
X199689773Y-124564080D01*
X199727306Y-124710200D01*
X199757473Y-124822159D01*
X199781336Y-124903503D01*
X199799955Y-124957781D01*
X199814391Y-124988539D01*
X199825704Y-124999324D01*
X199828884Y-124999122D01*
X199845642Y-124977013D01*
X199874405Y-124921432D01*
X199912527Y-124838627D01*
X199957362Y-124734844D01*
X200006263Y-124616328D01*
X200056586Y-124489327D01*
X200105685Y-124360087D01*
X200142566Y-124258542D01*
X200230764Y-124009834D01*
X200407799Y-124009834D01*
X200493095Y-124012172D01*
X200554374Y-124018550D01*
X200583519Y-124028007D01*
X200584833Y-124030754D01*
X200576189Y-124068610D01*
X200551967Y-124138671D01*
X200514733Y-124234892D01*
X200467055Y-124351231D01*
X200411499Y-124481644D01*
X200350630Y-124620087D01*
X200287016Y-124760518D01*
X200223223Y-124896891D01*
X200172876Y-125000851D01*
X199972599Y-125406834D01*
X199682025Y-125406834D01*
X199583467Y-125094625D01*
X199547330Y-124978245D01*
X199514373Y-124868601D01*
X199487465Y-124775494D01*
X199469476Y-124708728D01*
X199465251Y-124690810D01*
X199447668Y-124620627D01*
X199432237Y-124589978D01*
X199416474Y-124596318D01*
X199402072Y-124626023D01*
X199387933Y-124662372D01*
X199361574Y-124730319D01*
X199326052Y-124821980D01*
X199284422Y-124929472D01*
X199255313Y-125004667D01*
X199211824Y-125116955D01*
X199172897Y-125217319D01*
X199141444Y-125298264D01*
X199120376Y-125352293D01*
X199113485Y-125369792D01*
X199097362Y-125390268D01*
X199063218Y-125401697D01*
X199001426Y-125406344D01*
X198956046Y-125406834D01*
X198813454Y-125406834D01*
X198704521Y-125177432D01*
X198560345Y-124846894D01*
X198428071Y-124489556D01*
X198353517Y-124257714D01*
X198281608Y-124020417D01*
X198462219Y-124014262D01*
X198544891Y-124012339D01*
X198609684Y-124012515D01*
X198646335Y-124014695D01*
X198650746Y-124016025D01*
X198658843Y-124038151D01*
X198675866Y-124093812D01*
X198699664Y-124175685D01*
X198728087Y-124276445D01*
X198742666Y-124329096D01*
X198793835Y-124510273D01*
X198840766Y-124667162D01*
X198882354Y-124796504D01*
X198917489Y-124895037D01*
X198945066Y-124959502D01*
X198963975Y-124986639D01*
X198966252Y-124987305D01*
X198983357Y-124968514D01*
X199010776Y-124915465D01*
X199046129Y-124834286D01*
X199087036Y-124731106D01*
X199131117Y-124612052D01*
X199175992Y-124483252D01*
X199219280Y-124350834D01*
X199241834Y-124277742D01*
X199323125Y-124007968D01*
X199438879Y-124014193D01*
X199438879Y-124014193D01*
G37*
X199438879Y-124014193D02*
X199554634Y-124020417D01*
X199643814Y-124380250D01*
X199689773Y-124564080D01*
X199727306Y-124710200D01*
X199757473Y-124822159D01*
X199781336Y-124903503D01*
X199799955Y-124957781D01*
X199814391Y-124988539D01*
X199825704Y-124999324D01*
X199828884Y-124999122D01*
X199845642Y-124977013D01*
X199874405Y-124921432D01*
X199912527Y-124838627D01*
X199957362Y-124734844D01*
X200006263Y-124616328D01*
X200056586Y-124489327D01*
X200105685Y-124360087D01*
X200142566Y-124258542D01*
X200230764Y-124009834D01*
X200407799Y-124009834D01*
X200493095Y-124012172D01*
X200554374Y-124018550D01*
X200583519Y-124028007D01*
X200584833Y-124030754D01*
X200576189Y-124068610D01*
X200551967Y-124138671D01*
X200514733Y-124234892D01*
X200467055Y-124351231D01*
X200411499Y-124481644D01*
X200350630Y-124620087D01*
X200287016Y-124760518D01*
X200223223Y-124896891D01*
X200172876Y-125000851D01*
X199972599Y-125406834D01*
X199682025Y-125406834D01*
X199583467Y-125094625D01*
X199547330Y-124978245D01*
X199514373Y-124868601D01*
X199487465Y-124775494D01*
X199469476Y-124708728D01*
X199465251Y-124690810D01*
X199447668Y-124620627D01*
X199432237Y-124589978D01*
X199416474Y-124596318D01*
X199402072Y-124626023D01*
X199387933Y-124662372D01*
X199361574Y-124730319D01*
X199326052Y-124821980D01*
X199284422Y-124929472D01*
X199255313Y-125004667D01*
X199211824Y-125116955D01*
X199172897Y-125217319D01*
X199141444Y-125298264D01*
X199120376Y-125352293D01*
X199113485Y-125369792D01*
X199097362Y-125390268D01*
X199063218Y-125401697D01*
X199001426Y-125406344D01*
X198956046Y-125406834D01*
X198813454Y-125406834D01*
X198704521Y-125177432D01*
X198560345Y-124846894D01*
X198428071Y-124489556D01*
X198353517Y-124257714D01*
X198281608Y-124020417D01*
X198462219Y-124014262D01*
X198544891Y-124012339D01*
X198609684Y-124012515D01*
X198646335Y-124014695D01*
X198650746Y-124016025D01*
X198658843Y-124038151D01*
X198675866Y-124093812D01*
X198699664Y-124175685D01*
X198728087Y-124276445D01*
X198742666Y-124329096D01*
X198793835Y-124510273D01*
X198840766Y-124667162D01*
X198882354Y-124796504D01*
X198917489Y-124895037D01*
X198945066Y-124959502D01*
X198963975Y-124986639D01*
X198966252Y-124987305D01*
X198983357Y-124968514D01*
X199010776Y-124915465D01*
X199046129Y-124834286D01*
X199087036Y-124731106D01*
X199131117Y-124612052D01*
X199175992Y-124483252D01*
X199219280Y-124350834D01*
X199241834Y-124277742D01*
X199323125Y-124007968D01*
X199438879Y-124014193D01*
G36*
X202037905Y-124437550D02*
G01*
X202072242Y-124571318D01*
X202105254Y-124695474D01*
X202134862Y-124802530D01*
X202158986Y-124885001D01*
X202175545Y-124935401D01*
X202177849Y-124941167D01*
X202209509Y-125015250D01*
X202275079Y-124877667D01*
X202304621Y-124811484D01*
X202344849Y-124715457D01*
X202391762Y-124599444D01*
X202441355Y-124473305D01*
X202477043Y-124380250D01*
X202613436Y-124020417D01*
X202795051Y-124014301D01*
X202876748Y-124012398D01*
X202939386Y-124012555D01*
X202973304Y-124014676D01*
X202976666Y-124016073D01*
X202968196Y-124048718D01*
X202944538Y-124113634D01*
X202908325Y-124204692D01*
X202862187Y-124315763D01*
X202808754Y-124440716D01*
X202750659Y-124573422D01*
X202690531Y-124707752D01*
X202631002Y-124837577D01*
X202574703Y-124956766D01*
X202558786Y-124989636D01*
X202354568Y-125408521D01*
X202205939Y-125402386D01*
X202057310Y-125396250D01*
X201968523Y-125121084D01*
X201932517Y-125005762D01*
X201898950Y-124891546D01*
X201871434Y-124791157D01*
X201853580Y-124717313D01*
X201852818Y-124713625D01*
X201837000Y-124645551D01*
X201822150Y-124597802D01*
X201812200Y-124581334D01*
X201800837Y-124600159D01*
X201776955Y-124652741D01*
X201743004Y-124733236D01*
X201701433Y-124835799D01*
X201654689Y-124954589D01*
X201641459Y-124988792D01*
X201484416Y-125396250D01*
X201334834Y-125402391D01*
X201185253Y-125408532D01*
X201082715Y-125180141D01*
X201030415Y-125059333D01*
X200974537Y-124922775D01*
X200917343Y-124776779D01*
X200861098Y-124627659D01*
X200808062Y-124481725D01*
X200760501Y-124345291D01*
X200720676Y-124224670D01*
X200690850Y-124126173D01*
X200673286Y-124056113D01*
X200669500Y-124027447D01*
X200689028Y-124019461D01*
X200741199Y-124014574D01*
X200816389Y-124013477D01*
X200852178Y-124014301D01*
X201034857Y-124020417D01*
X201134251Y-124369667D01*
X201192299Y-124570760D01*
X201240690Y-124732028D01*
X201279853Y-124854758D01*
X201310216Y-124940238D01*
X201332209Y-124989757D01*
X201345616Y-125004667D01*
X201360526Y-124985629D01*
X201386050Y-124932877D01*
X201419701Y-124852953D01*
X201458995Y-124752399D01*
X201501447Y-124637757D01*
X201544573Y-124515569D01*
X201585886Y-124392377D01*
X201622903Y-124274723D01*
X201622996Y-124274417D01*
X201699692Y-124020417D01*
X201814657Y-124014216D01*
X201929622Y-124008016D01*
X202037905Y-124437550D01*
X202037905Y-124437550D01*
G37*
X202037905Y-124437550D02*
X202072242Y-124571318D01*
X202105254Y-124695474D01*
X202134862Y-124802530D01*
X202158986Y-124885001D01*
X202175545Y-124935401D01*
X202177849Y-124941167D01*
X202209509Y-125015250D01*
X202275079Y-124877667D01*
X202304621Y-124811484D01*
X202344849Y-124715457D01*
X202391762Y-124599444D01*
X202441355Y-124473305D01*
X202477043Y-124380250D01*
X202613436Y-124020417D01*
X202795051Y-124014301D01*
X202876748Y-124012398D01*
X202939386Y-124012555D01*
X202973304Y-124014676D01*
X202976666Y-124016073D01*
X202968196Y-124048718D01*
X202944538Y-124113634D01*
X202908325Y-124204692D01*
X202862187Y-124315763D01*
X202808754Y-124440716D01*
X202750659Y-124573422D01*
X202690531Y-124707752D01*
X202631002Y-124837577D01*
X202574703Y-124956766D01*
X202558786Y-124989636D01*
X202354568Y-125408521D01*
X202205939Y-125402386D01*
X202057310Y-125396250D01*
X201968523Y-125121084D01*
X201932517Y-125005762D01*
X201898950Y-124891546D01*
X201871434Y-124791157D01*
X201853580Y-124717313D01*
X201852818Y-124713625D01*
X201837000Y-124645551D01*
X201822150Y-124597802D01*
X201812200Y-124581334D01*
X201800837Y-124600159D01*
X201776955Y-124652741D01*
X201743004Y-124733236D01*
X201701433Y-124835799D01*
X201654689Y-124954589D01*
X201641459Y-124988792D01*
X201484416Y-125396250D01*
X201334834Y-125402391D01*
X201185253Y-125408532D01*
X201082715Y-125180141D01*
X201030415Y-125059333D01*
X200974537Y-124922775D01*
X200917343Y-124776779D01*
X200861098Y-124627659D01*
X200808062Y-124481725D01*
X200760501Y-124345291D01*
X200720676Y-124224670D01*
X200690850Y-124126173D01*
X200673286Y-124056113D01*
X200669500Y-124027447D01*
X200689028Y-124019461D01*
X200741199Y-124014574D01*
X200816389Y-124013477D01*
X200852178Y-124014301D01*
X201034857Y-124020417D01*
X201134251Y-124369667D01*
X201192299Y-124570760D01*
X201240690Y-124732028D01*
X201279853Y-124854758D01*
X201310216Y-124940238D01*
X201332209Y-124989757D01*
X201345616Y-125004667D01*
X201360526Y-124985629D01*
X201386050Y-124932877D01*
X201419701Y-124852953D01*
X201458995Y-124752399D01*
X201501447Y-124637757D01*
X201544573Y-124515569D01*
X201585886Y-124392377D01*
X201622903Y-124274723D01*
X201622996Y-124274417D01*
X201699692Y-124020417D01*
X201814657Y-124014216D01*
X201929622Y-124008016D01*
X202037905Y-124437550D01*
G36*
X206065915Y-123992614D02*
G01*
X206169727Y-124001532D01*
X206251934Y-124014764D01*
X206303857Y-124031145D01*
X206313931Y-124038043D01*
X206315174Y-124062635D01*
X206307899Y-124116374D01*
X206294715Y-124182769D01*
X206277337Y-124254776D01*
X206262315Y-124293757D01*
X206244024Y-124308262D01*
X206216837Y-124306838D01*
X206213502Y-124306167D01*
X206171218Y-124301716D01*
X206098248Y-124298189D01*
X206006237Y-124296034D01*
X205940000Y-124295584D01*
X205717750Y-124295584D01*
X205712106Y-124851209D01*
X205706463Y-125406834D01*
X205347333Y-125406834D01*
X205347333Y-124074965D01*
X205426708Y-124054326D01*
X205689622Y-124004041D01*
X205949179Y-123989172D01*
X206065915Y-123992614D01*
X206065915Y-123992614D01*
G37*
X206065915Y-123992614D02*
X206169727Y-124001532D01*
X206251934Y-124014764D01*
X206303857Y-124031145D01*
X206313931Y-124038043D01*
X206315174Y-124062635D01*
X206307899Y-124116374D01*
X206294715Y-124182769D01*
X206277337Y-124254776D01*
X206262315Y-124293757D01*
X206244024Y-124308262D01*
X206216837Y-124306838D01*
X206213502Y-124306167D01*
X206171218Y-124301716D01*
X206098248Y-124298189D01*
X206006237Y-124296034D01*
X205940000Y-124295584D01*
X205717750Y-124295584D01*
X205712106Y-124851209D01*
X205706463Y-125406834D01*
X205347333Y-125406834D01*
X205347333Y-124074965D01*
X205426708Y-124054326D01*
X205689622Y-124004041D01*
X205949179Y-123989172D01*
X206065915Y-123992614D01*
G36*
X211231666Y-125406834D02*
G01*
X210871833Y-125406834D01*
X210871833Y-124009834D01*
X211231666Y-124009834D01*
X211231666Y-125406834D01*
X211231666Y-125406834D01*
G37*
X211231666Y-125406834D02*
X210871833Y-125406834D01*
X210871833Y-124009834D01*
X211231666Y-124009834D01*
X211231666Y-125406834D01*
G36*
X212786517Y-124173875D02*
G01*
X212764210Y-124242366D01*
X212730013Y-124342135D01*
X212686878Y-124464815D01*
X212637761Y-124602037D01*
X212585614Y-124745435D01*
X212564224Y-124803584D01*
X212514049Y-124939778D01*
X212467631Y-125066294D01*
X212427383Y-125176513D01*
X212395721Y-125263813D01*
X212375056Y-125321574D01*
X212369358Y-125338042D01*
X212346397Y-125406834D01*
X211999122Y-125406834D01*
X211870594Y-125126375D01*
X211817416Y-125008589D01*
X211764156Y-124887590D01*
X211716555Y-124776611D01*
X211680357Y-124688883D01*
X211676519Y-124679193D01*
X211649798Y-124609216D01*
X211616750Y-124519683D01*
X211580209Y-124418641D01*
X211543010Y-124314134D01*
X211507986Y-124214209D01*
X211477972Y-124126911D01*
X211455802Y-124060287D01*
X211444311Y-124022381D01*
X211443333Y-124017240D01*
X211462874Y-124013833D01*
X211515081Y-124012461D01*
X211590328Y-124013277D01*
X211626235Y-124014301D01*
X211809136Y-124020417D01*
X211878346Y-124263834D01*
X211917377Y-124393678D01*
X211960693Y-124525313D01*
X212005997Y-124653022D01*
X212050992Y-124771090D01*
X212093380Y-124873801D01*
X212130863Y-124955438D01*
X212161146Y-125010287D01*
X212181929Y-125032630D01*
X212186858Y-125031409D01*
X212197794Y-125006349D01*
X212218011Y-124946932D01*
X212245585Y-124859621D01*
X212278592Y-124750882D01*
X212315107Y-124627181D01*
X212353209Y-124494982D01*
X212390971Y-124360751D01*
X212426472Y-124230953D01*
X212438883Y-124184459D01*
X212485137Y-124009834D01*
X212836904Y-124009834D01*
X212786517Y-124173875D01*
X212786517Y-124173875D01*
G37*
X212786517Y-124173875D02*
X212764210Y-124242366D01*
X212730013Y-124342135D01*
X212686878Y-124464815D01*
X212637761Y-124602037D01*
X212585614Y-124745435D01*
X212564224Y-124803584D01*
X212514049Y-124939778D01*
X212467631Y-125066294D01*
X212427383Y-125176513D01*
X212395721Y-125263813D01*
X212375056Y-125321574D01*
X212369358Y-125338042D01*
X212346397Y-125406834D01*
X211999122Y-125406834D01*
X211870594Y-125126375D01*
X211817416Y-125008589D01*
X211764156Y-124887590D01*
X211716555Y-124776611D01*
X211680357Y-124688883D01*
X211676519Y-124679193D01*
X211649798Y-124609216D01*
X211616750Y-124519683D01*
X211580209Y-124418641D01*
X211543010Y-124314134D01*
X211507986Y-124214209D01*
X211477972Y-124126911D01*
X211455802Y-124060287D01*
X211444311Y-124022381D01*
X211443333Y-124017240D01*
X211462874Y-124013833D01*
X211515081Y-124012461D01*
X211590328Y-124013277D01*
X211626235Y-124014301D01*
X211809136Y-124020417D01*
X211878346Y-124263834D01*
X211917377Y-124393678D01*
X211960693Y-124525313D01*
X212005997Y-124653022D01*
X212050992Y-124771090D01*
X212093380Y-124873801D01*
X212130863Y-124955438D01*
X212161146Y-125010287D01*
X212181929Y-125032630D01*
X212186858Y-125031409D01*
X212197794Y-125006349D01*
X212218011Y-124946932D01*
X212245585Y-124859621D01*
X212278592Y-124750882D01*
X212315107Y-124627181D01*
X212353209Y-124494982D01*
X212390971Y-124360751D01*
X212426472Y-124230953D01*
X212438883Y-124184459D01*
X212485137Y-124009834D01*
X212836904Y-124009834D01*
X212786517Y-124173875D01*
G36*
X220121666Y-124003392D02*
G01*
X220329414Y-123993388D01*
X220518115Y-123996091D01*
X220674552Y-124024649D01*
X220800720Y-124080047D01*
X220898615Y-124163272D01*
X220970231Y-124275309D01*
X220988594Y-124319189D01*
X221002694Y-124360459D01*
X221013378Y-124403247D01*
X221021110Y-124454015D01*
X221026354Y-124519224D01*
X221029575Y-124605335D01*
X221031238Y-124718810D01*
X221031806Y-124866110D01*
X221031833Y-124920794D01*
X221031833Y-125406834D01*
X220693166Y-125406834D01*
X220693044Y-125031125D01*
X220691685Y-124847349D01*
X220687222Y-124700734D01*
X220678871Y-124586172D01*
X220665847Y-124498554D01*
X220647370Y-124432772D01*
X220622654Y-124383717D01*
X220590917Y-124346281D01*
X220587580Y-124343209D01*
X220548949Y-124312340D01*
X220509718Y-124294825D01*
X220456209Y-124287020D01*
X220374743Y-124285283D01*
X220370041Y-124285289D01*
X220286796Y-124287166D01*
X220214890Y-124291814D01*
X220169698Y-124298234D01*
X220169291Y-124298341D01*
X220121666Y-124311104D01*
X220121666Y-125406834D01*
X219783000Y-125406834D01*
X219783000Y-123353667D01*
X220121666Y-123353667D01*
X220121666Y-124003392D01*
X220121666Y-124003392D01*
G37*
X220121666Y-124003392D02*
X220329414Y-123993388D01*
X220518115Y-123996091D01*
X220674552Y-124024649D01*
X220800720Y-124080047D01*
X220898615Y-124163272D01*
X220970231Y-124275309D01*
X220988594Y-124319189D01*
X221002694Y-124360459D01*
X221013378Y-124403247D01*
X221021110Y-124454015D01*
X221026354Y-124519224D01*
X221029575Y-124605335D01*
X221031238Y-124718810D01*
X221031806Y-124866110D01*
X221031833Y-124920794D01*
X221031833Y-125406834D01*
X220693166Y-125406834D01*
X220693044Y-125031125D01*
X220691685Y-124847349D01*
X220687222Y-124700734D01*
X220678871Y-124586172D01*
X220665847Y-124498554D01*
X220647370Y-124432772D01*
X220622654Y-124383717D01*
X220590917Y-124346281D01*
X220587580Y-124343209D01*
X220548949Y-124312340D01*
X220509718Y-124294825D01*
X220456209Y-124287020D01*
X220374743Y-124285283D01*
X220370041Y-124285289D01*
X220286796Y-124287166D01*
X220214890Y-124291814D01*
X220169698Y-124298234D01*
X220169291Y-124298341D01*
X220121666Y-124311104D01*
X220121666Y-125406834D01*
X219783000Y-125406834D01*
X219783000Y-123353667D01*
X220121666Y-123353667D01*
X220121666Y-124003392D01*
G36*
X222117847Y-123999781D02*
G01*
X222207021Y-124001411D01*
X222271011Y-124005708D01*
X222318394Y-124013877D01*
X222357744Y-124027122D01*
X222397637Y-124046648D01*
X222421042Y-124059462D01*
X222490392Y-124104353D01*
X222550492Y-124154198D01*
X222575718Y-124181960D01*
X222609938Y-124231753D01*
X222636749Y-124281663D01*
X222657173Y-124337762D01*
X222672233Y-124406118D01*
X222682949Y-124492799D01*
X222690345Y-124603875D01*
X222695443Y-124745416D01*
X222699106Y-124914709D01*
X222707960Y-125406834D01*
X222344166Y-125406834D01*
X222344166Y-124962762D01*
X222342959Y-124775364D01*
X222337782Y-124625985D01*
X222326301Y-124510340D01*
X222306181Y-124424148D01*
X222275088Y-124363124D01*
X222230689Y-124322986D01*
X222170647Y-124299450D01*
X222092630Y-124288232D01*
X221994303Y-124285050D01*
X221974801Y-124285000D01*
X221793833Y-124285000D01*
X221793833Y-125406834D01*
X221434000Y-125406834D01*
X221434000Y-124055168D01*
X221555708Y-124027573D01*
X221627142Y-124016633D01*
X221730203Y-124007876D01*
X221854209Y-124001980D01*
X221988481Y-123999626D01*
X221994916Y-123999614D01*
X222117847Y-123999781D01*
X222117847Y-123999781D01*
G37*
X222117847Y-123999781D02*
X222207021Y-124001411D01*
X222271011Y-124005708D01*
X222318394Y-124013877D01*
X222357744Y-124027122D01*
X222397637Y-124046648D01*
X222421042Y-124059462D01*
X222490392Y-124104353D01*
X222550492Y-124154198D01*
X222575718Y-124181960D01*
X222609938Y-124231753D01*
X222636749Y-124281663D01*
X222657173Y-124337762D01*
X222672233Y-124406118D01*
X222682949Y-124492799D01*
X222690345Y-124603875D01*
X222695443Y-124745416D01*
X222699106Y-124914709D01*
X222707960Y-125406834D01*
X222344166Y-125406834D01*
X222344166Y-124962762D01*
X222342959Y-124775364D01*
X222337782Y-124625985D01*
X222326301Y-124510340D01*
X222306181Y-124424148D01*
X222275088Y-124363124D01*
X222230689Y-124322986D01*
X222170647Y-124299450D01*
X222092630Y-124288232D01*
X221994303Y-124285050D01*
X221974801Y-124285000D01*
X221793833Y-124285000D01*
X221793833Y-125406834D01*
X221434000Y-125406834D01*
X221434000Y-124055168D01*
X221555708Y-124027573D01*
X221627142Y-124016633D01*
X221730203Y-124007876D01*
X221854209Y-124001980D01*
X221988481Y-123999626D01*
X221994916Y-123999614D01*
X222117847Y-123999781D01*
G36*
X229308000Y-125406834D02*
G01*
X228948166Y-125406834D01*
X228948166Y-124009834D01*
X229308000Y-124009834D01*
X229308000Y-125406834D01*
X229308000Y-125406834D01*
G37*
X229308000Y-125406834D02*
X228948166Y-125406834D01*
X228948166Y-124009834D01*
X229308000Y-124009834D01*
X229308000Y-125406834D01*
G36*
X214909375Y-124437991D02*
G01*
X215306250Y-124443750D01*
X215312468Y-124597209D01*
X215318687Y-124750667D01*
X214512500Y-124750667D01*
X214512500Y-124432233D01*
X214909375Y-124437991D01*
X214909375Y-124437991D01*
G37*
X214909375Y-124437991D02*
X215306250Y-124443750D01*
X215312468Y-124597209D01*
X215318687Y-124750667D01*
X214512500Y-124750667D01*
X214512500Y-124432233D01*
X214909375Y-124437991D01*
G36*
X211231666Y-123798167D02*
G01*
X210871833Y-123798167D01*
X210871833Y-123459500D01*
X211231666Y-123459500D01*
X211231666Y-123798167D01*
X211231666Y-123798167D01*
G37*
X211231666Y-123798167D02*
X210871833Y-123798167D01*
X210871833Y-123459500D01*
X211231666Y-123459500D01*
X211231666Y-123798167D01*
G36*
X229308000Y-123798167D02*
G01*
X228948166Y-123798167D01*
X228948166Y-123459500D01*
X229308000Y-123459500D01*
X229308000Y-123798167D01*
X229308000Y-123798167D01*
G37*
X229308000Y-123798167D02*
X228948166Y-123798167D01*
X228948166Y-123459500D01*
X229308000Y-123459500D01*
X229308000Y-123798167D01*
G36*
X204585333Y-115154784D02*
G01*
X204584990Y-115407242D01*
X204583997Y-115650006D01*
X204582412Y-115878973D01*
X204580290Y-116090041D01*
X204577688Y-116279108D01*
X204574661Y-116442071D01*
X204571265Y-116574829D01*
X204567557Y-116673279D01*
X204563771Y-116731549D01*
X204501743Y-117166323D01*
X204402721Y-117581276D01*
X204265858Y-117978629D01*
X204090303Y-118360600D01*
X203875206Y-118729410D01*
X203705277Y-118974687D01*
X203669456Y-119020781D01*
X203622261Y-119077102D01*
X203562022Y-119145383D01*
X203487071Y-119227356D01*
X203395738Y-119324755D01*
X203286354Y-119439312D01*
X203157251Y-119572760D01*
X203006758Y-119726833D01*
X202833208Y-119903264D01*
X202634930Y-120103785D01*
X202410256Y-120330130D01*
X202157517Y-120584031D01*
X202090380Y-120651384D01*
X201881756Y-120860259D01*
X201679458Y-121062081D01*
X201485752Y-121254628D01*
X201302905Y-121435678D01*
X201133185Y-121603011D01*
X200978858Y-121754404D01*
X200842191Y-121887637D01*
X200725451Y-122000487D01*
X200630904Y-122090733D01*
X200560818Y-122156154D01*
X200517459Y-122194529D01*
X200508871Y-122201264D01*
X200363572Y-122293512D01*
X200196034Y-122379875D01*
X200026179Y-122450630D01*
X199939250Y-122479293D01*
X199908802Y-122487231D01*
X199873660Y-122493995D01*
X199830296Y-122499694D01*
X199775179Y-122504434D01*
X199704782Y-122508323D01*
X199615576Y-122511466D01*
X199504031Y-122513972D01*
X199366618Y-122515948D01*
X199199810Y-122517499D01*
X199000077Y-122518734D01*
X198763890Y-122519760D01*
X198584583Y-122520379D01*
X198357527Y-122520786D01*
X198140864Y-122520550D01*
X197938703Y-122519716D01*
X197755152Y-122518330D01*
X197594321Y-122516440D01*
X197460317Y-122514091D01*
X197357250Y-122511328D01*
X197289229Y-122508199D01*
X197263258Y-122505556D01*
X197009382Y-122433657D01*
X196770504Y-122324587D01*
X196550682Y-122181887D01*
X196353977Y-122009095D01*
X196184446Y-121809752D01*
X196046149Y-121587396D01*
X195947466Y-121358270D01*
X195915144Y-121253672D01*
X195889654Y-121144402D01*
X195870496Y-121024637D01*
X195857168Y-120888555D01*
X195849166Y-120730334D01*
X195845991Y-120544151D01*
X195847139Y-120324183D01*
X195848893Y-120214723D01*
X195852546Y-120039079D01*
X195856552Y-119899283D01*
X195861408Y-119788845D01*
X195867614Y-119701281D01*
X195875670Y-119630103D01*
X195886074Y-119568824D01*
X195899327Y-119510957D01*
X195904612Y-119490750D01*
X195995759Y-119228322D01*
X196121577Y-118988852D01*
X196280330Y-118774516D01*
X196470282Y-118587490D01*
X196689696Y-118429951D01*
X196800790Y-118367596D01*
X196871749Y-118331089D01*
X196935286Y-118299711D01*
X196995149Y-118273036D01*
X197055086Y-118250640D01*
X197118845Y-118232096D01*
X197190173Y-118216979D01*
X197272819Y-118204864D01*
X197370530Y-118195325D01*
X197487055Y-118187937D01*
X197626141Y-118182273D01*
X197791536Y-118177910D01*
X197986988Y-118174420D01*
X198216244Y-118171379D01*
X198483054Y-118168360D01*
X198563416Y-118167479D01*
X198829133Y-118164453D01*
X199055992Y-118161575D01*
X199247468Y-118158718D01*
X199407036Y-118155752D01*
X199538172Y-118152548D01*
X199644349Y-118148979D01*
X199729042Y-118144915D01*
X199795727Y-118140227D01*
X199847878Y-118134788D01*
X199888970Y-118128467D01*
X199922477Y-118121138D01*
X199939250Y-118116537D01*
X200073706Y-118069960D01*
X200219705Y-118007676D01*
X200359414Y-117937908D01*
X200472113Y-117870821D01*
X200499349Y-117847705D01*
X200554638Y-117796434D01*
X200636132Y-117718826D01*
X200741984Y-117616695D01*
X200870346Y-117491856D01*
X201019372Y-117346125D01*
X201187213Y-117181317D01*
X201372022Y-116999246D01*
X201571953Y-116801729D01*
X201785157Y-116590580D01*
X202009788Y-116367614D01*
X202243998Y-116134648D01*
X202485939Y-115893495D01*
X202579791Y-115799817D01*
X204585333Y-113797221D01*
X204585333Y-115154784D01*
X204585333Y-115154784D01*
G37*
X204585333Y-115154784D02*
X204584990Y-115407242D01*
X204583997Y-115650006D01*
X204582412Y-115878973D01*
X204580290Y-116090041D01*
X204577688Y-116279108D01*
X204574661Y-116442071D01*
X204571265Y-116574829D01*
X204567557Y-116673279D01*
X204563771Y-116731549D01*
X204501743Y-117166323D01*
X204402721Y-117581276D01*
X204265858Y-117978629D01*
X204090303Y-118360600D01*
X203875206Y-118729410D01*
X203705277Y-118974687D01*
X203669456Y-119020781D01*
X203622261Y-119077102D01*
X203562022Y-119145383D01*
X203487071Y-119227356D01*
X203395738Y-119324755D01*
X203286354Y-119439312D01*
X203157251Y-119572760D01*
X203006758Y-119726833D01*
X202833208Y-119903264D01*
X202634930Y-120103785D01*
X202410256Y-120330130D01*
X202157517Y-120584031D01*
X202090380Y-120651384D01*
X201881756Y-120860259D01*
X201679458Y-121062081D01*
X201485752Y-121254628D01*
X201302905Y-121435678D01*
X201133185Y-121603011D01*
X200978858Y-121754404D01*
X200842191Y-121887637D01*
X200725451Y-122000487D01*
X200630904Y-122090733D01*
X200560818Y-122156154D01*
X200517459Y-122194529D01*
X200508871Y-122201264D01*
X200363572Y-122293512D01*
X200196034Y-122379875D01*
X200026179Y-122450630D01*
X199939250Y-122479293D01*
X199908802Y-122487231D01*
X199873660Y-122493995D01*
X199830296Y-122499694D01*
X199775179Y-122504434D01*
X199704782Y-122508323D01*
X199615576Y-122511466D01*
X199504031Y-122513972D01*
X199366618Y-122515948D01*
X199199810Y-122517499D01*
X199000077Y-122518734D01*
X198763890Y-122519760D01*
X198584583Y-122520379D01*
X198357527Y-122520786D01*
X198140864Y-122520550D01*
X197938703Y-122519716D01*
X197755152Y-122518330D01*
X197594321Y-122516440D01*
X197460317Y-122514091D01*
X197357250Y-122511328D01*
X197289229Y-122508199D01*
X197263258Y-122505556D01*
X197009382Y-122433657D01*
X196770504Y-122324587D01*
X196550682Y-122181887D01*
X196353977Y-122009095D01*
X196184446Y-121809752D01*
X196046149Y-121587396D01*
X195947466Y-121358270D01*
X195915144Y-121253672D01*
X195889654Y-121144402D01*
X195870496Y-121024637D01*
X195857168Y-120888555D01*
X195849166Y-120730334D01*
X195845991Y-120544151D01*
X195847139Y-120324183D01*
X195848893Y-120214723D01*
X195852546Y-120039079D01*
X195856552Y-119899283D01*
X195861408Y-119788845D01*
X195867614Y-119701281D01*
X195875670Y-119630103D01*
X195886074Y-119568824D01*
X195899327Y-119510957D01*
X195904612Y-119490750D01*
X195995759Y-119228322D01*
X196121577Y-118988852D01*
X196280330Y-118774516D01*
X196470282Y-118587490D01*
X196689696Y-118429951D01*
X196800790Y-118367596D01*
X196871749Y-118331089D01*
X196935286Y-118299711D01*
X196995149Y-118273036D01*
X197055086Y-118250640D01*
X197118845Y-118232096D01*
X197190173Y-118216979D01*
X197272819Y-118204864D01*
X197370530Y-118195325D01*
X197487055Y-118187937D01*
X197626141Y-118182273D01*
X197791536Y-118177910D01*
X197986988Y-118174420D01*
X198216244Y-118171379D01*
X198483054Y-118168360D01*
X198563416Y-118167479D01*
X198829133Y-118164453D01*
X199055992Y-118161575D01*
X199247468Y-118158718D01*
X199407036Y-118155752D01*
X199538172Y-118152548D01*
X199644349Y-118148979D01*
X199729042Y-118144915D01*
X199795727Y-118140227D01*
X199847878Y-118134788D01*
X199888970Y-118128467D01*
X199922477Y-118121138D01*
X199939250Y-118116537D01*
X200073706Y-118069960D01*
X200219705Y-118007676D01*
X200359414Y-117937908D01*
X200472113Y-117870821D01*
X200499349Y-117847705D01*
X200554638Y-117796434D01*
X200636132Y-117718826D01*
X200741984Y-117616695D01*
X200870346Y-117491856D01*
X201019372Y-117346125D01*
X201187213Y-117181317D01*
X201372022Y-116999246D01*
X201571953Y-116801729D01*
X201785157Y-116590580D01*
X202009788Y-116367614D01*
X202243998Y-116134648D01*
X202485939Y-115893495D01*
X202579791Y-115799817D01*
X204585333Y-113797221D01*
X204585333Y-115154784D01*
G36*
X210628652Y-113940432D02*
G01*
X210646606Y-113940803D01*
X210849579Y-113946224D01*
X211018905Y-113953773D01*
X211163261Y-113964578D01*
X211291321Y-113979766D01*
X211411762Y-114000466D01*
X211533258Y-114027804D01*
X211664485Y-114062910D01*
X211728812Y-114081480D01*
X211947142Y-114152147D01*
X212176436Y-114238232D01*
X212408378Y-114335814D01*
X212634652Y-114440976D01*
X212846944Y-114549798D01*
X213036937Y-114658363D01*
X213196316Y-114762751D01*
X213235255Y-114791404D01*
X213323261Y-114858204D01*
X212848641Y-115380602D01*
X212735005Y-115505182D01*
X212630205Y-115619126D01*
X212537666Y-115718784D01*
X212460813Y-115800506D01*
X212403070Y-115860641D01*
X212367864Y-115895539D01*
X212358469Y-115902997D01*
X212334989Y-115892238D01*
X212284734Y-115863348D01*
X212216333Y-115821401D01*
X212173583Y-115794269D01*
X211927334Y-115646500D01*
X211682062Y-115519134D01*
X211444782Y-115415307D01*
X211222512Y-115338157D01*
X211065741Y-115298853D01*
X210957630Y-115283475D01*
X210819945Y-115273445D01*
X210661899Y-115268537D01*
X210492704Y-115268528D01*
X210321574Y-115273191D01*
X210157721Y-115282304D01*
X210010357Y-115295640D01*
X209888695Y-115312975D01*
X209816915Y-115329319D01*
X209584372Y-115418652D01*
X209357031Y-115546806D01*
X209139279Y-115710278D01*
X208935504Y-115905565D01*
X208750092Y-116129163D01*
X208668146Y-116246673D01*
X208587666Y-116371803D01*
X208525380Y-116476851D01*
X208474203Y-116575696D01*
X208427053Y-116682214D01*
X208376849Y-116810285D01*
X208366696Y-116837354D01*
X208326617Y-116950939D01*
X208294707Y-117058137D01*
X208270096Y-117165891D01*
X208251911Y-117281147D01*
X208239280Y-117410849D01*
X208231333Y-117561941D01*
X208227197Y-117741366D01*
X208226000Y-117956071D01*
X208226000Y-117958109D01*
X208227185Y-118190239D01*
X208231243Y-118387773D01*
X208238924Y-118558398D01*
X208250982Y-118709798D01*
X208268167Y-118849658D01*
X208291232Y-118985665D01*
X208320928Y-119125502D01*
X208353165Y-119257917D01*
X208450675Y-119585850D01*
X208568030Y-119878190D01*
X208707045Y-120137642D01*
X208869532Y-120366915D01*
X209057308Y-120568716D01*
X209272187Y-120745752D01*
X209413805Y-120840549D01*
X209494764Y-120890082D01*
X209565733Y-120930447D01*
X209632179Y-120962579D01*
X209699570Y-120987412D01*
X209773372Y-121005880D01*
X209859052Y-121018916D01*
X209962077Y-121027455D01*
X210087913Y-121032431D01*
X210242029Y-121034777D01*
X210429890Y-121035428D01*
X210554333Y-121035398D01*
X210748399Y-121035112D01*
X210905457Y-121034378D01*
X211030831Y-121032907D01*
X211129847Y-121030409D01*
X211207830Y-121026598D01*
X211270105Y-121021183D01*
X211321996Y-121013878D01*
X211368828Y-121004393D01*
X211415926Y-120992440D01*
X211432750Y-120987818D01*
X211551098Y-120948056D01*
X211697895Y-120887456D01*
X211866625Y-120809044D01*
X212050768Y-120715844D01*
X212239381Y-120613370D01*
X212411012Y-120517002D01*
X212816172Y-121076853D01*
X212913828Y-121212306D01*
X213003008Y-121336989D01*
X213080787Y-121446732D01*
X213144239Y-121537370D01*
X213190438Y-121604732D01*
X213216458Y-121644652D01*
X213221174Y-121653811D01*
X213203260Y-121669334D01*
X213153876Y-121700460D01*
X213079378Y-121743776D01*
X212986120Y-121795873D01*
X212880456Y-121853340D01*
X212768740Y-121912766D01*
X212657327Y-121970740D01*
X212552572Y-122023851D01*
X212460828Y-122068690D01*
X212388451Y-122101844D01*
X212378724Y-122105992D01*
X212231458Y-122161471D01*
X212056521Y-122217188D01*
X211868368Y-122269174D01*
X211681452Y-122313461D01*
X211510227Y-122346081D01*
X211496250Y-122348283D01*
X211398039Y-122359754D01*
X211265512Y-122369857D01*
X211106669Y-122378430D01*
X210929510Y-122385313D01*
X210742034Y-122390343D01*
X210552243Y-122393360D01*
X210368135Y-122394203D01*
X210197711Y-122392710D01*
X210048971Y-122388720D01*
X209929915Y-122382073D01*
X209908750Y-122380261D01*
X209619157Y-122341540D01*
X209353512Y-122279494D01*
X209098064Y-122190065D01*
X208839066Y-122069194D01*
X208818666Y-122058511D01*
X208501088Y-121876083D01*
X208216499Y-121679471D01*
X207956647Y-121461724D01*
X207713278Y-121215894D01*
X207478142Y-120935033D01*
X207466366Y-120919833D01*
X207311845Y-120706844D01*
X207178101Y-120492916D01*
X207060212Y-120268419D01*
X206953259Y-120023723D01*
X206852319Y-119749199D01*
X206822637Y-119660084D01*
X206760726Y-119458675D01*
X206710170Y-119265832D01*
X206670156Y-119074692D01*
X206639874Y-118878390D01*
X206618510Y-118670062D01*
X206605253Y-118442845D01*
X206599290Y-118189875D01*
X206599811Y-117904287D01*
X206601461Y-117790358D01*
X206605901Y-117583991D01*
X206612089Y-117412524D01*
X206621048Y-117268532D01*
X206633804Y-117144586D01*
X206651381Y-117033260D01*
X206674805Y-116927127D01*
X206705100Y-116818761D01*
X206743291Y-116700735D01*
X206757573Y-116659061D01*
X206892488Y-116330519D01*
X207066910Y-116007126D01*
X207278060Y-115692017D01*
X207523159Y-115388328D01*
X207799429Y-115099193D01*
X208104091Y-114827748D01*
X208434366Y-114577126D01*
X208787476Y-114350464D01*
X208821353Y-114330727D01*
X209006925Y-114228380D01*
X209180823Y-114144085D01*
X209349683Y-114076426D01*
X209520141Y-114023985D01*
X209698833Y-113985344D01*
X209892394Y-113959086D01*
X210107460Y-113943793D01*
X210350668Y-113938048D01*
X210628652Y-113940432D01*
X210628652Y-113940432D01*
G37*
X210628652Y-113940432D02*
X210646606Y-113940803D01*
X210849579Y-113946224D01*
X211018905Y-113953773D01*
X211163261Y-113964578D01*
X211291321Y-113979766D01*
X211411762Y-114000466D01*
X211533258Y-114027804D01*
X211664485Y-114062910D01*
X211728812Y-114081480D01*
X211947142Y-114152147D01*
X212176436Y-114238232D01*
X212408378Y-114335814D01*
X212634652Y-114440976D01*
X212846944Y-114549798D01*
X213036937Y-114658363D01*
X213196316Y-114762751D01*
X213235255Y-114791404D01*
X213323261Y-114858204D01*
X212848641Y-115380602D01*
X212735005Y-115505182D01*
X212630205Y-115619126D01*
X212537666Y-115718784D01*
X212460813Y-115800506D01*
X212403070Y-115860641D01*
X212367864Y-115895539D01*
X212358469Y-115902997D01*
X212334989Y-115892238D01*
X212284734Y-115863348D01*
X212216333Y-115821401D01*
X212173583Y-115794269D01*
X211927334Y-115646500D01*
X211682062Y-115519134D01*
X211444782Y-115415307D01*
X211222512Y-115338157D01*
X211065741Y-115298853D01*
X210957630Y-115283475D01*
X210819945Y-115273445D01*
X210661899Y-115268537D01*
X210492704Y-115268528D01*
X210321574Y-115273191D01*
X210157721Y-115282304D01*
X210010357Y-115295640D01*
X209888695Y-115312975D01*
X209816915Y-115329319D01*
X209584372Y-115418652D01*
X209357031Y-115546806D01*
X209139279Y-115710278D01*
X208935504Y-115905565D01*
X208750092Y-116129163D01*
X208668146Y-116246673D01*
X208587666Y-116371803D01*
X208525380Y-116476851D01*
X208474203Y-116575696D01*
X208427053Y-116682214D01*
X208376849Y-116810285D01*
X208366696Y-116837354D01*
X208326617Y-116950939D01*
X208294707Y-117058137D01*
X208270096Y-117165891D01*
X208251911Y-117281147D01*
X208239280Y-117410849D01*
X208231333Y-117561941D01*
X208227197Y-117741366D01*
X208226000Y-117956071D01*
X208226000Y-117958109D01*
X208227185Y-118190239D01*
X208231243Y-118387773D01*
X208238924Y-118558398D01*
X208250982Y-118709798D01*
X208268167Y-118849658D01*
X208291232Y-118985665D01*
X208320928Y-119125502D01*
X208353165Y-119257917D01*
X208450675Y-119585850D01*
X208568030Y-119878190D01*
X208707045Y-120137642D01*
X208869532Y-120366915D01*
X209057308Y-120568716D01*
X209272187Y-120745752D01*
X209413805Y-120840549D01*
X209494764Y-120890082D01*
X209565733Y-120930447D01*
X209632179Y-120962579D01*
X209699570Y-120987412D01*
X209773372Y-121005880D01*
X209859052Y-121018916D01*
X209962077Y-121027455D01*
X210087913Y-121032431D01*
X210242029Y-121034777D01*
X210429890Y-121035428D01*
X210554333Y-121035398D01*
X210748399Y-121035112D01*
X210905457Y-121034378D01*
X211030831Y-121032907D01*
X211129847Y-121030409D01*
X211207830Y-121026598D01*
X211270105Y-121021183D01*
X211321996Y-121013878D01*
X211368828Y-121004393D01*
X211415926Y-120992440D01*
X211432750Y-120987818D01*
X211551098Y-120948056D01*
X211697895Y-120887456D01*
X211866625Y-120809044D01*
X212050768Y-120715844D01*
X212239381Y-120613370D01*
X212411012Y-120517002D01*
X212816172Y-121076853D01*
X212913828Y-121212306D01*
X213003008Y-121336989D01*
X213080787Y-121446732D01*
X213144239Y-121537370D01*
X213190438Y-121604732D01*
X213216458Y-121644652D01*
X213221174Y-121653811D01*
X213203260Y-121669334D01*
X213153876Y-121700460D01*
X213079378Y-121743776D01*
X212986120Y-121795873D01*
X212880456Y-121853340D01*
X212768740Y-121912766D01*
X212657327Y-121970740D01*
X212552572Y-122023851D01*
X212460828Y-122068690D01*
X212388451Y-122101844D01*
X212378724Y-122105992D01*
X212231458Y-122161471D01*
X212056521Y-122217188D01*
X211868368Y-122269174D01*
X211681452Y-122313461D01*
X211510227Y-122346081D01*
X211496250Y-122348283D01*
X211398039Y-122359754D01*
X211265512Y-122369857D01*
X211106669Y-122378430D01*
X210929510Y-122385313D01*
X210742034Y-122390343D01*
X210552243Y-122393360D01*
X210368135Y-122394203D01*
X210197711Y-122392710D01*
X210048971Y-122388720D01*
X209929915Y-122382073D01*
X209908750Y-122380261D01*
X209619157Y-122341540D01*
X209353512Y-122279494D01*
X209098064Y-122190065D01*
X208839066Y-122069194D01*
X208818666Y-122058511D01*
X208501088Y-121876083D01*
X208216499Y-121679471D01*
X207956647Y-121461724D01*
X207713278Y-121215894D01*
X207478142Y-120935033D01*
X207466366Y-120919833D01*
X207311845Y-120706844D01*
X207178101Y-120492916D01*
X207060212Y-120268419D01*
X206953259Y-120023723D01*
X206852319Y-119749199D01*
X206822637Y-119660084D01*
X206760726Y-119458675D01*
X206710170Y-119265832D01*
X206670156Y-119074692D01*
X206639874Y-118878390D01*
X206618510Y-118670062D01*
X206605253Y-118442845D01*
X206599290Y-118189875D01*
X206599811Y-117904287D01*
X206601461Y-117790358D01*
X206605901Y-117583991D01*
X206612089Y-117412524D01*
X206621048Y-117268532D01*
X206633804Y-117144586D01*
X206651381Y-117033260D01*
X206674805Y-116927127D01*
X206705100Y-116818761D01*
X206743291Y-116700735D01*
X206757573Y-116659061D01*
X206892488Y-116330519D01*
X207066910Y-116007126D01*
X207278060Y-115692017D01*
X207523159Y-115388328D01*
X207799429Y-115099193D01*
X208104091Y-114827748D01*
X208434366Y-114577126D01*
X208787476Y-114350464D01*
X208821353Y-114330727D01*
X209006925Y-114228380D01*
X209180823Y-114144085D01*
X209349683Y-114076426D01*
X209520141Y-114023985D01*
X209698833Y-113985344D01*
X209892394Y-113959086D01*
X210107460Y-113943793D01*
X210350668Y-113938048D01*
X210628652Y-113940432D01*
G36*
X233593268Y-113946362D02*
G01*
X233789873Y-113950092D01*
X233958282Y-113957329D01*
X234105545Y-113968946D01*
X234238711Y-113985816D01*
X234364832Y-114008812D01*
X234490958Y-114038808D01*
X234624138Y-114076677D01*
X234754726Y-114117843D01*
X234907935Y-114172761D01*
X235075061Y-114241461D01*
X235249578Y-114320483D01*
X235424959Y-114406367D01*
X235594678Y-114495652D01*
X235752208Y-114584879D01*
X235891025Y-114670587D01*
X236004600Y-114749317D01*
X236086409Y-114817607D01*
X236099391Y-114830775D01*
X236148385Y-114882926D01*
X235646762Y-115424567D01*
X235145138Y-115966207D01*
X235068194Y-115906381D01*
X235012043Y-115864290D01*
X234936502Y-115809682D01*
X234857190Y-115753835D01*
X234851310Y-115749762D01*
X234653127Y-115616869D01*
X234477730Y-115510113D01*
X234316892Y-115426811D01*
X234162386Y-115364284D01*
X234005986Y-115319852D01*
X233839466Y-115290832D01*
X233654601Y-115274546D01*
X233443163Y-115268311D01*
X233372910Y-115268000D01*
X233107820Y-115274227D01*
X232876844Y-115294532D01*
X232673395Y-115331356D01*
X232490884Y-115387138D01*
X232322725Y-115464317D01*
X232162329Y-115565333D01*
X232003109Y-115692624D01*
X231858131Y-115828917D01*
X231652469Y-116059120D01*
X231473951Y-116313766D01*
X231321200Y-116595583D01*
X231192837Y-116907303D01*
X231087483Y-117251656D01*
X231040348Y-117449046D01*
X231024988Y-117523420D01*
X231013254Y-117592450D01*
X231004676Y-117663509D01*
X230998784Y-117743969D01*
X230995110Y-117841204D01*
X230993182Y-117962587D01*
X230992532Y-118115490D01*
X230992533Y-118199584D01*
X230993877Y-118406697D01*
X230998139Y-118580303D01*
X231006226Y-118729181D01*
X231019048Y-118862108D01*
X231037511Y-118987862D01*
X231062525Y-119115223D01*
X231094998Y-119252968D01*
X231106003Y-119296353D01*
X231200256Y-119594889D01*
X231323271Y-119872248D01*
X231472662Y-120124980D01*
X231646042Y-120349637D01*
X231841024Y-120542768D01*
X232055222Y-120700924D01*
X232093975Y-120724437D01*
X232219049Y-120789156D01*
X232370385Y-120853840D01*
X232532322Y-120912559D01*
X232689200Y-120959385D01*
X232758166Y-120975909D01*
X232858947Y-120991850D01*
X232990648Y-121003881D01*
X233146643Y-121012141D01*
X233320299Y-121016765D01*
X233504990Y-121017893D01*
X233694084Y-121015663D01*
X233880954Y-121010211D01*
X234058969Y-121001675D01*
X234221499Y-120990195D01*
X234361917Y-120975906D01*
X234473592Y-120958947D01*
X234549895Y-120939456D01*
X234552113Y-120938628D01*
X234600223Y-120920336D01*
X234589083Y-119469584D01*
X234319208Y-119463659D01*
X234049333Y-119457735D01*
X234049333Y-118040834D01*
X236250666Y-118040834D01*
X236250666Y-121997208D01*
X236107791Y-122039693D01*
X235750980Y-122133603D01*
X235358545Y-122214199D01*
X234935276Y-122280772D01*
X234485962Y-122332611D01*
X234015393Y-122369007D01*
X233815664Y-122379379D01*
X233637224Y-122387046D01*
X233493446Y-122392391D01*
X233376725Y-122395494D01*
X233279458Y-122396431D01*
X233194041Y-122395280D01*
X233112870Y-122392119D01*
X233033333Y-122387363D01*
X232608560Y-122340421D01*
X232202946Y-122258448D01*
X231818044Y-122142154D01*
X231455406Y-121992253D01*
X231116586Y-121809456D01*
X230803136Y-121594476D01*
X230516611Y-121348025D01*
X230320606Y-121143287D01*
X230079863Y-120839649D01*
X229866270Y-120508208D01*
X229684396Y-120156965D01*
X229538809Y-119793924D01*
X229522284Y-119744750D01*
X229446961Y-119492890D01*
X229388431Y-119243777D01*
X229345002Y-118986994D01*
X229314988Y-118712121D01*
X229296698Y-118408742D01*
X229294081Y-118337167D01*
X229289873Y-118023687D01*
X229299743Y-117732282D01*
X229325067Y-117449949D01*
X229367220Y-117163687D01*
X229427578Y-116860492D01*
X229469284Y-116680769D01*
X229517198Y-116503239D01*
X229572925Y-116340073D01*
X229639996Y-116185260D01*
X229721942Y-116032792D01*
X229822294Y-115876660D01*
X229944582Y-115710854D01*
X230092337Y-115529365D01*
X230257681Y-115339009D01*
X230458674Y-115131077D01*
X230687017Y-114926672D01*
X230935267Y-114730823D01*
X231195982Y-114548556D01*
X231461719Y-114384901D01*
X231725035Y-114244886D01*
X231978488Y-114133539D01*
X232112583Y-114085825D01*
X232236186Y-114047690D01*
X232350194Y-114016969D01*
X232461393Y-113992899D01*
X232576571Y-113974717D01*
X232702513Y-113961658D01*
X232846006Y-113952959D01*
X233013836Y-113947855D01*
X233212789Y-113945584D01*
X233361416Y-113945264D01*
X233593268Y-113946362D01*
X233593268Y-113946362D01*
G37*
X233593268Y-113946362D02*
X233789873Y-113950092D01*
X233958282Y-113957329D01*
X234105545Y-113968946D01*
X234238711Y-113985816D01*
X234364832Y-114008812D01*
X234490958Y-114038808D01*
X234624138Y-114076677D01*
X234754726Y-114117843D01*
X234907935Y-114172761D01*
X235075061Y-114241461D01*
X235249578Y-114320483D01*
X235424959Y-114406367D01*
X235594678Y-114495652D01*
X235752208Y-114584879D01*
X235891025Y-114670587D01*
X236004600Y-114749317D01*
X236086409Y-114817607D01*
X236099391Y-114830775D01*
X236148385Y-114882926D01*
X235646762Y-115424567D01*
X235145138Y-115966207D01*
X235068194Y-115906381D01*
X235012043Y-115864290D01*
X234936502Y-115809682D01*
X234857190Y-115753835D01*
X234851310Y-115749762D01*
X234653127Y-115616869D01*
X234477730Y-115510113D01*
X234316892Y-115426811D01*
X234162386Y-115364284D01*
X234005986Y-115319852D01*
X233839466Y-115290832D01*
X233654601Y-115274546D01*
X233443163Y-115268311D01*
X233372910Y-115268000D01*
X233107820Y-115274227D01*
X232876844Y-115294532D01*
X232673395Y-115331356D01*
X232490884Y-115387138D01*
X232322725Y-115464317D01*
X232162329Y-115565333D01*
X232003109Y-115692624D01*
X231858131Y-115828917D01*
X231652469Y-116059120D01*
X231473951Y-116313766D01*
X231321200Y-116595583D01*
X231192837Y-116907303D01*
X231087483Y-117251656D01*
X231040348Y-117449046D01*
X231024988Y-117523420D01*
X231013254Y-117592450D01*
X231004676Y-117663509D01*
X230998784Y-117743969D01*
X230995110Y-117841204D01*
X230993182Y-117962587D01*
X230992532Y-118115490D01*
X230992533Y-118199584D01*
X230993877Y-118406697D01*
X230998139Y-118580303D01*
X231006226Y-118729181D01*
X231019048Y-118862108D01*
X231037511Y-118987862D01*
X231062525Y-119115223D01*
X231094998Y-119252968D01*
X231106003Y-119296353D01*
X231200256Y-119594889D01*
X231323271Y-119872248D01*
X231472662Y-120124980D01*
X231646042Y-120349637D01*
X231841024Y-120542768D01*
X232055222Y-120700924D01*
X232093975Y-120724437D01*
X232219049Y-120789156D01*
X232370385Y-120853840D01*
X232532322Y-120912559D01*
X232689200Y-120959385D01*
X232758166Y-120975909D01*
X232858947Y-120991850D01*
X232990648Y-121003881D01*
X233146643Y-121012141D01*
X233320299Y-121016765D01*
X233504990Y-121017893D01*
X233694084Y-121015663D01*
X233880954Y-121010211D01*
X234058969Y-121001675D01*
X234221499Y-120990195D01*
X234361917Y-120975906D01*
X234473592Y-120958947D01*
X234549895Y-120939456D01*
X234552113Y-120938628D01*
X234600223Y-120920336D01*
X234589083Y-119469584D01*
X234319208Y-119463659D01*
X234049333Y-119457735D01*
X234049333Y-118040834D01*
X236250666Y-118040834D01*
X236250666Y-121997208D01*
X236107791Y-122039693D01*
X235750980Y-122133603D01*
X235358545Y-122214199D01*
X234935276Y-122280772D01*
X234485962Y-122332611D01*
X234015393Y-122369007D01*
X233815664Y-122379379D01*
X233637224Y-122387046D01*
X233493446Y-122392391D01*
X233376725Y-122395494D01*
X233279458Y-122396431D01*
X233194041Y-122395280D01*
X233112870Y-122392119D01*
X233033333Y-122387363D01*
X232608560Y-122340421D01*
X232202946Y-122258448D01*
X231818044Y-122142154D01*
X231455406Y-121992253D01*
X231116586Y-121809456D01*
X230803136Y-121594476D01*
X230516611Y-121348025D01*
X230320606Y-121143287D01*
X230079863Y-120839649D01*
X229866270Y-120508208D01*
X229684396Y-120156965D01*
X229538809Y-119793924D01*
X229522284Y-119744750D01*
X229446961Y-119492890D01*
X229388431Y-119243777D01*
X229345002Y-118986994D01*
X229314988Y-118712121D01*
X229296698Y-118408742D01*
X229294081Y-118337167D01*
X229289873Y-118023687D01*
X229299743Y-117732282D01*
X229325067Y-117449949D01*
X229367220Y-117163687D01*
X229427578Y-116860492D01*
X229469284Y-116680769D01*
X229517198Y-116503239D01*
X229572925Y-116340073D01*
X229639996Y-116185260D01*
X229721942Y-116032792D01*
X229822294Y-115876660D01*
X229944582Y-115710854D01*
X230092337Y-115529365D01*
X230257681Y-115339009D01*
X230458674Y-115131077D01*
X230687017Y-114926672D01*
X230935267Y-114730823D01*
X231195982Y-114548556D01*
X231461719Y-114384901D01*
X231725035Y-114244886D01*
X231978488Y-114133539D01*
X232112583Y-114085825D01*
X232236186Y-114047690D01*
X232350194Y-114016969D01*
X232461393Y-113992899D01*
X232576571Y-113974717D01*
X232702513Y-113961658D01*
X232846006Y-113952959D01*
X233013836Y-113947855D01*
X233212789Y-113945584D01*
X233361416Y-113945264D01*
X233593268Y-113946362D01*
G36*
X220841333Y-115458500D02*
G01*
X218153166Y-115458500D01*
X218153166Y-122231834D01*
X216523333Y-122231834D01*
X216523333Y-115458500D01*
X213835166Y-115458500D01*
X213835166Y-114103834D01*
X220841333Y-114103834D01*
X220841333Y-115458500D01*
X220841333Y-115458500D01*
G37*
X220841333Y-115458500D02*
X218153166Y-115458500D01*
X218153166Y-122231834D01*
X216523333Y-122231834D01*
X216523333Y-115458500D01*
X213835166Y-115458500D01*
X213835166Y-114103834D01*
X220841333Y-114103834D01*
X220841333Y-115458500D01*
G36*
X224902330Y-114108806D02*
G01*
X225505940Y-114114417D01*
X225630329Y-114389584D01*
X225879470Y-114945187D01*
X226134356Y-115522527D01*
X226395881Y-116123728D01*
X226664944Y-116750916D01*
X226942438Y-117406214D01*
X227229262Y-118091747D01*
X227526310Y-118809640D01*
X227834479Y-119562018D01*
X228154666Y-120351006D01*
X228370967Y-120887750D01*
X228457379Y-121102400D01*
X228540072Y-121307159D01*
X228617535Y-121498332D01*
X228688259Y-121672222D01*
X228750733Y-121825132D01*
X228803448Y-121953367D01*
X228844893Y-122053230D01*
X228873559Y-122121025D01*
X228887629Y-122152459D01*
X228927860Y-122231834D01*
X227159284Y-122231834D01*
X227029188Y-121898188D01*
X226986992Y-121788149D01*
X226934077Y-121647297D01*
X226873803Y-121484743D01*
X226809529Y-121309599D01*
X226744615Y-121130974D01*
X226682422Y-120957981D01*
X226681812Y-120956272D01*
X226464532Y-120348000D01*
X224875308Y-120348055D01*
X223286083Y-120348110D01*
X222946408Y-121284680D01*
X222606734Y-122221250D01*
X221748631Y-122226776D01*
X220890528Y-122232303D01*
X221445077Y-120850943D01*
X221687800Y-120247579D01*
X221917063Y-119680356D01*
X222134331Y-119145800D01*
X222196027Y-118994985D01*
X223720000Y-118994985D01*
X223740719Y-118999123D01*
X223801094Y-119002867D01*
X223898445Y-119006170D01*
X224030097Y-119008987D01*
X224193372Y-119011274D01*
X224385592Y-119012985D01*
X224604081Y-119014074D01*
X224846160Y-119014496D01*
X224872443Y-119014500D01*
X226024886Y-119014500D01*
X225985930Y-118903375D01*
X225873762Y-118584400D01*
X225763085Y-118271586D01*
X225655387Y-117969050D01*
X225552153Y-117680907D01*
X225454871Y-117411273D01*
X225365026Y-117164265D01*
X225284104Y-116943999D01*
X225213593Y-116754591D01*
X225154979Y-116600157D01*
X225143233Y-116569750D01*
X225088398Y-116427979D01*
X225036481Y-116293012D01*
X224990177Y-116171907D01*
X224952178Y-116071723D01*
X224925176Y-115999517D01*
X224915088Y-115971754D01*
X224891577Y-115914243D01*
X224871418Y-115880447D01*
X224861516Y-115876504D01*
X224844914Y-115906776D01*
X224815657Y-115973148D01*
X224775147Y-116071789D01*
X224724789Y-116198868D01*
X224665982Y-116350554D01*
X224600131Y-116523016D01*
X224528637Y-116712422D01*
X224452903Y-116914942D01*
X224374331Y-117126744D01*
X224294324Y-117343997D01*
X224214283Y-117562870D01*
X224135612Y-117779532D01*
X224059713Y-117990152D01*
X223987987Y-118190898D01*
X223921838Y-118377940D01*
X223862668Y-118547446D01*
X223811879Y-118695586D01*
X223770874Y-118818527D01*
X223741055Y-118912439D01*
X223723824Y-118973491D01*
X223720000Y-118994985D01*
X222196027Y-118994985D01*
X222341069Y-118640437D01*
X222538743Y-118160794D01*
X222728818Y-117703395D01*
X222912758Y-117264767D01*
X223092030Y-116841437D01*
X223268099Y-116429930D01*
X223442429Y-116026772D01*
X223616486Y-115628489D01*
X223791736Y-115231608D01*
X223969642Y-114832653D01*
X224151671Y-114428152D01*
X224186011Y-114352223D01*
X224298720Y-114103196D01*
X224902330Y-114108806D01*
X224902330Y-114108806D01*
G37*
X224902330Y-114108806D02*
X225505940Y-114114417D01*
X225630329Y-114389584D01*
X225879470Y-114945187D01*
X226134356Y-115522527D01*
X226395881Y-116123728D01*
X226664944Y-116750916D01*
X226942438Y-117406214D01*
X227229262Y-118091747D01*
X227526310Y-118809640D01*
X227834479Y-119562018D01*
X228154666Y-120351006D01*
X228370967Y-120887750D01*
X228457379Y-121102400D01*
X228540072Y-121307159D01*
X228617535Y-121498332D01*
X228688259Y-121672222D01*
X228750733Y-121825132D01*
X228803448Y-121953367D01*
X228844893Y-122053230D01*
X228873559Y-122121025D01*
X228887629Y-122152459D01*
X228927860Y-122231834D01*
X227159284Y-122231834D01*
X227029188Y-121898188D01*
X226986992Y-121788149D01*
X226934077Y-121647297D01*
X226873803Y-121484743D01*
X226809529Y-121309599D01*
X226744615Y-121130974D01*
X226682422Y-120957981D01*
X226681812Y-120956272D01*
X226464532Y-120348000D01*
X224875308Y-120348055D01*
X223286083Y-120348110D01*
X222946408Y-121284680D01*
X222606734Y-122221250D01*
X221748631Y-122226776D01*
X220890528Y-122232303D01*
X221445077Y-120850943D01*
X221687800Y-120247579D01*
X221917063Y-119680356D01*
X222134331Y-119145800D01*
X222196027Y-118994985D01*
X223720000Y-118994985D01*
X223740719Y-118999123D01*
X223801094Y-119002867D01*
X223898445Y-119006170D01*
X224030097Y-119008987D01*
X224193372Y-119011274D01*
X224385592Y-119012985D01*
X224604081Y-119014074D01*
X224846160Y-119014496D01*
X224872443Y-119014500D01*
X226024886Y-119014500D01*
X225985930Y-118903375D01*
X225873762Y-118584400D01*
X225763085Y-118271586D01*
X225655387Y-117969050D01*
X225552153Y-117680907D01*
X225454871Y-117411273D01*
X225365026Y-117164265D01*
X225284104Y-116943999D01*
X225213593Y-116754591D01*
X225154979Y-116600157D01*
X225143233Y-116569750D01*
X225088398Y-116427979D01*
X225036481Y-116293012D01*
X224990177Y-116171907D01*
X224952178Y-116071723D01*
X224925176Y-115999517D01*
X224915088Y-115971754D01*
X224891577Y-115914243D01*
X224871418Y-115880447D01*
X224861516Y-115876504D01*
X224844914Y-115906776D01*
X224815657Y-115973148D01*
X224775147Y-116071789D01*
X224724789Y-116198868D01*
X224665982Y-116350554D01*
X224600131Y-116523016D01*
X224528637Y-116712422D01*
X224452903Y-116914942D01*
X224374331Y-117126744D01*
X224294324Y-117343997D01*
X224214283Y-117562870D01*
X224135612Y-117779532D01*
X224059713Y-117990152D01*
X223987987Y-118190898D01*
X223921838Y-118377940D01*
X223862668Y-118547446D01*
X223811879Y-118695586D01*
X223770874Y-118818527D01*
X223741055Y-118912439D01*
X223723824Y-118973491D01*
X223720000Y-118994985D01*
X222196027Y-118994985D01*
X222341069Y-118640437D01*
X222538743Y-118160794D01*
X222728818Y-117703395D01*
X222912758Y-117264767D01*
X223092030Y-116841437D01*
X223268099Y-116429930D01*
X223442429Y-116026772D01*
X223616486Y-115628489D01*
X223791736Y-115231608D01*
X223969642Y-114832653D01*
X224151671Y-114428152D01*
X224186011Y-114352223D01*
X224298720Y-114103196D01*
X224902330Y-114108806D01*
D14*
X95390000Y-126250000D02*
X95390000Y-124920000D01*
X96720000Y-126250000D02*
X95390000Y-126250000D01*
X97990000Y-126250000D02*
X97990000Y-123590000D01*
X97990000Y-123590000D02*
X103130000Y-123590000D01*
X97990000Y-126250000D02*
X103130000Y-126250000D01*
X103130000Y-126250000D02*
X103130000Y-123590000D01*
X91580000Y-60090000D02*
X92910000Y-60090000D01*
X91580000Y-61420000D02*
X91580000Y-60090000D01*
X91580000Y-62690000D02*
X94240000Y-62690000D01*
X94240000Y-62690000D02*
X94240000Y-65290000D01*
X91580000Y-62690000D02*
X91580000Y-65290000D01*
X91580000Y-65290000D02*
X94240000Y-65290000D01*
D10*
X87250000Y-50326400D02*
X87250000Y-65326400D01*
X87250000Y-65326400D02*
X77750000Y-65326400D01*
X77750000Y-65326400D02*
X77750000Y-50326400D01*
X77750000Y-50326400D02*
X77750000Y-47326400D01*
X77750000Y-47326400D02*
X87250000Y-47326400D01*
X87250000Y-47326400D02*
X87250000Y-50326400D01*
D14*
X161215000Y-125958748D02*
X161215000Y-126481252D01*
X162635000Y-125958748D02*
X162635000Y-126481252D01*
X151690000Y-125958748D02*
X151690000Y-126481252D01*
X153110000Y-125958748D02*
X153110000Y-126481252D01*
X93171252Y-54360000D02*
X92648748Y-54360000D01*
X93171252Y-55780000D02*
X92648748Y-55780000D01*
X172160000Y-126481252D02*
X172160000Y-125958748D01*
X170740000Y-126481252D02*
X170740000Y-125958748D01*
X72120000Y-52640000D02*
X72120000Y-52040000D01*
X70520000Y-52640000D02*
X72120000Y-52640000D01*
X70520000Y-52040000D02*
X70520000Y-52640000D01*
X69580000Y-52640000D02*
X69580000Y-52040000D01*
X67980000Y-52640000D02*
X69580000Y-52640000D01*
X67980000Y-52040000D02*
X67980000Y-52640000D01*
X67040000Y-52640000D02*
X67040000Y-52040000D01*
X65440000Y-52640000D02*
X67040000Y-52640000D01*
X65440000Y-52040000D02*
X65440000Y-52640000D01*
X64500000Y-52640000D02*
X64500000Y-52040000D01*
X62900000Y-52640000D02*
X64500000Y-52640000D01*
X62900000Y-52040000D02*
X62900000Y-52640000D01*
X71070000Y-58060000D02*
X71070000Y-57060000D01*
X63950000Y-58060000D02*
X63950000Y-57060000D01*
X71070000Y-56530000D02*
X71320000Y-57060000D01*
X63950000Y-56530000D02*
X71070000Y-56530000D01*
X63700000Y-57060000D02*
X63950000Y-56530000D01*
X71320000Y-57060000D02*
X71320000Y-58060000D01*
X63700000Y-57060000D02*
X71320000Y-57060000D01*
X63700000Y-58060000D02*
X63700000Y-57060000D01*
X62030000Y-53070000D02*
X62030000Y-57070000D01*
X72700000Y-52040000D02*
X62320000Y-52040000D01*
X72700000Y-58060000D02*
X72700000Y-52040000D01*
X62320000Y-58060000D02*
X72700000Y-58060000D01*
X62320000Y-52040000D02*
X62320000Y-58060000D01*
D10*
X61375600Y-98166800D02*
X61375600Y-121026800D01*
X61375600Y-121026800D02*
X112175600Y-121026800D01*
X112175600Y-121026800D02*
X112175600Y-70226800D01*
X112175600Y-70226800D02*
X61375600Y-70226800D01*
X61375600Y-70226800D02*
X61375600Y-98166800D01*
X119634800Y-115210000D02*
X128334800Y-115210000D01*
X119634800Y-127010000D02*
X119634800Y-115210000D01*
X126334800Y-127010000D02*
X119634800Y-127010000D01*
X128334800Y-125110000D02*
X128334800Y-115210000D01*
D14*
X133975000Y-127235000D02*
X135225000Y-127235000D01*
X134600000Y-127860000D02*
X134600000Y-126610000D01*
X141555563Y-126370000D02*
X142620000Y-125305563D01*
X133164437Y-126370000D02*
X132100000Y-125305563D01*
X133164437Y-126370000D02*
X135850000Y-126370000D01*
X141555563Y-126370000D02*
X138870000Y-126370000D01*
X142620000Y-125305563D02*
X142620000Y-115850000D01*
X132100000Y-125305563D02*
X132100000Y-115850000D01*
X132100000Y-115850000D02*
X135850000Y-115850000D01*
X142620000Y-115850000D02*
X138870000Y-115850000D01*
X247092037Y-56919244D02*
X241892037Y-56919244D01*
X247092037Y-74759244D02*
X247092037Y-56919244D01*
X241892037Y-77359244D02*
X241892037Y-56919244D01*
X247092037Y-74759244D02*
X244492037Y-74759244D01*
X244492037Y-74759244D02*
X244492037Y-77359244D01*
X244492037Y-77359244D02*
X241892037Y-77359244D01*
X247092037Y-76029244D02*
X247092037Y-77359244D01*
X247092037Y-77359244D02*
X245762037Y-77359244D01*
X53360000Y-87880000D02*
X58800000Y-87880000D01*
X58800000Y-87880000D02*
X58800000Y-78140000D01*
X58800000Y-78140000D02*
X53360000Y-78140000D01*
X53360000Y-78140000D02*
X53360000Y-87880000D01*
X56080000Y-88790000D02*
X56080000Y-87880000D01*
X56080000Y-77230000D02*
X56080000Y-78140000D01*
X53360000Y-86335000D02*
X58800000Y-86335000D01*
X53360000Y-86215000D02*
X58800000Y-86215000D01*
X53360000Y-86455000D02*
X58800000Y-86455000D01*
X153945000Y-117550000D02*
X150855000Y-117550000D01*
X154900000Y-120110000D02*
G75*
G03X154900000Y-120110000I-2500000J0D01*
G01*
X152400462Y-123100000D02*
G75*
G02X150855170Y-117550000I-462J2990000D01*
G01*
X152399538Y-123100000D02*
G75*
G03X153944830Y-117550000I462J2990000D01*
G01*
X100529538Y-58060000D02*
G75*
G03X102074830Y-52510000I462J2990000D01*
G01*
X100530462Y-58060000D02*
G75*
G02X98985170Y-52510000I-462J2990000D01*
G01*
X103030000Y-55070000D02*
G75*
G03X103030000Y-55070000I-2500000J0D01*
G01*
X102075000Y-52510000D02*
X98985000Y-52510000D01*
X171449538Y-123100000D02*
G75*
G03X172994830Y-117550000I462J2990000D01*
G01*
X171450462Y-123100000D02*
G75*
G02X169905170Y-117550000I-462J2990000D01*
G01*
X173950000Y-120110000D02*
G75*
G03X173950000Y-120110000I-2500000J0D01*
G01*
X172995000Y-117550000D02*
X169905000Y-117550000D01*
X163470000Y-117550000D02*
X160380000Y-117550000D01*
X164425000Y-120110000D02*
G75*
G03X164425000Y-120110000I-2500000J0D01*
G01*
X161925462Y-123100000D02*
G75*
G02X160380170Y-117550000I-462J2990000D01*
G01*
X161924538Y-123100000D02*
G75*
G03X163469830Y-117550000I462J2990000D01*
G01*
X247092037Y-107839244D02*
X245762037Y-107839244D01*
X247092037Y-106509244D02*
X247092037Y-107839244D01*
X244492037Y-107839244D02*
X241892037Y-107839244D01*
X244492037Y-105239244D02*
X244492037Y-107839244D01*
X247092037Y-105239244D02*
X244492037Y-105239244D01*
X241892037Y-107839244D02*
X241892037Y-87399244D01*
X247092037Y-105239244D02*
X247092037Y-87399244D01*
X247092037Y-87399244D02*
X241892037Y-87399244D01*
X231126321Y-87399244D02*
X225926321Y-87399244D01*
X231126321Y-105239244D02*
X231126321Y-87399244D01*
X225926321Y-107839244D02*
X225926321Y-87399244D01*
X231126321Y-105239244D02*
X228526321Y-105239244D01*
X228526321Y-105239244D02*
X228526321Y-107839244D01*
X228526321Y-107839244D02*
X225926321Y-107839244D01*
X231126321Y-106509244D02*
X231126321Y-107839244D01*
X231126321Y-107839244D02*
X229796321Y-107839244D01*
X215160607Y-87399244D02*
X209960607Y-87399244D01*
X215160607Y-105239244D02*
X215160607Y-87399244D01*
X209960607Y-107839244D02*
X209960607Y-87399244D01*
X215160607Y-105239244D02*
X212560607Y-105239244D01*
X212560607Y-105239244D02*
X212560607Y-107839244D01*
X212560607Y-107839244D02*
X209960607Y-107839244D01*
X215160607Y-106509244D02*
X215160607Y-107839244D01*
X215160607Y-107839244D02*
X213830607Y-107839244D01*
X199194893Y-107839244D02*
X197864893Y-107839244D01*
X199194893Y-106509244D02*
X199194893Y-107839244D01*
X196594893Y-107839244D02*
X193994893Y-107839244D01*
X196594893Y-105239244D02*
X196594893Y-107839244D01*
X199194893Y-105239244D02*
X196594893Y-105239244D01*
X193994893Y-107839244D02*
X193994893Y-87399244D01*
X199194893Y-105239244D02*
X199194893Y-87399244D01*
X199194893Y-87399244D02*
X193994893Y-87399244D01*
X183229179Y-87399244D02*
X178029179Y-87399244D01*
X183229179Y-105239244D02*
X183229179Y-87399244D01*
X178029179Y-107839244D02*
X178029179Y-87399244D01*
X183229179Y-105239244D02*
X180629179Y-105239244D01*
X180629179Y-105239244D02*
X180629179Y-107839244D01*
X180629179Y-107839244D02*
X178029179Y-107839244D01*
X183229179Y-106509244D02*
X183229179Y-107839244D01*
X183229179Y-107839244D02*
X181899179Y-107839244D01*
X167263465Y-87399244D02*
X162063465Y-87399244D01*
X167263465Y-105239244D02*
X167263465Y-87399244D01*
X162063465Y-107839244D02*
X162063465Y-87399244D01*
X167263465Y-105239244D02*
X164663465Y-105239244D01*
X164663465Y-105239244D02*
X164663465Y-107839244D01*
X164663465Y-107839244D02*
X162063465Y-107839244D01*
X167263465Y-106509244D02*
X167263465Y-107839244D01*
X167263465Y-107839244D02*
X165933465Y-107839244D01*
X151297751Y-107839244D02*
X149967751Y-107839244D01*
X151297751Y-106509244D02*
X151297751Y-107839244D01*
X148697751Y-107839244D02*
X146097751Y-107839244D01*
X148697751Y-105239244D02*
X148697751Y-107839244D01*
X151297751Y-105239244D02*
X148697751Y-105239244D01*
X146097751Y-107839244D02*
X146097751Y-87399244D01*
X151297751Y-105239244D02*
X151297751Y-87399244D01*
X151297751Y-87399244D02*
X146097751Y-87399244D01*
X135332037Y-107839244D02*
X134002037Y-107839244D01*
X135332037Y-106509244D02*
X135332037Y-107839244D01*
X132732037Y-107839244D02*
X130132037Y-107839244D01*
X132732037Y-105239244D02*
X132732037Y-107839244D01*
X135332037Y-105239244D02*
X132732037Y-105239244D01*
X130132037Y-107839244D02*
X130132037Y-87399244D01*
X135332037Y-105239244D02*
X135332037Y-87399244D01*
X135332037Y-87399244D02*
X130132037Y-87399244D01*
X231126321Y-56919244D02*
X225926321Y-56919244D01*
X231126321Y-74759244D02*
X231126321Y-56919244D01*
X225926321Y-77359244D02*
X225926321Y-56919244D01*
X231126321Y-74759244D02*
X228526321Y-74759244D01*
X228526321Y-74759244D02*
X228526321Y-77359244D01*
X228526321Y-77359244D02*
X225926321Y-77359244D01*
X231126321Y-76029244D02*
X231126321Y-77359244D01*
X231126321Y-77359244D02*
X229796321Y-77359244D01*
X215160607Y-77359244D02*
X213830607Y-77359244D01*
X215160607Y-76029244D02*
X215160607Y-77359244D01*
X212560607Y-77359244D02*
X209960607Y-77359244D01*
X212560607Y-74759244D02*
X212560607Y-77359244D01*
X215160607Y-74759244D02*
X212560607Y-74759244D01*
X209960607Y-77359244D02*
X209960607Y-56919244D01*
X215160607Y-74759244D02*
X215160607Y-56919244D01*
X215160607Y-56919244D02*
X209960607Y-56919244D01*
X199194893Y-77359244D02*
X197864893Y-77359244D01*
X199194893Y-76029244D02*
X199194893Y-77359244D01*
X196594893Y-77359244D02*
X193994893Y-77359244D01*
X196594893Y-74759244D02*
X196594893Y-77359244D01*
X199194893Y-74759244D02*
X196594893Y-74759244D01*
X193994893Y-77359244D02*
X193994893Y-56919244D01*
X199194893Y-74759244D02*
X199194893Y-56919244D01*
X199194893Y-56919244D02*
X193994893Y-56919244D01*
X183229179Y-56919244D02*
X178029179Y-56919244D01*
X183229179Y-74759244D02*
X183229179Y-56919244D01*
X178029179Y-77359244D02*
X178029179Y-56919244D01*
X183229179Y-74759244D02*
X180629179Y-74759244D01*
X180629179Y-74759244D02*
X180629179Y-77359244D01*
X180629179Y-77359244D02*
X178029179Y-77359244D01*
X183229179Y-76029244D02*
X183229179Y-77359244D01*
X183229179Y-77359244D02*
X181899179Y-77359244D01*
X167263465Y-56919244D02*
X162063465Y-56919244D01*
X167263465Y-74759244D02*
X167263465Y-56919244D01*
X162063465Y-77359244D02*
X162063465Y-56919244D01*
X167263465Y-74759244D02*
X164663465Y-74759244D01*
X164663465Y-74759244D02*
X164663465Y-77359244D01*
X164663465Y-77359244D02*
X162063465Y-77359244D01*
X167263465Y-76029244D02*
X167263465Y-77359244D01*
X167263465Y-77359244D02*
X165933465Y-77359244D01*
X151297751Y-77359244D02*
X149967751Y-77359244D01*
X151297751Y-76029244D02*
X151297751Y-77359244D01*
X148697751Y-77359244D02*
X146097751Y-77359244D01*
X148697751Y-74759244D02*
X148697751Y-77359244D01*
X151297751Y-74759244D02*
X148697751Y-74759244D01*
X146097751Y-77359244D02*
X146097751Y-56919244D01*
X151297751Y-74759244D02*
X151297751Y-56919244D01*
X151297751Y-56919244D02*
X146097751Y-56919244D01*
X135332037Y-77359244D02*
X134002037Y-77359244D01*
X135332037Y-76029244D02*
X135332037Y-77359244D01*
X132732037Y-77359244D02*
X130132037Y-77359244D01*
X132732037Y-74759244D02*
X132732037Y-77359244D01*
X135332037Y-74759244D02*
X132732037Y-74759244D01*
X130132037Y-77359244D02*
X130132037Y-56919244D01*
X135332037Y-74759244D02*
X135332037Y-56919244D01*
X135332037Y-56919244D02*
X130132037Y-56919244D01*
D10*
X93842380Y-125753333D02*
X94556666Y-125753333D01*
X94699523Y-125800952D01*
X94794761Y-125896190D01*
X94842380Y-126039047D01*
X94842380Y-126134285D01*
X94842380Y-125277142D02*
X93842380Y-125277142D01*
X93842380Y-124896190D01*
X93890000Y-124800952D01*
X93937619Y-124753333D01*
X94032857Y-124705714D01*
X94175714Y-124705714D01*
X94270952Y-124753333D01*
X94318571Y-124800952D01*
X94366190Y-124896190D01*
X94366190Y-125277142D01*
X93937619Y-124324761D02*
X93890000Y-124277142D01*
X93842380Y-124181904D01*
X93842380Y-123943809D01*
X93890000Y-123848571D01*
X93937619Y-123800952D01*
X94032857Y-123753333D01*
X94128095Y-123753333D01*
X94270952Y-123800952D01*
X94842380Y-124372380D01*
X94842380Y-123753333D01*
X92076666Y-58542380D02*
X92076666Y-59256666D01*
X92029047Y-59399523D01*
X91933809Y-59494761D01*
X91790952Y-59542380D01*
X91695714Y-59542380D01*
X92552857Y-59542380D02*
X92552857Y-58542380D01*
X92933809Y-58542380D01*
X93029047Y-58590000D01*
X93076666Y-58637619D01*
X93124285Y-58732857D01*
X93124285Y-58875714D01*
X93076666Y-58970952D01*
X93029047Y-59018571D01*
X92933809Y-59066190D01*
X92552857Y-59066190D01*
X94076666Y-59542380D02*
X93505238Y-59542380D01*
X93790952Y-59542380D02*
X93790952Y-58542380D01*
X93695714Y-58685238D01*
X93600476Y-58780476D01*
X93505238Y-58828095D01*
X88202380Y-49659733D02*
X88916666Y-49659733D01*
X89059523Y-49707352D01*
X89154761Y-49802590D01*
X89202380Y-49945447D01*
X89202380Y-50040685D01*
X89202380Y-48659733D02*
X89202380Y-49231161D01*
X89202380Y-48945447D02*
X88202380Y-48945447D01*
X88345238Y-49040685D01*
X88440476Y-49135923D01*
X88488095Y-49231161D01*
X164027380Y-126386666D02*
X163551190Y-126720000D01*
X164027380Y-126958095D02*
X163027380Y-126958095D01*
X163027380Y-126577142D01*
X163075000Y-126481904D01*
X163122619Y-126434285D01*
X163217857Y-126386666D01*
X163360714Y-126386666D01*
X163455952Y-126434285D01*
X163503571Y-126481904D01*
X163551190Y-126577142D01*
X163551190Y-126958095D01*
X163360714Y-125529523D02*
X164027380Y-125529523D01*
X162979761Y-125767619D02*
X163694047Y-126005714D01*
X163694047Y-125386666D01*
X154502380Y-126386666D02*
X154026190Y-126720000D01*
X154502380Y-126958095D02*
X153502380Y-126958095D01*
X153502380Y-126577142D01*
X153550000Y-126481904D01*
X153597619Y-126434285D01*
X153692857Y-126386666D01*
X153835714Y-126386666D01*
X153930952Y-126434285D01*
X153978571Y-126481904D01*
X154026190Y-126577142D01*
X154026190Y-126958095D01*
X153502380Y-126053333D02*
X153502380Y-125434285D01*
X153883333Y-125767619D01*
X153883333Y-125624761D01*
X153930952Y-125529523D01*
X153978571Y-125481904D01*
X154073809Y-125434285D01*
X154311904Y-125434285D01*
X154407142Y-125481904D01*
X154454761Y-125529523D01*
X154502380Y-125624761D01*
X154502380Y-125910476D01*
X154454761Y-126005714D01*
X154407142Y-126053333D01*
X92743333Y-57172380D02*
X92410000Y-56696190D01*
X92171904Y-57172380D02*
X92171904Y-56172380D01*
X92552857Y-56172380D01*
X92648095Y-56220000D01*
X92695714Y-56267619D01*
X92743333Y-56362857D01*
X92743333Y-56505714D01*
X92695714Y-56600952D01*
X92648095Y-56648571D01*
X92552857Y-56696190D01*
X92171904Y-56696190D01*
X93124285Y-56267619D02*
X93171904Y-56220000D01*
X93267142Y-56172380D01*
X93505238Y-56172380D01*
X93600476Y-56220000D01*
X93648095Y-56267619D01*
X93695714Y-56362857D01*
X93695714Y-56458095D01*
X93648095Y-56600952D01*
X93076666Y-57172380D01*
X93695714Y-57172380D01*
X173372380Y-126386666D02*
X172896190Y-126720000D01*
X173372380Y-126958095D02*
X172372380Y-126958095D01*
X172372380Y-126577142D01*
X172420000Y-126481904D01*
X172467619Y-126434285D01*
X172562857Y-126386666D01*
X172705714Y-126386666D01*
X172800952Y-126434285D01*
X172848571Y-126481904D01*
X172896190Y-126577142D01*
X172896190Y-126958095D01*
X173372380Y-125434285D02*
X173372380Y-126005714D01*
X173372380Y-125720000D02*
X172372380Y-125720000D01*
X172515238Y-125815238D01*
X172610476Y-125910476D01*
X172658095Y-126005714D01*
X66224285Y-50402380D02*
X66224285Y-51116666D01*
X66176666Y-51259523D01*
X66081428Y-51354761D01*
X65938571Y-51402380D01*
X65843333Y-51402380D01*
X67224285Y-51402380D02*
X66652857Y-51402380D01*
X66938571Y-51402380D02*
X66938571Y-50402380D01*
X66843333Y-50545238D01*
X66748095Y-50640476D01*
X66652857Y-50688095D01*
X67843333Y-50402380D02*
X67938571Y-50402380D01*
X68033809Y-50450000D01*
X68081428Y-50497619D01*
X68129047Y-50592857D01*
X68176666Y-50783333D01*
X68176666Y-51021428D01*
X68129047Y-51211904D01*
X68081428Y-51307142D01*
X68033809Y-51354761D01*
X67938571Y-51402380D01*
X67843333Y-51402380D01*
X67748095Y-51354761D01*
X67700476Y-51307142D01*
X67652857Y-51211904D01*
X67605238Y-51021428D01*
X67605238Y-50783333D01*
X67652857Y-50592857D01*
X67700476Y-50497619D01*
X67748095Y-50450000D01*
X67843333Y-50402380D01*
X69129047Y-51402380D02*
X68557619Y-51402380D01*
X68843333Y-51402380D02*
X68843333Y-50402380D01*
X68748095Y-50545238D01*
X68652857Y-50640476D01*
X68557619Y-50688095D01*
X61725123Y-69409180D02*
X61725123Y-68409180D01*
X61963219Y-68409180D01*
X62106076Y-68456800D01*
X62201314Y-68552038D01*
X62248933Y-68647276D01*
X62296552Y-68837752D01*
X62296552Y-68980609D01*
X62248933Y-69171085D01*
X62201314Y-69266323D01*
X62106076Y-69361561D01*
X61963219Y-69409180D01*
X61725123Y-69409180D01*
X63296552Y-69313942D02*
X63248933Y-69361561D01*
X63106076Y-69409180D01*
X63010838Y-69409180D01*
X62867980Y-69361561D01*
X62772742Y-69266323D01*
X62725123Y-69171085D01*
X62677504Y-68980609D01*
X62677504Y-68837752D01*
X62725123Y-68647276D01*
X62772742Y-68552038D01*
X62867980Y-68456800D01*
X63010838Y-68409180D01*
X63106076Y-68409180D01*
X63248933Y-68456800D01*
X63296552Y-68504419D01*
X64248933Y-69409180D02*
X63677504Y-69409180D01*
X63963219Y-69409180D02*
X63963219Y-68409180D01*
X63867980Y-68552038D01*
X63772742Y-68647276D01*
X63677504Y-68694895D01*
X64867980Y-68409180D02*
X64963219Y-68409180D01*
X65058457Y-68456800D01*
X65106076Y-68504419D01*
X65153695Y-68599657D01*
X65201314Y-68790133D01*
X65201314Y-69028228D01*
X65153695Y-69218704D01*
X65106076Y-69313942D01*
X65058457Y-69361561D01*
X64963219Y-69409180D01*
X64867980Y-69409180D01*
X64772742Y-69361561D01*
X64725123Y-69313942D01*
X64677504Y-69218704D01*
X64629885Y-69028228D01*
X64629885Y-68790133D01*
X64677504Y-68599657D01*
X64725123Y-68504419D01*
X64772742Y-68456800D01*
X64867980Y-68409180D01*
X66153695Y-69409180D02*
X65582266Y-69409180D01*
X65867980Y-69409180D02*
X65867980Y-68409180D01*
X65772742Y-68552038D01*
X65677504Y-68647276D01*
X65582266Y-68694895D01*
X66907980Y-81847276D02*
X66431790Y-82180609D01*
X66907980Y-82418704D02*
X65907980Y-82418704D01*
X65907980Y-82037752D01*
X65955600Y-81942514D01*
X66003219Y-81894895D01*
X66098457Y-81847276D01*
X66241314Y-81847276D01*
X66336552Y-81894895D01*
X66384171Y-81942514D01*
X66431790Y-82037752D01*
X66431790Y-82418704D01*
X66812742Y-80847276D02*
X66860361Y-80894895D01*
X66907980Y-81037752D01*
X66907980Y-81132990D01*
X66860361Y-81275847D01*
X66765123Y-81371085D01*
X66669885Y-81418704D01*
X66479409Y-81466323D01*
X66336552Y-81466323D01*
X66146076Y-81418704D01*
X66050838Y-81371085D01*
X65955600Y-81275847D01*
X65907980Y-81132990D01*
X65907980Y-81037752D01*
X65955600Y-80894895D01*
X66003219Y-80847276D01*
X66907980Y-87522514D02*
X65907980Y-87522514D01*
X66907980Y-86951085D01*
X65907980Y-86951085D01*
X66812742Y-85903466D02*
X66860361Y-85951085D01*
X66907980Y-86093942D01*
X66907980Y-86189180D01*
X66860361Y-86332038D01*
X66765123Y-86427276D01*
X66669885Y-86474895D01*
X66479409Y-86522514D01*
X66336552Y-86522514D01*
X66146076Y-86474895D01*
X66050838Y-86427276D01*
X65955600Y-86332038D01*
X65907980Y-86189180D01*
X65907980Y-86093942D01*
X65955600Y-85951085D01*
X66003219Y-85903466D01*
X65907980Y-93531085D02*
X66907980Y-93197752D01*
X65907980Y-92864419D01*
X66907980Y-92531085D02*
X65907980Y-92531085D01*
X66907980Y-92054895D02*
X65907980Y-92054895D01*
X66907980Y-91483466D01*
X65907980Y-91483466D01*
X66527028Y-91007276D02*
X66527028Y-90245371D01*
X65907980Y-98611085D02*
X66907980Y-98277752D01*
X65907980Y-97944419D01*
X66907980Y-97611085D02*
X65907980Y-97611085D01*
X66907980Y-97134895D02*
X65907980Y-97134895D01*
X66907980Y-96563466D01*
X65907980Y-96563466D01*
X66527028Y-96087276D02*
X66527028Y-95325371D01*
X66907980Y-95706323D02*
X66146076Y-95706323D01*
X105277980Y-113247752D02*
X106277980Y-112914419D01*
X105277980Y-112581085D01*
X105277980Y-112057276D02*
X105277980Y-111866800D01*
X105325600Y-111771561D01*
X105420838Y-111676323D01*
X105611314Y-111628704D01*
X105944647Y-111628704D01*
X106135123Y-111676323D01*
X106230361Y-111771561D01*
X106277980Y-111866800D01*
X106277980Y-112057276D01*
X106230361Y-112152514D01*
X106135123Y-112247752D01*
X105944647Y-112295371D01*
X105611314Y-112295371D01*
X105420838Y-112247752D01*
X105325600Y-112152514D01*
X105277980Y-112057276D01*
X105277980Y-111200133D02*
X106087504Y-111200133D01*
X106182742Y-111152514D01*
X106230361Y-111104895D01*
X106277980Y-111009657D01*
X106277980Y-110819180D01*
X106230361Y-110723942D01*
X106182742Y-110676323D01*
X106087504Y-110628704D01*
X105277980Y-110628704D01*
X105277980Y-110295371D02*
X105277980Y-109723942D01*
X106277980Y-110009657D02*
X105277980Y-110009657D01*
X105897028Y-109390609D02*
X105897028Y-108628704D01*
X106277980Y-109009657D02*
X105516076Y-109009657D01*
X106182742Y-103111561D02*
X106230361Y-103159180D01*
X106277980Y-103302038D01*
X106277980Y-103397276D01*
X106230361Y-103540133D01*
X106135123Y-103635371D01*
X106039885Y-103682990D01*
X105849409Y-103730609D01*
X105706552Y-103730609D01*
X105516076Y-103682990D01*
X105420838Y-103635371D01*
X105325600Y-103540133D01*
X105277980Y-103397276D01*
X105277980Y-103302038D01*
X105325600Y-103159180D01*
X105373219Y-103111561D01*
X105277980Y-102492514D02*
X105277980Y-102302038D01*
X105325600Y-102206800D01*
X105420838Y-102111561D01*
X105611314Y-102063942D01*
X105944647Y-102063942D01*
X106135123Y-102111561D01*
X106230361Y-102206800D01*
X106277980Y-102302038D01*
X106277980Y-102492514D01*
X106230361Y-102587752D01*
X106135123Y-102682990D01*
X105944647Y-102730609D01*
X105611314Y-102730609D01*
X105420838Y-102682990D01*
X105325600Y-102587752D01*
X105277980Y-102492514D01*
X106277980Y-101635371D02*
X105277980Y-101635371D01*
X105992266Y-101302038D01*
X105277980Y-100968704D01*
X106277980Y-100968704D01*
X106277980Y-100492514D02*
X105277980Y-100492514D01*
X105992266Y-100159180D01*
X105277980Y-99825847D01*
X106277980Y-99825847D01*
X105277980Y-99159180D02*
X105277980Y-98968704D01*
X105325600Y-98873466D01*
X105420838Y-98778228D01*
X105611314Y-98730609D01*
X105944647Y-98730609D01*
X106135123Y-98778228D01*
X106230361Y-98873466D01*
X106277980Y-98968704D01*
X106277980Y-99159180D01*
X106230361Y-99254419D01*
X106135123Y-99349657D01*
X105944647Y-99397276D01*
X105611314Y-99397276D01*
X105420838Y-99349657D01*
X105325600Y-99254419D01*
X105277980Y-99159180D01*
X106277980Y-98302038D02*
X105277980Y-98302038D01*
X106277980Y-97730609D01*
X105277980Y-97730609D01*
X105277980Y-92927752D02*
X106277980Y-92594419D01*
X105277980Y-92261085D01*
X105277980Y-91737276D02*
X105277980Y-91546800D01*
X105325600Y-91451561D01*
X105420838Y-91356323D01*
X105611314Y-91308704D01*
X105944647Y-91308704D01*
X106135123Y-91356323D01*
X106230361Y-91451561D01*
X106277980Y-91546800D01*
X106277980Y-91737276D01*
X106230361Y-91832514D01*
X106135123Y-91927752D01*
X105944647Y-91975371D01*
X105611314Y-91975371D01*
X105420838Y-91927752D01*
X105325600Y-91832514D01*
X105277980Y-91737276D01*
X105277980Y-90880133D02*
X106087504Y-90880133D01*
X106182742Y-90832514D01*
X106230361Y-90784895D01*
X106277980Y-90689657D01*
X106277980Y-90499180D01*
X106230361Y-90403942D01*
X106182742Y-90356323D01*
X106087504Y-90308704D01*
X105277980Y-90308704D01*
X105277980Y-89975371D02*
X105277980Y-89403942D01*
X106277980Y-89689657D02*
X105277980Y-89689657D01*
X105897028Y-89070609D02*
X105897028Y-88308704D01*
X105277980Y-81982038D02*
X105277980Y-81410609D01*
X106277980Y-81696323D02*
X105277980Y-81696323D01*
X106277980Y-80505847D02*
X105801790Y-80839180D01*
X106277980Y-81077276D02*
X105277980Y-81077276D01*
X105277980Y-80696323D01*
X105325600Y-80601085D01*
X105373219Y-80553466D01*
X105468457Y-80505847D01*
X105611314Y-80505847D01*
X105706552Y-80553466D01*
X105754171Y-80601085D01*
X105801790Y-80696323D01*
X105801790Y-81077276D01*
X106277980Y-80077276D02*
X105277980Y-80077276D01*
X106277980Y-79601085D02*
X105277980Y-79601085D01*
X105992266Y-79267752D01*
X105277980Y-78934419D01*
X106277980Y-78934419D01*
X128987180Y-121871904D02*
X129796704Y-121871904D01*
X129891942Y-121824285D01*
X129939561Y-121776666D01*
X129987180Y-121681428D01*
X129987180Y-121490952D01*
X129939561Y-121395714D01*
X129891942Y-121348095D01*
X129796704Y-121300476D01*
X128987180Y-121300476D01*
X129987180Y-120300476D02*
X129987180Y-120871904D01*
X129987180Y-120586190D02*
X128987180Y-120586190D01*
X129130038Y-120681428D01*
X129225276Y-120776666D01*
X129272895Y-120871904D01*
X131517142Y-121276666D02*
X131564761Y-121324285D01*
X131612380Y-121467142D01*
X131612380Y-121562380D01*
X131564761Y-121705238D01*
X131469523Y-121800476D01*
X131374285Y-121848095D01*
X131183809Y-121895714D01*
X131040952Y-121895714D01*
X130850476Y-121848095D01*
X130755238Y-121800476D01*
X130660000Y-121705238D01*
X130612380Y-121562380D01*
X130612380Y-121467142D01*
X130660000Y-121324285D01*
X130707619Y-121276666D01*
X130612380Y-120943333D02*
X130612380Y-120324285D01*
X130993333Y-120657619D01*
X130993333Y-120514761D01*
X131040952Y-120419523D01*
X131088571Y-120371904D01*
X131183809Y-120324285D01*
X131421904Y-120324285D01*
X131517142Y-120371904D01*
X131564761Y-120419523D01*
X131612380Y-120514761D01*
X131612380Y-120800476D01*
X131564761Y-120895714D01*
X131517142Y-120943333D01*
X243682513Y-77811624D02*
X243682513Y-78525910D01*
X243634894Y-78668767D01*
X243539656Y-78764005D01*
X243396798Y-78811624D01*
X243301560Y-78811624D01*
X244682513Y-78811624D02*
X244111084Y-78811624D01*
X244396798Y-78811624D02*
X244396798Y-77811624D01*
X244301560Y-77954482D01*
X244206322Y-78049720D01*
X244111084Y-78097339D01*
X245301560Y-77811624D02*
X245396798Y-77811624D01*
X245492037Y-77859244D01*
X245539656Y-77906863D01*
X245587275Y-78002101D01*
X245634894Y-78192577D01*
X245634894Y-78430672D01*
X245587275Y-78621148D01*
X245539656Y-78716386D01*
X245492037Y-78764005D01*
X245396798Y-78811624D01*
X245301560Y-78811624D01*
X245206322Y-78764005D01*
X245158703Y-78716386D01*
X245111084Y-78621148D01*
X245063465Y-78430672D01*
X245063465Y-78192577D01*
X245111084Y-78002101D01*
X245158703Y-77906863D01*
X245206322Y-77859244D01*
X245301560Y-77811624D01*
X52812380Y-83748095D02*
X51812380Y-83748095D01*
X51812380Y-83510000D01*
X51860000Y-83367142D01*
X51955238Y-83271904D01*
X52050476Y-83224285D01*
X52240952Y-83176666D01*
X52383809Y-83176666D01*
X52574285Y-83224285D01*
X52669523Y-83271904D01*
X52764761Y-83367142D01*
X52812380Y-83510000D01*
X52812380Y-83748095D01*
X52812380Y-82224285D02*
X52812380Y-82795714D01*
X52812380Y-82510000D02*
X51812380Y-82510000D01*
X51955238Y-82605238D01*
X52050476Y-82700476D01*
X52098095Y-82795714D01*
X53932380Y-90891904D02*
X52932380Y-90891904D01*
X53932380Y-90320476D02*
X53360952Y-90749047D01*
X52932380Y-90320476D02*
X53503809Y-90891904D01*
X156812380Y-120848095D02*
X155812380Y-120848095D01*
X155812380Y-120610000D01*
X155860000Y-120467142D01*
X155955238Y-120371904D01*
X156050476Y-120324285D01*
X156240952Y-120276666D01*
X156383809Y-120276666D01*
X156574285Y-120324285D01*
X156669523Y-120371904D01*
X156764761Y-120467142D01*
X156812380Y-120610000D01*
X156812380Y-120848095D01*
X155907619Y-119895714D02*
X155860000Y-119848095D01*
X155812380Y-119752857D01*
X155812380Y-119514761D01*
X155860000Y-119419523D01*
X155907619Y-119371904D01*
X156002857Y-119324285D01*
X156098095Y-119324285D01*
X156240952Y-119371904D01*
X156812380Y-119943333D01*
X156812380Y-119324285D01*
X104942380Y-55808095D02*
X103942380Y-55808095D01*
X103942380Y-55570000D01*
X103990000Y-55427142D01*
X104085238Y-55331904D01*
X104180476Y-55284285D01*
X104370952Y-55236666D01*
X104513809Y-55236666D01*
X104704285Y-55284285D01*
X104799523Y-55331904D01*
X104894761Y-55427142D01*
X104942380Y-55570000D01*
X104942380Y-55808095D01*
X103942380Y-54903333D02*
X103942380Y-54284285D01*
X104323333Y-54617619D01*
X104323333Y-54474761D01*
X104370952Y-54379523D01*
X104418571Y-54331904D01*
X104513809Y-54284285D01*
X104751904Y-54284285D01*
X104847142Y-54331904D01*
X104894761Y-54379523D01*
X104942380Y-54474761D01*
X104942380Y-54760476D01*
X104894761Y-54855714D01*
X104847142Y-54903333D01*
X175862380Y-120848095D02*
X174862380Y-120848095D01*
X174862380Y-120610000D01*
X174910000Y-120467142D01*
X175005238Y-120371904D01*
X175100476Y-120324285D01*
X175290952Y-120276666D01*
X175433809Y-120276666D01*
X175624285Y-120324285D01*
X175719523Y-120371904D01*
X175814761Y-120467142D01*
X175862380Y-120610000D01*
X175862380Y-120848095D01*
X175195714Y-119419523D02*
X175862380Y-119419523D01*
X174814761Y-119657619D02*
X175529047Y-119895714D01*
X175529047Y-119276666D01*
X166337380Y-120848095D02*
X165337380Y-120848095D01*
X165337380Y-120610000D01*
X165385000Y-120467142D01*
X165480238Y-120371904D01*
X165575476Y-120324285D01*
X165765952Y-120276666D01*
X165908809Y-120276666D01*
X166099285Y-120324285D01*
X166194523Y-120371904D01*
X166289761Y-120467142D01*
X166337380Y-120610000D01*
X166337380Y-120848095D01*
X165337380Y-119371904D02*
X165337380Y-119848095D01*
X165813571Y-119895714D01*
X165765952Y-119848095D01*
X165718333Y-119752857D01*
X165718333Y-119514761D01*
X165765952Y-119419523D01*
X165813571Y-119371904D01*
X165908809Y-119324285D01*
X166146904Y-119324285D01*
X166242142Y-119371904D01*
X166289761Y-119419523D01*
X166337380Y-119514761D01*
X166337380Y-119752857D01*
X166289761Y-119848095D01*
X166242142Y-119895714D01*
X244158703Y-108291624D02*
X244158703Y-109005910D01*
X244111084Y-109148767D01*
X244015846Y-109244005D01*
X243872989Y-109291624D01*
X243777751Y-109291624D01*
X244587275Y-108386863D02*
X244634894Y-108339244D01*
X244730132Y-108291624D01*
X244968227Y-108291624D01*
X245063465Y-108339244D01*
X245111084Y-108386863D01*
X245158703Y-108482101D01*
X245158703Y-108577339D01*
X245111084Y-108720196D01*
X244539656Y-109291624D01*
X245158703Y-109291624D01*
X228192987Y-108291624D02*
X228192987Y-109005910D01*
X228145368Y-109148767D01*
X228050130Y-109244005D01*
X227907273Y-109291624D01*
X227812035Y-109291624D01*
X228573940Y-108291624D02*
X229192987Y-108291624D01*
X228859654Y-108672577D01*
X229002511Y-108672577D01*
X229097749Y-108720196D01*
X229145368Y-108767815D01*
X229192987Y-108863053D01*
X229192987Y-109101148D01*
X229145368Y-109196386D01*
X229097749Y-109244005D01*
X229002511Y-109291624D01*
X228716797Y-109291624D01*
X228621559Y-109244005D01*
X228573940Y-109196386D01*
X212227273Y-108291624D02*
X212227273Y-109005910D01*
X212179654Y-109148767D01*
X212084416Y-109244005D01*
X211941559Y-109291624D01*
X211846321Y-109291624D01*
X213132035Y-108624958D02*
X213132035Y-109291624D01*
X212893940Y-108244005D02*
X212655845Y-108958291D01*
X213274892Y-108958291D01*
X196261559Y-108291624D02*
X196261559Y-109005910D01*
X196213940Y-109148767D01*
X196118702Y-109244005D01*
X195975845Y-109291624D01*
X195880607Y-109291624D01*
X197213940Y-108291624D02*
X196737750Y-108291624D01*
X196690131Y-108767815D01*
X196737750Y-108720196D01*
X196832988Y-108672577D01*
X197071083Y-108672577D01*
X197166321Y-108720196D01*
X197213940Y-108767815D01*
X197261559Y-108863053D01*
X197261559Y-109101148D01*
X197213940Y-109196386D01*
X197166321Y-109244005D01*
X197071083Y-109291624D01*
X196832988Y-109291624D01*
X196737750Y-109244005D01*
X196690131Y-109196386D01*
X180295845Y-108291624D02*
X180295845Y-109005910D01*
X180248226Y-109148767D01*
X180152988Y-109244005D01*
X180010131Y-109291624D01*
X179914893Y-109291624D01*
X181200607Y-108291624D02*
X181010131Y-108291624D01*
X180914893Y-108339244D01*
X180867274Y-108386863D01*
X180772036Y-108529720D01*
X180724417Y-108720196D01*
X180724417Y-109101148D01*
X180772036Y-109196386D01*
X180819655Y-109244005D01*
X180914893Y-109291624D01*
X181105369Y-109291624D01*
X181200607Y-109244005D01*
X181248226Y-109196386D01*
X181295845Y-109101148D01*
X181295845Y-108863053D01*
X181248226Y-108767815D01*
X181200607Y-108720196D01*
X181105369Y-108672577D01*
X180914893Y-108672577D01*
X180819655Y-108720196D01*
X180772036Y-108767815D01*
X180724417Y-108863053D01*
X164330131Y-108291624D02*
X164330131Y-109005910D01*
X164282512Y-109148767D01*
X164187274Y-109244005D01*
X164044417Y-109291624D01*
X163949179Y-109291624D01*
X164711084Y-108291624D02*
X165377750Y-108291624D01*
X164949179Y-109291624D01*
X148364417Y-108291624D02*
X148364417Y-109005910D01*
X148316798Y-109148767D01*
X148221560Y-109244005D01*
X148078703Y-109291624D01*
X147983465Y-109291624D01*
X148983465Y-108720196D02*
X148888227Y-108672577D01*
X148840608Y-108624958D01*
X148792989Y-108529720D01*
X148792989Y-108482101D01*
X148840608Y-108386863D01*
X148888227Y-108339244D01*
X148983465Y-108291624D01*
X149173941Y-108291624D01*
X149269179Y-108339244D01*
X149316798Y-108386863D01*
X149364417Y-108482101D01*
X149364417Y-108529720D01*
X149316798Y-108624958D01*
X149269179Y-108672577D01*
X149173941Y-108720196D01*
X148983465Y-108720196D01*
X148888227Y-108767815D01*
X148840608Y-108815434D01*
X148792989Y-108910672D01*
X148792989Y-109101148D01*
X148840608Y-109196386D01*
X148888227Y-109244005D01*
X148983465Y-109291624D01*
X149173941Y-109291624D01*
X149269179Y-109244005D01*
X149316798Y-109196386D01*
X149364417Y-109101148D01*
X149364417Y-108910672D01*
X149316798Y-108815434D01*
X149269179Y-108767815D01*
X149173941Y-108720196D01*
X132398703Y-108291624D02*
X132398703Y-109005910D01*
X132351084Y-109148767D01*
X132255846Y-109244005D01*
X132112989Y-109291624D01*
X132017751Y-109291624D01*
X132922513Y-109291624D02*
X133112989Y-109291624D01*
X133208227Y-109244005D01*
X133255846Y-109196386D01*
X133351084Y-109053529D01*
X133398703Y-108863053D01*
X133398703Y-108482101D01*
X133351084Y-108386863D01*
X133303465Y-108339244D01*
X133208227Y-108291624D01*
X133017751Y-108291624D01*
X132922513Y-108339244D01*
X132874894Y-108386863D01*
X132827275Y-108482101D01*
X132827275Y-108720196D01*
X132874894Y-108815434D01*
X132922513Y-108863053D01*
X133017751Y-108910672D01*
X133208227Y-108910672D01*
X133303465Y-108863053D01*
X133351084Y-108815434D01*
X133398703Y-108720196D01*
X227716797Y-77811624D02*
X227716797Y-78525910D01*
X227669178Y-78668767D01*
X227573940Y-78764005D01*
X227431082Y-78811624D01*
X227335844Y-78811624D01*
X228716797Y-78811624D02*
X228145368Y-78811624D01*
X228431082Y-78811624D02*
X228431082Y-77811624D01*
X228335844Y-77954482D01*
X228240606Y-78049720D01*
X228145368Y-78097339D01*
X229669178Y-78811624D02*
X229097749Y-78811624D01*
X229383463Y-78811624D02*
X229383463Y-77811624D01*
X229288225Y-77954482D01*
X229192987Y-78049720D01*
X229097749Y-78097339D01*
X211751083Y-77811624D02*
X211751083Y-78525910D01*
X211703464Y-78668767D01*
X211608226Y-78764005D01*
X211465368Y-78811624D01*
X211370130Y-78811624D01*
X212751083Y-78811624D02*
X212179654Y-78811624D01*
X212465368Y-78811624D02*
X212465368Y-77811624D01*
X212370130Y-77954482D01*
X212274892Y-78049720D01*
X212179654Y-78097339D01*
X213132035Y-77906863D02*
X213179654Y-77859244D01*
X213274892Y-77811624D01*
X213512987Y-77811624D01*
X213608226Y-77859244D01*
X213655845Y-77906863D01*
X213703464Y-78002101D01*
X213703464Y-78097339D01*
X213655845Y-78240196D01*
X213084416Y-78811624D01*
X213703464Y-78811624D01*
X195785369Y-77811624D02*
X195785369Y-78525910D01*
X195737750Y-78668767D01*
X195642512Y-78764005D01*
X195499654Y-78811624D01*
X195404416Y-78811624D01*
X196785369Y-78811624D02*
X196213940Y-78811624D01*
X196499654Y-78811624D02*
X196499654Y-77811624D01*
X196404416Y-77954482D01*
X196309178Y-78049720D01*
X196213940Y-78097339D01*
X197118702Y-77811624D02*
X197737750Y-77811624D01*
X197404416Y-78192577D01*
X197547273Y-78192577D01*
X197642512Y-78240196D01*
X197690131Y-78287815D01*
X197737750Y-78383053D01*
X197737750Y-78621148D01*
X197690131Y-78716386D01*
X197642512Y-78764005D01*
X197547273Y-78811624D01*
X197261559Y-78811624D01*
X197166321Y-78764005D01*
X197118702Y-78716386D01*
X179819655Y-77811624D02*
X179819655Y-78525910D01*
X179772036Y-78668767D01*
X179676798Y-78764005D01*
X179533940Y-78811624D01*
X179438702Y-78811624D01*
X180819655Y-78811624D02*
X180248226Y-78811624D01*
X180533940Y-78811624D02*
X180533940Y-77811624D01*
X180438702Y-77954482D01*
X180343464Y-78049720D01*
X180248226Y-78097339D01*
X181676798Y-78144958D02*
X181676798Y-78811624D01*
X181438702Y-77764005D02*
X181200607Y-78478291D01*
X181819655Y-78478291D01*
X163853941Y-77811624D02*
X163853941Y-78525910D01*
X163806322Y-78668767D01*
X163711084Y-78764005D01*
X163568226Y-78811624D01*
X163472988Y-78811624D01*
X164853941Y-78811624D02*
X164282512Y-78811624D01*
X164568226Y-78811624D02*
X164568226Y-77811624D01*
X164472988Y-77954482D01*
X164377750Y-78049720D01*
X164282512Y-78097339D01*
X165758703Y-77811624D02*
X165282512Y-77811624D01*
X165234893Y-78287815D01*
X165282512Y-78240196D01*
X165377750Y-78192577D01*
X165615845Y-78192577D01*
X165711084Y-78240196D01*
X165758703Y-78287815D01*
X165806322Y-78383053D01*
X165806322Y-78621148D01*
X165758703Y-78716386D01*
X165711084Y-78764005D01*
X165615845Y-78811624D01*
X165377750Y-78811624D01*
X165282512Y-78764005D01*
X165234893Y-78716386D01*
X147888227Y-77811624D02*
X147888227Y-78525910D01*
X147840608Y-78668767D01*
X147745370Y-78764005D01*
X147602512Y-78811624D01*
X147507274Y-78811624D01*
X148888227Y-78811624D02*
X148316798Y-78811624D01*
X148602512Y-78811624D02*
X148602512Y-77811624D01*
X148507274Y-77954482D01*
X148412036Y-78049720D01*
X148316798Y-78097339D01*
X149745370Y-77811624D02*
X149554893Y-77811624D01*
X149459655Y-77859244D01*
X149412036Y-77906863D01*
X149316798Y-78049720D01*
X149269179Y-78240196D01*
X149269179Y-78621148D01*
X149316798Y-78716386D01*
X149364417Y-78764005D01*
X149459655Y-78811624D01*
X149650131Y-78811624D01*
X149745370Y-78764005D01*
X149792989Y-78716386D01*
X149840608Y-78621148D01*
X149840608Y-78383053D01*
X149792989Y-78287815D01*
X149745370Y-78240196D01*
X149650131Y-78192577D01*
X149459655Y-78192577D01*
X149364417Y-78240196D01*
X149316798Y-78287815D01*
X149269179Y-78383053D01*
X131922513Y-77811624D02*
X131922513Y-78525910D01*
X131874894Y-78668767D01*
X131779656Y-78764005D01*
X131636798Y-78811624D01*
X131541560Y-78811624D01*
X132922513Y-78811624D02*
X132351084Y-78811624D01*
X132636798Y-78811624D02*
X132636798Y-77811624D01*
X132541560Y-77954482D01*
X132446322Y-78049720D01*
X132351084Y-78097339D01*
X133255846Y-77811624D02*
X133922513Y-77811624D01*
X133493941Y-78811624D01*
X53714285Y-121652380D02*
X53714285Y-122366666D01*
X53666666Y-122509523D01*
X53571428Y-122604761D01*
X53428571Y-122652380D01*
X53333333Y-122652380D01*
X54714285Y-122652380D02*
X54142857Y-122652380D01*
X54428571Y-122652380D02*
X54428571Y-121652380D01*
X54333333Y-121795238D01*
X54238095Y-121890476D01*
X54142857Y-121938095D01*
X55333333Y-121652380D02*
X55428571Y-121652380D01*
X55523809Y-121700000D01*
X55571428Y-121747619D01*
X55619047Y-121842857D01*
X55666666Y-122033333D01*
X55666666Y-122271428D01*
X55619047Y-122461904D01*
X55571428Y-122557142D01*
X55523809Y-122604761D01*
X55428571Y-122652380D01*
X55333333Y-122652380D01*
X55238095Y-122604761D01*
X55190476Y-122557142D01*
X55142857Y-122461904D01*
X55095238Y-122271428D01*
X55095238Y-122033333D01*
X55142857Y-121842857D01*
X55190476Y-121747619D01*
X55238095Y-121700000D01*
X55333333Y-121652380D01*
X56047619Y-121747619D02*
X56095238Y-121700000D01*
X56190476Y-121652380D01*
X56428571Y-121652380D01*
X56523809Y-121700000D01*
X56571428Y-121747619D01*
X56619047Y-121842857D01*
X56619047Y-121938095D01*
X56571428Y-122080952D01*
X56000000Y-122652380D01*
X56619047Y-122652380D01*
X53714285Y-48652380D02*
X53714285Y-49366666D01*
X53666666Y-49509523D01*
X53571428Y-49604761D01*
X53428571Y-49652380D01*
X53333333Y-49652380D01*
X54714285Y-49652380D02*
X54142857Y-49652380D01*
X54428571Y-49652380D02*
X54428571Y-48652380D01*
X54333333Y-48795238D01*
X54238095Y-48890476D01*
X54142857Y-48938095D01*
X55333333Y-48652380D02*
X55428571Y-48652380D01*
X55523809Y-48700000D01*
X55571428Y-48747619D01*
X55619047Y-48842857D01*
X55666666Y-49033333D01*
X55666666Y-49271428D01*
X55619047Y-49461904D01*
X55571428Y-49557142D01*
X55523809Y-49604761D01*
X55428571Y-49652380D01*
X55333333Y-49652380D01*
X55238095Y-49604761D01*
X55190476Y-49557142D01*
X55142857Y-49461904D01*
X55095238Y-49271428D01*
X55095238Y-49033333D01*
X55142857Y-48842857D01*
X55190476Y-48747619D01*
X55238095Y-48700000D01*
X55333333Y-48652380D01*
X56000000Y-48652380D02*
X56619047Y-48652380D01*
X56285714Y-49033333D01*
X56428571Y-49033333D01*
X56523809Y-49080952D01*
X56571428Y-49128571D01*
X56619047Y-49223809D01*
X56619047Y-49461904D01*
X56571428Y-49557142D01*
X56523809Y-49604761D01*
X56428571Y-49652380D01*
X56142857Y-49652380D01*
X56047619Y-49604761D01*
X56000000Y-49557142D01*
X245714285Y-121652380D02*
X245714285Y-122366666D01*
X245666666Y-122509523D01*
X245571428Y-122604761D01*
X245428571Y-122652380D01*
X245333333Y-122652380D01*
X246714285Y-122652380D02*
X246142857Y-122652380D01*
X246428571Y-122652380D02*
X246428571Y-121652380D01*
X246333333Y-121795238D01*
X246238095Y-121890476D01*
X246142857Y-121938095D01*
X247333333Y-121652380D02*
X247428571Y-121652380D01*
X247523809Y-121700000D01*
X247571428Y-121747619D01*
X247619047Y-121842857D01*
X247666666Y-122033333D01*
X247666666Y-122271428D01*
X247619047Y-122461904D01*
X247571428Y-122557142D01*
X247523809Y-122604761D01*
X247428571Y-122652380D01*
X247333333Y-122652380D01*
X247238095Y-122604761D01*
X247190476Y-122557142D01*
X247142857Y-122461904D01*
X247095238Y-122271428D01*
X247095238Y-122033333D01*
X247142857Y-121842857D01*
X247190476Y-121747619D01*
X247238095Y-121700000D01*
X247333333Y-121652380D01*
X248523809Y-121985714D02*
X248523809Y-122652380D01*
X248285714Y-121604761D02*
X248047619Y-122319047D01*
X248666666Y-122319047D01*
X245714285Y-48652380D02*
X245714285Y-49366666D01*
X245666666Y-49509523D01*
X245571428Y-49604761D01*
X245428571Y-49652380D01*
X245333333Y-49652380D01*
X246714285Y-49652380D02*
X246142857Y-49652380D01*
X246428571Y-49652380D02*
X246428571Y-48652380D01*
X246333333Y-48795238D01*
X246238095Y-48890476D01*
X246142857Y-48938095D01*
X247333333Y-48652380D02*
X247428571Y-48652380D01*
X247523809Y-48700000D01*
X247571428Y-48747619D01*
X247619047Y-48842857D01*
X247666666Y-49033333D01*
X247666666Y-49271428D01*
X247619047Y-49461904D01*
X247571428Y-49557142D01*
X247523809Y-49604761D01*
X247428571Y-49652380D01*
X247333333Y-49652380D01*
X247238095Y-49604761D01*
X247190476Y-49557142D01*
X247142857Y-49461904D01*
X247095238Y-49271428D01*
X247095238Y-49033333D01*
X247142857Y-48842857D01*
X247190476Y-48747619D01*
X247238095Y-48700000D01*
X247333333Y-48652380D01*
X248571428Y-48652380D02*
X248095238Y-48652380D01*
X248047619Y-49128571D01*
X248095238Y-49080952D01*
X248190476Y-49033333D01*
X248428571Y-49033333D01*
X248523809Y-49080952D01*
X248571428Y-49128571D01*
X248619047Y-49223809D01*
X248619047Y-49461904D01*
X248571428Y-49557142D01*
X248523809Y-49604761D01*
X248428571Y-49652380D01*
X248190476Y-49652380D01*
X248095238Y-49604761D01*
X248047619Y-49557142D01*
X122714285Y-48652380D02*
X122714285Y-49366666D01*
X122666666Y-49509523D01*
X122571428Y-49604761D01*
X122428571Y-49652380D01*
X122333333Y-49652380D01*
X123714285Y-49652380D02*
X123142857Y-49652380D01*
X123428571Y-49652380D02*
X123428571Y-48652380D01*
X123333333Y-48795238D01*
X123238095Y-48890476D01*
X123142857Y-48938095D01*
X124333333Y-48652380D02*
X124428571Y-48652380D01*
X124523809Y-48700000D01*
X124571428Y-48747619D01*
X124619047Y-48842857D01*
X124666666Y-49033333D01*
X124666666Y-49271428D01*
X124619047Y-49461904D01*
X124571428Y-49557142D01*
X124523809Y-49604761D01*
X124428571Y-49652380D01*
X124333333Y-49652380D01*
X124238095Y-49604761D01*
X124190476Y-49557142D01*
X124142857Y-49461904D01*
X124095238Y-49271428D01*
X124095238Y-49033333D01*
X124142857Y-48842857D01*
X124190476Y-48747619D01*
X124238095Y-48700000D01*
X124333333Y-48652380D01*
X125523809Y-48652380D02*
X125333333Y-48652380D01*
X125238095Y-48700000D01*
X125190476Y-48747619D01*
X125095238Y-48890476D01*
X125047619Y-49080952D01*
X125047619Y-49461904D01*
X125095238Y-49557142D01*
X125142857Y-49604761D01*
X125238095Y-49652380D01*
X125428571Y-49652380D01*
X125523809Y-49604761D01*
X125571428Y-49557142D01*
X125619047Y-49461904D01*
X125619047Y-49223809D01*
X125571428Y-49128571D01*
X125523809Y-49080952D01*
X125428571Y-49033333D01*
X125238095Y-49033333D01*
X125142857Y-49080952D01*
X125095238Y-49128571D01*
X125047619Y-49223809D01*
X186714285Y-121652380D02*
X186714285Y-122366666D01*
X186666666Y-122509523D01*
X186571428Y-122604761D01*
X186428571Y-122652380D01*
X186333333Y-122652380D01*
X187714285Y-122652380D02*
X187142857Y-122652380D01*
X187428571Y-122652380D02*
X187428571Y-121652380D01*
X187333333Y-121795238D01*
X187238095Y-121890476D01*
X187142857Y-121938095D01*
X188333333Y-121652380D02*
X188428571Y-121652380D01*
X188523809Y-121700000D01*
X188571428Y-121747619D01*
X188619047Y-121842857D01*
X188666666Y-122033333D01*
X188666666Y-122271428D01*
X188619047Y-122461904D01*
X188571428Y-122557142D01*
X188523809Y-122604761D01*
X188428571Y-122652380D01*
X188333333Y-122652380D01*
X188238095Y-122604761D01*
X188190476Y-122557142D01*
X188142857Y-122461904D01*
X188095238Y-122271428D01*
X188095238Y-122033333D01*
X188142857Y-121842857D01*
X188190476Y-121747619D01*
X188238095Y-121700000D01*
X188333333Y-121652380D01*
X189000000Y-121652380D02*
X189666666Y-121652380D01*
X189238095Y-122652380D01*
X186714285Y-78652380D02*
X186714285Y-79366666D01*
X186666666Y-79509523D01*
X186571428Y-79604761D01*
X186428571Y-79652380D01*
X186333333Y-79652380D01*
X187714285Y-79652380D02*
X187142857Y-79652380D01*
X187428571Y-79652380D02*
X187428571Y-78652380D01*
X187333333Y-78795238D01*
X187238095Y-78890476D01*
X187142857Y-78938095D01*
X188333333Y-78652380D02*
X188428571Y-78652380D01*
X188523809Y-78700000D01*
X188571428Y-78747619D01*
X188619047Y-78842857D01*
X188666666Y-79033333D01*
X188666666Y-79271428D01*
X188619047Y-79461904D01*
X188571428Y-79557142D01*
X188523809Y-79604761D01*
X188428571Y-79652380D01*
X188333333Y-79652380D01*
X188238095Y-79604761D01*
X188190476Y-79557142D01*
X188142857Y-79461904D01*
X188095238Y-79271428D01*
X188095238Y-79033333D01*
X188142857Y-78842857D01*
X188190476Y-78747619D01*
X188238095Y-78700000D01*
X188333333Y-78652380D01*
X189238095Y-79080952D02*
X189142857Y-79033333D01*
X189095238Y-78985714D01*
X189047619Y-78890476D01*
X189047619Y-78842857D01*
X189095238Y-78747619D01*
X189142857Y-78700000D01*
X189238095Y-78652380D01*
X189428571Y-78652380D01*
X189523809Y-78700000D01*
X189571428Y-78747619D01*
X189619047Y-78842857D01*
X189619047Y-78890476D01*
X189571428Y-78985714D01*
X189523809Y-79033333D01*
X189428571Y-79080952D01*
X189238095Y-79080952D01*
X189142857Y-79128571D01*
X189095238Y-79176190D01*
X189047619Y-79271428D01*
X189047619Y-79461904D01*
X189095238Y-79557142D01*
X189142857Y-79604761D01*
X189238095Y-79652380D01*
X189428571Y-79652380D01*
X189523809Y-79604761D01*
X189571428Y-79557142D01*
X189619047Y-79461904D01*
X189619047Y-79271428D01*
X189571428Y-79176190D01*
X189523809Y-79128571D01*
X189428571Y-79080952D01*
X186714285Y-48652380D02*
X186714285Y-49366666D01*
X186666666Y-49509523D01*
X186571428Y-49604761D01*
X186428571Y-49652380D01*
X186333333Y-49652380D01*
X187714285Y-49652380D02*
X187142857Y-49652380D01*
X187428571Y-49652380D02*
X187428571Y-48652380D01*
X187333333Y-48795238D01*
X187238095Y-48890476D01*
X187142857Y-48938095D01*
X188333333Y-48652380D02*
X188428571Y-48652380D01*
X188523809Y-48700000D01*
X188571428Y-48747619D01*
X188619047Y-48842857D01*
X188666666Y-49033333D01*
X188666666Y-49271428D01*
X188619047Y-49461904D01*
X188571428Y-49557142D01*
X188523809Y-49604761D01*
X188428571Y-49652380D01*
X188333333Y-49652380D01*
X188238095Y-49604761D01*
X188190476Y-49557142D01*
X188142857Y-49461904D01*
X188095238Y-49271428D01*
X188095238Y-49033333D01*
X188142857Y-48842857D01*
X188190476Y-48747619D01*
X188238095Y-48700000D01*
X188333333Y-48652380D01*
X189142857Y-49652380D02*
X189333333Y-49652380D01*
X189428571Y-49604761D01*
X189476190Y-49557142D01*
X189571428Y-49414285D01*
X189619047Y-49223809D01*
X189619047Y-48842857D01*
X189571428Y-48747619D01*
X189523809Y-48700000D01*
X189428571Y-48652380D01*
X189238095Y-48652380D01*
X189142857Y-48700000D01*
X189095238Y-48747619D01*
X189047619Y-48842857D01*
X189047619Y-49080952D01*
X189095238Y-49176190D01*
X189142857Y-49223809D01*
X189238095Y-49271428D01*
X189428571Y-49271428D01*
X189523809Y-49223809D01*
X189571428Y-49176190D01*
X189619047Y-49080952D01*
M02*
