G04 #@! TF.GenerationSoftware,KiCad,Pcbnew,(5.1.0)-1*
G04 #@! TF.CreationDate,2019-04-05T13:22:55+02:00*
G04 #@! TF.ProjectId,psu-30w,7073752d-3330-4772-9e6b-696361645f70,rev?*
G04 #@! TF.SameCoordinates,Original*
G04 #@! TF.FileFunction,Soldermask,Top*
G04 #@! TF.FilePolarity,Negative*
%FSLAX46Y46*%
G04 Gerber Fmt 4.6, Leading zero omitted, Abs format (unit mm)*
G04 Created by KiCad (PCBNEW (5.1.0)-1) date 2019-04-05 13:22:55*
%MOMM*%
%LPD*%
G04 APERTURE LIST*
%ADD10O,1.700000X1.700000*%
%ADD11R,1.700000X1.700000*%
%ADD12C,4.000000*%
%ADD13C,2.200000*%
%ADD14C,0.100000*%
%ADD15C,1.150000*%
%ADD16O,1.740000X2.200000*%
%ADD17C,1.740000*%
%ADD18C,3.000000*%
%ADD19O,20.000000X2.000000*%
%ADD20C,1.300000*%
%ADD21R,1.300000X1.300000*%
%ADD22C,2.500000*%
%ADD23R,3.200000X3.200000*%
%ADD24O,3.200000X3.200000*%
%ADD25C,1.800000*%
%ADD26R,1.800000X1.800000*%
%ADD27C,5.600000*%
G04 APERTURE END LIST*
D10*
X101800000Y-124920000D03*
X99260000Y-124920000D03*
D11*
X96720000Y-124920000D03*
D10*
X92910000Y-63960000D03*
D11*
X92910000Y-61420000D03*
D12*
X82750000Y-61826400D03*
X82750000Y-55826400D03*
X78050000Y-58826400D03*
D13*
X82750000Y-51326400D03*
D14*
G36*
X162399505Y-126671204D02*
G01*
X162423773Y-126674804D01*
X162447572Y-126680765D01*
X162470671Y-126689030D01*
X162492850Y-126699520D01*
X162513893Y-126712132D01*
X162533599Y-126726747D01*
X162551777Y-126743223D01*
X162568253Y-126761401D01*
X162582868Y-126781107D01*
X162595480Y-126802150D01*
X162605970Y-126824329D01*
X162614235Y-126847428D01*
X162620196Y-126871227D01*
X162623796Y-126895495D01*
X162625000Y-126919999D01*
X162625000Y-127570001D01*
X162623796Y-127594505D01*
X162620196Y-127618773D01*
X162614235Y-127642572D01*
X162605970Y-127665671D01*
X162595480Y-127687850D01*
X162582868Y-127708893D01*
X162568253Y-127728599D01*
X162551777Y-127746777D01*
X162533599Y-127763253D01*
X162513893Y-127777868D01*
X162492850Y-127790480D01*
X162470671Y-127800970D01*
X162447572Y-127809235D01*
X162423773Y-127815196D01*
X162399505Y-127818796D01*
X162375001Y-127820000D01*
X161474999Y-127820000D01*
X161450495Y-127818796D01*
X161426227Y-127815196D01*
X161402428Y-127809235D01*
X161379329Y-127800970D01*
X161357150Y-127790480D01*
X161336107Y-127777868D01*
X161316401Y-127763253D01*
X161298223Y-127746777D01*
X161281747Y-127728599D01*
X161267132Y-127708893D01*
X161254520Y-127687850D01*
X161244030Y-127665671D01*
X161235765Y-127642572D01*
X161229804Y-127618773D01*
X161226204Y-127594505D01*
X161225000Y-127570001D01*
X161225000Y-126919999D01*
X161226204Y-126895495D01*
X161229804Y-126871227D01*
X161235765Y-126847428D01*
X161244030Y-126824329D01*
X161254520Y-126802150D01*
X161267132Y-126781107D01*
X161281747Y-126761401D01*
X161298223Y-126743223D01*
X161316401Y-126726747D01*
X161336107Y-126712132D01*
X161357150Y-126699520D01*
X161379329Y-126689030D01*
X161402428Y-126680765D01*
X161426227Y-126674804D01*
X161450495Y-126671204D01*
X161474999Y-126670000D01*
X162375001Y-126670000D01*
X162399505Y-126671204D01*
X162399505Y-126671204D01*
G37*
D15*
X161925000Y-127245000D03*
D14*
G36*
X162399505Y-124621204D02*
G01*
X162423773Y-124624804D01*
X162447572Y-124630765D01*
X162470671Y-124639030D01*
X162492850Y-124649520D01*
X162513893Y-124662132D01*
X162533599Y-124676747D01*
X162551777Y-124693223D01*
X162568253Y-124711401D01*
X162582868Y-124731107D01*
X162595480Y-124752150D01*
X162605970Y-124774329D01*
X162614235Y-124797428D01*
X162620196Y-124821227D01*
X162623796Y-124845495D01*
X162625000Y-124869999D01*
X162625000Y-125520001D01*
X162623796Y-125544505D01*
X162620196Y-125568773D01*
X162614235Y-125592572D01*
X162605970Y-125615671D01*
X162595480Y-125637850D01*
X162582868Y-125658893D01*
X162568253Y-125678599D01*
X162551777Y-125696777D01*
X162533599Y-125713253D01*
X162513893Y-125727868D01*
X162492850Y-125740480D01*
X162470671Y-125750970D01*
X162447572Y-125759235D01*
X162423773Y-125765196D01*
X162399505Y-125768796D01*
X162375001Y-125770000D01*
X161474999Y-125770000D01*
X161450495Y-125768796D01*
X161426227Y-125765196D01*
X161402428Y-125759235D01*
X161379329Y-125750970D01*
X161357150Y-125740480D01*
X161336107Y-125727868D01*
X161316401Y-125713253D01*
X161298223Y-125696777D01*
X161281747Y-125678599D01*
X161267132Y-125658893D01*
X161254520Y-125637850D01*
X161244030Y-125615671D01*
X161235765Y-125592572D01*
X161229804Y-125568773D01*
X161226204Y-125544505D01*
X161225000Y-125520001D01*
X161225000Y-124869999D01*
X161226204Y-124845495D01*
X161229804Y-124821227D01*
X161235765Y-124797428D01*
X161244030Y-124774329D01*
X161254520Y-124752150D01*
X161267132Y-124731107D01*
X161281747Y-124711401D01*
X161298223Y-124693223D01*
X161316401Y-124676747D01*
X161336107Y-124662132D01*
X161357150Y-124649520D01*
X161379329Y-124639030D01*
X161402428Y-124630765D01*
X161426227Y-124624804D01*
X161450495Y-124621204D01*
X161474999Y-124620000D01*
X162375001Y-124620000D01*
X162399505Y-124621204D01*
X162399505Y-124621204D01*
G37*
D15*
X161925000Y-125195000D03*
D14*
G36*
X152874505Y-126671204D02*
G01*
X152898773Y-126674804D01*
X152922572Y-126680765D01*
X152945671Y-126689030D01*
X152967850Y-126699520D01*
X152988893Y-126712132D01*
X153008599Y-126726747D01*
X153026777Y-126743223D01*
X153043253Y-126761401D01*
X153057868Y-126781107D01*
X153070480Y-126802150D01*
X153080970Y-126824329D01*
X153089235Y-126847428D01*
X153095196Y-126871227D01*
X153098796Y-126895495D01*
X153100000Y-126919999D01*
X153100000Y-127570001D01*
X153098796Y-127594505D01*
X153095196Y-127618773D01*
X153089235Y-127642572D01*
X153080970Y-127665671D01*
X153070480Y-127687850D01*
X153057868Y-127708893D01*
X153043253Y-127728599D01*
X153026777Y-127746777D01*
X153008599Y-127763253D01*
X152988893Y-127777868D01*
X152967850Y-127790480D01*
X152945671Y-127800970D01*
X152922572Y-127809235D01*
X152898773Y-127815196D01*
X152874505Y-127818796D01*
X152850001Y-127820000D01*
X151949999Y-127820000D01*
X151925495Y-127818796D01*
X151901227Y-127815196D01*
X151877428Y-127809235D01*
X151854329Y-127800970D01*
X151832150Y-127790480D01*
X151811107Y-127777868D01*
X151791401Y-127763253D01*
X151773223Y-127746777D01*
X151756747Y-127728599D01*
X151742132Y-127708893D01*
X151729520Y-127687850D01*
X151719030Y-127665671D01*
X151710765Y-127642572D01*
X151704804Y-127618773D01*
X151701204Y-127594505D01*
X151700000Y-127570001D01*
X151700000Y-126919999D01*
X151701204Y-126895495D01*
X151704804Y-126871227D01*
X151710765Y-126847428D01*
X151719030Y-126824329D01*
X151729520Y-126802150D01*
X151742132Y-126781107D01*
X151756747Y-126761401D01*
X151773223Y-126743223D01*
X151791401Y-126726747D01*
X151811107Y-126712132D01*
X151832150Y-126699520D01*
X151854329Y-126689030D01*
X151877428Y-126680765D01*
X151901227Y-126674804D01*
X151925495Y-126671204D01*
X151949999Y-126670000D01*
X152850001Y-126670000D01*
X152874505Y-126671204D01*
X152874505Y-126671204D01*
G37*
D15*
X152400000Y-127245000D03*
D14*
G36*
X152874505Y-124621204D02*
G01*
X152898773Y-124624804D01*
X152922572Y-124630765D01*
X152945671Y-124639030D01*
X152967850Y-124649520D01*
X152988893Y-124662132D01*
X153008599Y-124676747D01*
X153026777Y-124693223D01*
X153043253Y-124711401D01*
X153057868Y-124731107D01*
X153070480Y-124752150D01*
X153080970Y-124774329D01*
X153089235Y-124797428D01*
X153095196Y-124821227D01*
X153098796Y-124845495D01*
X153100000Y-124869999D01*
X153100000Y-125520001D01*
X153098796Y-125544505D01*
X153095196Y-125568773D01*
X153089235Y-125592572D01*
X153080970Y-125615671D01*
X153070480Y-125637850D01*
X153057868Y-125658893D01*
X153043253Y-125678599D01*
X153026777Y-125696777D01*
X153008599Y-125713253D01*
X152988893Y-125727868D01*
X152967850Y-125740480D01*
X152945671Y-125750970D01*
X152922572Y-125759235D01*
X152898773Y-125765196D01*
X152874505Y-125768796D01*
X152850001Y-125770000D01*
X151949999Y-125770000D01*
X151925495Y-125768796D01*
X151901227Y-125765196D01*
X151877428Y-125759235D01*
X151854329Y-125750970D01*
X151832150Y-125740480D01*
X151811107Y-125727868D01*
X151791401Y-125713253D01*
X151773223Y-125696777D01*
X151756747Y-125678599D01*
X151742132Y-125658893D01*
X151729520Y-125637850D01*
X151719030Y-125615671D01*
X151710765Y-125592572D01*
X151704804Y-125568773D01*
X151701204Y-125544505D01*
X151700000Y-125520001D01*
X151700000Y-124869999D01*
X151701204Y-124845495D01*
X151704804Y-124821227D01*
X151710765Y-124797428D01*
X151719030Y-124774329D01*
X151729520Y-124752150D01*
X151742132Y-124731107D01*
X151756747Y-124711401D01*
X151773223Y-124693223D01*
X151791401Y-124676747D01*
X151811107Y-124662132D01*
X151832150Y-124649520D01*
X151854329Y-124639030D01*
X151877428Y-124630765D01*
X151901227Y-124624804D01*
X151925495Y-124621204D01*
X151949999Y-124620000D01*
X152850001Y-124620000D01*
X152874505Y-124621204D01*
X152874505Y-124621204D01*
G37*
D15*
X152400000Y-125195000D03*
D14*
G36*
X92234505Y-54371204D02*
G01*
X92258773Y-54374804D01*
X92282572Y-54380765D01*
X92305671Y-54389030D01*
X92327850Y-54399520D01*
X92348893Y-54412132D01*
X92368599Y-54426747D01*
X92386777Y-54443223D01*
X92403253Y-54461401D01*
X92417868Y-54481107D01*
X92430480Y-54502150D01*
X92440970Y-54524329D01*
X92449235Y-54547428D01*
X92455196Y-54571227D01*
X92458796Y-54595495D01*
X92460000Y-54619999D01*
X92460000Y-55520001D01*
X92458796Y-55544505D01*
X92455196Y-55568773D01*
X92449235Y-55592572D01*
X92440970Y-55615671D01*
X92430480Y-55637850D01*
X92417868Y-55658893D01*
X92403253Y-55678599D01*
X92386777Y-55696777D01*
X92368599Y-55713253D01*
X92348893Y-55727868D01*
X92327850Y-55740480D01*
X92305671Y-55750970D01*
X92282572Y-55759235D01*
X92258773Y-55765196D01*
X92234505Y-55768796D01*
X92210001Y-55770000D01*
X91559999Y-55770000D01*
X91535495Y-55768796D01*
X91511227Y-55765196D01*
X91487428Y-55759235D01*
X91464329Y-55750970D01*
X91442150Y-55740480D01*
X91421107Y-55727868D01*
X91401401Y-55713253D01*
X91383223Y-55696777D01*
X91366747Y-55678599D01*
X91352132Y-55658893D01*
X91339520Y-55637850D01*
X91329030Y-55615671D01*
X91320765Y-55592572D01*
X91314804Y-55568773D01*
X91311204Y-55544505D01*
X91310000Y-55520001D01*
X91310000Y-54619999D01*
X91311204Y-54595495D01*
X91314804Y-54571227D01*
X91320765Y-54547428D01*
X91329030Y-54524329D01*
X91339520Y-54502150D01*
X91352132Y-54481107D01*
X91366747Y-54461401D01*
X91383223Y-54443223D01*
X91401401Y-54426747D01*
X91421107Y-54412132D01*
X91442150Y-54399520D01*
X91464329Y-54389030D01*
X91487428Y-54380765D01*
X91511227Y-54374804D01*
X91535495Y-54371204D01*
X91559999Y-54370000D01*
X92210001Y-54370000D01*
X92234505Y-54371204D01*
X92234505Y-54371204D01*
G37*
D15*
X91885000Y-55070000D03*
D14*
G36*
X94284505Y-54371204D02*
G01*
X94308773Y-54374804D01*
X94332572Y-54380765D01*
X94355671Y-54389030D01*
X94377850Y-54399520D01*
X94398893Y-54412132D01*
X94418599Y-54426747D01*
X94436777Y-54443223D01*
X94453253Y-54461401D01*
X94467868Y-54481107D01*
X94480480Y-54502150D01*
X94490970Y-54524329D01*
X94499235Y-54547428D01*
X94505196Y-54571227D01*
X94508796Y-54595495D01*
X94510000Y-54619999D01*
X94510000Y-55520001D01*
X94508796Y-55544505D01*
X94505196Y-55568773D01*
X94499235Y-55592572D01*
X94490970Y-55615671D01*
X94480480Y-55637850D01*
X94467868Y-55658893D01*
X94453253Y-55678599D01*
X94436777Y-55696777D01*
X94418599Y-55713253D01*
X94398893Y-55727868D01*
X94377850Y-55740480D01*
X94355671Y-55750970D01*
X94332572Y-55759235D01*
X94308773Y-55765196D01*
X94284505Y-55768796D01*
X94260001Y-55770000D01*
X93609999Y-55770000D01*
X93585495Y-55768796D01*
X93561227Y-55765196D01*
X93537428Y-55759235D01*
X93514329Y-55750970D01*
X93492150Y-55740480D01*
X93471107Y-55727868D01*
X93451401Y-55713253D01*
X93433223Y-55696777D01*
X93416747Y-55678599D01*
X93402132Y-55658893D01*
X93389520Y-55637850D01*
X93379030Y-55615671D01*
X93370765Y-55592572D01*
X93364804Y-55568773D01*
X93361204Y-55544505D01*
X93360000Y-55520001D01*
X93360000Y-54619999D01*
X93361204Y-54595495D01*
X93364804Y-54571227D01*
X93370765Y-54547428D01*
X93379030Y-54524329D01*
X93389520Y-54502150D01*
X93402132Y-54481107D01*
X93416747Y-54461401D01*
X93433223Y-54443223D01*
X93451401Y-54426747D01*
X93471107Y-54412132D01*
X93492150Y-54399520D01*
X93514329Y-54389030D01*
X93537428Y-54380765D01*
X93561227Y-54374804D01*
X93585495Y-54371204D01*
X93609999Y-54370000D01*
X94260001Y-54370000D01*
X94284505Y-54371204D01*
X94284505Y-54371204D01*
G37*
D15*
X93935000Y-55070000D03*
D14*
G36*
X171924505Y-124621204D02*
G01*
X171948773Y-124624804D01*
X171972572Y-124630765D01*
X171995671Y-124639030D01*
X172017850Y-124649520D01*
X172038893Y-124662132D01*
X172058599Y-124676747D01*
X172076777Y-124693223D01*
X172093253Y-124711401D01*
X172107868Y-124731107D01*
X172120480Y-124752150D01*
X172130970Y-124774329D01*
X172139235Y-124797428D01*
X172145196Y-124821227D01*
X172148796Y-124845495D01*
X172150000Y-124869999D01*
X172150000Y-125520001D01*
X172148796Y-125544505D01*
X172145196Y-125568773D01*
X172139235Y-125592572D01*
X172130970Y-125615671D01*
X172120480Y-125637850D01*
X172107868Y-125658893D01*
X172093253Y-125678599D01*
X172076777Y-125696777D01*
X172058599Y-125713253D01*
X172038893Y-125727868D01*
X172017850Y-125740480D01*
X171995671Y-125750970D01*
X171972572Y-125759235D01*
X171948773Y-125765196D01*
X171924505Y-125768796D01*
X171900001Y-125770000D01*
X170999999Y-125770000D01*
X170975495Y-125768796D01*
X170951227Y-125765196D01*
X170927428Y-125759235D01*
X170904329Y-125750970D01*
X170882150Y-125740480D01*
X170861107Y-125727868D01*
X170841401Y-125713253D01*
X170823223Y-125696777D01*
X170806747Y-125678599D01*
X170792132Y-125658893D01*
X170779520Y-125637850D01*
X170769030Y-125615671D01*
X170760765Y-125592572D01*
X170754804Y-125568773D01*
X170751204Y-125544505D01*
X170750000Y-125520001D01*
X170750000Y-124869999D01*
X170751204Y-124845495D01*
X170754804Y-124821227D01*
X170760765Y-124797428D01*
X170769030Y-124774329D01*
X170779520Y-124752150D01*
X170792132Y-124731107D01*
X170806747Y-124711401D01*
X170823223Y-124693223D01*
X170841401Y-124676747D01*
X170861107Y-124662132D01*
X170882150Y-124649520D01*
X170904329Y-124639030D01*
X170927428Y-124630765D01*
X170951227Y-124624804D01*
X170975495Y-124621204D01*
X170999999Y-124620000D01*
X171900001Y-124620000D01*
X171924505Y-124621204D01*
X171924505Y-124621204D01*
G37*
D15*
X171450000Y-125195000D03*
D14*
G36*
X171924505Y-126671204D02*
G01*
X171948773Y-126674804D01*
X171972572Y-126680765D01*
X171995671Y-126689030D01*
X172017850Y-126699520D01*
X172038893Y-126712132D01*
X172058599Y-126726747D01*
X172076777Y-126743223D01*
X172093253Y-126761401D01*
X172107868Y-126781107D01*
X172120480Y-126802150D01*
X172130970Y-126824329D01*
X172139235Y-126847428D01*
X172145196Y-126871227D01*
X172148796Y-126895495D01*
X172150000Y-126919999D01*
X172150000Y-127570001D01*
X172148796Y-127594505D01*
X172145196Y-127618773D01*
X172139235Y-127642572D01*
X172130970Y-127665671D01*
X172120480Y-127687850D01*
X172107868Y-127708893D01*
X172093253Y-127728599D01*
X172076777Y-127746777D01*
X172058599Y-127763253D01*
X172038893Y-127777868D01*
X172017850Y-127790480D01*
X171995671Y-127800970D01*
X171972572Y-127809235D01*
X171948773Y-127815196D01*
X171924505Y-127818796D01*
X171900001Y-127820000D01*
X170999999Y-127820000D01*
X170975495Y-127818796D01*
X170951227Y-127815196D01*
X170927428Y-127809235D01*
X170904329Y-127800970D01*
X170882150Y-127790480D01*
X170861107Y-127777868D01*
X170841401Y-127763253D01*
X170823223Y-127746777D01*
X170806747Y-127728599D01*
X170792132Y-127708893D01*
X170779520Y-127687850D01*
X170769030Y-127665671D01*
X170760765Y-127642572D01*
X170754804Y-127618773D01*
X170751204Y-127594505D01*
X170750000Y-127570001D01*
X170750000Y-126919999D01*
X170751204Y-126895495D01*
X170754804Y-126871227D01*
X170760765Y-126847428D01*
X170769030Y-126824329D01*
X170779520Y-126802150D01*
X170792132Y-126781107D01*
X170806747Y-126761401D01*
X170823223Y-126743223D01*
X170841401Y-126726747D01*
X170861107Y-126712132D01*
X170882150Y-126699520D01*
X170904329Y-126689030D01*
X170927428Y-126680765D01*
X170951227Y-126674804D01*
X170975495Y-126671204D01*
X170999999Y-126670000D01*
X171900001Y-126670000D01*
X171924505Y-126671204D01*
X171924505Y-126671204D01*
G37*
D15*
X171450000Y-127245000D03*
D16*
X71320000Y-55070000D03*
X68780000Y-55070000D03*
X66240000Y-55070000D03*
D14*
G36*
X64344505Y-53971204D02*
G01*
X64368773Y-53974804D01*
X64392572Y-53980765D01*
X64415671Y-53989030D01*
X64437850Y-53999520D01*
X64458893Y-54012132D01*
X64478599Y-54026747D01*
X64496777Y-54043223D01*
X64513253Y-54061401D01*
X64527868Y-54081107D01*
X64540480Y-54102150D01*
X64550970Y-54124329D01*
X64559235Y-54147428D01*
X64565196Y-54171227D01*
X64568796Y-54195495D01*
X64570000Y-54219999D01*
X64570000Y-55920001D01*
X64568796Y-55944505D01*
X64565196Y-55968773D01*
X64559235Y-55992572D01*
X64550970Y-56015671D01*
X64540480Y-56037850D01*
X64527868Y-56058893D01*
X64513253Y-56078599D01*
X64496777Y-56096777D01*
X64478599Y-56113253D01*
X64458893Y-56127868D01*
X64437850Y-56140480D01*
X64415671Y-56150970D01*
X64392572Y-56159235D01*
X64368773Y-56165196D01*
X64344505Y-56168796D01*
X64320001Y-56170000D01*
X63079999Y-56170000D01*
X63055495Y-56168796D01*
X63031227Y-56165196D01*
X63007428Y-56159235D01*
X62984329Y-56150970D01*
X62962150Y-56140480D01*
X62941107Y-56127868D01*
X62921401Y-56113253D01*
X62903223Y-56096777D01*
X62886747Y-56078599D01*
X62872132Y-56058893D01*
X62859520Y-56037850D01*
X62849030Y-56015671D01*
X62840765Y-55992572D01*
X62834804Y-55968773D01*
X62831204Y-55944505D01*
X62830000Y-55920001D01*
X62830000Y-54219999D01*
X62831204Y-54195495D01*
X62834804Y-54171227D01*
X62840765Y-54147428D01*
X62849030Y-54124329D01*
X62859520Y-54102150D01*
X62872132Y-54081107D01*
X62886747Y-54061401D01*
X62903223Y-54043223D01*
X62921401Y-54026747D01*
X62941107Y-54012132D01*
X62962150Y-53999520D01*
X62984329Y-53989030D01*
X63007428Y-53980765D01*
X63031227Y-53974804D01*
X63055495Y-53971204D01*
X63079999Y-53970000D01*
X64320001Y-53970000D01*
X64344505Y-53971204D01*
X64344505Y-53971204D01*
G37*
D17*
X63700000Y-55070000D03*
D18*
X63915600Y-82926800D03*
X63915600Y-88006800D03*
X63915600Y-93086800D03*
X63915600Y-98166800D03*
X109635600Y-110866800D03*
X109635600Y-100706800D03*
X109635600Y-90546800D03*
X109635600Y-80386800D03*
D19*
X86915600Y-80426800D03*
X86915600Y-90426800D03*
X86915600Y-100426800D03*
X86915600Y-110426800D03*
D20*
X126234800Y-121110000D03*
D21*
X126234800Y-123650000D03*
D20*
X126234800Y-118570000D03*
D14*
G36*
X138384504Y-115111204D02*
G01*
X138408773Y-115114804D01*
X138432571Y-115120765D01*
X138455671Y-115129030D01*
X138477849Y-115139520D01*
X138498893Y-115152133D01*
X138518598Y-115166747D01*
X138536777Y-115183223D01*
X138553253Y-115201402D01*
X138567867Y-115221107D01*
X138580480Y-115242151D01*
X138590970Y-115264329D01*
X138599235Y-115287429D01*
X138605196Y-115311227D01*
X138608796Y-115335496D01*
X138610000Y-115360000D01*
X138610000Y-118860000D01*
X138608796Y-118884504D01*
X138605196Y-118908773D01*
X138599235Y-118932571D01*
X138590970Y-118955671D01*
X138580480Y-118977849D01*
X138567867Y-118998893D01*
X138553253Y-119018598D01*
X138536777Y-119036777D01*
X138518598Y-119053253D01*
X138498893Y-119067867D01*
X138477849Y-119080480D01*
X138455671Y-119090970D01*
X138432571Y-119099235D01*
X138408773Y-119105196D01*
X138384504Y-119108796D01*
X138360000Y-119110000D01*
X136360000Y-119110000D01*
X136335496Y-119108796D01*
X136311227Y-119105196D01*
X136287429Y-119099235D01*
X136264329Y-119090970D01*
X136242151Y-119080480D01*
X136221107Y-119067867D01*
X136201402Y-119053253D01*
X136183223Y-119036777D01*
X136166747Y-119018598D01*
X136152133Y-118998893D01*
X136139520Y-118977849D01*
X136129030Y-118955671D01*
X136120765Y-118932571D01*
X136114804Y-118908773D01*
X136111204Y-118884504D01*
X136110000Y-118860000D01*
X136110000Y-115360000D01*
X136111204Y-115335496D01*
X136114804Y-115311227D01*
X136120765Y-115287429D01*
X136129030Y-115264329D01*
X136139520Y-115242151D01*
X136152133Y-115221107D01*
X136166747Y-115201402D01*
X136183223Y-115183223D01*
X136201402Y-115166747D01*
X136221107Y-115152133D01*
X136242151Y-115139520D01*
X136264329Y-115129030D01*
X136287429Y-115120765D01*
X136311227Y-115114804D01*
X136335496Y-115111204D01*
X136360000Y-115110000D01*
X138360000Y-115110000D01*
X138384504Y-115111204D01*
X138384504Y-115111204D01*
G37*
D22*
X137360000Y-117110000D03*
D14*
G36*
X138384504Y-123111204D02*
G01*
X138408773Y-123114804D01*
X138432571Y-123120765D01*
X138455671Y-123129030D01*
X138477849Y-123139520D01*
X138498893Y-123152133D01*
X138518598Y-123166747D01*
X138536777Y-123183223D01*
X138553253Y-123201402D01*
X138567867Y-123221107D01*
X138580480Y-123242151D01*
X138590970Y-123264329D01*
X138599235Y-123287429D01*
X138605196Y-123311227D01*
X138608796Y-123335496D01*
X138610000Y-123360000D01*
X138610000Y-126860000D01*
X138608796Y-126884504D01*
X138605196Y-126908773D01*
X138599235Y-126932571D01*
X138590970Y-126955671D01*
X138580480Y-126977849D01*
X138567867Y-126998893D01*
X138553253Y-127018598D01*
X138536777Y-127036777D01*
X138518598Y-127053253D01*
X138498893Y-127067867D01*
X138477849Y-127080480D01*
X138455671Y-127090970D01*
X138432571Y-127099235D01*
X138408773Y-127105196D01*
X138384504Y-127108796D01*
X138360000Y-127110000D01*
X136360000Y-127110000D01*
X136335496Y-127108796D01*
X136311227Y-127105196D01*
X136287429Y-127099235D01*
X136264329Y-127090970D01*
X136242151Y-127080480D01*
X136221107Y-127067867D01*
X136201402Y-127053253D01*
X136183223Y-127036777D01*
X136166747Y-127018598D01*
X136152133Y-126998893D01*
X136139520Y-126977849D01*
X136129030Y-126955671D01*
X136120765Y-126932571D01*
X136114804Y-126908773D01*
X136111204Y-126884504D01*
X136110000Y-126860000D01*
X136110000Y-123360000D01*
X136111204Y-123335496D01*
X136114804Y-123311227D01*
X136120765Y-123287429D01*
X136129030Y-123264329D01*
X136139520Y-123242151D01*
X136152133Y-123221107D01*
X136166747Y-123201402D01*
X136183223Y-123183223D01*
X136201402Y-123166747D01*
X136221107Y-123152133D01*
X136242151Y-123139520D01*
X136264329Y-123129030D01*
X136287429Y-123120765D01*
X136311227Y-123114804D01*
X136335496Y-123111204D01*
X136360000Y-123110000D01*
X138360000Y-123110000D01*
X138384504Y-123111204D01*
X138384504Y-123111204D01*
G37*
D22*
X137360000Y-125110000D03*
D11*
X245762037Y-76029244D03*
D10*
X243222037Y-76029244D03*
X245762037Y-73489244D03*
X243222037Y-73489244D03*
X245762037Y-70949244D03*
X243222037Y-70949244D03*
X245762037Y-68409244D03*
X243222037Y-68409244D03*
X245762037Y-65869244D03*
X243222037Y-65869244D03*
X245762037Y-63329244D03*
X243222037Y-63329244D03*
X245762037Y-60789244D03*
X243222037Y-60789244D03*
X245762037Y-58249244D03*
X243222037Y-58249244D03*
D23*
X56080000Y-90630000D03*
D24*
X56080000Y-75390000D03*
D25*
X152400000Y-121380000D03*
D26*
X152400000Y-118840000D03*
X100530000Y-53800000D03*
D25*
X100530000Y-56340000D03*
D26*
X171450000Y-118840000D03*
D25*
X171450000Y-121380000D03*
X161925000Y-121380000D03*
D26*
X161925000Y-118840000D03*
D10*
X243222037Y-88729244D03*
X245762037Y-88729244D03*
X243222037Y-91269244D03*
X245762037Y-91269244D03*
X243222037Y-93809244D03*
X245762037Y-93809244D03*
X243222037Y-96349244D03*
X245762037Y-96349244D03*
X243222037Y-98889244D03*
X245762037Y-98889244D03*
X243222037Y-101429244D03*
X245762037Y-101429244D03*
X243222037Y-103969244D03*
X245762037Y-103969244D03*
X243222037Y-106509244D03*
D11*
X245762037Y-106509244D03*
X229796321Y-106509244D03*
D10*
X227256321Y-106509244D03*
X229796321Y-103969244D03*
X227256321Y-103969244D03*
X229796321Y-101429244D03*
X227256321Y-101429244D03*
X229796321Y-98889244D03*
X227256321Y-98889244D03*
X229796321Y-96349244D03*
X227256321Y-96349244D03*
X229796321Y-93809244D03*
X227256321Y-93809244D03*
X229796321Y-91269244D03*
X227256321Y-91269244D03*
X229796321Y-88729244D03*
X227256321Y-88729244D03*
D11*
X213830607Y-106509244D03*
D10*
X211290607Y-106509244D03*
X213830607Y-103969244D03*
X211290607Y-103969244D03*
X213830607Y-101429244D03*
X211290607Y-101429244D03*
X213830607Y-98889244D03*
X211290607Y-98889244D03*
X213830607Y-96349244D03*
X211290607Y-96349244D03*
X213830607Y-93809244D03*
X211290607Y-93809244D03*
X213830607Y-91269244D03*
X211290607Y-91269244D03*
X213830607Y-88729244D03*
X211290607Y-88729244D03*
X195324893Y-88729244D03*
X197864893Y-88729244D03*
X195324893Y-91269244D03*
X197864893Y-91269244D03*
X195324893Y-93809244D03*
X197864893Y-93809244D03*
X195324893Y-96349244D03*
X197864893Y-96349244D03*
X195324893Y-98889244D03*
X197864893Y-98889244D03*
X195324893Y-101429244D03*
X197864893Y-101429244D03*
X195324893Y-103969244D03*
X197864893Y-103969244D03*
X195324893Y-106509244D03*
D11*
X197864893Y-106509244D03*
X181899179Y-106509244D03*
D10*
X179359179Y-106509244D03*
X181899179Y-103969244D03*
X179359179Y-103969244D03*
X181899179Y-101429244D03*
X179359179Y-101429244D03*
X181899179Y-98889244D03*
X179359179Y-98889244D03*
X181899179Y-96349244D03*
X179359179Y-96349244D03*
X181899179Y-93809244D03*
X179359179Y-93809244D03*
X181899179Y-91269244D03*
X179359179Y-91269244D03*
X181899179Y-88729244D03*
X179359179Y-88729244D03*
D11*
X165933465Y-106509244D03*
D10*
X163393465Y-106509244D03*
X165933465Y-103969244D03*
X163393465Y-103969244D03*
X165933465Y-101429244D03*
X163393465Y-101429244D03*
X165933465Y-98889244D03*
X163393465Y-98889244D03*
X165933465Y-96349244D03*
X163393465Y-96349244D03*
X165933465Y-93809244D03*
X163393465Y-93809244D03*
X165933465Y-91269244D03*
X163393465Y-91269244D03*
X165933465Y-88729244D03*
X163393465Y-88729244D03*
X147427751Y-88729244D03*
X149967751Y-88729244D03*
X147427751Y-91269244D03*
X149967751Y-91269244D03*
X147427751Y-93809244D03*
X149967751Y-93809244D03*
X147427751Y-96349244D03*
X149967751Y-96349244D03*
X147427751Y-98889244D03*
X149967751Y-98889244D03*
X147427751Y-101429244D03*
X149967751Y-101429244D03*
X147427751Y-103969244D03*
X149967751Y-103969244D03*
X147427751Y-106509244D03*
D11*
X149967751Y-106509244D03*
D10*
X131462037Y-88729244D03*
X134002037Y-88729244D03*
X131462037Y-91269244D03*
X134002037Y-91269244D03*
X131462037Y-93809244D03*
X134002037Y-93809244D03*
X131462037Y-96349244D03*
X134002037Y-96349244D03*
X131462037Y-98889244D03*
X134002037Y-98889244D03*
X131462037Y-101429244D03*
X134002037Y-101429244D03*
X131462037Y-103969244D03*
X134002037Y-103969244D03*
X131462037Y-106509244D03*
D11*
X134002037Y-106509244D03*
X229796321Y-76029244D03*
D10*
X227256321Y-76029244D03*
X229796321Y-73489244D03*
X227256321Y-73489244D03*
X229796321Y-70949244D03*
X227256321Y-70949244D03*
X229796321Y-68409244D03*
X227256321Y-68409244D03*
X229796321Y-65869244D03*
X227256321Y-65869244D03*
X229796321Y-63329244D03*
X227256321Y-63329244D03*
X229796321Y-60789244D03*
X227256321Y-60789244D03*
X229796321Y-58249244D03*
X227256321Y-58249244D03*
X211290607Y-58249244D03*
X213830607Y-58249244D03*
X211290607Y-60789244D03*
X213830607Y-60789244D03*
X211290607Y-63329244D03*
X213830607Y-63329244D03*
X211290607Y-65869244D03*
X213830607Y-65869244D03*
X211290607Y-68409244D03*
X213830607Y-68409244D03*
X211290607Y-70949244D03*
X213830607Y-70949244D03*
X211290607Y-73489244D03*
X213830607Y-73489244D03*
X211290607Y-76029244D03*
D11*
X213830607Y-76029244D03*
D10*
X195324893Y-58249244D03*
X197864893Y-58249244D03*
X195324893Y-60789244D03*
X197864893Y-60789244D03*
X195324893Y-63329244D03*
X197864893Y-63329244D03*
X195324893Y-65869244D03*
X197864893Y-65869244D03*
X195324893Y-68409244D03*
X197864893Y-68409244D03*
X195324893Y-70949244D03*
X197864893Y-70949244D03*
X195324893Y-73489244D03*
X197864893Y-73489244D03*
X195324893Y-76029244D03*
D11*
X197864893Y-76029244D03*
X181899179Y-76029244D03*
D10*
X179359179Y-76029244D03*
X181899179Y-73489244D03*
X179359179Y-73489244D03*
X181899179Y-70949244D03*
X179359179Y-70949244D03*
X181899179Y-68409244D03*
X179359179Y-68409244D03*
X181899179Y-65869244D03*
X179359179Y-65869244D03*
X181899179Y-63329244D03*
X179359179Y-63329244D03*
X181899179Y-60789244D03*
X179359179Y-60789244D03*
X181899179Y-58249244D03*
X179359179Y-58249244D03*
D11*
X165933465Y-76029244D03*
D10*
X163393465Y-76029244D03*
X165933465Y-73489244D03*
X163393465Y-73489244D03*
X165933465Y-70949244D03*
X163393465Y-70949244D03*
X165933465Y-68409244D03*
X163393465Y-68409244D03*
X165933465Y-65869244D03*
X163393465Y-65869244D03*
X165933465Y-63329244D03*
X163393465Y-63329244D03*
X165933465Y-60789244D03*
X163393465Y-60789244D03*
X165933465Y-58249244D03*
X163393465Y-58249244D03*
X147427751Y-58249244D03*
X149967751Y-58249244D03*
X147427751Y-60789244D03*
X149967751Y-60789244D03*
X147427751Y-63329244D03*
X149967751Y-63329244D03*
X147427751Y-65869244D03*
X149967751Y-65869244D03*
X147427751Y-68409244D03*
X149967751Y-68409244D03*
X147427751Y-70949244D03*
X149967751Y-70949244D03*
X147427751Y-73489244D03*
X149967751Y-73489244D03*
X147427751Y-76029244D03*
D11*
X149967751Y-76029244D03*
D10*
X131462037Y-58249244D03*
X134002037Y-58249244D03*
X131462037Y-60789244D03*
X134002037Y-60789244D03*
X131462037Y-63329244D03*
X134002037Y-63329244D03*
X131462037Y-65869244D03*
X134002037Y-65869244D03*
X131462037Y-68409244D03*
X134002037Y-68409244D03*
X131462037Y-70949244D03*
X134002037Y-70949244D03*
X131462037Y-73489244D03*
X134002037Y-73489244D03*
X131462037Y-76029244D03*
D11*
X134002037Y-76029244D03*
D27*
X55000000Y-126000000D03*
X55000000Y-53000000D03*
X247000000Y-126000000D03*
X247000000Y-53000000D03*
X124000000Y-53000000D03*
X188000000Y-126000000D03*
X188000000Y-83000000D03*
X188000000Y-53000000D03*
M02*
