G04 #@! TF.GenerationSoftware,KiCad,Pcbnew,(5.1.4)-1*
G04 #@! TF.CreationDate,2019-10-17T20:01:31+02:00*
G04 #@! TF.ProjectId,psu-30w,7073752d-3330-4772-9e6b-696361645f70,rev?*
G04 #@! TF.SameCoordinates,Original*
G04 #@! TF.FileFunction,Copper,L1,Top*
G04 #@! TF.FilePolarity,Positive*
%FSLAX46Y46*%
G04 Gerber Fmt 4.6, Leading zero omitted, Abs format (unit mm)*
G04 Created by KiCad (PCBNEW (5.1.4)-1) date 2019-10-17 20:01:31*
%MOMM*%
%LPD*%
G04 APERTURE LIST*
%ADD10C,0.300000*%
%ADD11C,0.100000*%
%ADD12C,1.150000*%
%ADD13O,1.700000X1.700000*%
%ADD14R,1.700000X1.700000*%
%ADD15C,4.000000*%
%ADD16C,3.000000*%
%ADD17C,1.300000*%
%ADD18R,1.300000X1.300000*%
%ADD19C,2.500000*%
%ADD20R,3.200000X3.200000*%
%ADD21O,3.200000X3.200000*%
%ADD22C,1.800000*%
%ADD23R,1.800000X1.800000*%
%ADD24C,5.600000*%
%ADD25C,1.000000*%
%ADD26C,2.000000*%
%ADD27C,1.000000*%
G04 APERTURE END LIST*
D10*
X208302142Y-51903571D02*
X208302142Y-50403571D01*
X208873571Y-50403571D01*
X209016428Y-50475000D01*
X209087857Y-50546428D01*
X209159285Y-50689285D01*
X209159285Y-50903571D01*
X209087857Y-51046428D01*
X209016428Y-51117857D01*
X208873571Y-51189285D01*
X208302142Y-51189285D01*
X209730714Y-51832142D02*
X209945000Y-51903571D01*
X210302142Y-51903571D01*
X210445000Y-51832142D01*
X210516428Y-51760714D01*
X210587857Y-51617857D01*
X210587857Y-51475000D01*
X210516428Y-51332142D01*
X210445000Y-51260714D01*
X210302142Y-51189285D01*
X210016428Y-51117857D01*
X209873571Y-51046428D01*
X209802142Y-50975000D01*
X209730714Y-50832142D01*
X209730714Y-50689285D01*
X209802142Y-50546428D01*
X209873571Y-50475000D01*
X210016428Y-50403571D01*
X210373571Y-50403571D01*
X210587857Y-50475000D01*
X211230714Y-50403571D02*
X211230714Y-51617857D01*
X211302142Y-51760714D01*
X211373571Y-51832142D01*
X211516428Y-51903571D01*
X211802142Y-51903571D01*
X211945000Y-51832142D01*
X212016428Y-51760714D01*
X212087857Y-51617857D01*
X212087857Y-50403571D01*
X212802142Y-51332142D02*
X213945000Y-51332142D01*
X214516428Y-50403571D02*
X215445000Y-50403571D01*
X214945000Y-50975000D01*
X215159285Y-50975000D01*
X215302142Y-51046428D01*
X215373571Y-51117857D01*
X215445000Y-51260714D01*
X215445000Y-51617857D01*
X215373571Y-51760714D01*
X215302142Y-51832142D01*
X215159285Y-51903571D01*
X214730714Y-51903571D01*
X214587857Y-51832142D01*
X214516428Y-51760714D01*
X216373571Y-50403571D02*
X216516428Y-50403571D01*
X216659285Y-50475000D01*
X216730714Y-50546428D01*
X216802142Y-50689285D01*
X216873571Y-50975000D01*
X216873571Y-51332142D01*
X216802142Y-51617857D01*
X216730714Y-51760714D01*
X216659285Y-51832142D01*
X216516428Y-51903571D01*
X216373571Y-51903571D01*
X216230714Y-51832142D01*
X216159285Y-51760714D01*
X216087857Y-51617857D01*
X216016428Y-51332142D01*
X216016428Y-50975000D01*
X216087857Y-50689285D01*
X216159285Y-50546428D01*
X216230714Y-50475000D01*
X216373571Y-50403571D01*
X217373571Y-50403571D02*
X217730714Y-51903571D01*
X218016428Y-50832142D01*
X218302142Y-51903571D01*
X218659285Y-50403571D01*
X221230714Y-51903571D02*
X220730714Y-51189285D01*
X220373571Y-51903571D02*
X220373571Y-50403571D01*
X220945000Y-50403571D01*
X221087857Y-50475000D01*
X221159285Y-50546428D01*
X221230714Y-50689285D01*
X221230714Y-50903571D01*
X221159285Y-51046428D01*
X221087857Y-51117857D01*
X220945000Y-51189285D01*
X220373571Y-51189285D01*
X222445000Y-51832142D02*
X222302142Y-51903571D01*
X222016428Y-51903571D01*
X221873571Y-51832142D01*
X221802142Y-51689285D01*
X221802142Y-51117857D01*
X221873571Y-50975000D01*
X222016428Y-50903571D01*
X222302142Y-50903571D01*
X222445000Y-50975000D01*
X222516428Y-51117857D01*
X222516428Y-51260714D01*
X221802142Y-51403571D01*
X223016428Y-50903571D02*
X223373571Y-51903571D01*
X223730714Y-50903571D01*
X224302142Y-51760714D02*
X224373571Y-51832142D01*
X224302142Y-51903571D01*
X224230714Y-51832142D01*
X224302142Y-51760714D01*
X224302142Y-51903571D01*
X226159285Y-51903571D02*
X226159285Y-50403571D01*
X226873571Y-51903571D02*
X226873571Y-50403571D01*
X227230714Y-50403571D01*
X227445000Y-50475000D01*
X227587857Y-50617857D01*
X227659285Y-50760714D01*
X227730714Y-51046428D01*
X227730714Y-51260714D01*
X227659285Y-51546428D01*
X227587857Y-51689285D01*
X227445000Y-51832142D01*
X227230714Y-51903571D01*
X226873571Y-51903571D01*
X228230714Y-50403571D02*
X228587857Y-51903571D01*
X228873571Y-50832142D01*
X229159285Y-51903571D01*
X229516428Y-50403571D01*
X230087857Y-51332142D02*
X231230714Y-51332142D01*
X231873571Y-50546428D02*
X231945000Y-50475000D01*
X232087857Y-50403571D01*
X232445000Y-50403571D01*
X232587857Y-50475000D01*
X232659285Y-50546428D01*
X232730714Y-50689285D01*
X232730714Y-50832142D01*
X232659285Y-51046428D01*
X231802142Y-51903571D01*
X232730714Y-51903571D01*
X233659285Y-50403571D02*
X233802142Y-50403571D01*
X233945000Y-50475000D01*
X234016428Y-50546428D01*
X234087857Y-50689285D01*
X234159285Y-50975000D01*
X234159285Y-51332142D01*
X234087857Y-51617857D01*
X234016428Y-51760714D01*
X233945000Y-51832142D01*
X233802142Y-51903571D01*
X233659285Y-51903571D01*
X233516428Y-51832142D01*
X233445000Y-51760714D01*
X233373571Y-51617857D01*
X233302142Y-51332142D01*
X233302142Y-50975000D01*
X233373571Y-50689285D01*
X233445000Y-50546428D01*
X233516428Y-50475000D01*
X233659285Y-50403571D01*
X235587857Y-51903571D02*
X234730714Y-51903571D01*
X235159285Y-51903571D02*
X235159285Y-50403571D01*
X235016428Y-50617857D01*
X234873571Y-50760714D01*
X234730714Y-50832142D01*
X236302142Y-51903571D02*
X236587857Y-51903571D01*
X236730714Y-51832142D01*
X236802142Y-51760714D01*
X236945000Y-51546428D01*
X237016428Y-51260714D01*
X237016428Y-50689285D01*
X236945000Y-50546428D01*
X236873571Y-50475000D01*
X236730714Y-50403571D01*
X236445000Y-50403571D01*
X236302142Y-50475000D01*
X236230714Y-50546428D01*
X236159285Y-50689285D01*
X236159285Y-51046428D01*
X236230714Y-51189285D01*
X236302142Y-51260714D01*
X236445000Y-51332142D01*
X236730714Y-51332142D01*
X236873571Y-51260714D01*
X236945000Y-51189285D01*
X237016428Y-51046428D01*
X208730714Y-55025000D02*
X208659285Y-54953571D01*
X208516428Y-54739285D01*
X208445000Y-54596428D01*
X208373571Y-54382142D01*
X208302142Y-54025000D01*
X208302142Y-53739285D01*
X208373571Y-53382142D01*
X208445000Y-53167857D01*
X208516428Y-53025000D01*
X208659285Y-52810714D01*
X208730714Y-52739285D01*
X209945000Y-54382142D02*
X209802142Y-54453571D01*
X209516428Y-54453571D01*
X209373571Y-54382142D01*
X209302142Y-54310714D01*
X209230714Y-54167857D01*
X209230714Y-53739285D01*
X209302142Y-53596428D01*
X209373571Y-53525000D01*
X209516428Y-53453571D01*
X209802142Y-53453571D01*
X209945000Y-53525000D01*
X210445000Y-55025000D02*
X210516428Y-54953571D01*
X210659285Y-54739285D01*
X210730714Y-54596428D01*
X210802142Y-54382142D01*
X210873571Y-54025000D01*
X210873571Y-53739285D01*
X210802142Y-53382142D01*
X210730714Y-53167857D01*
X210659285Y-53025000D01*
X210516428Y-52810714D01*
X210445000Y-52739285D01*
X213587857Y-54453571D02*
X213087857Y-53739285D01*
X212730714Y-54453571D02*
X212730714Y-52953571D01*
X213302142Y-52953571D01*
X213445000Y-53025000D01*
X213516428Y-53096428D01*
X213587857Y-53239285D01*
X213587857Y-53453571D01*
X213516428Y-53596428D01*
X213445000Y-53667857D01*
X213302142Y-53739285D01*
X212730714Y-53739285D01*
X214230714Y-54310714D02*
X214302142Y-54382142D01*
X214230714Y-54453571D01*
X214159285Y-54382142D01*
X214230714Y-54310714D01*
X214230714Y-54453571D01*
X216087857Y-54453571D02*
X216087857Y-52953571D01*
X216587857Y-54025000D01*
X217087857Y-52953571D01*
X217087857Y-54453571D01*
X218445000Y-54453571D02*
X218445000Y-53667857D01*
X218373571Y-53525000D01*
X218230714Y-53453571D01*
X217945000Y-53453571D01*
X217802142Y-53525000D01*
X218445000Y-54382142D02*
X218302142Y-54453571D01*
X217945000Y-54453571D01*
X217802142Y-54382142D01*
X217730714Y-54239285D01*
X217730714Y-54096428D01*
X217802142Y-53953571D01*
X217945000Y-53882142D01*
X218302142Y-53882142D01*
X218445000Y-53810714D01*
X219159285Y-53453571D02*
X219159285Y-54453571D01*
X219159285Y-53596428D02*
X219230714Y-53525000D01*
X219373571Y-53453571D01*
X219587857Y-53453571D01*
X219730714Y-53525000D01*
X219802142Y-53667857D01*
X219802142Y-54453571D01*
X220373571Y-53453571D02*
X221159285Y-53453571D01*
X220373571Y-54453571D01*
X221159285Y-54453571D01*
X221730714Y-54453571D02*
X221730714Y-52953571D01*
X221873571Y-53882142D02*
X222302142Y-54453571D01*
X222302142Y-53453571D02*
X221730714Y-54025000D01*
X223516428Y-54382142D02*
X223373571Y-54453571D01*
X223087857Y-54453571D01*
X222945000Y-54382142D01*
X222873571Y-54239285D01*
X222873571Y-53667857D01*
X222945000Y-53525000D01*
X223087857Y-53453571D01*
X223373571Y-53453571D01*
X223516428Y-53525000D01*
X223587857Y-53667857D01*
X223587857Y-53810714D01*
X222873571Y-53953571D01*
X225302142Y-53096428D02*
X225373571Y-53025000D01*
X225516428Y-52953571D01*
X225873571Y-52953571D01*
X226016428Y-53025000D01*
X226087857Y-53096428D01*
X226159285Y-53239285D01*
X226159285Y-53382142D01*
X226087857Y-53596428D01*
X225230714Y-54453571D01*
X226159285Y-54453571D01*
X227087857Y-52953571D02*
X227230714Y-52953571D01*
X227373571Y-53025000D01*
X227445000Y-53096428D01*
X227516428Y-53239285D01*
X227587857Y-53525000D01*
X227587857Y-53882142D01*
X227516428Y-54167857D01*
X227445000Y-54310714D01*
X227373571Y-54382142D01*
X227230714Y-54453571D01*
X227087857Y-54453571D01*
X226945000Y-54382142D01*
X226873571Y-54310714D01*
X226802142Y-54167857D01*
X226730714Y-53882142D01*
X226730714Y-53525000D01*
X226802142Y-53239285D01*
X226873571Y-53096428D01*
X226945000Y-53025000D01*
X227087857Y-52953571D01*
X229016428Y-54453571D02*
X228159285Y-54453571D01*
X228587857Y-54453571D02*
X228587857Y-52953571D01*
X228445000Y-53167857D01*
X228302142Y-53310714D01*
X228159285Y-53382142D01*
X229730714Y-54453571D02*
X230016428Y-54453571D01*
X230159285Y-54382142D01*
X230230714Y-54310714D01*
X230373571Y-54096428D01*
X230445000Y-53810714D01*
X230445000Y-53239285D01*
X230373571Y-53096428D01*
X230302142Y-53025000D01*
X230159285Y-52953571D01*
X229873571Y-52953571D01*
X229730714Y-53025000D01*
X229659285Y-53096428D01*
X229587857Y-53239285D01*
X229587857Y-53596428D01*
X229659285Y-53739285D01*
X229730714Y-53810714D01*
X229873571Y-53882142D01*
X230159285Y-53882142D01*
X230302142Y-53810714D01*
X230373571Y-53739285D01*
X230445000Y-53596428D01*
D11*
G36*
X159424505Y-126523204D02*
G01*
X159448773Y-126526804D01*
X159472572Y-126532765D01*
X159495671Y-126541030D01*
X159517850Y-126551520D01*
X159538893Y-126564132D01*
X159558599Y-126578747D01*
X159576777Y-126595223D01*
X159593253Y-126613401D01*
X159607868Y-126633107D01*
X159620480Y-126654150D01*
X159630970Y-126676329D01*
X159639235Y-126699428D01*
X159645196Y-126723227D01*
X159648796Y-126747495D01*
X159650000Y-126771999D01*
X159650000Y-127422001D01*
X159648796Y-127446505D01*
X159645196Y-127470773D01*
X159639235Y-127494572D01*
X159630970Y-127517671D01*
X159620480Y-127539850D01*
X159607868Y-127560893D01*
X159593253Y-127580599D01*
X159576777Y-127598777D01*
X159558599Y-127615253D01*
X159538893Y-127629868D01*
X159517850Y-127642480D01*
X159495671Y-127652970D01*
X159472572Y-127661235D01*
X159448773Y-127667196D01*
X159424505Y-127670796D01*
X159400001Y-127672000D01*
X158499999Y-127672000D01*
X158475495Y-127670796D01*
X158451227Y-127667196D01*
X158427428Y-127661235D01*
X158404329Y-127652970D01*
X158382150Y-127642480D01*
X158361107Y-127629868D01*
X158341401Y-127615253D01*
X158323223Y-127598777D01*
X158306747Y-127580599D01*
X158292132Y-127560893D01*
X158279520Y-127539850D01*
X158269030Y-127517671D01*
X158260765Y-127494572D01*
X158254804Y-127470773D01*
X158251204Y-127446505D01*
X158250000Y-127422001D01*
X158250000Y-126771999D01*
X158251204Y-126747495D01*
X158254804Y-126723227D01*
X158260765Y-126699428D01*
X158269030Y-126676329D01*
X158279520Y-126654150D01*
X158292132Y-126633107D01*
X158306747Y-126613401D01*
X158323223Y-126595223D01*
X158341401Y-126578747D01*
X158361107Y-126564132D01*
X158382150Y-126551520D01*
X158404329Y-126541030D01*
X158427428Y-126532765D01*
X158451227Y-126526804D01*
X158475495Y-126523204D01*
X158499999Y-126522000D01*
X159400001Y-126522000D01*
X159424505Y-126523204D01*
X159424505Y-126523204D01*
G37*
D12*
X158950000Y-127097000D03*
D11*
G36*
X159424505Y-124473204D02*
G01*
X159448773Y-124476804D01*
X159472572Y-124482765D01*
X159495671Y-124491030D01*
X159517850Y-124501520D01*
X159538893Y-124514132D01*
X159558599Y-124528747D01*
X159576777Y-124545223D01*
X159593253Y-124563401D01*
X159607868Y-124583107D01*
X159620480Y-124604150D01*
X159630970Y-124626329D01*
X159639235Y-124649428D01*
X159645196Y-124673227D01*
X159648796Y-124697495D01*
X159650000Y-124721999D01*
X159650000Y-125372001D01*
X159648796Y-125396505D01*
X159645196Y-125420773D01*
X159639235Y-125444572D01*
X159630970Y-125467671D01*
X159620480Y-125489850D01*
X159607868Y-125510893D01*
X159593253Y-125530599D01*
X159576777Y-125548777D01*
X159558599Y-125565253D01*
X159538893Y-125579868D01*
X159517850Y-125592480D01*
X159495671Y-125602970D01*
X159472572Y-125611235D01*
X159448773Y-125617196D01*
X159424505Y-125620796D01*
X159400001Y-125622000D01*
X158499999Y-125622000D01*
X158475495Y-125620796D01*
X158451227Y-125617196D01*
X158427428Y-125611235D01*
X158404329Y-125602970D01*
X158382150Y-125592480D01*
X158361107Y-125579868D01*
X158341401Y-125565253D01*
X158323223Y-125548777D01*
X158306747Y-125530599D01*
X158292132Y-125510893D01*
X158279520Y-125489850D01*
X158269030Y-125467671D01*
X158260765Y-125444572D01*
X158254804Y-125420773D01*
X158251204Y-125396505D01*
X158250000Y-125372001D01*
X158250000Y-124721999D01*
X158251204Y-124697495D01*
X158254804Y-124673227D01*
X158260765Y-124649428D01*
X158269030Y-124626329D01*
X158279520Y-124604150D01*
X158292132Y-124583107D01*
X158306747Y-124563401D01*
X158323223Y-124545223D01*
X158341401Y-124528747D01*
X158361107Y-124514132D01*
X158382150Y-124501520D01*
X158404329Y-124491030D01*
X158427428Y-124482765D01*
X158451227Y-124476804D01*
X158475495Y-124473204D01*
X158499999Y-124472000D01*
X159400001Y-124472000D01*
X159424505Y-124473204D01*
X159424505Y-124473204D01*
G37*
D12*
X158950000Y-125047000D03*
D13*
X56080000Y-70310000D03*
D14*
X56080000Y-67770000D03*
D13*
X101800000Y-124920000D03*
X99260000Y-124920000D03*
D14*
X96720000Y-124920000D03*
D13*
X92910000Y-63960000D03*
D14*
X92910000Y-61420000D03*
D15*
X82750000Y-61826400D03*
X82750000Y-55826400D03*
X78050000Y-58826400D03*
D11*
G36*
X163742505Y-126505204D02*
G01*
X163766773Y-126508804D01*
X163790572Y-126514765D01*
X163813671Y-126523030D01*
X163835850Y-126533520D01*
X163856893Y-126546132D01*
X163876599Y-126560747D01*
X163894777Y-126577223D01*
X163911253Y-126595401D01*
X163925868Y-126615107D01*
X163938480Y-126636150D01*
X163948970Y-126658329D01*
X163957235Y-126681428D01*
X163963196Y-126705227D01*
X163966796Y-126729495D01*
X163968000Y-126753999D01*
X163968000Y-127404001D01*
X163966796Y-127428505D01*
X163963196Y-127452773D01*
X163957235Y-127476572D01*
X163948970Y-127499671D01*
X163938480Y-127521850D01*
X163925868Y-127542893D01*
X163911253Y-127562599D01*
X163894777Y-127580777D01*
X163876599Y-127597253D01*
X163856893Y-127611868D01*
X163835850Y-127624480D01*
X163813671Y-127634970D01*
X163790572Y-127643235D01*
X163766773Y-127649196D01*
X163742505Y-127652796D01*
X163718001Y-127654000D01*
X162817999Y-127654000D01*
X162793495Y-127652796D01*
X162769227Y-127649196D01*
X162745428Y-127643235D01*
X162722329Y-127634970D01*
X162700150Y-127624480D01*
X162679107Y-127611868D01*
X162659401Y-127597253D01*
X162641223Y-127580777D01*
X162624747Y-127562599D01*
X162610132Y-127542893D01*
X162597520Y-127521850D01*
X162587030Y-127499671D01*
X162578765Y-127476572D01*
X162572804Y-127452773D01*
X162569204Y-127428505D01*
X162568000Y-127404001D01*
X162568000Y-126753999D01*
X162569204Y-126729495D01*
X162572804Y-126705227D01*
X162578765Y-126681428D01*
X162587030Y-126658329D01*
X162597520Y-126636150D01*
X162610132Y-126615107D01*
X162624747Y-126595401D01*
X162641223Y-126577223D01*
X162659401Y-126560747D01*
X162679107Y-126546132D01*
X162700150Y-126533520D01*
X162722329Y-126523030D01*
X162745428Y-126514765D01*
X162769227Y-126508804D01*
X162793495Y-126505204D01*
X162817999Y-126504000D01*
X163718001Y-126504000D01*
X163742505Y-126505204D01*
X163742505Y-126505204D01*
G37*
D12*
X163268000Y-127079000D03*
D11*
G36*
X163742505Y-124455204D02*
G01*
X163766773Y-124458804D01*
X163790572Y-124464765D01*
X163813671Y-124473030D01*
X163835850Y-124483520D01*
X163856893Y-124496132D01*
X163876599Y-124510747D01*
X163894777Y-124527223D01*
X163911253Y-124545401D01*
X163925868Y-124565107D01*
X163938480Y-124586150D01*
X163948970Y-124608329D01*
X163957235Y-124631428D01*
X163963196Y-124655227D01*
X163966796Y-124679495D01*
X163968000Y-124703999D01*
X163968000Y-125354001D01*
X163966796Y-125378505D01*
X163963196Y-125402773D01*
X163957235Y-125426572D01*
X163948970Y-125449671D01*
X163938480Y-125471850D01*
X163925868Y-125492893D01*
X163911253Y-125512599D01*
X163894777Y-125530777D01*
X163876599Y-125547253D01*
X163856893Y-125561868D01*
X163835850Y-125574480D01*
X163813671Y-125584970D01*
X163790572Y-125593235D01*
X163766773Y-125599196D01*
X163742505Y-125602796D01*
X163718001Y-125604000D01*
X162817999Y-125604000D01*
X162793495Y-125602796D01*
X162769227Y-125599196D01*
X162745428Y-125593235D01*
X162722329Y-125584970D01*
X162700150Y-125574480D01*
X162679107Y-125561868D01*
X162659401Y-125547253D01*
X162641223Y-125530777D01*
X162624747Y-125512599D01*
X162610132Y-125492893D01*
X162597520Y-125471850D01*
X162587030Y-125449671D01*
X162578765Y-125426572D01*
X162572804Y-125402773D01*
X162569204Y-125378505D01*
X162568000Y-125354001D01*
X162568000Y-124703999D01*
X162569204Y-124679495D01*
X162572804Y-124655227D01*
X162578765Y-124631428D01*
X162587030Y-124608329D01*
X162597520Y-124586150D01*
X162610132Y-124565107D01*
X162624747Y-124545401D01*
X162641223Y-124527223D01*
X162659401Y-124510747D01*
X162679107Y-124496132D01*
X162700150Y-124483520D01*
X162722329Y-124473030D01*
X162745428Y-124464765D01*
X162769227Y-124458804D01*
X162793495Y-124455204D01*
X162817999Y-124454000D01*
X163718001Y-124454000D01*
X163742505Y-124455204D01*
X163742505Y-124455204D01*
G37*
D12*
X163268000Y-125029000D03*
D11*
G36*
X152874505Y-126671204D02*
G01*
X152898773Y-126674804D01*
X152922572Y-126680765D01*
X152945671Y-126689030D01*
X152967850Y-126699520D01*
X152988893Y-126712132D01*
X153008599Y-126726747D01*
X153026777Y-126743223D01*
X153043253Y-126761401D01*
X153057868Y-126781107D01*
X153070480Y-126802150D01*
X153080970Y-126824329D01*
X153089235Y-126847428D01*
X153095196Y-126871227D01*
X153098796Y-126895495D01*
X153100000Y-126919999D01*
X153100000Y-127570001D01*
X153098796Y-127594505D01*
X153095196Y-127618773D01*
X153089235Y-127642572D01*
X153080970Y-127665671D01*
X153070480Y-127687850D01*
X153057868Y-127708893D01*
X153043253Y-127728599D01*
X153026777Y-127746777D01*
X153008599Y-127763253D01*
X152988893Y-127777868D01*
X152967850Y-127790480D01*
X152945671Y-127800970D01*
X152922572Y-127809235D01*
X152898773Y-127815196D01*
X152874505Y-127818796D01*
X152850001Y-127820000D01*
X151949999Y-127820000D01*
X151925495Y-127818796D01*
X151901227Y-127815196D01*
X151877428Y-127809235D01*
X151854329Y-127800970D01*
X151832150Y-127790480D01*
X151811107Y-127777868D01*
X151791401Y-127763253D01*
X151773223Y-127746777D01*
X151756747Y-127728599D01*
X151742132Y-127708893D01*
X151729520Y-127687850D01*
X151719030Y-127665671D01*
X151710765Y-127642572D01*
X151704804Y-127618773D01*
X151701204Y-127594505D01*
X151700000Y-127570001D01*
X151700000Y-126919999D01*
X151701204Y-126895495D01*
X151704804Y-126871227D01*
X151710765Y-126847428D01*
X151719030Y-126824329D01*
X151729520Y-126802150D01*
X151742132Y-126781107D01*
X151756747Y-126761401D01*
X151773223Y-126743223D01*
X151791401Y-126726747D01*
X151811107Y-126712132D01*
X151832150Y-126699520D01*
X151854329Y-126689030D01*
X151877428Y-126680765D01*
X151901227Y-126674804D01*
X151925495Y-126671204D01*
X151949999Y-126670000D01*
X152850001Y-126670000D01*
X152874505Y-126671204D01*
X152874505Y-126671204D01*
G37*
D12*
X152400000Y-127245000D03*
D11*
G36*
X152874505Y-124621204D02*
G01*
X152898773Y-124624804D01*
X152922572Y-124630765D01*
X152945671Y-124639030D01*
X152967850Y-124649520D01*
X152988893Y-124662132D01*
X153008599Y-124676747D01*
X153026777Y-124693223D01*
X153043253Y-124711401D01*
X153057868Y-124731107D01*
X153070480Y-124752150D01*
X153080970Y-124774329D01*
X153089235Y-124797428D01*
X153095196Y-124821227D01*
X153098796Y-124845495D01*
X153100000Y-124869999D01*
X153100000Y-125520001D01*
X153098796Y-125544505D01*
X153095196Y-125568773D01*
X153089235Y-125592572D01*
X153080970Y-125615671D01*
X153070480Y-125637850D01*
X153057868Y-125658893D01*
X153043253Y-125678599D01*
X153026777Y-125696777D01*
X153008599Y-125713253D01*
X152988893Y-125727868D01*
X152967850Y-125740480D01*
X152945671Y-125750970D01*
X152922572Y-125759235D01*
X152898773Y-125765196D01*
X152874505Y-125768796D01*
X152850001Y-125770000D01*
X151949999Y-125770000D01*
X151925495Y-125768796D01*
X151901227Y-125765196D01*
X151877428Y-125759235D01*
X151854329Y-125750970D01*
X151832150Y-125740480D01*
X151811107Y-125727868D01*
X151791401Y-125713253D01*
X151773223Y-125696777D01*
X151756747Y-125678599D01*
X151742132Y-125658893D01*
X151729520Y-125637850D01*
X151719030Y-125615671D01*
X151710765Y-125592572D01*
X151704804Y-125568773D01*
X151701204Y-125544505D01*
X151700000Y-125520001D01*
X151700000Y-124869999D01*
X151701204Y-124845495D01*
X151704804Y-124821227D01*
X151710765Y-124797428D01*
X151719030Y-124774329D01*
X151729520Y-124752150D01*
X151742132Y-124731107D01*
X151756747Y-124711401D01*
X151773223Y-124693223D01*
X151791401Y-124676747D01*
X151811107Y-124662132D01*
X151832150Y-124649520D01*
X151854329Y-124639030D01*
X151877428Y-124630765D01*
X151901227Y-124624804D01*
X151925495Y-124621204D01*
X151949999Y-124620000D01*
X152850001Y-124620000D01*
X152874505Y-124621204D01*
X152874505Y-124621204D01*
G37*
D12*
X152400000Y-125195000D03*
D11*
G36*
X92234505Y-54371204D02*
G01*
X92258773Y-54374804D01*
X92282572Y-54380765D01*
X92305671Y-54389030D01*
X92327850Y-54399520D01*
X92348893Y-54412132D01*
X92368599Y-54426747D01*
X92386777Y-54443223D01*
X92403253Y-54461401D01*
X92417868Y-54481107D01*
X92430480Y-54502150D01*
X92440970Y-54524329D01*
X92449235Y-54547428D01*
X92455196Y-54571227D01*
X92458796Y-54595495D01*
X92460000Y-54619999D01*
X92460000Y-55520001D01*
X92458796Y-55544505D01*
X92455196Y-55568773D01*
X92449235Y-55592572D01*
X92440970Y-55615671D01*
X92430480Y-55637850D01*
X92417868Y-55658893D01*
X92403253Y-55678599D01*
X92386777Y-55696777D01*
X92368599Y-55713253D01*
X92348893Y-55727868D01*
X92327850Y-55740480D01*
X92305671Y-55750970D01*
X92282572Y-55759235D01*
X92258773Y-55765196D01*
X92234505Y-55768796D01*
X92210001Y-55770000D01*
X91559999Y-55770000D01*
X91535495Y-55768796D01*
X91511227Y-55765196D01*
X91487428Y-55759235D01*
X91464329Y-55750970D01*
X91442150Y-55740480D01*
X91421107Y-55727868D01*
X91401401Y-55713253D01*
X91383223Y-55696777D01*
X91366747Y-55678599D01*
X91352132Y-55658893D01*
X91339520Y-55637850D01*
X91329030Y-55615671D01*
X91320765Y-55592572D01*
X91314804Y-55568773D01*
X91311204Y-55544505D01*
X91310000Y-55520001D01*
X91310000Y-54619999D01*
X91311204Y-54595495D01*
X91314804Y-54571227D01*
X91320765Y-54547428D01*
X91329030Y-54524329D01*
X91339520Y-54502150D01*
X91352132Y-54481107D01*
X91366747Y-54461401D01*
X91383223Y-54443223D01*
X91401401Y-54426747D01*
X91421107Y-54412132D01*
X91442150Y-54399520D01*
X91464329Y-54389030D01*
X91487428Y-54380765D01*
X91511227Y-54374804D01*
X91535495Y-54371204D01*
X91559999Y-54370000D01*
X92210001Y-54370000D01*
X92234505Y-54371204D01*
X92234505Y-54371204D01*
G37*
D12*
X91885000Y-55070000D03*
D11*
G36*
X94284505Y-54371204D02*
G01*
X94308773Y-54374804D01*
X94332572Y-54380765D01*
X94355671Y-54389030D01*
X94377850Y-54399520D01*
X94398893Y-54412132D01*
X94418599Y-54426747D01*
X94436777Y-54443223D01*
X94453253Y-54461401D01*
X94467868Y-54481107D01*
X94480480Y-54502150D01*
X94490970Y-54524329D01*
X94499235Y-54547428D01*
X94505196Y-54571227D01*
X94508796Y-54595495D01*
X94510000Y-54619999D01*
X94510000Y-55520001D01*
X94508796Y-55544505D01*
X94505196Y-55568773D01*
X94499235Y-55592572D01*
X94490970Y-55615671D01*
X94480480Y-55637850D01*
X94467868Y-55658893D01*
X94453253Y-55678599D01*
X94436777Y-55696777D01*
X94418599Y-55713253D01*
X94398893Y-55727868D01*
X94377850Y-55740480D01*
X94355671Y-55750970D01*
X94332572Y-55759235D01*
X94308773Y-55765196D01*
X94284505Y-55768796D01*
X94260001Y-55770000D01*
X93609999Y-55770000D01*
X93585495Y-55768796D01*
X93561227Y-55765196D01*
X93537428Y-55759235D01*
X93514329Y-55750970D01*
X93492150Y-55740480D01*
X93471107Y-55727868D01*
X93451401Y-55713253D01*
X93433223Y-55696777D01*
X93416747Y-55678599D01*
X93402132Y-55658893D01*
X93389520Y-55637850D01*
X93379030Y-55615671D01*
X93370765Y-55592572D01*
X93364804Y-55568773D01*
X93361204Y-55544505D01*
X93360000Y-55520001D01*
X93360000Y-54619999D01*
X93361204Y-54595495D01*
X93364804Y-54571227D01*
X93370765Y-54547428D01*
X93379030Y-54524329D01*
X93389520Y-54502150D01*
X93402132Y-54481107D01*
X93416747Y-54461401D01*
X93433223Y-54443223D01*
X93451401Y-54426747D01*
X93471107Y-54412132D01*
X93492150Y-54399520D01*
X93514329Y-54389030D01*
X93537428Y-54380765D01*
X93561227Y-54374804D01*
X93585495Y-54371204D01*
X93609999Y-54370000D01*
X94260001Y-54370000D01*
X94284505Y-54371204D01*
X94284505Y-54371204D01*
G37*
D12*
X93935000Y-55070000D03*
D11*
G36*
X171924505Y-124621204D02*
G01*
X171948773Y-124624804D01*
X171972572Y-124630765D01*
X171995671Y-124639030D01*
X172017850Y-124649520D01*
X172038893Y-124662132D01*
X172058599Y-124676747D01*
X172076777Y-124693223D01*
X172093253Y-124711401D01*
X172107868Y-124731107D01*
X172120480Y-124752150D01*
X172130970Y-124774329D01*
X172139235Y-124797428D01*
X172145196Y-124821227D01*
X172148796Y-124845495D01*
X172150000Y-124869999D01*
X172150000Y-125520001D01*
X172148796Y-125544505D01*
X172145196Y-125568773D01*
X172139235Y-125592572D01*
X172130970Y-125615671D01*
X172120480Y-125637850D01*
X172107868Y-125658893D01*
X172093253Y-125678599D01*
X172076777Y-125696777D01*
X172058599Y-125713253D01*
X172038893Y-125727868D01*
X172017850Y-125740480D01*
X171995671Y-125750970D01*
X171972572Y-125759235D01*
X171948773Y-125765196D01*
X171924505Y-125768796D01*
X171900001Y-125770000D01*
X170999999Y-125770000D01*
X170975495Y-125768796D01*
X170951227Y-125765196D01*
X170927428Y-125759235D01*
X170904329Y-125750970D01*
X170882150Y-125740480D01*
X170861107Y-125727868D01*
X170841401Y-125713253D01*
X170823223Y-125696777D01*
X170806747Y-125678599D01*
X170792132Y-125658893D01*
X170779520Y-125637850D01*
X170769030Y-125615671D01*
X170760765Y-125592572D01*
X170754804Y-125568773D01*
X170751204Y-125544505D01*
X170750000Y-125520001D01*
X170750000Y-124869999D01*
X170751204Y-124845495D01*
X170754804Y-124821227D01*
X170760765Y-124797428D01*
X170769030Y-124774329D01*
X170779520Y-124752150D01*
X170792132Y-124731107D01*
X170806747Y-124711401D01*
X170823223Y-124693223D01*
X170841401Y-124676747D01*
X170861107Y-124662132D01*
X170882150Y-124649520D01*
X170904329Y-124639030D01*
X170927428Y-124630765D01*
X170951227Y-124624804D01*
X170975495Y-124621204D01*
X170999999Y-124620000D01*
X171900001Y-124620000D01*
X171924505Y-124621204D01*
X171924505Y-124621204D01*
G37*
D12*
X171450000Y-125195000D03*
D11*
G36*
X171924505Y-126671204D02*
G01*
X171948773Y-126674804D01*
X171972572Y-126680765D01*
X171995671Y-126689030D01*
X172017850Y-126699520D01*
X172038893Y-126712132D01*
X172058599Y-126726747D01*
X172076777Y-126743223D01*
X172093253Y-126761401D01*
X172107868Y-126781107D01*
X172120480Y-126802150D01*
X172130970Y-126824329D01*
X172139235Y-126847428D01*
X172145196Y-126871227D01*
X172148796Y-126895495D01*
X172150000Y-126919999D01*
X172150000Y-127570001D01*
X172148796Y-127594505D01*
X172145196Y-127618773D01*
X172139235Y-127642572D01*
X172130970Y-127665671D01*
X172120480Y-127687850D01*
X172107868Y-127708893D01*
X172093253Y-127728599D01*
X172076777Y-127746777D01*
X172058599Y-127763253D01*
X172038893Y-127777868D01*
X172017850Y-127790480D01*
X171995671Y-127800970D01*
X171972572Y-127809235D01*
X171948773Y-127815196D01*
X171924505Y-127818796D01*
X171900001Y-127820000D01*
X170999999Y-127820000D01*
X170975495Y-127818796D01*
X170951227Y-127815196D01*
X170927428Y-127809235D01*
X170904329Y-127800970D01*
X170882150Y-127790480D01*
X170861107Y-127777868D01*
X170841401Y-127763253D01*
X170823223Y-127746777D01*
X170806747Y-127728599D01*
X170792132Y-127708893D01*
X170779520Y-127687850D01*
X170769030Y-127665671D01*
X170760765Y-127642572D01*
X170754804Y-127618773D01*
X170751204Y-127594505D01*
X170750000Y-127570001D01*
X170750000Y-126919999D01*
X170751204Y-126895495D01*
X170754804Y-126871227D01*
X170760765Y-126847428D01*
X170769030Y-126824329D01*
X170779520Y-126802150D01*
X170792132Y-126781107D01*
X170806747Y-126761401D01*
X170823223Y-126743223D01*
X170841401Y-126726747D01*
X170861107Y-126712132D01*
X170882150Y-126699520D01*
X170904329Y-126689030D01*
X170927428Y-126680765D01*
X170951227Y-126674804D01*
X170975495Y-126671204D01*
X170999999Y-126670000D01*
X171900001Y-126670000D01*
X171924505Y-126671204D01*
X171924505Y-126671204D01*
G37*
D12*
X171450000Y-127245000D03*
D16*
X63915600Y-82926800D03*
X63915600Y-88006800D03*
X63915600Y-93086800D03*
X63915600Y-98166800D03*
X109635600Y-110866800D03*
X109635600Y-100706800D03*
X109635600Y-90546800D03*
X109635600Y-80386800D03*
D17*
X126234800Y-121110000D03*
D18*
X126234800Y-123650000D03*
D17*
X126234800Y-118570000D03*
D11*
G36*
X138384504Y-115111204D02*
G01*
X138408773Y-115114804D01*
X138432571Y-115120765D01*
X138455671Y-115129030D01*
X138477849Y-115139520D01*
X138498893Y-115152133D01*
X138518598Y-115166747D01*
X138536777Y-115183223D01*
X138553253Y-115201402D01*
X138567867Y-115221107D01*
X138580480Y-115242151D01*
X138590970Y-115264329D01*
X138599235Y-115287429D01*
X138605196Y-115311227D01*
X138608796Y-115335496D01*
X138610000Y-115360000D01*
X138610000Y-118860000D01*
X138608796Y-118884504D01*
X138605196Y-118908773D01*
X138599235Y-118932571D01*
X138590970Y-118955671D01*
X138580480Y-118977849D01*
X138567867Y-118998893D01*
X138553253Y-119018598D01*
X138536777Y-119036777D01*
X138518598Y-119053253D01*
X138498893Y-119067867D01*
X138477849Y-119080480D01*
X138455671Y-119090970D01*
X138432571Y-119099235D01*
X138408773Y-119105196D01*
X138384504Y-119108796D01*
X138360000Y-119110000D01*
X136360000Y-119110000D01*
X136335496Y-119108796D01*
X136311227Y-119105196D01*
X136287429Y-119099235D01*
X136264329Y-119090970D01*
X136242151Y-119080480D01*
X136221107Y-119067867D01*
X136201402Y-119053253D01*
X136183223Y-119036777D01*
X136166747Y-119018598D01*
X136152133Y-118998893D01*
X136139520Y-118977849D01*
X136129030Y-118955671D01*
X136120765Y-118932571D01*
X136114804Y-118908773D01*
X136111204Y-118884504D01*
X136110000Y-118860000D01*
X136110000Y-115360000D01*
X136111204Y-115335496D01*
X136114804Y-115311227D01*
X136120765Y-115287429D01*
X136129030Y-115264329D01*
X136139520Y-115242151D01*
X136152133Y-115221107D01*
X136166747Y-115201402D01*
X136183223Y-115183223D01*
X136201402Y-115166747D01*
X136221107Y-115152133D01*
X136242151Y-115139520D01*
X136264329Y-115129030D01*
X136287429Y-115120765D01*
X136311227Y-115114804D01*
X136335496Y-115111204D01*
X136360000Y-115110000D01*
X138360000Y-115110000D01*
X138384504Y-115111204D01*
X138384504Y-115111204D01*
G37*
D19*
X137360000Y-117110000D03*
D11*
G36*
X138384504Y-123111204D02*
G01*
X138408773Y-123114804D01*
X138432571Y-123120765D01*
X138455671Y-123129030D01*
X138477849Y-123139520D01*
X138498893Y-123152133D01*
X138518598Y-123166747D01*
X138536777Y-123183223D01*
X138553253Y-123201402D01*
X138567867Y-123221107D01*
X138580480Y-123242151D01*
X138590970Y-123264329D01*
X138599235Y-123287429D01*
X138605196Y-123311227D01*
X138608796Y-123335496D01*
X138610000Y-123360000D01*
X138610000Y-126860000D01*
X138608796Y-126884504D01*
X138605196Y-126908773D01*
X138599235Y-126932571D01*
X138590970Y-126955671D01*
X138580480Y-126977849D01*
X138567867Y-126998893D01*
X138553253Y-127018598D01*
X138536777Y-127036777D01*
X138518598Y-127053253D01*
X138498893Y-127067867D01*
X138477849Y-127080480D01*
X138455671Y-127090970D01*
X138432571Y-127099235D01*
X138408773Y-127105196D01*
X138384504Y-127108796D01*
X138360000Y-127110000D01*
X136360000Y-127110000D01*
X136335496Y-127108796D01*
X136311227Y-127105196D01*
X136287429Y-127099235D01*
X136264329Y-127090970D01*
X136242151Y-127080480D01*
X136221107Y-127067867D01*
X136201402Y-127053253D01*
X136183223Y-127036777D01*
X136166747Y-127018598D01*
X136152133Y-126998893D01*
X136139520Y-126977849D01*
X136129030Y-126955671D01*
X136120765Y-126932571D01*
X136114804Y-126908773D01*
X136111204Y-126884504D01*
X136110000Y-126860000D01*
X136110000Y-123360000D01*
X136111204Y-123335496D01*
X136114804Y-123311227D01*
X136120765Y-123287429D01*
X136129030Y-123264329D01*
X136139520Y-123242151D01*
X136152133Y-123221107D01*
X136166747Y-123201402D01*
X136183223Y-123183223D01*
X136201402Y-123166747D01*
X136221107Y-123152133D01*
X136242151Y-123139520D01*
X136264329Y-123129030D01*
X136287429Y-123120765D01*
X136311227Y-123114804D01*
X136335496Y-123111204D01*
X136360000Y-123110000D01*
X138360000Y-123110000D01*
X138384504Y-123111204D01*
X138384504Y-123111204D01*
G37*
D19*
X137360000Y-125110000D03*
D14*
X245762037Y-76029244D03*
D13*
X243222037Y-76029244D03*
X245762037Y-73489244D03*
X243222037Y-73489244D03*
X245762037Y-70949244D03*
X243222037Y-70949244D03*
X245762037Y-68409244D03*
X243222037Y-68409244D03*
X245762037Y-65869244D03*
X243222037Y-65869244D03*
X245762037Y-63329244D03*
X243222037Y-63329244D03*
X245762037Y-60789244D03*
X243222037Y-60789244D03*
X245762037Y-58249244D03*
X243222037Y-58249244D03*
D20*
X56080000Y-90630000D03*
D21*
X56080000Y-75390000D03*
D22*
X152400000Y-121380000D03*
D23*
X152400000Y-118840000D03*
X100530000Y-53800000D03*
D22*
X100530000Y-56340000D03*
D23*
X171450000Y-118840000D03*
D22*
X171450000Y-121380000D03*
X161925000Y-121380000D03*
D23*
X161925000Y-118840000D03*
D13*
X243222037Y-88729244D03*
X245762037Y-88729244D03*
X243222037Y-91269244D03*
X245762037Y-91269244D03*
X243222037Y-93809244D03*
X245762037Y-93809244D03*
X243222037Y-96349244D03*
X245762037Y-96349244D03*
X243222037Y-98889244D03*
X245762037Y-98889244D03*
X243222037Y-101429244D03*
X245762037Y-101429244D03*
X243222037Y-103969244D03*
X245762037Y-103969244D03*
X243222037Y-106509244D03*
D14*
X245762037Y-106509244D03*
X229796321Y-106509244D03*
D13*
X227256321Y-106509244D03*
X229796321Y-103969244D03*
X227256321Y-103969244D03*
X229796321Y-101429244D03*
X227256321Y-101429244D03*
X229796321Y-98889244D03*
X227256321Y-98889244D03*
X229796321Y-96349244D03*
X227256321Y-96349244D03*
X229796321Y-93809244D03*
X227256321Y-93809244D03*
X229796321Y-91269244D03*
X227256321Y-91269244D03*
X229796321Y-88729244D03*
X227256321Y-88729244D03*
D14*
X213830607Y-106509244D03*
D13*
X211290607Y-106509244D03*
X213830607Y-103969244D03*
X211290607Y-103969244D03*
X213830607Y-101429244D03*
X211290607Y-101429244D03*
X213830607Y-98889244D03*
X211290607Y-98889244D03*
X213830607Y-96349244D03*
X211290607Y-96349244D03*
X213830607Y-93809244D03*
X211290607Y-93809244D03*
X213830607Y-91269244D03*
X211290607Y-91269244D03*
X213830607Y-88729244D03*
X211290607Y-88729244D03*
X195324893Y-88729244D03*
X197864893Y-88729244D03*
X195324893Y-91269244D03*
X197864893Y-91269244D03*
X195324893Y-93809244D03*
X197864893Y-93809244D03*
X195324893Y-96349244D03*
X197864893Y-96349244D03*
X195324893Y-98889244D03*
X197864893Y-98889244D03*
X195324893Y-101429244D03*
X197864893Y-101429244D03*
X195324893Y-103969244D03*
X197864893Y-103969244D03*
X195324893Y-106509244D03*
D14*
X197864893Y-106509244D03*
X181899179Y-106509244D03*
D13*
X179359179Y-106509244D03*
X181899179Y-103969244D03*
X179359179Y-103969244D03*
X181899179Y-101429244D03*
X179359179Y-101429244D03*
X181899179Y-98889244D03*
X179359179Y-98889244D03*
X181899179Y-96349244D03*
X179359179Y-96349244D03*
X181899179Y-93809244D03*
X179359179Y-93809244D03*
X181899179Y-91269244D03*
X179359179Y-91269244D03*
X181899179Y-88729244D03*
X179359179Y-88729244D03*
D14*
X165933465Y-106509244D03*
D13*
X163393465Y-106509244D03*
X165933465Y-103969244D03*
X163393465Y-103969244D03*
X165933465Y-101429244D03*
X163393465Y-101429244D03*
X165933465Y-98889244D03*
X163393465Y-98889244D03*
X165933465Y-96349244D03*
X163393465Y-96349244D03*
X165933465Y-93809244D03*
X163393465Y-93809244D03*
X165933465Y-91269244D03*
X163393465Y-91269244D03*
X165933465Y-88729244D03*
X163393465Y-88729244D03*
X147427751Y-88729244D03*
X149967751Y-88729244D03*
X147427751Y-91269244D03*
X149967751Y-91269244D03*
X147427751Y-93809244D03*
X149967751Y-93809244D03*
X147427751Y-96349244D03*
X149967751Y-96349244D03*
X147427751Y-98889244D03*
X149967751Y-98889244D03*
X147427751Y-101429244D03*
X149967751Y-101429244D03*
X147427751Y-103969244D03*
X149967751Y-103969244D03*
X147427751Y-106509244D03*
D14*
X149967751Y-106509244D03*
D13*
X131462037Y-88729244D03*
X134002037Y-88729244D03*
X131462037Y-91269244D03*
X134002037Y-91269244D03*
X131462037Y-93809244D03*
X134002037Y-93809244D03*
X131462037Y-96349244D03*
X134002037Y-96349244D03*
X131462037Y-98889244D03*
X134002037Y-98889244D03*
X131462037Y-101429244D03*
X134002037Y-101429244D03*
X131462037Y-103969244D03*
X134002037Y-103969244D03*
X131462037Y-106509244D03*
D14*
X134002037Y-106509244D03*
X229796321Y-76029244D03*
D13*
X227256321Y-76029244D03*
X229796321Y-73489244D03*
X227256321Y-73489244D03*
X229796321Y-70949244D03*
X227256321Y-70949244D03*
X229796321Y-68409244D03*
X227256321Y-68409244D03*
X229796321Y-65869244D03*
X227256321Y-65869244D03*
X229796321Y-63329244D03*
X227256321Y-63329244D03*
X229796321Y-60789244D03*
X227256321Y-60789244D03*
X229796321Y-58249244D03*
X227256321Y-58249244D03*
X211290607Y-58249244D03*
X213830607Y-58249244D03*
X211290607Y-60789244D03*
X213830607Y-60789244D03*
X211290607Y-63329244D03*
X213830607Y-63329244D03*
X211290607Y-65869244D03*
X213830607Y-65869244D03*
X211290607Y-68409244D03*
X213830607Y-68409244D03*
X211290607Y-70949244D03*
X213830607Y-70949244D03*
X211290607Y-73489244D03*
X213830607Y-73489244D03*
X211290607Y-76029244D03*
D14*
X213830607Y-76029244D03*
D13*
X195324893Y-58249244D03*
X197864893Y-58249244D03*
X195324893Y-60789244D03*
X197864893Y-60789244D03*
X195324893Y-63329244D03*
X197864893Y-63329244D03*
X195324893Y-65869244D03*
X197864893Y-65869244D03*
X195324893Y-68409244D03*
X197864893Y-68409244D03*
X195324893Y-70949244D03*
X197864893Y-70949244D03*
X195324893Y-73489244D03*
X197864893Y-73489244D03*
X195324893Y-76029244D03*
D14*
X197864893Y-76029244D03*
X181899179Y-76029244D03*
D13*
X179359179Y-76029244D03*
X181899179Y-73489244D03*
X179359179Y-73489244D03*
X181899179Y-70949244D03*
X179359179Y-70949244D03*
X181899179Y-68409244D03*
X179359179Y-68409244D03*
X181899179Y-65869244D03*
X179359179Y-65869244D03*
X181899179Y-63329244D03*
X179359179Y-63329244D03*
X181899179Y-60789244D03*
X179359179Y-60789244D03*
X181899179Y-58249244D03*
X179359179Y-58249244D03*
D14*
X165933465Y-76029244D03*
D13*
X163393465Y-76029244D03*
X165933465Y-73489244D03*
X163393465Y-73489244D03*
X165933465Y-70949244D03*
X163393465Y-70949244D03*
X165933465Y-68409244D03*
X163393465Y-68409244D03*
X165933465Y-65869244D03*
X163393465Y-65869244D03*
X165933465Y-63329244D03*
X163393465Y-63329244D03*
X165933465Y-60789244D03*
X163393465Y-60789244D03*
X165933465Y-58249244D03*
X163393465Y-58249244D03*
X147427751Y-58249244D03*
X149967751Y-58249244D03*
X147427751Y-60789244D03*
X149967751Y-60789244D03*
X147427751Y-63329244D03*
X149967751Y-63329244D03*
X147427751Y-65869244D03*
X149967751Y-65869244D03*
X147427751Y-68409244D03*
X149967751Y-68409244D03*
X147427751Y-70949244D03*
X149967751Y-70949244D03*
X147427751Y-73489244D03*
X149967751Y-73489244D03*
X147427751Y-76029244D03*
D14*
X149967751Y-76029244D03*
D13*
X131462037Y-58249244D03*
X134002037Y-58249244D03*
X131462037Y-60789244D03*
X134002037Y-60789244D03*
X131462037Y-63329244D03*
X134002037Y-63329244D03*
X131462037Y-65869244D03*
X134002037Y-65869244D03*
X131462037Y-68409244D03*
X134002037Y-68409244D03*
X131462037Y-70949244D03*
X134002037Y-70949244D03*
X131462037Y-73489244D03*
X134002037Y-73489244D03*
X131462037Y-76029244D03*
D14*
X134002037Y-76029244D03*
D24*
X55000000Y-126000000D03*
X55000000Y-53000000D03*
X247000000Y-126000000D03*
X247000000Y-53000000D03*
X124000000Y-53000000D03*
X188000000Y-126000000D03*
X188000000Y-83000000D03*
X188000000Y-53000000D03*
D25*
X104340000Y-96980000D03*
X105610000Y-96980000D03*
X106880000Y-96980000D03*
X108150000Y-96980000D03*
X109420000Y-96980000D03*
X110690000Y-96980000D03*
X111960000Y-96980000D03*
X111960000Y-98250000D03*
X110690000Y-98250000D03*
X109420000Y-98250000D03*
X108150000Y-98250000D03*
X106880000Y-98250000D03*
X105610000Y-98250000D03*
X104340000Y-98250000D03*
X104340000Y-99520000D03*
X105610000Y-99520000D03*
X106880000Y-99520000D03*
X106880000Y-100790000D03*
X105610000Y-100790000D03*
X104340000Y-100790000D03*
X104340000Y-102060000D03*
X105610000Y-102060000D03*
X106880000Y-102060000D03*
X106880000Y-103330000D03*
X105610000Y-103330000D03*
X104340000Y-103330000D03*
X104340000Y-104600000D03*
X105610000Y-104600000D03*
X106880000Y-104600000D03*
X108150000Y-104600000D03*
X109420000Y-104600000D03*
X110690000Y-104600000D03*
X111960000Y-104600000D03*
X113230000Y-104600000D03*
X113230000Y-103330000D03*
X113230000Y-102060000D03*
X113230000Y-100790000D03*
X113230000Y-99520000D03*
X113230000Y-98250000D03*
X111960000Y-103330000D03*
X110690000Y-103330000D03*
X109420000Y-103330000D03*
X108150000Y-103330000D03*
X113230000Y-96980000D03*
X114500000Y-96980000D03*
X114500000Y-98250000D03*
X114500000Y-100790000D03*
X114500000Y-99520000D03*
X114500000Y-103330000D03*
X114500000Y-102060000D03*
X114500000Y-104600000D03*
X114500000Y-95710000D03*
X113230000Y-95710000D03*
X111960000Y-95710000D03*
X110690000Y-95710000D03*
X109420000Y-95710000D03*
X108150000Y-95710000D03*
X106880000Y-95710000D03*
X105610000Y-95710000D03*
X104340000Y-95710000D03*
X104340000Y-105870000D03*
X105610000Y-105870000D03*
X106880000Y-105870000D03*
X108150000Y-105870000D03*
X109420000Y-105870000D03*
X110690000Y-105870000D03*
X111960000Y-105870000D03*
X113230000Y-105870000D03*
X114500000Y-105870000D03*
X53540000Y-58880000D03*
X53540000Y-60150000D03*
X53540000Y-61420000D03*
X53540000Y-62690000D03*
X53540000Y-63960000D03*
X54810000Y-63960000D03*
X54810000Y-62690000D03*
X54810000Y-61420000D03*
X54810000Y-60150000D03*
X54810000Y-58880000D03*
X61160000Y-124920000D03*
X62430000Y-124920000D03*
X63700000Y-124920000D03*
X64970000Y-124920000D03*
X66240000Y-124920000D03*
X66240000Y-126190000D03*
X64970000Y-126190000D03*
X63700000Y-126190000D03*
X62430000Y-126190000D03*
X61160000Y-126190000D03*
X122120000Y-84280000D03*
X123390000Y-84280000D03*
X124660000Y-84280000D03*
X125930000Y-84280000D03*
X125930000Y-85550000D03*
X125930000Y-86820000D03*
X125930000Y-88090000D03*
X124660000Y-88090000D03*
X123390000Y-88090000D03*
X122120000Y-88090000D03*
X122120000Y-88090000D03*
X122120000Y-86820000D03*
X123390000Y-86820000D03*
X124660000Y-86820000D03*
X124660000Y-85550000D03*
X123390000Y-85550000D03*
X122120000Y-85550000D03*
X122120000Y-104600000D03*
X123390000Y-104600000D03*
X124660000Y-104600000D03*
X125930000Y-105870000D03*
X125930000Y-107140000D03*
X125930000Y-108410000D03*
X124660000Y-108410000D03*
X123390000Y-108410000D03*
X122120000Y-108410000D03*
X122120000Y-107140000D03*
X123390000Y-107140000D03*
X124660000Y-107140000D03*
X124660000Y-105870000D03*
X123390000Y-105870000D03*
X122120000Y-105870000D03*
X153870000Y-100790000D03*
X155140000Y-100790000D03*
X156410000Y-100790000D03*
X157680000Y-100790000D03*
X158950000Y-100790000D03*
X153870000Y-70310000D03*
X155140000Y-70310000D03*
X156410000Y-70310000D03*
X157680000Y-70310000D03*
X158950000Y-70310000D03*
X160220000Y-70310000D03*
X160220000Y-100790000D03*
X153870000Y-83010000D03*
X155140000Y-83010000D03*
X156410000Y-83010000D03*
X157680000Y-83010000D03*
X158950000Y-83010000D03*
X160220000Y-83010000D03*
X185620000Y-70310000D03*
X186890000Y-70310000D03*
X188160000Y-70310000D03*
X189430000Y-70310000D03*
X190700000Y-70310000D03*
X191970000Y-70310000D03*
X185620000Y-100790000D03*
X186890000Y-100790000D03*
X188160000Y-100790000D03*
X189430000Y-100790000D03*
X190700000Y-100790000D03*
X191970000Y-100790000D03*
X217370000Y-70310000D03*
X219910000Y-70310000D03*
X218640000Y-70310000D03*
X221180000Y-70310000D03*
X222450000Y-70310000D03*
X223720000Y-70310000D03*
X223720000Y-100790000D03*
X222450000Y-100790000D03*
X219910000Y-100790000D03*
X218640000Y-100790000D03*
X217370000Y-100790000D03*
X221180000Y-100790000D03*
X217370000Y-83010000D03*
X218640000Y-83010000D03*
X221180000Y-83010000D03*
X219910000Y-83010000D03*
X222450000Y-83010000D03*
X223720000Y-83010000D03*
X200860000Y-84280000D03*
X200860000Y-83010000D03*
X202130000Y-83010000D03*
X202130000Y-84280000D03*
X203400000Y-83010000D03*
X203400000Y-84280000D03*
X204670000Y-83010000D03*
X204670000Y-84280000D03*
X205940000Y-83010000D03*
X205940000Y-84280000D03*
X207210000Y-83010000D03*
X207210000Y-84280000D03*
X208480000Y-83010000D03*
X208480000Y-84280000D03*
X153870000Y-112220000D03*
X155140000Y-112220000D03*
X157680000Y-112220000D03*
X156410000Y-112220000D03*
X158950000Y-112220000D03*
X160220000Y-112220000D03*
X95450000Y-65230000D03*
X95450000Y-66500000D03*
X95450000Y-63960000D03*
X94180000Y-66500000D03*
X92910000Y-66500000D03*
X91640000Y-66500000D03*
X90370000Y-66500000D03*
X90370000Y-65230000D03*
X90370000Y-63960000D03*
X125930000Y-104600000D03*
X139900000Y-109680000D03*
X141170000Y-109680000D03*
X142440000Y-109680000D03*
X143710000Y-109680000D03*
X144980000Y-109680000D03*
X144980000Y-110950000D03*
X143710000Y-110950000D03*
X142440000Y-110950000D03*
X141170000Y-110950000D03*
X139900000Y-112220000D03*
X139900000Y-110950000D03*
X141170000Y-112220000D03*
X142440000Y-112220000D03*
X143710000Y-112220000D03*
X144980000Y-112220000D03*
X144980000Y-113490000D03*
X143710000Y-113490000D03*
X142440000Y-113490000D03*
X141170000Y-113490000D03*
X139900000Y-113490000D03*
X106880000Y-53800000D03*
X111960000Y-53800000D03*
X117040000Y-53800000D03*
X132280000Y-53800000D03*
X137360000Y-53800000D03*
X142440000Y-53800000D03*
X147520000Y-53800000D03*
X152600000Y-53800000D03*
X157680000Y-53800000D03*
X162760000Y-53800000D03*
X167840000Y-53800000D03*
X172920000Y-53800000D03*
X178000000Y-53800000D03*
X183080000Y-53800000D03*
X195780000Y-53800000D03*
X200860000Y-53800000D03*
X205940000Y-53800000D03*
X236420000Y-53800000D03*
X241500000Y-53800000D03*
X249120000Y-94440000D03*
X249120000Y-99520000D03*
X249120000Y-104600000D03*
X249120000Y-109680000D03*
X249120000Y-114760000D03*
X249120000Y-119840000D03*
X241500000Y-127460000D03*
X236420000Y-127460000D03*
X231340000Y-127460000D03*
X226260000Y-127460000D03*
X221180000Y-127460000D03*
X216100000Y-127460000D03*
X211020000Y-127460000D03*
X205940000Y-127460000D03*
X200860000Y-127460000D03*
X195780000Y-127460000D03*
X183080000Y-127460000D03*
X178000000Y-127460000D03*
X167840000Y-127460000D03*
X165300000Y-127460000D03*
X178000000Y-112220000D03*
X180540000Y-112220000D03*
X183080000Y-112220000D03*
X185620000Y-112220000D03*
X185620000Y-114760000D03*
X183080000Y-114760000D03*
X180540000Y-114760000D03*
X178000000Y-114760000D03*
X56080000Y-107140000D03*
X58620000Y-107140000D03*
X61160000Y-107140000D03*
X63700000Y-107140000D03*
X63700000Y-109680000D03*
X63700000Y-112220000D03*
X61160000Y-112220000D03*
X58620000Y-112220000D03*
X56080000Y-112220000D03*
X56080000Y-109680000D03*
X58620000Y-109680000D03*
X61160000Y-109680000D03*
X115770000Y-95710000D03*
X115770000Y-96980000D03*
X115770000Y-98250000D03*
X115770000Y-99520000D03*
X115770000Y-100790000D03*
X115770000Y-102060000D03*
X115770000Y-103330000D03*
X115770000Y-104600000D03*
X115770000Y-105870000D03*
X123390000Y-70310000D03*
X124660000Y-70310000D03*
X125930000Y-70310000D03*
X125930000Y-71580000D03*
X124660000Y-71580000D03*
X123390000Y-71580000D03*
X123390000Y-72850000D03*
X124660000Y-72850000D03*
X125930000Y-72850000D03*
X128470000Y-99520000D03*
X136090000Y-99520000D03*
X136090000Y-100790000D03*
X136090000Y-102060000D03*
X136090000Y-103330000D03*
X127200000Y-98250000D03*
X128470000Y-98250000D03*
X125930000Y-96980000D03*
X127200000Y-96980000D03*
X138630000Y-71580000D03*
X141170000Y-69040000D03*
X138630000Y-69040000D03*
X141170000Y-71580000D03*
X138630000Y-100790000D03*
X141170000Y-100790000D03*
X141170000Y-103330000D03*
X138630000Y-103330000D03*
X88835840Y-54521360D03*
X172920000Y-127460000D03*
D26*
X130820000Y-118570000D02*
X137360000Y-125110000D01*
X126234800Y-118570000D02*
X130820000Y-118570000D01*
X131462037Y-63329244D02*
X134002037Y-63329244D01*
X138630000Y-66755126D02*
X138630000Y-69040000D01*
X135204118Y-63329244D02*
X138630000Y-66755126D01*
X134002037Y-63329244D02*
X135204118Y-63329244D01*
X141170000Y-69040000D02*
X141170000Y-69040000D01*
X141170000Y-69040000D02*
X138630000Y-71580000D01*
X141170000Y-71580000D02*
X141170000Y-69040000D01*
X138630000Y-71580000D02*
X139900000Y-71580000D01*
X139900000Y-71580000D02*
X141170000Y-71580000D01*
X138630000Y-69040000D02*
X138630000Y-71580000D01*
X141170000Y-71580000D02*
X139900000Y-71580000D01*
X138630000Y-69040000D02*
X138630000Y-69040000D01*
X141170000Y-71580000D02*
X141170000Y-71580000D01*
X135204118Y-93809244D02*
X138630000Y-97235126D01*
X134002037Y-93809244D02*
X135204118Y-93809244D01*
X138630000Y-97235126D02*
X138630000Y-100790000D01*
X138630000Y-100790000D02*
X141170000Y-100790000D01*
X141170000Y-100790000D02*
X141170000Y-103330000D01*
X141170000Y-103330000D02*
X138630000Y-103330000D01*
X138630000Y-100790000D02*
X141170000Y-103330000D01*
X138630000Y-100790000D02*
X138630000Y-103330000D01*
X138630000Y-66755126D02*
X138885126Y-66755126D01*
X139900000Y-69040000D02*
X140535000Y-68405000D01*
X138630000Y-69040000D02*
X139900000Y-69040000D01*
X138885126Y-66755126D02*
X140535000Y-68405000D01*
X140535000Y-68405000D02*
X141170000Y-69040000D01*
D27*
X138680710Y-126430710D02*
X137360000Y-125110000D01*
X141070010Y-128820010D02*
X138680710Y-126430710D01*
X162201990Y-128820010D02*
X141070010Y-128820010D01*
X163268000Y-127079000D02*
X163268000Y-127754000D01*
X163268000Y-127754000D02*
X162201990Y-128820010D01*
X91336360Y-54521360D02*
X91885000Y-55070000D01*
X88835840Y-54521360D02*
X91336360Y-54521360D01*
X152400000Y-121380000D02*
X152400000Y-125195000D01*
D26*
X131462037Y-106509244D02*
X245762037Y-106509244D01*
X126569244Y-76029244D02*
X245762037Y-76029244D01*
X109635600Y-90546800D02*
X124153156Y-76029244D01*
X124153156Y-76029244D02*
X126569244Y-76029244D01*
D27*
X150500000Y-118840000D02*
X152400000Y-118840000D01*
X149967751Y-118307751D02*
X150500000Y-118840000D01*
X149967751Y-106509244D02*
X149967751Y-118307751D01*
D26*
X129112036Y-105097245D02*
X130334036Y-106319245D01*
X129112036Y-103972036D02*
X129112036Y-105097245D01*
X118310000Y-93170000D02*
X129112036Y-103972036D01*
X118310000Y-91900000D02*
X118310000Y-93170000D01*
X109635600Y-90546800D02*
X116956800Y-90546800D01*
X116956800Y-90546800D02*
X118310000Y-91900000D01*
X130334036Y-106319245D02*
X131459245Y-106319245D01*
X131459245Y-106319245D02*
X131462037Y-106322037D01*
X131462037Y-106322037D02*
X131462037Y-106509244D01*
D27*
X95205000Y-56340000D02*
X100530000Y-56340000D01*
X93935000Y-55070000D02*
X95205000Y-56340000D01*
X171450000Y-125195000D02*
X171450000Y-121380000D01*
X158950000Y-124355000D02*
X161925000Y-121380000D01*
X158950000Y-125047000D02*
X158950000Y-124355000D01*
X171665000Y-127460000D02*
X171450000Y-127245000D01*
X172920000Y-127460000D02*
X171665000Y-127460000D01*
X246612036Y-61639243D02*
X246799243Y-61639243D01*
X245762037Y-60789244D02*
X246612036Y-61639243D01*
X246799243Y-61639243D02*
X247850000Y-62690000D01*
X246964118Y-91269244D02*
X245762037Y-91269244D01*
X247850000Y-90383362D02*
X246964118Y-91269244D01*
X247850000Y-62690000D02*
X247850000Y-90383362D01*
D26*
X79921573Y-55826400D02*
X78911173Y-54816000D01*
X82750000Y-55826400D02*
X79921573Y-55826400D01*
X76880398Y-54816000D02*
X67891000Y-63805398D01*
X78911173Y-54816000D02*
X76880398Y-54816000D01*
X67891000Y-89111400D02*
X63915600Y-93086800D01*
X67891000Y-63805398D02*
X67891000Y-89111400D01*
X82750000Y-55826400D02*
X88343600Y-61420000D01*
X90060000Y-61420000D02*
X92910000Y-61420000D01*
X88343600Y-61420000D02*
X90060000Y-61420000D01*
D27*
X162468000Y-125029000D02*
X163268000Y-125029000D01*
X161818000Y-125029000D02*
X162468000Y-125029000D01*
X158950000Y-127097000D02*
X159750000Y-127097000D01*
X159750000Y-127097000D02*
X161818000Y-125029000D01*
D26*
G36*
X80142000Y-51069534D02*
G01*
X80142000Y-51583266D01*
X80242224Y-52087126D01*
X80438820Y-52561751D01*
X80711315Y-52969569D01*
X80658046Y-53005163D01*
X80311285Y-52720584D01*
X79875587Y-52487699D01*
X79402827Y-52344289D01*
X79034381Y-52308000D01*
X78911173Y-52295865D01*
X78787965Y-52308000D01*
X77003606Y-52308000D01*
X76880398Y-52295865D01*
X76757190Y-52308000D01*
X76388744Y-52344289D01*
X75915984Y-52487699D01*
X75480286Y-52720584D01*
X75098393Y-53033995D01*
X75019850Y-53129700D01*
X66204705Y-61944846D01*
X66108995Y-62023393D01*
X65795584Y-62405287D01*
X65643402Y-62690000D01*
X65562699Y-62840985D01*
X65419289Y-63313744D01*
X65370865Y-63805398D01*
X65383000Y-63928606D01*
X65383001Y-80289595D01*
X65340422Y-80261145D01*
X64793001Y-80034396D01*
X64211862Y-79918800D01*
X63619338Y-79918800D01*
X63038199Y-80034396D01*
X62490778Y-80261145D01*
X61998112Y-80590334D01*
X61579134Y-81009312D01*
X61249945Y-81501978D01*
X61023196Y-82049399D01*
X60907600Y-82630538D01*
X60907600Y-83223062D01*
X61023196Y-83804201D01*
X61249945Y-84351622D01*
X61579134Y-84844288D01*
X61998112Y-85263266D01*
X62302722Y-85466800D01*
X61998112Y-85670334D01*
X61579134Y-86089312D01*
X61249945Y-86581978D01*
X61023196Y-87129399D01*
X60907600Y-87710538D01*
X60907600Y-88303062D01*
X61023196Y-88884201D01*
X61249945Y-89431622D01*
X61579134Y-89924288D01*
X61998112Y-90343266D01*
X62302722Y-90546800D01*
X61998112Y-90750334D01*
X61579134Y-91169312D01*
X61249945Y-91661978D01*
X61023196Y-92209399D01*
X60907600Y-92790538D01*
X60907600Y-93383062D01*
X61023196Y-93964201D01*
X61249945Y-94511622D01*
X61579134Y-95004288D01*
X61998112Y-95423266D01*
X62302722Y-95626800D01*
X61998112Y-95830334D01*
X61579134Y-96249312D01*
X61249945Y-96741978D01*
X61023196Y-97289399D01*
X60907600Y-97870538D01*
X60907600Y-98463062D01*
X61023196Y-99044201D01*
X61249945Y-99591622D01*
X61579134Y-100084288D01*
X61998112Y-100503266D01*
X62490778Y-100832455D01*
X63038199Y-101059204D01*
X63619338Y-101174800D01*
X64211862Y-101174800D01*
X64793001Y-101059204D01*
X65340422Y-100832455D01*
X65833088Y-100503266D01*
X65909554Y-100426800D01*
X75395465Y-100426800D01*
X75443889Y-100918454D01*
X75587299Y-101391214D01*
X75820184Y-101826912D01*
X76133595Y-102208805D01*
X76515488Y-102522216D01*
X76951186Y-102755101D01*
X77423946Y-102898511D01*
X77792392Y-102934800D01*
X96038808Y-102934800D01*
X96407254Y-102898511D01*
X96880014Y-102755101D01*
X97315712Y-102522216D01*
X97697605Y-102208805D01*
X98011016Y-101826912D01*
X98243901Y-101391214D01*
X98387311Y-100918454D01*
X98435735Y-100426800D01*
X98387311Y-99935146D01*
X98243901Y-99462386D01*
X98011016Y-99026688D01*
X97697605Y-98644795D01*
X97315712Y-98331384D01*
X96880014Y-98098499D01*
X96407254Y-97955089D01*
X96038808Y-97918800D01*
X77792392Y-97918800D01*
X77423946Y-97955089D01*
X76951186Y-98098499D01*
X76515488Y-98331384D01*
X76133595Y-98644795D01*
X75820184Y-99026688D01*
X75587299Y-99462386D01*
X75443889Y-99935146D01*
X75395465Y-100426800D01*
X65909554Y-100426800D01*
X66252066Y-100084288D01*
X66581255Y-99591622D01*
X66808004Y-99044201D01*
X66923600Y-98463062D01*
X66923600Y-97870538D01*
X66808004Y-97289399D01*
X66581255Y-96741978D01*
X66252066Y-96249312D01*
X65833088Y-95830334D01*
X65528478Y-95626800D01*
X65833088Y-95423266D01*
X66252066Y-95004288D01*
X66581255Y-94511622D01*
X66808004Y-93964201D01*
X66863365Y-93685882D01*
X69577300Y-90971948D01*
X69673005Y-90893405D01*
X69986416Y-90511512D01*
X70031695Y-90426800D01*
X75395465Y-90426800D01*
X75443889Y-90918454D01*
X75587299Y-91391214D01*
X75820184Y-91826912D01*
X76133595Y-92208805D01*
X76515488Y-92522216D01*
X76951186Y-92755101D01*
X77423946Y-92898511D01*
X77792392Y-92934800D01*
X96038808Y-92934800D01*
X96407254Y-92898511D01*
X96880014Y-92755101D01*
X97315712Y-92522216D01*
X97697605Y-92208805D01*
X98011016Y-91826912D01*
X98243901Y-91391214D01*
X98387311Y-90918454D01*
X98435735Y-90426800D01*
X98387311Y-89935146D01*
X98243901Y-89462386D01*
X98011016Y-89026688D01*
X97697605Y-88644795D01*
X97315712Y-88331384D01*
X96880014Y-88098499D01*
X96407254Y-87955089D01*
X96038808Y-87918800D01*
X77792392Y-87918800D01*
X77423946Y-87955089D01*
X76951186Y-88098499D01*
X76515488Y-88331384D01*
X76133595Y-88644795D01*
X75820184Y-89026688D01*
X75587299Y-89462386D01*
X75443889Y-89935146D01*
X75395465Y-90426800D01*
X70031695Y-90426800D01*
X70219301Y-90075814D01*
X70362711Y-89603054D01*
X70399000Y-89234608D01*
X70411135Y-89111400D01*
X70399000Y-88988192D01*
X70399000Y-80426800D01*
X75395465Y-80426800D01*
X75443889Y-80918454D01*
X75587299Y-81391214D01*
X75820184Y-81826912D01*
X76133595Y-82208805D01*
X76515488Y-82522216D01*
X76951186Y-82755101D01*
X77423946Y-82898511D01*
X77792392Y-82934800D01*
X96038808Y-82934800D01*
X96407254Y-82898511D01*
X96880014Y-82755101D01*
X97315712Y-82522216D01*
X97697605Y-82208805D01*
X98011016Y-81826912D01*
X98243901Y-81391214D01*
X98387311Y-80918454D01*
X98435735Y-80426800D01*
X98402616Y-80090538D01*
X106627600Y-80090538D01*
X106627600Y-80683062D01*
X106743196Y-81264201D01*
X106969945Y-81811622D01*
X107299134Y-82304288D01*
X107718112Y-82723266D01*
X108210778Y-83052455D01*
X108758199Y-83279204D01*
X109339338Y-83394800D01*
X109931862Y-83394800D01*
X110513001Y-83279204D01*
X111060422Y-83052455D01*
X111553088Y-82723266D01*
X111972066Y-82304288D01*
X112301255Y-81811622D01*
X112528004Y-81264201D01*
X112643600Y-80683062D01*
X112643600Y-80090538D01*
X112528004Y-79509399D01*
X112301255Y-78961978D01*
X111972066Y-78469312D01*
X111553088Y-78050334D01*
X111060422Y-77721145D01*
X110513001Y-77494396D01*
X109931862Y-77378800D01*
X109339338Y-77378800D01*
X108758199Y-77494396D01*
X108210778Y-77721145D01*
X107718112Y-78050334D01*
X107299134Y-78469312D01*
X106969945Y-78961978D01*
X106743196Y-79509399D01*
X106627600Y-80090538D01*
X98402616Y-80090538D01*
X98387311Y-79935146D01*
X98243901Y-79462386D01*
X98011016Y-79026688D01*
X97697605Y-78644795D01*
X97315712Y-78331384D01*
X96880014Y-78098499D01*
X96407254Y-77955089D01*
X96038808Y-77918800D01*
X77792392Y-77918800D01*
X77423946Y-77955089D01*
X76951186Y-78098499D01*
X76515488Y-78331384D01*
X76133595Y-78644795D01*
X75820184Y-79026688D01*
X75587299Y-79462386D01*
X75443889Y-79935146D01*
X75395465Y-80426800D01*
X70399000Y-80426800D01*
X70399000Y-64844245D01*
X74886753Y-60356493D01*
X74941250Y-60488061D01*
X75325158Y-61062620D01*
X75813780Y-61551242D01*
X76388339Y-61935150D01*
X77026754Y-62199590D01*
X77704492Y-62334400D01*
X78395508Y-62334400D01*
X79073246Y-62199590D01*
X79242000Y-62129690D01*
X79242000Y-62171908D01*
X79376810Y-62849646D01*
X79641250Y-63488061D01*
X80025158Y-64062620D01*
X80513780Y-64551242D01*
X81088339Y-64935150D01*
X81726754Y-65199590D01*
X82404492Y-65334400D01*
X83095508Y-65334400D01*
X83773246Y-65199590D01*
X84411661Y-64935150D01*
X84986220Y-64551242D01*
X85474842Y-64062620D01*
X85858750Y-63488061D01*
X86123190Y-62849646D01*
X86140313Y-62763561D01*
X86483052Y-63106300D01*
X86561595Y-63202005D01*
X86943488Y-63515416D01*
X87255501Y-63682190D01*
X87379186Y-63748301D01*
X87851945Y-63891711D01*
X88343600Y-63940135D01*
X88466808Y-63928000D01*
X93033208Y-63928000D01*
X93401654Y-63891711D01*
X93752458Y-63785296D01*
X93760000Y-63785296D01*
X94055620Y-63756180D01*
X94339879Y-63669951D01*
X94601853Y-63529923D01*
X94831476Y-63341476D01*
X95019923Y-63111853D01*
X95159951Y-62849879D01*
X95246180Y-62565620D01*
X95275296Y-62270000D01*
X95275296Y-62262458D01*
X95381711Y-61911654D01*
X95430135Y-61420000D01*
X95381711Y-60928346D01*
X95275296Y-60577542D01*
X95275296Y-60570000D01*
X95246180Y-60274380D01*
X95159951Y-59990121D01*
X95019923Y-59728147D01*
X94831476Y-59498524D01*
X94601853Y-59310077D01*
X94339879Y-59170049D01*
X94055620Y-59083820D01*
X93760000Y-59054704D01*
X93752458Y-59054704D01*
X93401654Y-58948289D01*
X93033208Y-58912000D01*
X89382448Y-58912000D01*
X86258000Y-55787553D01*
X86258000Y-55480892D01*
X86123190Y-54803154D01*
X86006468Y-54521360D01*
X86818125Y-54521360D01*
X86827840Y-54619998D01*
X86827840Y-54719131D01*
X86847180Y-54816361D01*
X86856895Y-54914997D01*
X86885666Y-55009842D01*
X86905006Y-55107072D01*
X86942943Y-55198660D01*
X86971714Y-55293506D01*
X87018436Y-55380916D01*
X87056373Y-55472505D01*
X87111450Y-55554934D01*
X87158171Y-55642342D01*
X87221047Y-55718957D01*
X87276124Y-55801385D01*
X87346221Y-55871482D01*
X87409100Y-55948100D01*
X87485717Y-56010978D01*
X87555815Y-56081076D01*
X87638243Y-56136153D01*
X87714858Y-56199029D01*
X87802266Y-56245750D01*
X87884695Y-56300827D01*
X87976284Y-56338764D01*
X88063694Y-56385486D01*
X88158540Y-56414257D01*
X88250128Y-56452194D01*
X88347358Y-56471534D01*
X88442203Y-56500305D01*
X88540839Y-56510020D01*
X88638069Y-56529360D01*
X90115693Y-56529360D01*
X90311747Y-56768253D01*
X90579254Y-56987790D01*
X90884450Y-57150921D01*
X91215607Y-57251376D01*
X91559999Y-57285296D01*
X92210001Y-57285296D01*
X92554393Y-57251376D01*
X92885550Y-57150921D01*
X92910000Y-57137852D01*
X92934450Y-57150921D01*
X93265607Y-57251376D01*
X93277842Y-57252581D01*
X93715374Y-57690113D01*
X93778260Y-57766740D01*
X94084018Y-58017669D01*
X94432854Y-58204126D01*
X94811363Y-58318945D01*
X95106362Y-58348000D01*
X95106371Y-58348000D01*
X95204999Y-58357714D01*
X95303627Y-58348000D01*
X99200899Y-58348000D01*
X99389384Y-58473942D01*
X99827612Y-58655462D01*
X100292833Y-58748000D01*
X100767167Y-58748000D01*
X101232388Y-58655462D01*
X101670616Y-58473942D01*
X102065010Y-58210416D01*
X102400416Y-57875010D01*
X102663942Y-57480616D01*
X102845462Y-57042388D01*
X102938000Y-56577167D01*
X102938000Y-56102833D01*
X102845462Y-55637612D01*
X102755207Y-55419716D01*
X102829951Y-55279879D01*
X102916180Y-54995620D01*
X102945296Y-54700000D01*
X102945296Y-52900000D01*
X102916180Y-52604380D01*
X102829951Y-52320121D01*
X102689923Y-52058147D01*
X102501476Y-51828524D01*
X102271853Y-51640077D01*
X102009879Y-51500049D01*
X101725620Y-51413820D01*
X101430000Y-51384704D01*
X99630000Y-51384704D01*
X99334380Y-51413820D01*
X99050121Y-51500049D01*
X98788147Y-51640077D01*
X98558524Y-51828524D01*
X98370077Y-52058147D01*
X98230049Y-52320121D01*
X98143820Y-52604380D01*
X98114704Y-52900000D01*
X98114704Y-54332000D01*
X96036739Y-54332000D01*
X95992581Y-54287842D01*
X95991376Y-54275607D01*
X95890921Y-53944450D01*
X95727790Y-53639254D01*
X95508253Y-53371747D01*
X95240746Y-53152210D01*
X94935550Y-52989079D01*
X94604393Y-52888624D01*
X94260001Y-52854704D01*
X93609999Y-52854704D01*
X93265607Y-52888624D01*
X92934450Y-52989079D01*
X92910000Y-53002148D01*
X92885550Y-52989079D01*
X92554393Y-52888624D01*
X92506324Y-52883890D01*
X92457342Y-52843691D01*
X92108506Y-52657234D01*
X91729997Y-52542415D01*
X91434998Y-52513360D01*
X91336360Y-52503645D01*
X91237722Y-52513360D01*
X88638069Y-52513360D01*
X88540839Y-52532700D01*
X88442203Y-52542415D01*
X88347358Y-52571186D01*
X88250128Y-52590526D01*
X88158540Y-52628463D01*
X88063694Y-52657234D01*
X87976284Y-52703956D01*
X87884695Y-52741893D01*
X87802266Y-52796970D01*
X87714858Y-52843691D01*
X87638243Y-52906567D01*
X87555815Y-52961644D01*
X87485717Y-53031742D01*
X87409100Y-53094620D01*
X87346222Y-53171237D01*
X87276124Y-53241335D01*
X87221047Y-53323763D01*
X87158171Y-53400378D01*
X87111450Y-53487786D01*
X87056373Y-53570215D01*
X87018436Y-53661804D01*
X86971714Y-53749214D01*
X86942943Y-53844060D01*
X86905006Y-53935648D01*
X86885666Y-54032878D01*
X86856895Y-54127723D01*
X86847180Y-54226359D01*
X86827840Y-54323589D01*
X86827840Y-54422722D01*
X86818125Y-54521360D01*
X86006468Y-54521360D01*
X85858750Y-54164739D01*
X85474842Y-53590180D01*
X84986220Y-53101558D01*
X84788685Y-52969569D01*
X85061180Y-52561751D01*
X85257776Y-52087126D01*
X85358000Y-51583266D01*
X85358000Y-51069534D01*
X85261222Y-50583000D01*
X120433800Y-50583000D01*
X120182300Y-50959397D01*
X119857554Y-51743403D01*
X119692000Y-52575699D01*
X119692000Y-53424301D01*
X119857554Y-54256597D01*
X120182300Y-55040603D01*
X120653758Y-55746190D01*
X121253810Y-56346242D01*
X121959397Y-56817700D01*
X122743403Y-57142446D01*
X123575699Y-57308000D01*
X124424301Y-57308000D01*
X125256597Y-57142446D01*
X126040603Y-56817700D01*
X126746190Y-56346242D01*
X127346242Y-55746190D01*
X127817700Y-55040603D01*
X128142446Y-54256597D01*
X128308000Y-53424301D01*
X128308000Y-52575699D01*
X128142446Y-51743403D01*
X127817700Y-50959397D01*
X127566200Y-50583000D01*
X184433800Y-50583000D01*
X184182300Y-50959397D01*
X183857554Y-51743403D01*
X183692000Y-52575699D01*
X183692000Y-53424301D01*
X183857554Y-54256597D01*
X184182300Y-55040603D01*
X184653758Y-55746190D01*
X185253810Y-56346242D01*
X185959397Y-56817700D01*
X186743403Y-57142446D01*
X187575699Y-57308000D01*
X188424301Y-57308000D01*
X189256597Y-57142446D01*
X190040603Y-56817700D01*
X190746190Y-56346242D01*
X191346242Y-55746190D01*
X191817700Y-55040603D01*
X192142446Y-54256597D01*
X192308000Y-53424301D01*
X192308000Y-52575699D01*
X192142446Y-51743403D01*
X191817700Y-50959397D01*
X191566200Y-50583000D01*
X206242000Y-50583000D01*
X206242000Y-56678000D01*
X209529683Y-56678000D01*
X209320515Y-56932871D01*
X209101559Y-57342510D01*
X208966726Y-57786995D01*
X208921198Y-58249244D01*
X208966726Y-58711493D01*
X209101559Y-59155978D01*
X209295728Y-59519244D01*
X209101559Y-59882510D01*
X208966726Y-60326995D01*
X208921198Y-60789244D01*
X208966726Y-61251493D01*
X209101559Y-61695978D01*
X209295728Y-62059244D01*
X209101559Y-62422510D01*
X208966726Y-62866995D01*
X208921198Y-63329244D01*
X208966726Y-63791493D01*
X209101559Y-64235978D01*
X209295728Y-64599244D01*
X209101559Y-64962510D01*
X208966726Y-65406995D01*
X208921198Y-65869244D01*
X208966726Y-66331493D01*
X209101559Y-66775978D01*
X209320515Y-67185617D01*
X209615182Y-67544669D01*
X209974234Y-67839336D01*
X210383873Y-68058292D01*
X210828358Y-68193125D01*
X211174771Y-68227244D01*
X211406443Y-68227244D01*
X211752856Y-68193125D01*
X212197341Y-68058292D01*
X212560607Y-67864123D01*
X212923873Y-68058292D01*
X213368358Y-68193125D01*
X213714771Y-68227244D01*
X213946443Y-68227244D01*
X214292856Y-68193125D01*
X214737341Y-68058292D01*
X215146980Y-67839336D01*
X215506032Y-67544669D01*
X215800699Y-67185617D01*
X216019655Y-66775978D01*
X216154488Y-66331493D01*
X216200016Y-65869244D01*
X216154488Y-65406995D01*
X216019655Y-64962510D01*
X215825486Y-64599244D01*
X216019655Y-64235978D01*
X216154488Y-63791493D01*
X216200016Y-63329244D01*
X216154488Y-62866995D01*
X216019655Y-62422510D01*
X215825486Y-62059244D01*
X216019655Y-61695978D01*
X216154488Y-61251493D01*
X216200016Y-60789244D01*
X216154488Y-60326995D01*
X216019655Y-59882510D01*
X215825486Y-59519244D01*
X216019655Y-59155978D01*
X216154488Y-58711493D01*
X216200016Y-58249244D01*
X216154488Y-57786995D01*
X216019655Y-57342510D01*
X215800699Y-56932871D01*
X215591531Y-56678000D01*
X225495397Y-56678000D01*
X225286229Y-56932871D01*
X225067273Y-57342510D01*
X224932440Y-57786995D01*
X224886912Y-58249244D01*
X224932440Y-58711493D01*
X225067273Y-59155978D01*
X225261442Y-59519244D01*
X225067273Y-59882510D01*
X224932440Y-60326995D01*
X224886912Y-60789244D01*
X224932440Y-61251493D01*
X225067273Y-61695978D01*
X225261442Y-62059244D01*
X225067273Y-62422510D01*
X224932440Y-62866995D01*
X224886912Y-63329244D01*
X224932440Y-63791493D01*
X225067273Y-64235978D01*
X225261442Y-64599244D01*
X225067273Y-64962510D01*
X224932440Y-65406995D01*
X224886912Y-65869244D01*
X224932440Y-66331493D01*
X225067273Y-66775978D01*
X225286229Y-67185617D01*
X225580896Y-67544669D01*
X225939948Y-67839336D01*
X226349587Y-68058292D01*
X226794072Y-68193125D01*
X227140485Y-68227244D01*
X227372157Y-68227244D01*
X227718570Y-68193125D01*
X228163055Y-68058292D01*
X228526321Y-67864123D01*
X228889587Y-68058292D01*
X229334072Y-68193125D01*
X229680485Y-68227244D01*
X229912157Y-68227244D01*
X230258570Y-68193125D01*
X230703055Y-68058292D01*
X231112694Y-67839336D01*
X231471746Y-67544669D01*
X231766413Y-67185617D01*
X231985369Y-66775978D01*
X232120202Y-66331493D01*
X232165730Y-65869244D01*
X232120202Y-65406995D01*
X231985369Y-64962510D01*
X231791200Y-64599244D01*
X231985369Y-64235978D01*
X232120202Y-63791493D01*
X232165730Y-63329244D01*
X232120202Y-62866995D01*
X231985369Y-62422510D01*
X231791200Y-62059244D01*
X231985369Y-61695978D01*
X232120202Y-61251493D01*
X232165730Y-60789244D01*
X232120202Y-60326995D01*
X231985369Y-59882510D01*
X231791200Y-59519244D01*
X231985369Y-59155978D01*
X232120202Y-58711493D01*
X232165730Y-58249244D01*
X232120202Y-57786995D01*
X231985369Y-57342510D01*
X231766413Y-56932871D01*
X231557245Y-56678000D01*
X238915143Y-56678000D01*
X238915143Y-50583000D01*
X243433800Y-50583000D01*
X243182300Y-50959397D01*
X242857554Y-51743403D01*
X242692000Y-52575699D01*
X242692000Y-53424301D01*
X242857554Y-54256597D01*
X243182300Y-55040603D01*
X243653758Y-55746190D01*
X243897656Y-55990088D01*
X243684286Y-55925363D01*
X243337873Y-55891244D01*
X243106201Y-55891244D01*
X242759788Y-55925363D01*
X242315303Y-56060196D01*
X241905664Y-56279152D01*
X241546612Y-56573819D01*
X241251945Y-56932871D01*
X241032989Y-57342510D01*
X240898156Y-57786995D01*
X240852628Y-58249244D01*
X240898156Y-58711493D01*
X241032989Y-59155978D01*
X241227158Y-59519244D01*
X241032989Y-59882510D01*
X240898156Y-60326995D01*
X240852628Y-60789244D01*
X240898156Y-61251493D01*
X241032989Y-61695978D01*
X241227158Y-62059244D01*
X241032989Y-62422510D01*
X240898156Y-62866995D01*
X240852628Y-63329244D01*
X240898156Y-63791493D01*
X241032989Y-64235978D01*
X241227158Y-64599244D01*
X241032989Y-64962510D01*
X240898156Y-65406995D01*
X240852628Y-65869244D01*
X240898156Y-66331493D01*
X241032989Y-66775978D01*
X241251945Y-67185617D01*
X241546612Y-67544669D01*
X241905664Y-67839336D01*
X242315303Y-68058292D01*
X242759788Y-68193125D01*
X243106201Y-68227244D01*
X243337873Y-68227244D01*
X243684286Y-68193125D01*
X244128771Y-68058292D01*
X244492037Y-67864123D01*
X244855303Y-68058292D01*
X245299788Y-68193125D01*
X245646201Y-68227244D01*
X245842000Y-68227244D01*
X245842000Y-73521244D01*
X142757971Y-73521244D01*
X142952005Y-73362005D01*
X143265416Y-72980112D01*
X143498301Y-72544414D01*
X143641711Y-72071654D01*
X143690135Y-71580000D01*
X143678000Y-71456792D01*
X143678000Y-69163208D01*
X143690135Y-69040001D01*
X143678000Y-68916792D01*
X143641711Y-68548346D01*
X143498301Y-68075586D01*
X143265416Y-67639888D01*
X142952005Y-67257995D01*
X142856295Y-67179448D01*
X142395543Y-66718696D01*
X142317004Y-66622996D01*
X142221299Y-66544453D01*
X140745679Y-65068832D01*
X140667131Y-64973121D01*
X140285238Y-64659710D01*
X139849540Y-64426825D01*
X139848114Y-64426393D01*
X137064670Y-61642949D01*
X136986123Y-61547239D01*
X136604230Y-61233828D01*
X136341490Y-61093391D01*
X136371446Y-60789244D01*
X136325918Y-60326995D01*
X136191085Y-59882510D01*
X135996916Y-59519244D01*
X136191085Y-59155978D01*
X136325918Y-58711493D01*
X136371446Y-58249244D01*
X145058342Y-58249244D01*
X145103870Y-58711493D01*
X145238703Y-59155978D01*
X145432872Y-59519244D01*
X145238703Y-59882510D01*
X145103870Y-60326995D01*
X145058342Y-60789244D01*
X145103870Y-61251493D01*
X145238703Y-61695978D01*
X145432872Y-62059244D01*
X145238703Y-62422510D01*
X145103870Y-62866995D01*
X145058342Y-63329244D01*
X145103870Y-63791493D01*
X145238703Y-64235978D01*
X145432872Y-64599244D01*
X145238703Y-64962510D01*
X145103870Y-65406995D01*
X145058342Y-65869244D01*
X145103870Y-66331493D01*
X145238703Y-66775978D01*
X145457659Y-67185617D01*
X145752326Y-67544669D01*
X146111378Y-67839336D01*
X146521017Y-68058292D01*
X146965502Y-68193125D01*
X147311915Y-68227244D01*
X147543587Y-68227244D01*
X147890000Y-68193125D01*
X148334485Y-68058292D01*
X148697751Y-67864123D01*
X149061017Y-68058292D01*
X149505502Y-68193125D01*
X149851915Y-68227244D01*
X150083587Y-68227244D01*
X150430000Y-68193125D01*
X150874485Y-68058292D01*
X151284124Y-67839336D01*
X151643176Y-67544669D01*
X151937843Y-67185617D01*
X152156799Y-66775978D01*
X152291632Y-66331493D01*
X152337160Y-65869244D01*
X152291632Y-65406995D01*
X152156799Y-64962510D01*
X151962630Y-64599244D01*
X152156799Y-64235978D01*
X152291632Y-63791493D01*
X152337160Y-63329244D01*
X152291632Y-62866995D01*
X152156799Y-62422510D01*
X151962630Y-62059244D01*
X152156799Y-61695978D01*
X152291632Y-61251493D01*
X152337160Y-60789244D01*
X152291632Y-60326995D01*
X152156799Y-59882510D01*
X151962630Y-59519244D01*
X152156799Y-59155978D01*
X152291632Y-58711493D01*
X152337160Y-58249244D01*
X161024056Y-58249244D01*
X161069584Y-58711493D01*
X161204417Y-59155978D01*
X161398586Y-59519244D01*
X161204417Y-59882510D01*
X161069584Y-60326995D01*
X161024056Y-60789244D01*
X161069584Y-61251493D01*
X161204417Y-61695978D01*
X161398586Y-62059244D01*
X161204417Y-62422510D01*
X161069584Y-62866995D01*
X161024056Y-63329244D01*
X161069584Y-63791493D01*
X161204417Y-64235978D01*
X161398586Y-64599244D01*
X161204417Y-64962510D01*
X161069584Y-65406995D01*
X161024056Y-65869244D01*
X161069584Y-66331493D01*
X161204417Y-66775978D01*
X161423373Y-67185617D01*
X161718040Y-67544669D01*
X162077092Y-67839336D01*
X162486731Y-68058292D01*
X162931216Y-68193125D01*
X163277629Y-68227244D01*
X163509301Y-68227244D01*
X163855714Y-68193125D01*
X164300199Y-68058292D01*
X164663465Y-67864123D01*
X165026731Y-68058292D01*
X165471216Y-68193125D01*
X165817629Y-68227244D01*
X166049301Y-68227244D01*
X166395714Y-68193125D01*
X166840199Y-68058292D01*
X167249838Y-67839336D01*
X167608890Y-67544669D01*
X167903557Y-67185617D01*
X168122513Y-66775978D01*
X168257346Y-66331493D01*
X168302874Y-65869244D01*
X168257346Y-65406995D01*
X168122513Y-64962510D01*
X167928344Y-64599244D01*
X168122513Y-64235978D01*
X168257346Y-63791493D01*
X168302874Y-63329244D01*
X168257346Y-62866995D01*
X168122513Y-62422510D01*
X167928344Y-62059244D01*
X168122513Y-61695978D01*
X168257346Y-61251493D01*
X168302874Y-60789244D01*
X168257346Y-60326995D01*
X168122513Y-59882510D01*
X167928344Y-59519244D01*
X168122513Y-59155978D01*
X168257346Y-58711493D01*
X168302874Y-58249244D01*
X176989770Y-58249244D01*
X177035298Y-58711493D01*
X177170131Y-59155978D01*
X177364300Y-59519244D01*
X177170131Y-59882510D01*
X177035298Y-60326995D01*
X176989770Y-60789244D01*
X177035298Y-61251493D01*
X177170131Y-61695978D01*
X177364300Y-62059244D01*
X177170131Y-62422510D01*
X177035298Y-62866995D01*
X176989770Y-63329244D01*
X177035298Y-63791493D01*
X177170131Y-64235978D01*
X177364300Y-64599244D01*
X177170131Y-64962510D01*
X177035298Y-65406995D01*
X176989770Y-65869244D01*
X177035298Y-66331493D01*
X177170131Y-66775978D01*
X177389087Y-67185617D01*
X177683754Y-67544669D01*
X178042806Y-67839336D01*
X178452445Y-68058292D01*
X178896930Y-68193125D01*
X179243343Y-68227244D01*
X179475015Y-68227244D01*
X179821428Y-68193125D01*
X180265913Y-68058292D01*
X180629179Y-67864123D01*
X180992445Y-68058292D01*
X181436930Y-68193125D01*
X181783343Y-68227244D01*
X182015015Y-68227244D01*
X182361428Y-68193125D01*
X182805913Y-68058292D01*
X183215552Y-67839336D01*
X183574604Y-67544669D01*
X183869271Y-67185617D01*
X184088227Y-66775978D01*
X184223060Y-66331493D01*
X184268588Y-65869244D01*
X184223060Y-65406995D01*
X184088227Y-64962510D01*
X183894058Y-64599244D01*
X184088227Y-64235978D01*
X184223060Y-63791493D01*
X184268588Y-63329244D01*
X184223060Y-62866995D01*
X184088227Y-62422510D01*
X183894058Y-62059244D01*
X184088227Y-61695978D01*
X184223060Y-61251493D01*
X184268588Y-60789244D01*
X184223060Y-60326995D01*
X184088227Y-59882510D01*
X183894058Y-59519244D01*
X184088227Y-59155978D01*
X184223060Y-58711493D01*
X184268588Y-58249244D01*
X192955484Y-58249244D01*
X193001012Y-58711493D01*
X193135845Y-59155978D01*
X193330014Y-59519244D01*
X193135845Y-59882510D01*
X193001012Y-60326995D01*
X192955484Y-60789244D01*
X193001012Y-61251493D01*
X193135845Y-61695978D01*
X193330014Y-62059244D01*
X193135845Y-62422510D01*
X193001012Y-62866995D01*
X192955484Y-63329244D01*
X193001012Y-63791493D01*
X193135845Y-64235978D01*
X193330014Y-64599244D01*
X193135845Y-64962510D01*
X193001012Y-65406995D01*
X192955484Y-65869244D01*
X193001012Y-66331493D01*
X193135845Y-66775978D01*
X193354801Y-67185617D01*
X193649468Y-67544669D01*
X194008520Y-67839336D01*
X194418159Y-68058292D01*
X194862644Y-68193125D01*
X195209057Y-68227244D01*
X195440729Y-68227244D01*
X195787142Y-68193125D01*
X196231627Y-68058292D01*
X196594893Y-67864123D01*
X196958159Y-68058292D01*
X197402644Y-68193125D01*
X197749057Y-68227244D01*
X197980729Y-68227244D01*
X198327142Y-68193125D01*
X198771627Y-68058292D01*
X199181266Y-67839336D01*
X199540318Y-67544669D01*
X199834985Y-67185617D01*
X200053941Y-66775978D01*
X200188774Y-66331493D01*
X200234302Y-65869244D01*
X200188774Y-65406995D01*
X200053941Y-64962510D01*
X199859772Y-64599244D01*
X200053941Y-64235978D01*
X200188774Y-63791493D01*
X200234302Y-63329244D01*
X200188774Y-62866995D01*
X200053941Y-62422510D01*
X199859772Y-62059244D01*
X200053941Y-61695978D01*
X200188774Y-61251493D01*
X200234302Y-60789244D01*
X200188774Y-60326995D01*
X200053941Y-59882510D01*
X199859772Y-59519244D01*
X200053941Y-59155978D01*
X200188774Y-58711493D01*
X200234302Y-58249244D01*
X200188774Y-57786995D01*
X200053941Y-57342510D01*
X199834985Y-56932871D01*
X199540318Y-56573819D01*
X199181266Y-56279152D01*
X198771627Y-56060196D01*
X198327142Y-55925363D01*
X197980729Y-55891244D01*
X197749057Y-55891244D01*
X197402644Y-55925363D01*
X196958159Y-56060196D01*
X196594893Y-56254365D01*
X196231627Y-56060196D01*
X195787142Y-55925363D01*
X195440729Y-55891244D01*
X195209057Y-55891244D01*
X194862644Y-55925363D01*
X194418159Y-56060196D01*
X194008520Y-56279152D01*
X193649468Y-56573819D01*
X193354801Y-56932871D01*
X193135845Y-57342510D01*
X193001012Y-57786995D01*
X192955484Y-58249244D01*
X184268588Y-58249244D01*
X184223060Y-57786995D01*
X184088227Y-57342510D01*
X183869271Y-56932871D01*
X183574604Y-56573819D01*
X183215552Y-56279152D01*
X182805913Y-56060196D01*
X182361428Y-55925363D01*
X182015015Y-55891244D01*
X181783343Y-55891244D01*
X181436930Y-55925363D01*
X180992445Y-56060196D01*
X180629179Y-56254365D01*
X180265913Y-56060196D01*
X179821428Y-55925363D01*
X179475015Y-55891244D01*
X179243343Y-55891244D01*
X178896930Y-55925363D01*
X178452445Y-56060196D01*
X178042806Y-56279152D01*
X177683754Y-56573819D01*
X177389087Y-56932871D01*
X177170131Y-57342510D01*
X177035298Y-57786995D01*
X176989770Y-58249244D01*
X168302874Y-58249244D01*
X168257346Y-57786995D01*
X168122513Y-57342510D01*
X167903557Y-56932871D01*
X167608890Y-56573819D01*
X167249838Y-56279152D01*
X166840199Y-56060196D01*
X166395714Y-55925363D01*
X166049301Y-55891244D01*
X165817629Y-55891244D01*
X165471216Y-55925363D01*
X165026731Y-56060196D01*
X164663465Y-56254365D01*
X164300199Y-56060196D01*
X163855714Y-55925363D01*
X163509301Y-55891244D01*
X163277629Y-55891244D01*
X162931216Y-55925363D01*
X162486731Y-56060196D01*
X162077092Y-56279152D01*
X161718040Y-56573819D01*
X161423373Y-56932871D01*
X161204417Y-57342510D01*
X161069584Y-57786995D01*
X161024056Y-58249244D01*
X152337160Y-58249244D01*
X152291632Y-57786995D01*
X152156799Y-57342510D01*
X151937843Y-56932871D01*
X151643176Y-56573819D01*
X151284124Y-56279152D01*
X150874485Y-56060196D01*
X150430000Y-55925363D01*
X150083587Y-55891244D01*
X149851915Y-55891244D01*
X149505502Y-55925363D01*
X149061017Y-56060196D01*
X148697751Y-56254365D01*
X148334485Y-56060196D01*
X147890000Y-55925363D01*
X147543587Y-55891244D01*
X147311915Y-55891244D01*
X146965502Y-55925363D01*
X146521017Y-56060196D01*
X146111378Y-56279152D01*
X145752326Y-56573819D01*
X145457659Y-56932871D01*
X145238703Y-57342510D01*
X145103870Y-57786995D01*
X145058342Y-58249244D01*
X136371446Y-58249244D01*
X136325918Y-57786995D01*
X136191085Y-57342510D01*
X135972129Y-56932871D01*
X135677462Y-56573819D01*
X135318410Y-56279152D01*
X134908771Y-56060196D01*
X134464286Y-55925363D01*
X134117873Y-55891244D01*
X133886201Y-55891244D01*
X133539788Y-55925363D01*
X133095303Y-56060196D01*
X132732037Y-56254365D01*
X132368771Y-56060196D01*
X131924286Y-55925363D01*
X131577873Y-55891244D01*
X131346201Y-55891244D01*
X130999788Y-55925363D01*
X130555303Y-56060196D01*
X130145664Y-56279152D01*
X129786612Y-56573819D01*
X129491945Y-56932871D01*
X129272989Y-57342510D01*
X129138156Y-57786995D01*
X129092628Y-58249244D01*
X129138156Y-58711493D01*
X129272989Y-59155978D01*
X129467158Y-59519244D01*
X129272989Y-59882510D01*
X129138156Y-60326995D01*
X129092628Y-60789244D01*
X129138156Y-61251493D01*
X129272989Y-61695978D01*
X129385389Y-61906264D01*
X129366621Y-61929132D01*
X129133736Y-62364830D01*
X128990326Y-62837590D01*
X128941902Y-63329244D01*
X128990326Y-63820898D01*
X129133736Y-64293658D01*
X129366621Y-64729356D01*
X129385389Y-64752224D01*
X129272989Y-64962510D01*
X129138156Y-65406995D01*
X129092628Y-65869244D01*
X129138156Y-66331493D01*
X129272989Y-66775978D01*
X129491945Y-67185617D01*
X129786612Y-67544669D01*
X130145664Y-67839336D01*
X130555303Y-68058292D01*
X130999788Y-68193125D01*
X131346201Y-68227244D01*
X131577873Y-68227244D01*
X131924286Y-68193125D01*
X132368771Y-68058292D01*
X132732037Y-67864123D01*
X133095303Y-68058292D01*
X133539788Y-68193125D01*
X133886201Y-68227244D01*
X134117873Y-68227244D01*
X134464286Y-68193125D01*
X134908771Y-68058292D01*
X135318410Y-67839336D01*
X135677462Y-67544669D01*
X135765464Y-67437438D01*
X136122000Y-67793974D01*
X136122000Y-68916792D01*
X136109865Y-69040000D01*
X136122000Y-69163208D01*
X136122000Y-71456792D01*
X136109865Y-71580000D01*
X136158289Y-72071654D01*
X136301699Y-72544414D01*
X136534584Y-72980112D01*
X136847995Y-73362005D01*
X137042029Y-73521244D01*
X124276364Y-73521244D01*
X124153156Y-73509109D01*
X124029948Y-73521244D01*
X123661502Y-73557533D01*
X123188742Y-73700943D01*
X122753044Y-73933828D01*
X122371151Y-74247239D01*
X122292608Y-74342944D01*
X109036518Y-87599035D01*
X108758199Y-87654396D01*
X108210778Y-87881145D01*
X107718112Y-88210334D01*
X107299134Y-88629312D01*
X106969945Y-89121978D01*
X106743196Y-89669399D01*
X106627600Y-90250538D01*
X106627600Y-90843062D01*
X106743196Y-91424201D01*
X106969945Y-91971622D01*
X107299134Y-92464288D01*
X107718112Y-92883266D01*
X108210778Y-93212455D01*
X108758199Y-93439204D01*
X109339338Y-93554800D01*
X109931862Y-93554800D01*
X110513001Y-93439204D01*
X111060422Y-93212455D01*
X111296369Y-93054800D01*
X115801211Y-93054800D01*
X115789865Y-93170000D01*
X115802000Y-93293207D01*
X115802000Y-93293208D01*
X115838289Y-93661654D01*
X115981699Y-94134414D01*
X116214585Y-94570112D01*
X116527996Y-94952005D01*
X116623701Y-95030548D01*
X126600732Y-105007580D01*
X126591901Y-105097245D01*
X126604036Y-105220452D01*
X126604036Y-105220453D01*
X126640325Y-105588899D01*
X126783735Y-106061659D01*
X127016621Y-106497357D01*
X127330032Y-106879250D01*
X127425737Y-106957793D01*
X128473484Y-108005540D01*
X128552031Y-108101250D01*
X128933924Y-108414661D01*
X129289388Y-108604660D01*
X129369622Y-108647546D01*
X129842381Y-108790956D01*
X130334036Y-108839380D01*
X130457244Y-108827245D01*
X130478353Y-108827245D01*
X130497623Y-108837545D01*
X130970383Y-108980955D01*
X131338829Y-109017244D01*
X131462037Y-109029379D01*
X131585245Y-109017244D01*
X147959751Y-109017244D01*
X147959752Y-118209103D01*
X147950036Y-118307751D01*
X147988806Y-118701388D01*
X148103626Y-119079897D01*
X148290083Y-119428733D01*
X148424234Y-119592196D01*
X148541012Y-119734491D01*
X148617629Y-119797369D01*
X149010378Y-120190118D01*
X149073260Y-120266740D01*
X149379018Y-120517669D01*
X149727854Y-120704126D01*
X150059267Y-120804659D01*
X149992000Y-121142833D01*
X149992000Y-121617167D01*
X150084538Y-122082388D01*
X150266058Y-122520616D01*
X150392000Y-122709102D01*
X150392001Y-124058023D01*
X150319079Y-124194450D01*
X150218624Y-124525607D01*
X150184704Y-124869999D01*
X150184704Y-125520001D01*
X150218624Y-125864393D01*
X150319079Y-126195550D01*
X150482210Y-126500746D01*
X150701747Y-126768253D01*
X150755065Y-126812010D01*
X141901751Y-126812010D01*
X140125296Y-125035556D01*
X140125296Y-123360000D01*
X140091376Y-123015608D01*
X139990921Y-122684450D01*
X139827790Y-122379254D01*
X139608253Y-122111747D01*
X139340746Y-121892210D01*
X139035550Y-121729079D01*
X138704392Y-121628624D01*
X138360000Y-121594704D01*
X137391552Y-121594704D01*
X132680552Y-116883705D01*
X132602005Y-116787995D01*
X132220112Y-116474584D01*
X131784414Y-116241699D01*
X131311654Y-116098289D01*
X130943208Y-116062000D01*
X130820000Y-116049865D01*
X130696792Y-116062000D01*
X126111592Y-116062000D01*
X125743146Y-116098289D01*
X125270386Y-116241699D01*
X124834688Y-116474584D01*
X124452795Y-116787995D01*
X124139384Y-117169888D01*
X123906499Y-117605586D01*
X123763089Y-118078346D01*
X123714665Y-118570000D01*
X123763089Y-119061654D01*
X123906499Y-119534414D01*
X124139384Y-119970112D01*
X124452795Y-120352005D01*
X124834688Y-120665416D01*
X125270386Y-120898301D01*
X125743146Y-121041711D01*
X126111592Y-121078000D01*
X129781153Y-121078000D01*
X134594704Y-125891552D01*
X134594704Y-126860000D01*
X134628624Y-127204392D01*
X134729079Y-127535550D01*
X134892210Y-127840746D01*
X135111747Y-128108253D01*
X135379254Y-128327790D01*
X135546154Y-128417000D01*
X58566200Y-128417000D01*
X58817700Y-128040603D01*
X59142446Y-127256597D01*
X59308000Y-126424301D01*
X59308000Y-125575699D01*
X59142446Y-124743403D01*
X58863514Y-124070000D01*
X94354704Y-124070000D01*
X94354704Y-125770000D01*
X94383820Y-126065620D01*
X94470049Y-126349879D01*
X94610077Y-126611853D01*
X94798524Y-126841476D01*
X95028147Y-127029923D01*
X95290121Y-127169951D01*
X95574380Y-127256180D01*
X95870000Y-127285296D01*
X97570000Y-127285296D01*
X97865620Y-127256180D01*
X98149879Y-127169951D01*
X98308543Y-127085143D01*
X98353266Y-127109048D01*
X98797751Y-127243881D01*
X99144164Y-127278000D01*
X99375836Y-127278000D01*
X99722249Y-127243881D01*
X100166734Y-127109048D01*
X100530000Y-126914879D01*
X100893266Y-127109048D01*
X101337751Y-127243881D01*
X101684164Y-127278000D01*
X101915836Y-127278000D01*
X102262249Y-127243881D01*
X102706734Y-127109048D01*
X103116373Y-126890092D01*
X103475425Y-126595425D01*
X103770092Y-126236373D01*
X103989048Y-125826734D01*
X104123881Y-125382249D01*
X104169409Y-124920000D01*
X104123881Y-124457751D01*
X103989048Y-124013266D01*
X103770092Y-123603627D01*
X103475425Y-123244575D01*
X103177411Y-123000000D01*
X124069504Y-123000000D01*
X124069504Y-124300000D01*
X124098620Y-124595620D01*
X124184849Y-124879879D01*
X124324877Y-125141853D01*
X124513324Y-125371476D01*
X124742947Y-125559923D01*
X125004921Y-125699951D01*
X125289180Y-125786180D01*
X125584800Y-125815296D01*
X126884800Y-125815296D01*
X127180420Y-125786180D01*
X127464679Y-125699951D01*
X127726653Y-125559923D01*
X127956276Y-125371476D01*
X128144723Y-125141853D01*
X128284751Y-124879879D01*
X128370980Y-124595620D01*
X128400096Y-124300000D01*
X128400096Y-123000000D01*
X128370980Y-122704380D01*
X128284751Y-122420121D01*
X128144723Y-122158147D01*
X127956276Y-121928524D01*
X127726653Y-121740077D01*
X127464679Y-121600049D01*
X127180420Y-121513820D01*
X126884800Y-121484704D01*
X125584800Y-121484704D01*
X125289180Y-121513820D01*
X125004921Y-121600049D01*
X124742947Y-121740077D01*
X124513324Y-121928524D01*
X124324877Y-122158147D01*
X124184849Y-122420121D01*
X124098620Y-122704380D01*
X124069504Y-123000000D01*
X103177411Y-123000000D01*
X103116373Y-122949908D01*
X102706734Y-122730952D01*
X102262249Y-122596119D01*
X101915836Y-122562000D01*
X101684164Y-122562000D01*
X101337751Y-122596119D01*
X100893266Y-122730952D01*
X100530000Y-122925121D01*
X100166734Y-122730952D01*
X99722249Y-122596119D01*
X99375836Y-122562000D01*
X99144164Y-122562000D01*
X98797751Y-122596119D01*
X98353266Y-122730952D01*
X98308543Y-122754857D01*
X98149879Y-122670049D01*
X97865620Y-122583820D01*
X97570000Y-122554704D01*
X95870000Y-122554704D01*
X95574380Y-122583820D01*
X95290121Y-122670049D01*
X95028147Y-122810077D01*
X94798524Y-122998524D01*
X94610077Y-123228147D01*
X94470049Y-123490121D01*
X94383820Y-123774380D01*
X94354704Y-124070000D01*
X58863514Y-124070000D01*
X58817700Y-123959397D01*
X58346242Y-123253810D01*
X57746190Y-122653758D01*
X57040603Y-122182300D01*
X56256597Y-121857554D01*
X55424301Y-121692000D01*
X54575699Y-121692000D01*
X53743403Y-121857554D01*
X52959397Y-122182300D01*
X52583000Y-122433800D01*
X52583000Y-110426800D01*
X75395465Y-110426800D01*
X75443889Y-110918454D01*
X75587299Y-111391214D01*
X75820184Y-111826912D01*
X76133595Y-112208805D01*
X76515488Y-112522216D01*
X76951186Y-112755101D01*
X77423946Y-112898511D01*
X77792392Y-112934800D01*
X96038808Y-112934800D01*
X96407254Y-112898511D01*
X96880014Y-112755101D01*
X97315712Y-112522216D01*
X97697605Y-112208805D01*
X98011016Y-111826912D01*
X98243901Y-111391214D01*
X98387311Y-110918454D01*
X98421577Y-110570538D01*
X106627600Y-110570538D01*
X106627600Y-111163062D01*
X106743196Y-111744201D01*
X106969945Y-112291622D01*
X107299134Y-112784288D01*
X107718112Y-113203266D01*
X108210778Y-113532455D01*
X108758199Y-113759204D01*
X109339338Y-113874800D01*
X109931862Y-113874800D01*
X110513001Y-113759204D01*
X111060422Y-113532455D01*
X111553088Y-113203266D01*
X111972066Y-112784288D01*
X112301255Y-112291622D01*
X112528004Y-111744201D01*
X112643600Y-111163062D01*
X112643600Y-110570538D01*
X112528004Y-109989399D01*
X112301255Y-109441978D01*
X111972066Y-108949312D01*
X111553088Y-108530334D01*
X111060422Y-108201145D01*
X110513001Y-107974396D01*
X109931862Y-107858800D01*
X109339338Y-107858800D01*
X108758199Y-107974396D01*
X108210778Y-108201145D01*
X107718112Y-108530334D01*
X107299134Y-108949312D01*
X106969945Y-109441978D01*
X106743196Y-109989399D01*
X106627600Y-110570538D01*
X98421577Y-110570538D01*
X98435735Y-110426800D01*
X98387311Y-109935146D01*
X98243901Y-109462386D01*
X98011016Y-109026688D01*
X97697605Y-108644795D01*
X97315712Y-108331384D01*
X96880014Y-108098499D01*
X96407254Y-107955089D01*
X96038808Y-107918800D01*
X77792392Y-107918800D01*
X77423946Y-107955089D01*
X76951186Y-108098499D01*
X76515488Y-108331384D01*
X76133595Y-108644795D01*
X75820184Y-109026688D01*
X75587299Y-109462386D01*
X75443889Y-109935146D01*
X75395465Y-110426800D01*
X52583000Y-110426800D01*
X52583000Y-89030000D01*
X52964704Y-89030000D01*
X52964704Y-92230000D01*
X52993820Y-92525620D01*
X53080049Y-92809879D01*
X53220077Y-93071853D01*
X53408524Y-93301476D01*
X53638147Y-93489923D01*
X53900121Y-93629951D01*
X54184380Y-93716180D01*
X54480000Y-93745296D01*
X57680000Y-93745296D01*
X57975620Y-93716180D01*
X58259879Y-93629951D01*
X58521853Y-93489923D01*
X58751476Y-93301476D01*
X58939923Y-93071853D01*
X59079951Y-92809879D01*
X59166180Y-92525620D01*
X59195296Y-92230000D01*
X59195296Y-89030000D01*
X59166180Y-88734380D01*
X59079951Y-88450121D01*
X58939923Y-88188147D01*
X58751476Y-87958524D01*
X58521853Y-87770077D01*
X58259879Y-87630049D01*
X57975620Y-87543820D01*
X57680000Y-87514704D01*
X54480000Y-87514704D01*
X54184380Y-87543820D01*
X53900121Y-87630049D01*
X53638147Y-87770077D01*
X53408524Y-87958524D01*
X53220077Y-88188147D01*
X53080049Y-88450121D01*
X52993820Y-88734380D01*
X52964704Y-89030000D01*
X52583000Y-89030000D01*
X52583000Y-75390000D01*
X52956962Y-75390000D01*
X53016970Y-75999274D01*
X53194689Y-76585135D01*
X53483289Y-77125067D01*
X53871679Y-77598321D01*
X54344933Y-77986711D01*
X54884865Y-78275311D01*
X55470726Y-78453030D01*
X55927316Y-78498000D01*
X56232684Y-78498000D01*
X56689274Y-78453030D01*
X57275135Y-78275311D01*
X57815067Y-77986711D01*
X58288321Y-77598321D01*
X58676711Y-77125067D01*
X58965311Y-76585135D01*
X59143030Y-75999274D01*
X59203038Y-75390000D01*
X59143030Y-74780726D01*
X58965311Y-74194865D01*
X58676711Y-73654933D01*
X58288321Y-73181679D01*
X57815067Y-72793289D01*
X57275135Y-72504689D01*
X57084417Y-72446835D01*
X57396373Y-72280092D01*
X57755425Y-71985425D01*
X58050092Y-71626373D01*
X58269048Y-71216734D01*
X58403881Y-70772249D01*
X58449409Y-70310000D01*
X58403881Y-69847751D01*
X58269048Y-69403266D01*
X58245143Y-69358543D01*
X58329951Y-69199879D01*
X58416180Y-68915620D01*
X58445296Y-68620000D01*
X58445296Y-66920000D01*
X58416180Y-66624380D01*
X58329951Y-66340121D01*
X58189923Y-66078147D01*
X58001476Y-65848524D01*
X57771853Y-65660077D01*
X57509879Y-65520049D01*
X57225620Y-65433820D01*
X56930000Y-65404704D01*
X55230000Y-65404704D01*
X54934380Y-65433820D01*
X54650121Y-65520049D01*
X54388147Y-65660077D01*
X54158524Y-65848524D01*
X53970077Y-66078147D01*
X53830049Y-66340121D01*
X53743820Y-66624380D01*
X53714704Y-66920000D01*
X53714704Y-68620000D01*
X53743820Y-68915620D01*
X53830049Y-69199879D01*
X53914857Y-69358543D01*
X53890952Y-69403266D01*
X53756119Y-69847751D01*
X53710591Y-70310000D01*
X53756119Y-70772249D01*
X53890952Y-71216734D01*
X54109908Y-71626373D01*
X54404575Y-71985425D01*
X54763627Y-72280092D01*
X55075583Y-72446835D01*
X54884865Y-72504689D01*
X54344933Y-72793289D01*
X53871679Y-73181679D01*
X53483289Y-73654933D01*
X53194689Y-74194865D01*
X53016970Y-74780726D01*
X52956962Y-75390000D01*
X52583000Y-75390000D01*
X52583000Y-56566200D01*
X52959397Y-56817700D01*
X53743403Y-57142446D01*
X54575699Y-57308000D01*
X55424301Y-57308000D01*
X56256597Y-57142446D01*
X57040603Y-56817700D01*
X57746190Y-56346242D01*
X58346242Y-55746190D01*
X58817700Y-55040603D01*
X59142446Y-54256597D01*
X59308000Y-53424301D01*
X59308000Y-52575699D01*
X59142446Y-51743403D01*
X58817700Y-50959397D01*
X58566200Y-50583000D01*
X80238778Y-50583000D01*
X80142000Y-51069534D01*
X80142000Y-51069534D01*
G37*
X80142000Y-51069534D02*
X80142000Y-51583266D01*
X80242224Y-52087126D01*
X80438820Y-52561751D01*
X80711315Y-52969569D01*
X80658046Y-53005163D01*
X80311285Y-52720584D01*
X79875587Y-52487699D01*
X79402827Y-52344289D01*
X79034381Y-52308000D01*
X78911173Y-52295865D01*
X78787965Y-52308000D01*
X77003606Y-52308000D01*
X76880398Y-52295865D01*
X76757190Y-52308000D01*
X76388744Y-52344289D01*
X75915984Y-52487699D01*
X75480286Y-52720584D01*
X75098393Y-53033995D01*
X75019850Y-53129700D01*
X66204705Y-61944846D01*
X66108995Y-62023393D01*
X65795584Y-62405287D01*
X65643402Y-62690000D01*
X65562699Y-62840985D01*
X65419289Y-63313744D01*
X65370865Y-63805398D01*
X65383000Y-63928606D01*
X65383001Y-80289595D01*
X65340422Y-80261145D01*
X64793001Y-80034396D01*
X64211862Y-79918800D01*
X63619338Y-79918800D01*
X63038199Y-80034396D01*
X62490778Y-80261145D01*
X61998112Y-80590334D01*
X61579134Y-81009312D01*
X61249945Y-81501978D01*
X61023196Y-82049399D01*
X60907600Y-82630538D01*
X60907600Y-83223062D01*
X61023196Y-83804201D01*
X61249945Y-84351622D01*
X61579134Y-84844288D01*
X61998112Y-85263266D01*
X62302722Y-85466800D01*
X61998112Y-85670334D01*
X61579134Y-86089312D01*
X61249945Y-86581978D01*
X61023196Y-87129399D01*
X60907600Y-87710538D01*
X60907600Y-88303062D01*
X61023196Y-88884201D01*
X61249945Y-89431622D01*
X61579134Y-89924288D01*
X61998112Y-90343266D01*
X62302722Y-90546800D01*
X61998112Y-90750334D01*
X61579134Y-91169312D01*
X61249945Y-91661978D01*
X61023196Y-92209399D01*
X60907600Y-92790538D01*
X60907600Y-93383062D01*
X61023196Y-93964201D01*
X61249945Y-94511622D01*
X61579134Y-95004288D01*
X61998112Y-95423266D01*
X62302722Y-95626800D01*
X61998112Y-95830334D01*
X61579134Y-96249312D01*
X61249945Y-96741978D01*
X61023196Y-97289399D01*
X60907600Y-97870538D01*
X60907600Y-98463062D01*
X61023196Y-99044201D01*
X61249945Y-99591622D01*
X61579134Y-100084288D01*
X61998112Y-100503266D01*
X62490778Y-100832455D01*
X63038199Y-101059204D01*
X63619338Y-101174800D01*
X64211862Y-101174800D01*
X64793001Y-101059204D01*
X65340422Y-100832455D01*
X65833088Y-100503266D01*
X65909554Y-100426800D01*
X75395465Y-100426800D01*
X75443889Y-100918454D01*
X75587299Y-101391214D01*
X75820184Y-101826912D01*
X76133595Y-102208805D01*
X76515488Y-102522216D01*
X76951186Y-102755101D01*
X77423946Y-102898511D01*
X77792392Y-102934800D01*
X96038808Y-102934800D01*
X96407254Y-102898511D01*
X96880014Y-102755101D01*
X97315712Y-102522216D01*
X97697605Y-102208805D01*
X98011016Y-101826912D01*
X98243901Y-101391214D01*
X98387311Y-100918454D01*
X98435735Y-100426800D01*
X98387311Y-99935146D01*
X98243901Y-99462386D01*
X98011016Y-99026688D01*
X97697605Y-98644795D01*
X97315712Y-98331384D01*
X96880014Y-98098499D01*
X96407254Y-97955089D01*
X96038808Y-97918800D01*
X77792392Y-97918800D01*
X77423946Y-97955089D01*
X76951186Y-98098499D01*
X76515488Y-98331384D01*
X76133595Y-98644795D01*
X75820184Y-99026688D01*
X75587299Y-99462386D01*
X75443889Y-99935146D01*
X75395465Y-100426800D01*
X65909554Y-100426800D01*
X66252066Y-100084288D01*
X66581255Y-99591622D01*
X66808004Y-99044201D01*
X66923600Y-98463062D01*
X66923600Y-97870538D01*
X66808004Y-97289399D01*
X66581255Y-96741978D01*
X66252066Y-96249312D01*
X65833088Y-95830334D01*
X65528478Y-95626800D01*
X65833088Y-95423266D01*
X66252066Y-95004288D01*
X66581255Y-94511622D01*
X66808004Y-93964201D01*
X66863365Y-93685882D01*
X69577300Y-90971948D01*
X69673005Y-90893405D01*
X69986416Y-90511512D01*
X70031695Y-90426800D01*
X75395465Y-90426800D01*
X75443889Y-90918454D01*
X75587299Y-91391214D01*
X75820184Y-91826912D01*
X76133595Y-92208805D01*
X76515488Y-92522216D01*
X76951186Y-92755101D01*
X77423946Y-92898511D01*
X77792392Y-92934800D01*
X96038808Y-92934800D01*
X96407254Y-92898511D01*
X96880014Y-92755101D01*
X97315712Y-92522216D01*
X97697605Y-92208805D01*
X98011016Y-91826912D01*
X98243901Y-91391214D01*
X98387311Y-90918454D01*
X98435735Y-90426800D01*
X98387311Y-89935146D01*
X98243901Y-89462386D01*
X98011016Y-89026688D01*
X97697605Y-88644795D01*
X97315712Y-88331384D01*
X96880014Y-88098499D01*
X96407254Y-87955089D01*
X96038808Y-87918800D01*
X77792392Y-87918800D01*
X77423946Y-87955089D01*
X76951186Y-88098499D01*
X76515488Y-88331384D01*
X76133595Y-88644795D01*
X75820184Y-89026688D01*
X75587299Y-89462386D01*
X75443889Y-89935146D01*
X75395465Y-90426800D01*
X70031695Y-90426800D01*
X70219301Y-90075814D01*
X70362711Y-89603054D01*
X70399000Y-89234608D01*
X70411135Y-89111400D01*
X70399000Y-88988192D01*
X70399000Y-80426800D01*
X75395465Y-80426800D01*
X75443889Y-80918454D01*
X75587299Y-81391214D01*
X75820184Y-81826912D01*
X76133595Y-82208805D01*
X76515488Y-82522216D01*
X76951186Y-82755101D01*
X77423946Y-82898511D01*
X77792392Y-82934800D01*
X96038808Y-82934800D01*
X96407254Y-82898511D01*
X96880014Y-82755101D01*
X97315712Y-82522216D01*
X97697605Y-82208805D01*
X98011016Y-81826912D01*
X98243901Y-81391214D01*
X98387311Y-80918454D01*
X98435735Y-80426800D01*
X98402616Y-80090538D01*
X106627600Y-80090538D01*
X106627600Y-80683062D01*
X106743196Y-81264201D01*
X106969945Y-81811622D01*
X107299134Y-82304288D01*
X107718112Y-82723266D01*
X108210778Y-83052455D01*
X108758199Y-83279204D01*
X109339338Y-83394800D01*
X109931862Y-83394800D01*
X110513001Y-83279204D01*
X111060422Y-83052455D01*
X111553088Y-82723266D01*
X111972066Y-82304288D01*
X112301255Y-81811622D01*
X112528004Y-81264201D01*
X112643600Y-80683062D01*
X112643600Y-80090538D01*
X112528004Y-79509399D01*
X112301255Y-78961978D01*
X111972066Y-78469312D01*
X111553088Y-78050334D01*
X111060422Y-77721145D01*
X110513001Y-77494396D01*
X109931862Y-77378800D01*
X109339338Y-77378800D01*
X108758199Y-77494396D01*
X108210778Y-77721145D01*
X107718112Y-78050334D01*
X107299134Y-78469312D01*
X106969945Y-78961978D01*
X106743196Y-79509399D01*
X106627600Y-80090538D01*
X98402616Y-80090538D01*
X98387311Y-79935146D01*
X98243901Y-79462386D01*
X98011016Y-79026688D01*
X97697605Y-78644795D01*
X97315712Y-78331384D01*
X96880014Y-78098499D01*
X96407254Y-77955089D01*
X96038808Y-77918800D01*
X77792392Y-77918800D01*
X77423946Y-77955089D01*
X76951186Y-78098499D01*
X76515488Y-78331384D01*
X76133595Y-78644795D01*
X75820184Y-79026688D01*
X75587299Y-79462386D01*
X75443889Y-79935146D01*
X75395465Y-80426800D01*
X70399000Y-80426800D01*
X70399000Y-64844245D01*
X74886753Y-60356493D01*
X74941250Y-60488061D01*
X75325158Y-61062620D01*
X75813780Y-61551242D01*
X76388339Y-61935150D01*
X77026754Y-62199590D01*
X77704492Y-62334400D01*
X78395508Y-62334400D01*
X79073246Y-62199590D01*
X79242000Y-62129690D01*
X79242000Y-62171908D01*
X79376810Y-62849646D01*
X79641250Y-63488061D01*
X80025158Y-64062620D01*
X80513780Y-64551242D01*
X81088339Y-64935150D01*
X81726754Y-65199590D01*
X82404492Y-65334400D01*
X83095508Y-65334400D01*
X83773246Y-65199590D01*
X84411661Y-64935150D01*
X84986220Y-64551242D01*
X85474842Y-64062620D01*
X85858750Y-63488061D01*
X86123190Y-62849646D01*
X86140313Y-62763561D01*
X86483052Y-63106300D01*
X86561595Y-63202005D01*
X86943488Y-63515416D01*
X87255501Y-63682190D01*
X87379186Y-63748301D01*
X87851945Y-63891711D01*
X88343600Y-63940135D01*
X88466808Y-63928000D01*
X93033208Y-63928000D01*
X93401654Y-63891711D01*
X93752458Y-63785296D01*
X93760000Y-63785296D01*
X94055620Y-63756180D01*
X94339879Y-63669951D01*
X94601853Y-63529923D01*
X94831476Y-63341476D01*
X95019923Y-63111853D01*
X95159951Y-62849879D01*
X95246180Y-62565620D01*
X95275296Y-62270000D01*
X95275296Y-62262458D01*
X95381711Y-61911654D01*
X95430135Y-61420000D01*
X95381711Y-60928346D01*
X95275296Y-60577542D01*
X95275296Y-60570000D01*
X95246180Y-60274380D01*
X95159951Y-59990121D01*
X95019923Y-59728147D01*
X94831476Y-59498524D01*
X94601853Y-59310077D01*
X94339879Y-59170049D01*
X94055620Y-59083820D01*
X93760000Y-59054704D01*
X93752458Y-59054704D01*
X93401654Y-58948289D01*
X93033208Y-58912000D01*
X89382448Y-58912000D01*
X86258000Y-55787553D01*
X86258000Y-55480892D01*
X86123190Y-54803154D01*
X86006468Y-54521360D01*
X86818125Y-54521360D01*
X86827840Y-54619998D01*
X86827840Y-54719131D01*
X86847180Y-54816361D01*
X86856895Y-54914997D01*
X86885666Y-55009842D01*
X86905006Y-55107072D01*
X86942943Y-55198660D01*
X86971714Y-55293506D01*
X87018436Y-55380916D01*
X87056373Y-55472505D01*
X87111450Y-55554934D01*
X87158171Y-55642342D01*
X87221047Y-55718957D01*
X87276124Y-55801385D01*
X87346221Y-55871482D01*
X87409100Y-55948100D01*
X87485717Y-56010978D01*
X87555815Y-56081076D01*
X87638243Y-56136153D01*
X87714858Y-56199029D01*
X87802266Y-56245750D01*
X87884695Y-56300827D01*
X87976284Y-56338764D01*
X88063694Y-56385486D01*
X88158540Y-56414257D01*
X88250128Y-56452194D01*
X88347358Y-56471534D01*
X88442203Y-56500305D01*
X88540839Y-56510020D01*
X88638069Y-56529360D01*
X90115693Y-56529360D01*
X90311747Y-56768253D01*
X90579254Y-56987790D01*
X90884450Y-57150921D01*
X91215607Y-57251376D01*
X91559999Y-57285296D01*
X92210001Y-57285296D01*
X92554393Y-57251376D01*
X92885550Y-57150921D01*
X92910000Y-57137852D01*
X92934450Y-57150921D01*
X93265607Y-57251376D01*
X93277842Y-57252581D01*
X93715374Y-57690113D01*
X93778260Y-57766740D01*
X94084018Y-58017669D01*
X94432854Y-58204126D01*
X94811363Y-58318945D01*
X95106362Y-58348000D01*
X95106371Y-58348000D01*
X95204999Y-58357714D01*
X95303627Y-58348000D01*
X99200899Y-58348000D01*
X99389384Y-58473942D01*
X99827612Y-58655462D01*
X100292833Y-58748000D01*
X100767167Y-58748000D01*
X101232388Y-58655462D01*
X101670616Y-58473942D01*
X102065010Y-58210416D01*
X102400416Y-57875010D01*
X102663942Y-57480616D01*
X102845462Y-57042388D01*
X102938000Y-56577167D01*
X102938000Y-56102833D01*
X102845462Y-55637612D01*
X102755207Y-55419716D01*
X102829951Y-55279879D01*
X102916180Y-54995620D01*
X102945296Y-54700000D01*
X102945296Y-52900000D01*
X102916180Y-52604380D01*
X102829951Y-52320121D01*
X102689923Y-52058147D01*
X102501476Y-51828524D01*
X102271853Y-51640077D01*
X102009879Y-51500049D01*
X101725620Y-51413820D01*
X101430000Y-51384704D01*
X99630000Y-51384704D01*
X99334380Y-51413820D01*
X99050121Y-51500049D01*
X98788147Y-51640077D01*
X98558524Y-51828524D01*
X98370077Y-52058147D01*
X98230049Y-52320121D01*
X98143820Y-52604380D01*
X98114704Y-52900000D01*
X98114704Y-54332000D01*
X96036739Y-54332000D01*
X95992581Y-54287842D01*
X95991376Y-54275607D01*
X95890921Y-53944450D01*
X95727790Y-53639254D01*
X95508253Y-53371747D01*
X95240746Y-53152210D01*
X94935550Y-52989079D01*
X94604393Y-52888624D01*
X94260001Y-52854704D01*
X93609999Y-52854704D01*
X93265607Y-52888624D01*
X92934450Y-52989079D01*
X92910000Y-53002148D01*
X92885550Y-52989079D01*
X92554393Y-52888624D01*
X92506324Y-52883890D01*
X92457342Y-52843691D01*
X92108506Y-52657234D01*
X91729997Y-52542415D01*
X91434998Y-52513360D01*
X91336360Y-52503645D01*
X91237722Y-52513360D01*
X88638069Y-52513360D01*
X88540839Y-52532700D01*
X88442203Y-52542415D01*
X88347358Y-52571186D01*
X88250128Y-52590526D01*
X88158540Y-52628463D01*
X88063694Y-52657234D01*
X87976284Y-52703956D01*
X87884695Y-52741893D01*
X87802266Y-52796970D01*
X87714858Y-52843691D01*
X87638243Y-52906567D01*
X87555815Y-52961644D01*
X87485717Y-53031742D01*
X87409100Y-53094620D01*
X87346222Y-53171237D01*
X87276124Y-53241335D01*
X87221047Y-53323763D01*
X87158171Y-53400378D01*
X87111450Y-53487786D01*
X87056373Y-53570215D01*
X87018436Y-53661804D01*
X86971714Y-53749214D01*
X86942943Y-53844060D01*
X86905006Y-53935648D01*
X86885666Y-54032878D01*
X86856895Y-54127723D01*
X86847180Y-54226359D01*
X86827840Y-54323589D01*
X86827840Y-54422722D01*
X86818125Y-54521360D01*
X86006468Y-54521360D01*
X85858750Y-54164739D01*
X85474842Y-53590180D01*
X84986220Y-53101558D01*
X84788685Y-52969569D01*
X85061180Y-52561751D01*
X85257776Y-52087126D01*
X85358000Y-51583266D01*
X85358000Y-51069534D01*
X85261222Y-50583000D01*
X120433800Y-50583000D01*
X120182300Y-50959397D01*
X119857554Y-51743403D01*
X119692000Y-52575699D01*
X119692000Y-53424301D01*
X119857554Y-54256597D01*
X120182300Y-55040603D01*
X120653758Y-55746190D01*
X121253810Y-56346242D01*
X121959397Y-56817700D01*
X122743403Y-57142446D01*
X123575699Y-57308000D01*
X124424301Y-57308000D01*
X125256597Y-57142446D01*
X126040603Y-56817700D01*
X126746190Y-56346242D01*
X127346242Y-55746190D01*
X127817700Y-55040603D01*
X128142446Y-54256597D01*
X128308000Y-53424301D01*
X128308000Y-52575699D01*
X128142446Y-51743403D01*
X127817700Y-50959397D01*
X127566200Y-50583000D01*
X184433800Y-50583000D01*
X184182300Y-50959397D01*
X183857554Y-51743403D01*
X183692000Y-52575699D01*
X183692000Y-53424301D01*
X183857554Y-54256597D01*
X184182300Y-55040603D01*
X184653758Y-55746190D01*
X185253810Y-56346242D01*
X185959397Y-56817700D01*
X186743403Y-57142446D01*
X187575699Y-57308000D01*
X188424301Y-57308000D01*
X189256597Y-57142446D01*
X190040603Y-56817700D01*
X190746190Y-56346242D01*
X191346242Y-55746190D01*
X191817700Y-55040603D01*
X192142446Y-54256597D01*
X192308000Y-53424301D01*
X192308000Y-52575699D01*
X192142446Y-51743403D01*
X191817700Y-50959397D01*
X191566200Y-50583000D01*
X206242000Y-50583000D01*
X206242000Y-56678000D01*
X209529683Y-56678000D01*
X209320515Y-56932871D01*
X209101559Y-57342510D01*
X208966726Y-57786995D01*
X208921198Y-58249244D01*
X208966726Y-58711493D01*
X209101559Y-59155978D01*
X209295728Y-59519244D01*
X209101559Y-59882510D01*
X208966726Y-60326995D01*
X208921198Y-60789244D01*
X208966726Y-61251493D01*
X209101559Y-61695978D01*
X209295728Y-62059244D01*
X209101559Y-62422510D01*
X208966726Y-62866995D01*
X208921198Y-63329244D01*
X208966726Y-63791493D01*
X209101559Y-64235978D01*
X209295728Y-64599244D01*
X209101559Y-64962510D01*
X208966726Y-65406995D01*
X208921198Y-65869244D01*
X208966726Y-66331493D01*
X209101559Y-66775978D01*
X209320515Y-67185617D01*
X209615182Y-67544669D01*
X209974234Y-67839336D01*
X210383873Y-68058292D01*
X210828358Y-68193125D01*
X211174771Y-68227244D01*
X211406443Y-68227244D01*
X211752856Y-68193125D01*
X212197341Y-68058292D01*
X212560607Y-67864123D01*
X212923873Y-68058292D01*
X213368358Y-68193125D01*
X213714771Y-68227244D01*
X213946443Y-68227244D01*
X214292856Y-68193125D01*
X214737341Y-68058292D01*
X215146980Y-67839336D01*
X215506032Y-67544669D01*
X215800699Y-67185617D01*
X216019655Y-66775978D01*
X216154488Y-66331493D01*
X216200016Y-65869244D01*
X216154488Y-65406995D01*
X216019655Y-64962510D01*
X215825486Y-64599244D01*
X216019655Y-64235978D01*
X216154488Y-63791493D01*
X216200016Y-63329244D01*
X216154488Y-62866995D01*
X216019655Y-62422510D01*
X215825486Y-62059244D01*
X216019655Y-61695978D01*
X216154488Y-61251493D01*
X216200016Y-60789244D01*
X216154488Y-60326995D01*
X216019655Y-59882510D01*
X215825486Y-59519244D01*
X216019655Y-59155978D01*
X216154488Y-58711493D01*
X216200016Y-58249244D01*
X216154488Y-57786995D01*
X216019655Y-57342510D01*
X215800699Y-56932871D01*
X215591531Y-56678000D01*
X225495397Y-56678000D01*
X225286229Y-56932871D01*
X225067273Y-57342510D01*
X224932440Y-57786995D01*
X224886912Y-58249244D01*
X224932440Y-58711493D01*
X225067273Y-59155978D01*
X225261442Y-59519244D01*
X225067273Y-59882510D01*
X224932440Y-60326995D01*
X224886912Y-60789244D01*
X224932440Y-61251493D01*
X225067273Y-61695978D01*
X225261442Y-62059244D01*
X225067273Y-62422510D01*
X224932440Y-62866995D01*
X224886912Y-63329244D01*
X224932440Y-63791493D01*
X225067273Y-64235978D01*
X225261442Y-64599244D01*
X225067273Y-64962510D01*
X224932440Y-65406995D01*
X224886912Y-65869244D01*
X224932440Y-66331493D01*
X225067273Y-66775978D01*
X225286229Y-67185617D01*
X225580896Y-67544669D01*
X225939948Y-67839336D01*
X226349587Y-68058292D01*
X226794072Y-68193125D01*
X227140485Y-68227244D01*
X227372157Y-68227244D01*
X227718570Y-68193125D01*
X228163055Y-68058292D01*
X228526321Y-67864123D01*
X228889587Y-68058292D01*
X229334072Y-68193125D01*
X229680485Y-68227244D01*
X229912157Y-68227244D01*
X230258570Y-68193125D01*
X230703055Y-68058292D01*
X231112694Y-67839336D01*
X231471746Y-67544669D01*
X231766413Y-67185617D01*
X231985369Y-66775978D01*
X232120202Y-66331493D01*
X232165730Y-65869244D01*
X232120202Y-65406995D01*
X231985369Y-64962510D01*
X231791200Y-64599244D01*
X231985369Y-64235978D01*
X232120202Y-63791493D01*
X232165730Y-63329244D01*
X232120202Y-62866995D01*
X231985369Y-62422510D01*
X231791200Y-62059244D01*
X231985369Y-61695978D01*
X232120202Y-61251493D01*
X232165730Y-60789244D01*
X232120202Y-60326995D01*
X231985369Y-59882510D01*
X231791200Y-59519244D01*
X231985369Y-59155978D01*
X232120202Y-58711493D01*
X232165730Y-58249244D01*
X232120202Y-57786995D01*
X231985369Y-57342510D01*
X231766413Y-56932871D01*
X231557245Y-56678000D01*
X238915143Y-56678000D01*
X238915143Y-50583000D01*
X243433800Y-50583000D01*
X243182300Y-50959397D01*
X242857554Y-51743403D01*
X242692000Y-52575699D01*
X242692000Y-53424301D01*
X242857554Y-54256597D01*
X243182300Y-55040603D01*
X243653758Y-55746190D01*
X243897656Y-55990088D01*
X243684286Y-55925363D01*
X243337873Y-55891244D01*
X243106201Y-55891244D01*
X242759788Y-55925363D01*
X242315303Y-56060196D01*
X241905664Y-56279152D01*
X241546612Y-56573819D01*
X241251945Y-56932871D01*
X241032989Y-57342510D01*
X240898156Y-57786995D01*
X240852628Y-58249244D01*
X240898156Y-58711493D01*
X241032989Y-59155978D01*
X241227158Y-59519244D01*
X241032989Y-59882510D01*
X240898156Y-60326995D01*
X240852628Y-60789244D01*
X240898156Y-61251493D01*
X241032989Y-61695978D01*
X241227158Y-62059244D01*
X241032989Y-62422510D01*
X240898156Y-62866995D01*
X240852628Y-63329244D01*
X240898156Y-63791493D01*
X241032989Y-64235978D01*
X241227158Y-64599244D01*
X241032989Y-64962510D01*
X240898156Y-65406995D01*
X240852628Y-65869244D01*
X240898156Y-66331493D01*
X241032989Y-66775978D01*
X241251945Y-67185617D01*
X241546612Y-67544669D01*
X241905664Y-67839336D01*
X242315303Y-68058292D01*
X242759788Y-68193125D01*
X243106201Y-68227244D01*
X243337873Y-68227244D01*
X243684286Y-68193125D01*
X244128771Y-68058292D01*
X244492037Y-67864123D01*
X244855303Y-68058292D01*
X245299788Y-68193125D01*
X245646201Y-68227244D01*
X245842000Y-68227244D01*
X245842000Y-73521244D01*
X142757971Y-73521244D01*
X142952005Y-73362005D01*
X143265416Y-72980112D01*
X143498301Y-72544414D01*
X143641711Y-72071654D01*
X143690135Y-71580000D01*
X143678000Y-71456792D01*
X143678000Y-69163208D01*
X143690135Y-69040001D01*
X143678000Y-68916792D01*
X143641711Y-68548346D01*
X143498301Y-68075586D01*
X143265416Y-67639888D01*
X142952005Y-67257995D01*
X142856295Y-67179448D01*
X142395543Y-66718696D01*
X142317004Y-66622996D01*
X142221299Y-66544453D01*
X140745679Y-65068832D01*
X140667131Y-64973121D01*
X140285238Y-64659710D01*
X139849540Y-64426825D01*
X139848114Y-64426393D01*
X137064670Y-61642949D01*
X136986123Y-61547239D01*
X136604230Y-61233828D01*
X136341490Y-61093391D01*
X136371446Y-60789244D01*
X136325918Y-60326995D01*
X136191085Y-59882510D01*
X135996916Y-59519244D01*
X136191085Y-59155978D01*
X136325918Y-58711493D01*
X136371446Y-58249244D01*
X145058342Y-58249244D01*
X145103870Y-58711493D01*
X145238703Y-59155978D01*
X145432872Y-59519244D01*
X145238703Y-59882510D01*
X145103870Y-60326995D01*
X145058342Y-60789244D01*
X145103870Y-61251493D01*
X145238703Y-61695978D01*
X145432872Y-62059244D01*
X145238703Y-62422510D01*
X145103870Y-62866995D01*
X145058342Y-63329244D01*
X145103870Y-63791493D01*
X145238703Y-64235978D01*
X145432872Y-64599244D01*
X145238703Y-64962510D01*
X145103870Y-65406995D01*
X145058342Y-65869244D01*
X145103870Y-66331493D01*
X145238703Y-66775978D01*
X145457659Y-67185617D01*
X145752326Y-67544669D01*
X146111378Y-67839336D01*
X146521017Y-68058292D01*
X146965502Y-68193125D01*
X147311915Y-68227244D01*
X147543587Y-68227244D01*
X147890000Y-68193125D01*
X148334485Y-68058292D01*
X148697751Y-67864123D01*
X149061017Y-68058292D01*
X149505502Y-68193125D01*
X149851915Y-68227244D01*
X150083587Y-68227244D01*
X150430000Y-68193125D01*
X150874485Y-68058292D01*
X151284124Y-67839336D01*
X151643176Y-67544669D01*
X151937843Y-67185617D01*
X152156799Y-66775978D01*
X152291632Y-66331493D01*
X152337160Y-65869244D01*
X152291632Y-65406995D01*
X152156799Y-64962510D01*
X151962630Y-64599244D01*
X152156799Y-64235978D01*
X152291632Y-63791493D01*
X152337160Y-63329244D01*
X152291632Y-62866995D01*
X152156799Y-62422510D01*
X151962630Y-62059244D01*
X152156799Y-61695978D01*
X152291632Y-61251493D01*
X152337160Y-60789244D01*
X152291632Y-60326995D01*
X152156799Y-59882510D01*
X151962630Y-59519244D01*
X152156799Y-59155978D01*
X152291632Y-58711493D01*
X152337160Y-58249244D01*
X161024056Y-58249244D01*
X161069584Y-58711493D01*
X161204417Y-59155978D01*
X161398586Y-59519244D01*
X161204417Y-59882510D01*
X161069584Y-60326995D01*
X161024056Y-60789244D01*
X161069584Y-61251493D01*
X161204417Y-61695978D01*
X161398586Y-62059244D01*
X161204417Y-62422510D01*
X161069584Y-62866995D01*
X161024056Y-63329244D01*
X161069584Y-63791493D01*
X161204417Y-64235978D01*
X161398586Y-64599244D01*
X161204417Y-64962510D01*
X161069584Y-65406995D01*
X161024056Y-65869244D01*
X161069584Y-66331493D01*
X161204417Y-66775978D01*
X161423373Y-67185617D01*
X161718040Y-67544669D01*
X162077092Y-67839336D01*
X162486731Y-68058292D01*
X162931216Y-68193125D01*
X163277629Y-68227244D01*
X163509301Y-68227244D01*
X163855714Y-68193125D01*
X164300199Y-68058292D01*
X164663465Y-67864123D01*
X165026731Y-68058292D01*
X165471216Y-68193125D01*
X165817629Y-68227244D01*
X166049301Y-68227244D01*
X166395714Y-68193125D01*
X166840199Y-68058292D01*
X167249838Y-67839336D01*
X167608890Y-67544669D01*
X167903557Y-67185617D01*
X168122513Y-66775978D01*
X168257346Y-66331493D01*
X168302874Y-65869244D01*
X168257346Y-65406995D01*
X168122513Y-64962510D01*
X167928344Y-64599244D01*
X168122513Y-64235978D01*
X168257346Y-63791493D01*
X168302874Y-63329244D01*
X168257346Y-62866995D01*
X168122513Y-62422510D01*
X167928344Y-62059244D01*
X168122513Y-61695978D01*
X168257346Y-61251493D01*
X168302874Y-60789244D01*
X168257346Y-60326995D01*
X168122513Y-59882510D01*
X167928344Y-59519244D01*
X168122513Y-59155978D01*
X168257346Y-58711493D01*
X168302874Y-58249244D01*
X176989770Y-58249244D01*
X177035298Y-58711493D01*
X177170131Y-59155978D01*
X177364300Y-59519244D01*
X177170131Y-59882510D01*
X177035298Y-60326995D01*
X176989770Y-60789244D01*
X177035298Y-61251493D01*
X177170131Y-61695978D01*
X177364300Y-62059244D01*
X177170131Y-62422510D01*
X177035298Y-62866995D01*
X176989770Y-63329244D01*
X177035298Y-63791493D01*
X177170131Y-64235978D01*
X177364300Y-64599244D01*
X177170131Y-64962510D01*
X177035298Y-65406995D01*
X176989770Y-65869244D01*
X177035298Y-66331493D01*
X177170131Y-66775978D01*
X177389087Y-67185617D01*
X177683754Y-67544669D01*
X178042806Y-67839336D01*
X178452445Y-68058292D01*
X178896930Y-68193125D01*
X179243343Y-68227244D01*
X179475015Y-68227244D01*
X179821428Y-68193125D01*
X180265913Y-68058292D01*
X180629179Y-67864123D01*
X180992445Y-68058292D01*
X181436930Y-68193125D01*
X181783343Y-68227244D01*
X182015015Y-68227244D01*
X182361428Y-68193125D01*
X182805913Y-68058292D01*
X183215552Y-67839336D01*
X183574604Y-67544669D01*
X183869271Y-67185617D01*
X184088227Y-66775978D01*
X184223060Y-66331493D01*
X184268588Y-65869244D01*
X184223060Y-65406995D01*
X184088227Y-64962510D01*
X183894058Y-64599244D01*
X184088227Y-64235978D01*
X184223060Y-63791493D01*
X184268588Y-63329244D01*
X184223060Y-62866995D01*
X184088227Y-62422510D01*
X183894058Y-62059244D01*
X184088227Y-61695978D01*
X184223060Y-61251493D01*
X184268588Y-60789244D01*
X184223060Y-60326995D01*
X184088227Y-59882510D01*
X183894058Y-59519244D01*
X184088227Y-59155978D01*
X184223060Y-58711493D01*
X184268588Y-58249244D01*
X192955484Y-58249244D01*
X193001012Y-58711493D01*
X193135845Y-59155978D01*
X193330014Y-59519244D01*
X193135845Y-59882510D01*
X193001012Y-60326995D01*
X192955484Y-60789244D01*
X193001012Y-61251493D01*
X193135845Y-61695978D01*
X193330014Y-62059244D01*
X193135845Y-62422510D01*
X193001012Y-62866995D01*
X192955484Y-63329244D01*
X193001012Y-63791493D01*
X193135845Y-64235978D01*
X193330014Y-64599244D01*
X193135845Y-64962510D01*
X193001012Y-65406995D01*
X192955484Y-65869244D01*
X193001012Y-66331493D01*
X193135845Y-66775978D01*
X193354801Y-67185617D01*
X193649468Y-67544669D01*
X194008520Y-67839336D01*
X194418159Y-68058292D01*
X194862644Y-68193125D01*
X195209057Y-68227244D01*
X195440729Y-68227244D01*
X195787142Y-68193125D01*
X196231627Y-68058292D01*
X196594893Y-67864123D01*
X196958159Y-68058292D01*
X197402644Y-68193125D01*
X197749057Y-68227244D01*
X197980729Y-68227244D01*
X198327142Y-68193125D01*
X198771627Y-68058292D01*
X199181266Y-67839336D01*
X199540318Y-67544669D01*
X199834985Y-67185617D01*
X200053941Y-66775978D01*
X200188774Y-66331493D01*
X200234302Y-65869244D01*
X200188774Y-65406995D01*
X200053941Y-64962510D01*
X199859772Y-64599244D01*
X200053941Y-64235978D01*
X200188774Y-63791493D01*
X200234302Y-63329244D01*
X200188774Y-62866995D01*
X200053941Y-62422510D01*
X199859772Y-62059244D01*
X200053941Y-61695978D01*
X200188774Y-61251493D01*
X200234302Y-60789244D01*
X200188774Y-60326995D01*
X200053941Y-59882510D01*
X199859772Y-59519244D01*
X200053941Y-59155978D01*
X200188774Y-58711493D01*
X200234302Y-58249244D01*
X200188774Y-57786995D01*
X200053941Y-57342510D01*
X199834985Y-56932871D01*
X199540318Y-56573819D01*
X199181266Y-56279152D01*
X198771627Y-56060196D01*
X198327142Y-55925363D01*
X197980729Y-55891244D01*
X197749057Y-55891244D01*
X197402644Y-55925363D01*
X196958159Y-56060196D01*
X196594893Y-56254365D01*
X196231627Y-56060196D01*
X195787142Y-55925363D01*
X195440729Y-55891244D01*
X195209057Y-55891244D01*
X194862644Y-55925363D01*
X194418159Y-56060196D01*
X194008520Y-56279152D01*
X193649468Y-56573819D01*
X193354801Y-56932871D01*
X193135845Y-57342510D01*
X193001012Y-57786995D01*
X192955484Y-58249244D01*
X184268588Y-58249244D01*
X184223060Y-57786995D01*
X184088227Y-57342510D01*
X183869271Y-56932871D01*
X183574604Y-56573819D01*
X183215552Y-56279152D01*
X182805913Y-56060196D01*
X182361428Y-55925363D01*
X182015015Y-55891244D01*
X181783343Y-55891244D01*
X181436930Y-55925363D01*
X180992445Y-56060196D01*
X180629179Y-56254365D01*
X180265913Y-56060196D01*
X179821428Y-55925363D01*
X179475015Y-55891244D01*
X179243343Y-55891244D01*
X178896930Y-55925363D01*
X178452445Y-56060196D01*
X178042806Y-56279152D01*
X177683754Y-56573819D01*
X177389087Y-56932871D01*
X177170131Y-57342510D01*
X177035298Y-57786995D01*
X176989770Y-58249244D01*
X168302874Y-58249244D01*
X168257346Y-57786995D01*
X168122513Y-57342510D01*
X167903557Y-56932871D01*
X167608890Y-56573819D01*
X167249838Y-56279152D01*
X166840199Y-56060196D01*
X166395714Y-55925363D01*
X166049301Y-55891244D01*
X165817629Y-55891244D01*
X165471216Y-55925363D01*
X165026731Y-56060196D01*
X164663465Y-56254365D01*
X164300199Y-56060196D01*
X163855714Y-55925363D01*
X163509301Y-55891244D01*
X163277629Y-55891244D01*
X162931216Y-55925363D01*
X162486731Y-56060196D01*
X162077092Y-56279152D01*
X161718040Y-56573819D01*
X161423373Y-56932871D01*
X161204417Y-57342510D01*
X161069584Y-57786995D01*
X161024056Y-58249244D01*
X152337160Y-58249244D01*
X152291632Y-57786995D01*
X152156799Y-57342510D01*
X151937843Y-56932871D01*
X151643176Y-56573819D01*
X151284124Y-56279152D01*
X150874485Y-56060196D01*
X150430000Y-55925363D01*
X150083587Y-55891244D01*
X149851915Y-55891244D01*
X149505502Y-55925363D01*
X149061017Y-56060196D01*
X148697751Y-56254365D01*
X148334485Y-56060196D01*
X147890000Y-55925363D01*
X147543587Y-55891244D01*
X147311915Y-55891244D01*
X146965502Y-55925363D01*
X146521017Y-56060196D01*
X146111378Y-56279152D01*
X145752326Y-56573819D01*
X145457659Y-56932871D01*
X145238703Y-57342510D01*
X145103870Y-57786995D01*
X145058342Y-58249244D01*
X136371446Y-58249244D01*
X136325918Y-57786995D01*
X136191085Y-57342510D01*
X135972129Y-56932871D01*
X135677462Y-56573819D01*
X135318410Y-56279152D01*
X134908771Y-56060196D01*
X134464286Y-55925363D01*
X134117873Y-55891244D01*
X133886201Y-55891244D01*
X133539788Y-55925363D01*
X133095303Y-56060196D01*
X132732037Y-56254365D01*
X132368771Y-56060196D01*
X131924286Y-55925363D01*
X131577873Y-55891244D01*
X131346201Y-55891244D01*
X130999788Y-55925363D01*
X130555303Y-56060196D01*
X130145664Y-56279152D01*
X129786612Y-56573819D01*
X129491945Y-56932871D01*
X129272989Y-57342510D01*
X129138156Y-57786995D01*
X129092628Y-58249244D01*
X129138156Y-58711493D01*
X129272989Y-59155978D01*
X129467158Y-59519244D01*
X129272989Y-59882510D01*
X129138156Y-60326995D01*
X129092628Y-60789244D01*
X129138156Y-61251493D01*
X129272989Y-61695978D01*
X129385389Y-61906264D01*
X129366621Y-61929132D01*
X129133736Y-62364830D01*
X128990326Y-62837590D01*
X128941902Y-63329244D01*
X128990326Y-63820898D01*
X129133736Y-64293658D01*
X129366621Y-64729356D01*
X129385389Y-64752224D01*
X129272989Y-64962510D01*
X129138156Y-65406995D01*
X129092628Y-65869244D01*
X129138156Y-66331493D01*
X129272989Y-66775978D01*
X129491945Y-67185617D01*
X129786612Y-67544669D01*
X130145664Y-67839336D01*
X130555303Y-68058292D01*
X130999788Y-68193125D01*
X131346201Y-68227244D01*
X131577873Y-68227244D01*
X131924286Y-68193125D01*
X132368771Y-68058292D01*
X132732037Y-67864123D01*
X133095303Y-68058292D01*
X133539788Y-68193125D01*
X133886201Y-68227244D01*
X134117873Y-68227244D01*
X134464286Y-68193125D01*
X134908771Y-68058292D01*
X135318410Y-67839336D01*
X135677462Y-67544669D01*
X135765464Y-67437438D01*
X136122000Y-67793974D01*
X136122000Y-68916792D01*
X136109865Y-69040000D01*
X136122000Y-69163208D01*
X136122000Y-71456792D01*
X136109865Y-71580000D01*
X136158289Y-72071654D01*
X136301699Y-72544414D01*
X136534584Y-72980112D01*
X136847995Y-73362005D01*
X137042029Y-73521244D01*
X124276364Y-73521244D01*
X124153156Y-73509109D01*
X124029948Y-73521244D01*
X123661502Y-73557533D01*
X123188742Y-73700943D01*
X122753044Y-73933828D01*
X122371151Y-74247239D01*
X122292608Y-74342944D01*
X109036518Y-87599035D01*
X108758199Y-87654396D01*
X108210778Y-87881145D01*
X107718112Y-88210334D01*
X107299134Y-88629312D01*
X106969945Y-89121978D01*
X106743196Y-89669399D01*
X106627600Y-90250538D01*
X106627600Y-90843062D01*
X106743196Y-91424201D01*
X106969945Y-91971622D01*
X107299134Y-92464288D01*
X107718112Y-92883266D01*
X108210778Y-93212455D01*
X108758199Y-93439204D01*
X109339338Y-93554800D01*
X109931862Y-93554800D01*
X110513001Y-93439204D01*
X111060422Y-93212455D01*
X111296369Y-93054800D01*
X115801211Y-93054800D01*
X115789865Y-93170000D01*
X115802000Y-93293207D01*
X115802000Y-93293208D01*
X115838289Y-93661654D01*
X115981699Y-94134414D01*
X116214585Y-94570112D01*
X116527996Y-94952005D01*
X116623701Y-95030548D01*
X126600732Y-105007580D01*
X126591901Y-105097245D01*
X126604036Y-105220452D01*
X126604036Y-105220453D01*
X126640325Y-105588899D01*
X126783735Y-106061659D01*
X127016621Y-106497357D01*
X127330032Y-106879250D01*
X127425737Y-106957793D01*
X128473484Y-108005540D01*
X128552031Y-108101250D01*
X128933924Y-108414661D01*
X129289388Y-108604660D01*
X129369622Y-108647546D01*
X129842381Y-108790956D01*
X130334036Y-108839380D01*
X130457244Y-108827245D01*
X130478353Y-108827245D01*
X130497623Y-108837545D01*
X130970383Y-108980955D01*
X131338829Y-109017244D01*
X131462037Y-109029379D01*
X131585245Y-109017244D01*
X147959751Y-109017244D01*
X147959752Y-118209103D01*
X147950036Y-118307751D01*
X147988806Y-118701388D01*
X148103626Y-119079897D01*
X148290083Y-119428733D01*
X148424234Y-119592196D01*
X148541012Y-119734491D01*
X148617629Y-119797369D01*
X149010378Y-120190118D01*
X149073260Y-120266740D01*
X149379018Y-120517669D01*
X149727854Y-120704126D01*
X150059267Y-120804659D01*
X149992000Y-121142833D01*
X149992000Y-121617167D01*
X150084538Y-122082388D01*
X150266058Y-122520616D01*
X150392000Y-122709102D01*
X150392001Y-124058023D01*
X150319079Y-124194450D01*
X150218624Y-124525607D01*
X150184704Y-124869999D01*
X150184704Y-125520001D01*
X150218624Y-125864393D01*
X150319079Y-126195550D01*
X150482210Y-126500746D01*
X150701747Y-126768253D01*
X150755065Y-126812010D01*
X141901751Y-126812010D01*
X140125296Y-125035556D01*
X140125296Y-123360000D01*
X140091376Y-123015608D01*
X139990921Y-122684450D01*
X139827790Y-122379254D01*
X139608253Y-122111747D01*
X139340746Y-121892210D01*
X139035550Y-121729079D01*
X138704392Y-121628624D01*
X138360000Y-121594704D01*
X137391552Y-121594704D01*
X132680552Y-116883705D01*
X132602005Y-116787995D01*
X132220112Y-116474584D01*
X131784414Y-116241699D01*
X131311654Y-116098289D01*
X130943208Y-116062000D01*
X130820000Y-116049865D01*
X130696792Y-116062000D01*
X126111592Y-116062000D01*
X125743146Y-116098289D01*
X125270386Y-116241699D01*
X124834688Y-116474584D01*
X124452795Y-116787995D01*
X124139384Y-117169888D01*
X123906499Y-117605586D01*
X123763089Y-118078346D01*
X123714665Y-118570000D01*
X123763089Y-119061654D01*
X123906499Y-119534414D01*
X124139384Y-119970112D01*
X124452795Y-120352005D01*
X124834688Y-120665416D01*
X125270386Y-120898301D01*
X125743146Y-121041711D01*
X126111592Y-121078000D01*
X129781153Y-121078000D01*
X134594704Y-125891552D01*
X134594704Y-126860000D01*
X134628624Y-127204392D01*
X134729079Y-127535550D01*
X134892210Y-127840746D01*
X135111747Y-128108253D01*
X135379254Y-128327790D01*
X135546154Y-128417000D01*
X58566200Y-128417000D01*
X58817700Y-128040603D01*
X59142446Y-127256597D01*
X59308000Y-126424301D01*
X59308000Y-125575699D01*
X59142446Y-124743403D01*
X58863514Y-124070000D01*
X94354704Y-124070000D01*
X94354704Y-125770000D01*
X94383820Y-126065620D01*
X94470049Y-126349879D01*
X94610077Y-126611853D01*
X94798524Y-126841476D01*
X95028147Y-127029923D01*
X95290121Y-127169951D01*
X95574380Y-127256180D01*
X95870000Y-127285296D01*
X97570000Y-127285296D01*
X97865620Y-127256180D01*
X98149879Y-127169951D01*
X98308543Y-127085143D01*
X98353266Y-127109048D01*
X98797751Y-127243881D01*
X99144164Y-127278000D01*
X99375836Y-127278000D01*
X99722249Y-127243881D01*
X100166734Y-127109048D01*
X100530000Y-126914879D01*
X100893266Y-127109048D01*
X101337751Y-127243881D01*
X101684164Y-127278000D01*
X101915836Y-127278000D01*
X102262249Y-127243881D01*
X102706734Y-127109048D01*
X103116373Y-126890092D01*
X103475425Y-126595425D01*
X103770092Y-126236373D01*
X103989048Y-125826734D01*
X104123881Y-125382249D01*
X104169409Y-124920000D01*
X104123881Y-124457751D01*
X103989048Y-124013266D01*
X103770092Y-123603627D01*
X103475425Y-123244575D01*
X103177411Y-123000000D01*
X124069504Y-123000000D01*
X124069504Y-124300000D01*
X124098620Y-124595620D01*
X124184849Y-124879879D01*
X124324877Y-125141853D01*
X124513324Y-125371476D01*
X124742947Y-125559923D01*
X125004921Y-125699951D01*
X125289180Y-125786180D01*
X125584800Y-125815296D01*
X126884800Y-125815296D01*
X127180420Y-125786180D01*
X127464679Y-125699951D01*
X127726653Y-125559923D01*
X127956276Y-125371476D01*
X128144723Y-125141853D01*
X128284751Y-124879879D01*
X128370980Y-124595620D01*
X128400096Y-124300000D01*
X128400096Y-123000000D01*
X128370980Y-122704380D01*
X128284751Y-122420121D01*
X128144723Y-122158147D01*
X127956276Y-121928524D01*
X127726653Y-121740077D01*
X127464679Y-121600049D01*
X127180420Y-121513820D01*
X126884800Y-121484704D01*
X125584800Y-121484704D01*
X125289180Y-121513820D01*
X125004921Y-121600049D01*
X124742947Y-121740077D01*
X124513324Y-121928524D01*
X124324877Y-122158147D01*
X124184849Y-122420121D01*
X124098620Y-122704380D01*
X124069504Y-123000000D01*
X103177411Y-123000000D01*
X103116373Y-122949908D01*
X102706734Y-122730952D01*
X102262249Y-122596119D01*
X101915836Y-122562000D01*
X101684164Y-122562000D01*
X101337751Y-122596119D01*
X100893266Y-122730952D01*
X100530000Y-122925121D01*
X100166734Y-122730952D01*
X99722249Y-122596119D01*
X99375836Y-122562000D01*
X99144164Y-122562000D01*
X98797751Y-122596119D01*
X98353266Y-122730952D01*
X98308543Y-122754857D01*
X98149879Y-122670049D01*
X97865620Y-122583820D01*
X97570000Y-122554704D01*
X95870000Y-122554704D01*
X95574380Y-122583820D01*
X95290121Y-122670049D01*
X95028147Y-122810077D01*
X94798524Y-122998524D01*
X94610077Y-123228147D01*
X94470049Y-123490121D01*
X94383820Y-123774380D01*
X94354704Y-124070000D01*
X58863514Y-124070000D01*
X58817700Y-123959397D01*
X58346242Y-123253810D01*
X57746190Y-122653758D01*
X57040603Y-122182300D01*
X56256597Y-121857554D01*
X55424301Y-121692000D01*
X54575699Y-121692000D01*
X53743403Y-121857554D01*
X52959397Y-122182300D01*
X52583000Y-122433800D01*
X52583000Y-110426800D01*
X75395465Y-110426800D01*
X75443889Y-110918454D01*
X75587299Y-111391214D01*
X75820184Y-111826912D01*
X76133595Y-112208805D01*
X76515488Y-112522216D01*
X76951186Y-112755101D01*
X77423946Y-112898511D01*
X77792392Y-112934800D01*
X96038808Y-112934800D01*
X96407254Y-112898511D01*
X96880014Y-112755101D01*
X97315712Y-112522216D01*
X97697605Y-112208805D01*
X98011016Y-111826912D01*
X98243901Y-111391214D01*
X98387311Y-110918454D01*
X98421577Y-110570538D01*
X106627600Y-110570538D01*
X106627600Y-111163062D01*
X106743196Y-111744201D01*
X106969945Y-112291622D01*
X107299134Y-112784288D01*
X107718112Y-113203266D01*
X108210778Y-113532455D01*
X108758199Y-113759204D01*
X109339338Y-113874800D01*
X109931862Y-113874800D01*
X110513001Y-113759204D01*
X111060422Y-113532455D01*
X111553088Y-113203266D01*
X111972066Y-112784288D01*
X112301255Y-112291622D01*
X112528004Y-111744201D01*
X112643600Y-111163062D01*
X112643600Y-110570538D01*
X112528004Y-109989399D01*
X112301255Y-109441978D01*
X111972066Y-108949312D01*
X111553088Y-108530334D01*
X111060422Y-108201145D01*
X110513001Y-107974396D01*
X109931862Y-107858800D01*
X109339338Y-107858800D01*
X108758199Y-107974396D01*
X108210778Y-108201145D01*
X107718112Y-108530334D01*
X107299134Y-108949312D01*
X106969945Y-109441978D01*
X106743196Y-109989399D01*
X106627600Y-110570538D01*
X98421577Y-110570538D01*
X98435735Y-110426800D01*
X98387311Y-109935146D01*
X98243901Y-109462386D01*
X98011016Y-109026688D01*
X97697605Y-108644795D01*
X97315712Y-108331384D01*
X96880014Y-108098499D01*
X96407254Y-107955089D01*
X96038808Y-107918800D01*
X77792392Y-107918800D01*
X77423946Y-107955089D01*
X76951186Y-108098499D01*
X76515488Y-108331384D01*
X76133595Y-108644795D01*
X75820184Y-109026688D01*
X75587299Y-109462386D01*
X75443889Y-109935146D01*
X75395465Y-110426800D01*
X52583000Y-110426800D01*
X52583000Y-89030000D01*
X52964704Y-89030000D01*
X52964704Y-92230000D01*
X52993820Y-92525620D01*
X53080049Y-92809879D01*
X53220077Y-93071853D01*
X53408524Y-93301476D01*
X53638147Y-93489923D01*
X53900121Y-93629951D01*
X54184380Y-93716180D01*
X54480000Y-93745296D01*
X57680000Y-93745296D01*
X57975620Y-93716180D01*
X58259879Y-93629951D01*
X58521853Y-93489923D01*
X58751476Y-93301476D01*
X58939923Y-93071853D01*
X59079951Y-92809879D01*
X59166180Y-92525620D01*
X59195296Y-92230000D01*
X59195296Y-89030000D01*
X59166180Y-88734380D01*
X59079951Y-88450121D01*
X58939923Y-88188147D01*
X58751476Y-87958524D01*
X58521853Y-87770077D01*
X58259879Y-87630049D01*
X57975620Y-87543820D01*
X57680000Y-87514704D01*
X54480000Y-87514704D01*
X54184380Y-87543820D01*
X53900121Y-87630049D01*
X53638147Y-87770077D01*
X53408524Y-87958524D01*
X53220077Y-88188147D01*
X53080049Y-88450121D01*
X52993820Y-88734380D01*
X52964704Y-89030000D01*
X52583000Y-89030000D01*
X52583000Y-75390000D01*
X52956962Y-75390000D01*
X53016970Y-75999274D01*
X53194689Y-76585135D01*
X53483289Y-77125067D01*
X53871679Y-77598321D01*
X54344933Y-77986711D01*
X54884865Y-78275311D01*
X55470726Y-78453030D01*
X55927316Y-78498000D01*
X56232684Y-78498000D01*
X56689274Y-78453030D01*
X57275135Y-78275311D01*
X57815067Y-77986711D01*
X58288321Y-77598321D01*
X58676711Y-77125067D01*
X58965311Y-76585135D01*
X59143030Y-75999274D01*
X59203038Y-75390000D01*
X59143030Y-74780726D01*
X58965311Y-74194865D01*
X58676711Y-73654933D01*
X58288321Y-73181679D01*
X57815067Y-72793289D01*
X57275135Y-72504689D01*
X57084417Y-72446835D01*
X57396373Y-72280092D01*
X57755425Y-71985425D01*
X58050092Y-71626373D01*
X58269048Y-71216734D01*
X58403881Y-70772249D01*
X58449409Y-70310000D01*
X58403881Y-69847751D01*
X58269048Y-69403266D01*
X58245143Y-69358543D01*
X58329951Y-69199879D01*
X58416180Y-68915620D01*
X58445296Y-68620000D01*
X58445296Y-66920000D01*
X58416180Y-66624380D01*
X58329951Y-66340121D01*
X58189923Y-66078147D01*
X58001476Y-65848524D01*
X57771853Y-65660077D01*
X57509879Y-65520049D01*
X57225620Y-65433820D01*
X56930000Y-65404704D01*
X55230000Y-65404704D01*
X54934380Y-65433820D01*
X54650121Y-65520049D01*
X54388147Y-65660077D01*
X54158524Y-65848524D01*
X53970077Y-66078147D01*
X53830049Y-66340121D01*
X53743820Y-66624380D01*
X53714704Y-66920000D01*
X53714704Y-68620000D01*
X53743820Y-68915620D01*
X53830049Y-69199879D01*
X53914857Y-69358543D01*
X53890952Y-69403266D01*
X53756119Y-69847751D01*
X53710591Y-70310000D01*
X53756119Y-70772249D01*
X53890952Y-71216734D01*
X54109908Y-71626373D01*
X54404575Y-71985425D01*
X54763627Y-72280092D01*
X55075583Y-72446835D01*
X54884865Y-72504689D01*
X54344933Y-72793289D01*
X53871679Y-73181679D01*
X53483289Y-73654933D01*
X53194689Y-74194865D01*
X53016970Y-74780726D01*
X52956962Y-75390000D01*
X52583000Y-75390000D01*
X52583000Y-56566200D01*
X52959397Y-56817700D01*
X53743403Y-57142446D01*
X54575699Y-57308000D01*
X55424301Y-57308000D01*
X56256597Y-57142446D01*
X57040603Y-56817700D01*
X57746190Y-56346242D01*
X58346242Y-55746190D01*
X58817700Y-55040603D01*
X59142446Y-54256597D01*
X59308000Y-53424301D01*
X59308000Y-52575699D01*
X59142446Y-51743403D01*
X58817700Y-50959397D01*
X58566200Y-50583000D01*
X80238778Y-50583000D01*
X80142000Y-51069534D01*
G36*
X245842001Y-86371244D02*
G01*
X245646201Y-86371244D01*
X245299788Y-86405363D01*
X244855303Y-86540196D01*
X244492037Y-86734365D01*
X244128771Y-86540196D01*
X243684286Y-86405363D01*
X243337873Y-86371244D01*
X243106201Y-86371244D01*
X242759788Y-86405363D01*
X242315303Y-86540196D01*
X241905664Y-86759152D01*
X241546612Y-87053819D01*
X241251945Y-87412871D01*
X241032989Y-87822510D01*
X240898156Y-88266995D01*
X240852628Y-88729244D01*
X240898156Y-89191493D01*
X241032989Y-89635978D01*
X241227158Y-89999244D01*
X241032989Y-90362510D01*
X240898156Y-90806995D01*
X240852628Y-91269244D01*
X240898156Y-91731493D01*
X241032989Y-92175978D01*
X241227158Y-92539244D01*
X241032989Y-92902510D01*
X240898156Y-93346995D01*
X240852628Y-93809244D01*
X240898156Y-94271493D01*
X241032989Y-94715978D01*
X241227158Y-95079244D01*
X241032989Y-95442510D01*
X240898156Y-95886995D01*
X240852628Y-96349244D01*
X240898156Y-96811493D01*
X241032989Y-97255978D01*
X241251945Y-97665617D01*
X241546612Y-98024669D01*
X241905664Y-98319336D01*
X242315303Y-98538292D01*
X242759788Y-98673125D01*
X243106201Y-98707244D01*
X243337873Y-98707244D01*
X243684286Y-98673125D01*
X244128771Y-98538292D01*
X244492037Y-98344123D01*
X244855303Y-98538292D01*
X245299788Y-98673125D01*
X245646201Y-98707244D01*
X245877873Y-98707244D01*
X246224286Y-98673125D01*
X246668771Y-98538292D01*
X247078410Y-98319336D01*
X247437462Y-98024669D01*
X247732129Y-97665617D01*
X247951085Y-97255978D01*
X248085918Y-96811493D01*
X248131446Y-96349244D01*
X248085918Y-95886995D01*
X247951085Y-95442510D01*
X247756916Y-95079244D01*
X247951085Y-94715978D01*
X248085918Y-94271493D01*
X248131446Y-93809244D01*
X248085918Y-93346995D01*
X247981373Y-93002356D01*
X248085100Y-92946913D01*
X248390858Y-92695984D01*
X248453740Y-92619362D01*
X249200118Y-91872984D01*
X249276740Y-91810102D01*
X249417000Y-91639194D01*
X249417000Y-122433800D01*
X249040603Y-122182300D01*
X248256597Y-121857554D01*
X247424301Y-121692000D01*
X246575699Y-121692000D01*
X245743403Y-121857554D01*
X244959397Y-122182300D01*
X244253810Y-122653758D01*
X243653758Y-123253810D01*
X243182300Y-123959397D01*
X242857554Y-124743403D01*
X242692000Y-125575699D01*
X242692000Y-126424301D01*
X242857554Y-127256597D01*
X243182300Y-128040603D01*
X243433800Y-128417000D01*
X191566200Y-128417000D01*
X191817700Y-128040603D01*
X192142446Y-127256597D01*
X192308000Y-126424301D01*
X192308000Y-125575699D01*
X192142446Y-124743403D01*
X191817700Y-123959397D01*
X191346242Y-123253810D01*
X190746190Y-122653758D01*
X190040603Y-122182300D01*
X189256597Y-121857554D01*
X188424301Y-121692000D01*
X187575699Y-121692000D01*
X186743403Y-121857554D01*
X185959397Y-122182300D01*
X185253810Y-122653758D01*
X184653758Y-123253810D01*
X184182300Y-123959397D01*
X183857554Y-124743403D01*
X183692000Y-125575699D01*
X183692000Y-126424301D01*
X183857554Y-127256597D01*
X184182300Y-128040603D01*
X184433800Y-128417000D01*
X174695555Y-128417000D01*
X174699467Y-128411145D01*
X174737404Y-128319556D01*
X174784126Y-128232146D01*
X174812897Y-128137300D01*
X174850834Y-128045712D01*
X174870174Y-127948482D01*
X174898945Y-127853637D01*
X174908660Y-127755001D01*
X174928000Y-127657771D01*
X174928000Y-127558638D01*
X174937715Y-127460000D01*
X174928000Y-127361362D01*
X174928000Y-127262229D01*
X174908660Y-127164999D01*
X174898945Y-127066363D01*
X174870174Y-126971518D01*
X174850834Y-126874288D01*
X174812897Y-126782700D01*
X174784126Y-126687854D01*
X174737404Y-126600444D01*
X174699467Y-126508855D01*
X174644390Y-126426426D01*
X174597669Y-126339018D01*
X174534793Y-126262403D01*
X174479716Y-126179975D01*
X174409618Y-126109877D01*
X174346740Y-126033260D01*
X174270123Y-125970382D01*
X174200025Y-125900284D01*
X174117597Y-125845207D01*
X174040982Y-125782331D01*
X173953574Y-125735610D01*
X173871145Y-125680533D01*
X173779556Y-125642596D01*
X173692146Y-125595874D01*
X173658819Y-125585764D01*
X173665296Y-125520001D01*
X173665296Y-124869999D01*
X173631376Y-124525607D01*
X173530921Y-124194450D01*
X173458000Y-124058025D01*
X173458000Y-122709101D01*
X173583942Y-122520616D01*
X173765462Y-122082388D01*
X173858000Y-121617167D01*
X173858000Y-121142833D01*
X173765462Y-120677612D01*
X173583942Y-120239384D01*
X173320416Y-119844990D01*
X172985010Y-119509584D01*
X172590616Y-119246058D01*
X172152388Y-119064538D01*
X171687167Y-118972000D01*
X171212833Y-118972000D01*
X170747612Y-119064538D01*
X170309384Y-119246058D01*
X169914990Y-119509584D01*
X169579584Y-119844990D01*
X169316058Y-120239384D01*
X169134538Y-120677612D01*
X169042000Y-121142833D01*
X169042000Y-121617167D01*
X169134538Y-122082388D01*
X169316058Y-122520616D01*
X169442001Y-122709102D01*
X169442000Y-124058024D01*
X169369079Y-124194450D01*
X169268624Y-124525607D01*
X169234704Y-124869999D01*
X169234704Y-125520001D01*
X169268624Y-125864393D01*
X169369079Y-126195550D01*
X169382148Y-126220000D01*
X169369079Y-126244450D01*
X169268624Y-126575607D01*
X169234704Y-126919999D01*
X169234704Y-127570001D01*
X169268624Y-127914393D01*
X169369079Y-128245550D01*
X169460721Y-128417000D01*
X165165235Y-128417000D01*
X165168703Y-128405566D01*
X165185790Y-128384746D01*
X165348921Y-128079550D01*
X165449376Y-127748393D01*
X165483296Y-127404001D01*
X165483296Y-126753999D01*
X165449376Y-126409607D01*
X165348921Y-126078450D01*
X165335852Y-126054000D01*
X165348921Y-126029550D01*
X165449376Y-125698393D01*
X165483296Y-125354001D01*
X165483296Y-124703999D01*
X165449376Y-124359607D01*
X165348921Y-124028450D01*
X165185790Y-123723254D01*
X164966253Y-123455747D01*
X164698746Y-123236210D01*
X164393550Y-123073079D01*
X164062393Y-122972624D01*
X163766905Y-122943521D01*
X163795416Y-122915010D01*
X164058942Y-122520616D01*
X164240462Y-122082388D01*
X164333000Y-121617167D01*
X164333000Y-121142833D01*
X164240462Y-120677612D01*
X164058942Y-120239384D01*
X163795416Y-119844990D01*
X163460010Y-119509584D01*
X163065616Y-119246058D01*
X162627388Y-119064538D01*
X162162167Y-118972000D01*
X161687833Y-118972000D01*
X161222612Y-119064538D01*
X160784384Y-119246058D01*
X160389990Y-119509584D01*
X160054584Y-119844990D01*
X159791058Y-120239384D01*
X159609538Y-120677612D01*
X159565313Y-120899946D01*
X157599877Y-122865383D01*
X157523261Y-122928260D01*
X157272331Y-123234018D01*
X157085874Y-123582854D01*
X157041116Y-123730402D01*
X157032210Y-123741254D01*
X156869079Y-124046450D01*
X156768624Y-124377607D01*
X156734704Y-124721999D01*
X156734704Y-125372001D01*
X156768624Y-125716393D01*
X156869079Y-126047550D01*
X156882148Y-126072000D01*
X156869079Y-126096450D01*
X156768624Y-126427607D01*
X156734704Y-126771999D01*
X156734704Y-126812010D01*
X154044935Y-126812010D01*
X154098253Y-126768253D01*
X154317790Y-126500746D01*
X154480921Y-126195550D01*
X154581376Y-125864393D01*
X154615296Y-125520001D01*
X154615296Y-124869999D01*
X154581376Y-124525607D01*
X154480921Y-124194450D01*
X154408000Y-124058025D01*
X154408000Y-122709101D01*
X154533942Y-122520616D01*
X154715462Y-122082388D01*
X154808000Y-121617167D01*
X154808000Y-121142833D01*
X154715462Y-120677612D01*
X154625207Y-120459716D01*
X154699951Y-120319879D01*
X154786180Y-120035620D01*
X154815296Y-119740000D01*
X154815296Y-117940000D01*
X154786180Y-117644380D01*
X154699951Y-117360121D01*
X154559923Y-117098147D01*
X154371476Y-116868524D01*
X154141853Y-116680077D01*
X153879879Y-116540049D01*
X153595620Y-116453820D01*
X153300000Y-116424704D01*
X151975751Y-116424704D01*
X151975751Y-109017244D01*
X245885245Y-109017244D01*
X246253691Y-108980955D01*
X246604495Y-108874540D01*
X246612037Y-108874540D01*
X246907657Y-108845424D01*
X247191916Y-108759195D01*
X247453890Y-108619167D01*
X247683513Y-108430720D01*
X247871960Y-108201097D01*
X248011988Y-107939123D01*
X248098217Y-107654864D01*
X248127333Y-107359244D01*
X248127333Y-107351702D01*
X248233748Y-107000898D01*
X248282172Y-106509244D01*
X248233748Y-106017590D01*
X248127333Y-105666786D01*
X248127333Y-105659244D01*
X248098217Y-105363624D01*
X248011988Y-105079365D01*
X247871960Y-104817391D01*
X247683513Y-104587768D01*
X247453890Y-104399321D01*
X247191916Y-104259293D01*
X246907657Y-104173064D01*
X246612037Y-104143948D01*
X246604495Y-104143948D01*
X246253691Y-104037533D01*
X245885245Y-104001244D01*
X143587233Y-104001244D01*
X143641711Y-103821654D01*
X143678000Y-103453208D01*
X143690135Y-103330000D01*
X143688681Y-103315241D01*
X143678000Y-103206791D01*
X143678000Y-100913208D01*
X143690135Y-100790000D01*
X143641711Y-100298346D01*
X143498301Y-99825586D01*
X143265416Y-99389888D01*
X142952005Y-99007995D01*
X142570112Y-98694584D01*
X142134414Y-98461699D01*
X141661654Y-98318289D01*
X141293208Y-98282000D01*
X141170000Y-98269865D01*
X141138000Y-98273017D01*
X141138000Y-97358334D01*
X141150135Y-97235126D01*
X141101711Y-96743471D01*
X140958301Y-96270712D01*
X140864274Y-96094800D01*
X140725416Y-95835014D01*
X140412005Y-95453121D01*
X140316301Y-95374579D01*
X137064670Y-92122949D01*
X136986123Y-92027239D01*
X136604230Y-91713828D01*
X136341490Y-91573391D01*
X136371446Y-91269244D01*
X136325918Y-90806995D01*
X136191085Y-90362510D01*
X135996916Y-89999244D01*
X136191085Y-89635978D01*
X136325918Y-89191493D01*
X136371446Y-88729244D01*
X145058342Y-88729244D01*
X145103870Y-89191493D01*
X145238703Y-89635978D01*
X145432872Y-89999244D01*
X145238703Y-90362510D01*
X145103870Y-90806995D01*
X145058342Y-91269244D01*
X145103870Y-91731493D01*
X145238703Y-92175978D01*
X145432872Y-92539244D01*
X145238703Y-92902510D01*
X145103870Y-93346995D01*
X145058342Y-93809244D01*
X145103870Y-94271493D01*
X145238703Y-94715978D01*
X145432872Y-95079244D01*
X145238703Y-95442510D01*
X145103870Y-95886995D01*
X145058342Y-96349244D01*
X145103870Y-96811493D01*
X145238703Y-97255978D01*
X145457659Y-97665617D01*
X145752326Y-98024669D01*
X146111378Y-98319336D01*
X146521017Y-98538292D01*
X146965502Y-98673125D01*
X147311915Y-98707244D01*
X147543587Y-98707244D01*
X147890000Y-98673125D01*
X148334485Y-98538292D01*
X148697751Y-98344123D01*
X149061017Y-98538292D01*
X149505502Y-98673125D01*
X149851915Y-98707244D01*
X150083587Y-98707244D01*
X150430000Y-98673125D01*
X150874485Y-98538292D01*
X151284124Y-98319336D01*
X151643176Y-98024669D01*
X151937843Y-97665617D01*
X152156799Y-97255978D01*
X152291632Y-96811493D01*
X152337160Y-96349244D01*
X152291632Y-95886995D01*
X152156799Y-95442510D01*
X151962630Y-95079244D01*
X152156799Y-94715978D01*
X152291632Y-94271493D01*
X152337160Y-93809244D01*
X152291632Y-93346995D01*
X152156799Y-92902510D01*
X151962630Y-92539244D01*
X152156799Y-92175978D01*
X152291632Y-91731493D01*
X152337160Y-91269244D01*
X152291632Y-90806995D01*
X152156799Y-90362510D01*
X151962630Y-89999244D01*
X152156799Y-89635978D01*
X152291632Y-89191493D01*
X152337160Y-88729244D01*
X161024056Y-88729244D01*
X161069584Y-89191493D01*
X161204417Y-89635978D01*
X161398586Y-89999244D01*
X161204417Y-90362510D01*
X161069584Y-90806995D01*
X161024056Y-91269244D01*
X161069584Y-91731493D01*
X161204417Y-92175978D01*
X161398586Y-92539244D01*
X161204417Y-92902510D01*
X161069584Y-93346995D01*
X161024056Y-93809244D01*
X161069584Y-94271493D01*
X161204417Y-94715978D01*
X161398586Y-95079244D01*
X161204417Y-95442510D01*
X161069584Y-95886995D01*
X161024056Y-96349244D01*
X161069584Y-96811493D01*
X161204417Y-97255978D01*
X161423373Y-97665617D01*
X161718040Y-98024669D01*
X162077092Y-98319336D01*
X162486731Y-98538292D01*
X162931216Y-98673125D01*
X163277629Y-98707244D01*
X163509301Y-98707244D01*
X163855714Y-98673125D01*
X164300199Y-98538292D01*
X164663465Y-98344123D01*
X165026731Y-98538292D01*
X165471216Y-98673125D01*
X165817629Y-98707244D01*
X166049301Y-98707244D01*
X166395714Y-98673125D01*
X166840199Y-98538292D01*
X167249838Y-98319336D01*
X167608890Y-98024669D01*
X167903557Y-97665617D01*
X168122513Y-97255978D01*
X168257346Y-96811493D01*
X168302874Y-96349244D01*
X168257346Y-95886995D01*
X168122513Y-95442510D01*
X167928344Y-95079244D01*
X168122513Y-94715978D01*
X168257346Y-94271493D01*
X168302874Y-93809244D01*
X168257346Y-93346995D01*
X168122513Y-92902510D01*
X167928344Y-92539244D01*
X168122513Y-92175978D01*
X168257346Y-91731493D01*
X168302874Y-91269244D01*
X168257346Y-90806995D01*
X168122513Y-90362510D01*
X167928344Y-89999244D01*
X168122513Y-89635978D01*
X168257346Y-89191493D01*
X168302874Y-88729244D01*
X176989770Y-88729244D01*
X177035298Y-89191493D01*
X177170131Y-89635978D01*
X177364300Y-89999244D01*
X177170131Y-90362510D01*
X177035298Y-90806995D01*
X176989770Y-91269244D01*
X177035298Y-91731493D01*
X177170131Y-92175978D01*
X177364300Y-92539244D01*
X177170131Y-92902510D01*
X177035298Y-93346995D01*
X176989770Y-93809244D01*
X177035298Y-94271493D01*
X177170131Y-94715978D01*
X177364300Y-95079244D01*
X177170131Y-95442510D01*
X177035298Y-95886995D01*
X176989770Y-96349244D01*
X177035298Y-96811493D01*
X177170131Y-97255978D01*
X177389087Y-97665617D01*
X177683754Y-98024669D01*
X178042806Y-98319336D01*
X178452445Y-98538292D01*
X178896930Y-98673125D01*
X179243343Y-98707244D01*
X179475015Y-98707244D01*
X179821428Y-98673125D01*
X180265913Y-98538292D01*
X180629179Y-98344123D01*
X180992445Y-98538292D01*
X181436930Y-98673125D01*
X181783343Y-98707244D01*
X182015015Y-98707244D01*
X182361428Y-98673125D01*
X182805913Y-98538292D01*
X183215552Y-98319336D01*
X183574604Y-98024669D01*
X183869271Y-97665617D01*
X184088227Y-97255978D01*
X184223060Y-96811493D01*
X184268588Y-96349244D01*
X184223060Y-95886995D01*
X184088227Y-95442510D01*
X183894058Y-95079244D01*
X184088227Y-94715978D01*
X184223060Y-94271493D01*
X184268588Y-93809244D01*
X184223060Y-93346995D01*
X184088227Y-92902510D01*
X183894058Y-92539244D01*
X184088227Y-92175978D01*
X184223060Y-91731493D01*
X184268588Y-91269244D01*
X184223060Y-90806995D01*
X184088227Y-90362510D01*
X183894058Y-89999244D01*
X184088227Y-89635978D01*
X184223060Y-89191493D01*
X184268588Y-88729244D01*
X192955484Y-88729244D01*
X193001012Y-89191493D01*
X193135845Y-89635978D01*
X193330014Y-89999244D01*
X193135845Y-90362510D01*
X193001012Y-90806995D01*
X192955484Y-91269244D01*
X193001012Y-91731493D01*
X193135845Y-92175978D01*
X193330014Y-92539244D01*
X193135845Y-92902510D01*
X193001012Y-93346995D01*
X192955484Y-93809244D01*
X193001012Y-94271493D01*
X193135845Y-94715978D01*
X193330014Y-95079244D01*
X193135845Y-95442510D01*
X193001012Y-95886995D01*
X192955484Y-96349244D01*
X193001012Y-96811493D01*
X193135845Y-97255978D01*
X193354801Y-97665617D01*
X193649468Y-98024669D01*
X194008520Y-98319336D01*
X194418159Y-98538292D01*
X194862644Y-98673125D01*
X195209057Y-98707244D01*
X195440729Y-98707244D01*
X195787142Y-98673125D01*
X196231627Y-98538292D01*
X196594893Y-98344123D01*
X196958159Y-98538292D01*
X197402644Y-98673125D01*
X197749057Y-98707244D01*
X197980729Y-98707244D01*
X198327142Y-98673125D01*
X198771627Y-98538292D01*
X199181266Y-98319336D01*
X199540318Y-98024669D01*
X199834985Y-97665617D01*
X200053941Y-97255978D01*
X200188774Y-96811493D01*
X200234302Y-96349244D01*
X200188774Y-95886995D01*
X200053941Y-95442510D01*
X199859772Y-95079244D01*
X200053941Y-94715978D01*
X200188774Y-94271493D01*
X200234302Y-93809244D01*
X200188774Y-93346995D01*
X200053941Y-92902510D01*
X199859772Y-92539244D01*
X200053941Y-92175978D01*
X200188774Y-91731493D01*
X200234302Y-91269244D01*
X200188774Y-90806995D01*
X200053941Y-90362510D01*
X199859772Y-89999244D01*
X200053941Y-89635978D01*
X200188774Y-89191493D01*
X200234302Y-88729244D01*
X208921198Y-88729244D01*
X208966726Y-89191493D01*
X209101559Y-89635978D01*
X209295728Y-89999244D01*
X209101559Y-90362510D01*
X208966726Y-90806995D01*
X208921198Y-91269244D01*
X208966726Y-91731493D01*
X209101559Y-92175978D01*
X209295728Y-92539244D01*
X209101559Y-92902510D01*
X208966726Y-93346995D01*
X208921198Y-93809244D01*
X208966726Y-94271493D01*
X209101559Y-94715978D01*
X209295728Y-95079244D01*
X209101559Y-95442510D01*
X208966726Y-95886995D01*
X208921198Y-96349244D01*
X208966726Y-96811493D01*
X209101559Y-97255978D01*
X209320515Y-97665617D01*
X209615182Y-98024669D01*
X209974234Y-98319336D01*
X210383873Y-98538292D01*
X210828358Y-98673125D01*
X211174771Y-98707244D01*
X211406443Y-98707244D01*
X211752856Y-98673125D01*
X212197341Y-98538292D01*
X212560607Y-98344123D01*
X212923873Y-98538292D01*
X213368358Y-98673125D01*
X213714771Y-98707244D01*
X213946443Y-98707244D01*
X214292856Y-98673125D01*
X214737341Y-98538292D01*
X215146980Y-98319336D01*
X215506032Y-98024669D01*
X215800699Y-97665617D01*
X216019655Y-97255978D01*
X216154488Y-96811493D01*
X216200016Y-96349244D01*
X216154488Y-95886995D01*
X216019655Y-95442510D01*
X215825486Y-95079244D01*
X216019655Y-94715978D01*
X216154488Y-94271493D01*
X216200016Y-93809244D01*
X216154488Y-93346995D01*
X216019655Y-92902510D01*
X215825486Y-92539244D01*
X216019655Y-92175978D01*
X216154488Y-91731493D01*
X216200016Y-91269244D01*
X216154488Y-90806995D01*
X216019655Y-90362510D01*
X215825486Y-89999244D01*
X216019655Y-89635978D01*
X216154488Y-89191493D01*
X216200016Y-88729244D01*
X224886912Y-88729244D01*
X224932440Y-89191493D01*
X225067273Y-89635978D01*
X225261442Y-89999244D01*
X225067273Y-90362510D01*
X224932440Y-90806995D01*
X224886912Y-91269244D01*
X224932440Y-91731493D01*
X225067273Y-92175978D01*
X225261442Y-92539244D01*
X225067273Y-92902510D01*
X224932440Y-93346995D01*
X224886912Y-93809244D01*
X224932440Y-94271493D01*
X225067273Y-94715978D01*
X225261442Y-95079244D01*
X225067273Y-95442510D01*
X224932440Y-95886995D01*
X224886912Y-96349244D01*
X224932440Y-96811493D01*
X225067273Y-97255978D01*
X225286229Y-97665617D01*
X225580896Y-98024669D01*
X225939948Y-98319336D01*
X226349587Y-98538292D01*
X226794072Y-98673125D01*
X227140485Y-98707244D01*
X227372157Y-98707244D01*
X227718570Y-98673125D01*
X228163055Y-98538292D01*
X228526321Y-98344123D01*
X228889587Y-98538292D01*
X229334072Y-98673125D01*
X229680485Y-98707244D01*
X229912157Y-98707244D01*
X230258570Y-98673125D01*
X230703055Y-98538292D01*
X231112694Y-98319336D01*
X231471746Y-98024669D01*
X231766413Y-97665617D01*
X231985369Y-97255978D01*
X232120202Y-96811493D01*
X232165730Y-96349244D01*
X232120202Y-95886995D01*
X231985369Y-95442510D01*
X231791200Y-95079244D01*
X231985369Y-94715978D01*
X232120202Y-94271493D01*
X232165730Y-93809244D01*
X232120202Y-93346995D01*
X231985369Y-92902510D01*
X231791200Y-92539244D01*
X231985369Y-92175978D01*
X232120202Y-91731493D01*
X232165730Y-91269244D01*
X232120202Y-90806995D01*
X231985369Y-90362510D01*
X231791200Y-89999244D01*
X231985369Y-89635978D01*
X232120202Y-89191493D01*
X232165730Y-88729244D01*
X232120202Y-88266995D01*
X231985369Y-87822510D01*
X231766413Y-87412871D01*
X231471746Y-87053819D01*
X231112694Y-86759152D01*
X230703055Y-86540196D01*
X230258570Y-86405363D01*
X229912157Y-86371244D01*
X229680485Y-86371244D01*
X229334072Y-86405363D01*
X228889587Y-86540196D01*
X228526321Y-86734365D01*
X228163055Y-86540196D01*
X227718570Y-86405363D01*
X227372157Y-86371244D01*
X227140485Y-86371244D01*
X226794072Y-86405363D01*
X226349587Y-86540196D01*
X225939948Y-86759152D01*
X225580896Y-87053819D01*
X225286229Y-87412871D01*
X225067273Y-87822510D01*
X224932440Y-88266995D01*
X224886912Y-88729244D01*
X216200016Y-88729244D01*
X216154488Y-88266995D01*
X216019655Y-87822510D01*
X215800699Y-87412871D01*
X215506032Y-87053819D01*
X215146980Y-86759152D01*
X214737341Y-86540196D01*
X214292856Y-86405363D01*
X213946443Y-86371244D01*
X213714771Y-86371244D01*
X213368358Y-86405363D01*
X212923873Y-86540196D01*
X212560607Y-86734365D01*
X212197341Y-86540196D01*
X211752856Y-86405363D01*
X211406443Y-86371244D01*
X211174771Y-86371244D01*
X210828358Y-86405363D01*
X210383873Y-86540196D01*
X209974234Y-86759152D01*
X209615182Y-87053819D01*
X209320515Y-87412871D01*
X209101559Y-87822510D01*
X208966726Y-88266995D01*
X208921198Y-88729244D01*
X200234302Y-88729244D01*
X200188774Y-88266995D01*
X200053941Y-87822510D01*
X199834985Y-87412871D01*
X199540318Y-87053819D01*
X199181266Y-86759152D01*
X198771627Y-86540196D01*
X198327142Y-86405363D01*
X197980729Y-86371244D01*
X197749057Y-86371244D01*
X197402644Y-86405363D01*
X196958159Y-86540196D01*
X196594893Y-86734365D01*
X196231627Y-86540196D01*
X195787142Y-86405363D01*
X195440729Y-86371244D01*
X195209057Y-86371244D01*
X194862644Y-86405363D01*
X194418159Y-86540196D01*
X194008520Y-86759152D01*
X193649468Y-87053819D01*
X193354801Y-87412871D01*
X193135845Y-87822510D01*
X193001012Y-88266995D01*
X192955484Y-88729244D01*
X184268588Y-88729244D01*
X184223060Y-88266995D01*
X184088227Y-87822510D01*
X183869271Y-87412871D01*
X183574604Y-87053819D01*
X183215552Y-86759152D01*
X182805913Y-86540196D01*
X182361428Y-86405363D01*
X182015015Y-86371244D01*
X181783343Y-86371244D01*
X181436930Y-86405363D01*
X180992445Y-86540196D01*
X180629179Y-86734365D01*
X180265913Y-86540196D01*
X179821428Y-86405363D01*
X179475015Y-86371244D01*
X179243343Y-86371244D01*
X178896930Y-86405363D01*
X178452445Y-86540196D01*
X178042806Y-86759152D01*
X177683754Y-87053819D01*
X177389087Y-87412871D01*
X177170131Y-87822510D01*
X177035298Y-88266995D01*
X176989770Y-88729244D01*
X168302874Y-88729244D01*
X168257346Y-88266995D01*
X168122513Y-87822510D01*
X167903557Y-87412871D01*
X167608890Y-87053819D01*
X167249838Y-86759152D01*
X166840199Y-86540196D01*
X166395714Y-86405363D01*
X166049301Y-86371244D01*
X165817629Y-86371244D01*
X165471216Y-86405363D01*
X165026731Y-86540196D01*
X164663465Y-86734365D01*
X164300199Y-86540196D01*
X163855714Y-86405363D01*
X163509301Y-86371244D01*
X163277629Y-86371244D01*
X162931216Y-86405363D01*
X162486731Y-86540196D01*
X162077092Y-86759152D01*
X161718040Y-87053819D01*
X161423373Y-87412871D01*
X161204417Y-87822510D01*
X161069584Y-88266995D01*
X161024056Y-88729244D01*
X152337160Y-88729244D01*
X152291632Y-88266995D01*
X152156799Y-87822510D01*
X151937843Y-87412871D01*
X151643176Y-87053819D01*
X151284124Y-86759152D01*
X150874485Y-86540196D01*
X150430000Y-86405363D01*
X150083587Y-86371244D01*
X149851915Y-86371244D01*
X149505502Y-86405363D01*
X149061017Y-86540196D01*
X148697751Y-86734365D01*
X148334485Y-86540196D01*
X147890000Y-86405363D01*
X147543587Y-86371244D01*
X147311915Y-86371244D01*
X146965502Y-86405363D01*
X146521017Y-86540196D01*
X146111378Y-86759152D01*
X145752326Y-87053819D01*
X145457659Y-87412871D01*
X145238703Y-87822510D01*
X145103870Y-88266995D01*
X145058342Y-88729244D01*
X136371446Y-88729244D01*
X136325918Y-88266995D01*
X136191085Y-87822510D01*
X135972129Y-87412871D01*
X135677462Y-87053819D01*
X135318410Y-86759152D01*
X134908771Y-86540196D01*
X134464286Y-86405363D01*
X134117873Y-86371244D01*
X133886201Y-86371244D01*
X133539788Y-86405363D01*
X133095303Y-86540196D01*
X132732037Y-86734365D01*
X132368771Y-86540196D01*
X131924286Y-86405363D01*
X131577873Y-86371244D01*
X131346201Y-86371244D01*
X130999788Y-86405363D01*
X130555303Y-86540196D01*
X130145664Y-86759152D01*
X129786612Y-87053819D01*
X129491945Y-87412871D01*
X129272989Y-87822510D01*
X129138156Y-88266995D01*
X129092628Y-88729244D01*
X129138156Y-89191493D01*
X129272989Y-89635978D01*
X129467158Y-89999244D01*
X129272989Y-90362510D01*
X129138156Y-90806995D01*
X129092628Y-91269244D01*
X129138156Y-91731493D01*
X129272989Y-92175978D01*
X129467158Y-92539244D01*
X129272989Y-92902510D01*
X129138156Y-93346995D01*
X129092628Y-93809244D01*
X129138156Y-94271493D01*
X129272989Y-94715978D01*
X129467158Y-95079244D01*
X129272989Y-95442510D01*
X129138156Y-95886995D01*
X129092628Y-96349244D01*
X129138156Y-96811493D01*
X129272989Y-97255978D01*
X129491945Y-97665617D01*
X129786612Y-98024669D01*
X130145664Y-98319336D01*
X130555303Y-98538292D01*
X130999788Y-98673125D01*
X131346201Y-98707244D01*
X131577873Y-98707244D01*
X131924286Y-98673125D01*
X132368771Y-98538292D01*
X132732037Y-98344123D01*
X133095303Y-98538292D01*
X133539788Y-98673125D01*
X133886201Y-98707244D01*
X134117873Y-98707244D01*
X134464286Y-98673125D01*
X134908771Y-98538292D01*
X135318410Y-98319336D01*
X135677462Y-98024669D01*
X135765464Y-97917438D01*
X136122000Y-98273974D01*
X136122000Y-100666792D01*
X136109865Y-100790000D01*
X136122000Y-100913208D01*
X136122000Y-103206792D01*
X136109865Y-103330000D01*
X136158289Y-103821654D01*
X136212767Y-104001244D01*
X132442929Y-104001244D01*
X132423659Y-103990944D01*
X131950899Y-103847534D01*
X131616666Y-103814615D01*
X131583747Y-103480381D01*
X131440337Y-103007622D01*
X131382016Y-102898511D01*
X131207452Y-102571924D01*
X130894041Y-102190031D01*
X130798337Y-102111489D01*
X120818000Y-92131153D01*
X120818000Y-92023208D01*
X120830135Y-91900000D01*
X120781711Y-91408345D01*
X120638301Y-90935586D01*
X120615755Y-90893405D01*
X120405416Y-90499888D01*
X120092005Y-90117995D01*
X119996296Y-90039449D01*
X118817352Y-88860505D01*
X118738805Y-88764795D01*
X118356912Y-88451384D01*
X117921214Y-88218499D01*
X117448454Y-88075089D01*
X117080008Y-88038800D01*
X116956800Y-88026665D01*
X116833592Y-88038800D01*
X115690447Y-88038800D01*
X121153548Y-82575699D01*
X183692000Y-82575699D01*
X183692000Y-83424301D01*
X183857554Y-84256597D01*
X184182300Y-85040603D01*
X184653758Y-85746190D01*
X185253810Y-86346242D01*
X185959397Y-86817700D01*
X186743403Y-87142446D01*
X187575699Y-87308000D01*
X188424301Y-87308000D01*
X189256597Y-87142446D01*
X190040603Y-86817700D01*
X190746190Y-86346242D01*
X191346242Y-85746190D01*
X191817700Y-85040603D01*
X192142446Y-84256597D01*
X192308000Y-83424301D01*
X192308000Y-82575699D01*
X192142446Y-81743403D01*
X191817700Y-80959397D01*
X191346242Y-80253810D01*
X190746190Y-79653758D01*
X190040603Y-79182300D01*
X189256597Y-78857554D01*
X188424301Y-78692000D01*
X187575699Y-78692000D01*
X186743403Y-78857554D01*
X185959397Y-79182300D01*
X185253810Y-79653758D01*
X184653758Y-80253810D01*
X184182300Y-80959397D01*
X183857554Y-81743403D01*
X183692000Y-82575699D01*
X121153548Y-82575699D01*
X125192004Y-78537244D01*
X245842001Y-78537244D01*
X245842001Y-86371244D01*
X245842001Y-86371244D01*
G37*
X245842001Y-86371244D02*
X245646201Y-86371244D01*
X245299788Y-86405363D01*
X244855303Y-86540196D01*
X244492037Y-86734365D01*
X244128771Y-86540196D01*
X243684286Y-86405363D01*
X243337873Y-86371244D01*
X243106201Y-86371244D01*
X242759788Y-86405363D01*
X242315303Y-86540196D01*
X241905664Y-86759152D01*
X241546612Y-87053819D01*
X241251945Y-87412871D01*
X241032989Y-87822510D01*
X240898156Y-88266995D01*
X240852628Y-88729244D01*
X240898156Y-89191493D01*
X241032989Y-89635978D01*
X241227158Y-89999244D01*
X241032989Y-90362510D01*
X240898156Y-90806995D01*
X240852628Y-91269244D01*
X240898156Y-91731493D01*
X241032989Y-92175978D01*
X241227158Y-92539244D01*
X241032989Y-92902510D01*
X240898156Y-93346995D01*
X240852628Y-93809244D01*
X240898156Y-94271493D01*
X241032989Y-94715978D01*
X241227158Y-95079244D01*
X241032989Y-95442510D01*
X240898156Y-95886995D01*
X240852628Y-96349244D01*
X240898156Y-96811493D01*
X241032989Y-97255978D01*
X241251945Y-97665617D01*
X241546612Y-98024669D01*
X241905664Y-98319336D01*
X242315303Y-98538292D01*
X242759788Y-98673125D01*
X243106201Y-98707244D01*
X243337873Y-98707244D01*
X243684286Y-98673125D01*
X244128771Y-98538292D01*
X244492037Y-98344123D01*
X244855303Y-98538292D01*
X245299788Y-98673125D01*
X245646201Y-98707244D01*
X245877873Y-98707244D01*
X246224286Y-98673125D01*
X246668771Y-98538292D01*
X247078410Y-98319336D01*
X247437462Y-98024669D01*
X247732129Y-97665617D01*
X247951085Y-97255978D01*
X248085918Y-96811493D01*
X248131446Y-96349244D01*
X248085918Y-95886995D01*
X247951085Y-95442510D01*
X247756916Y-95079244D01*
X247951085Y-94715978D01*
X248085918Y-94271493D01*
X248131446Y-93809244D01*
X248085918Y-93346995D01*
X247981373Y-93002356D01*
X248085100Y-92946913D01*
X248390858Y-92695984D01*
X248453740Y-92619362D01*
X249200118Y-91872984D01*
X249276740Y-91810102D01*
X249417000Y-91639194D01*
X249417000Y-122433800D01*
X249040603Y-122182300D01*
X248256597Y-121857554D01*
X247424301Y-121692000D01*
X246575699Y-121692000D01*
X245743403Y-121857554D01*
X244959397Y-122182300D01*
X244253810Y-122653758D01*
X243653758Y-123253810D01*
X243182300Y-123959397D01*
X242857554Y-124743403D01*
X242692000Y-125575699D01*
X242692000Y-126424301D01*
X242857554Y-127256597D01*
X243182300Y-128040603D01*
X243433800Y-128417000D01*
X191566200Y-128417000D01*
X191817700Y-128040603D01*
X192142446Y-127256597D01*
X192308000Y-126424301D01*
X192308000Y-125575699D01*
X192142446Y-124743403D01*
X191817700Y-123959397D01*
X191346242Y-123253810D01*
X190746190Y-122653758D01*
X190040603Y-122182300D01*
X189256597Y-121857554D01*
X188424301Y-121692000D01*
X187575699Y-121692000D01*
X186743403Y-121857554D01*
X185959397Y-122182300D01*
X185253810Y-122653758D01*
X184653758Y-123253810D01*
X184182300Y-123959397D01*
X183857554Y-124743403D01*
X183692000Y-125575699D01*
X183692000Y-126424301D01*
X183857554Y-127256597D01*
X184182300Y-128040603D01*
X184433800Y-128417000D01*
X174695555Y-128417000D01*
X174699467Y-128411145D01*
X174737404Y-128319556D01*
X174784126Y-128232146D01*
X174812897Y-128137300D01*
X174850834Y-128045712D01*
X174870174Y-127948482D01*
X174898945Y-127853637D01*
X174908660Y-127755001D01*
X174928000Y-127657771D01*
X174928000Y-127558638D01*
X174937715Y-127460000D01*
X174928000Y-127361362D01*
X174928000Y-127262229D01*
X174908660Y-127164999D01*
X174898945Y-127066363D01*
X174870174Y-126971518D01*
X174850834Y-126874288D01*
X174812897Y-126782700D01*
X174784126Y-126687854D01*
X174737404Y-126600444D01*
X174699467Y-126508855D01*
X174644390Y-126426426D01*
X174597669Y-126339018D01*
X174534793Y-126262403D01*
X174479716Y-126179975D01*
X174409618Y-126109877D01*
X174346740Y-126033260D01*
X174270123Y-125970382D01*
X174200025Y-125900284D01*
X174117597Y-125845207D01*
X174040982Y-125782331D01*
X173953574Y-125735610D01*
X173871145Y-125680533D01*
X173779556Y-125642596D01*
X173692146Y-125595874D01*
X173658819Y-125585764D01*
X173665296Y-125520001D01*
X173665296Y-124869999D01*
X173631376Y-124525607D01*
X173530921Y-124194450D01*
X173458000Y-124058025D01*
X173458000Y-122709101D01*
X173583942Y-122520616D01*
X173765462Y-122082388D01*
X173858000Y-121617167D01*
X173858000Y-121142833D01*
X173765462Y-120677612D01*
X173583942Y-120239384D01*
X173320416Y-119844990D01*
X172985010Y-119509584D01*
X172590616Y-119246058D01*
X172152388Y-119064538D01*
X171687167Y-118972000D01*
X171212833Y-118972000D01*
X170747612Y-119064538D01*
X170309384Y-119246058D01*
X169914990Y-119509584D01*
X169579584Y-119844990D01*
X169316058Y-120239384D01*
X169134538Y-120677612D01*
X169042000Y-121142833D01*
X169042000Y-121617167D01*
X169134538Y-122082388D01*
X169316058Y-122520616D01*
X169442001Y-122709102D01*
X169442000Y-124058024D01*
X169369079Y-124194450D01*
X169268624Y-124525607D01*
X169234704Y-124869999D01*
X169234704Y-125520001D01*
X169268624Y-125864393D01*
X169369079Y-126195550D01*
X169382148Y-126220000D01*
X169369079Y-126244450D01*
X169268624Y-126575607D01*
X169234704Y-126919999D01*
X169234704Y-127570001D01*
X169268624Y-127914393D01*
X169369079Y-128245550D01*
X169460721Y-128417000D01*
X165165235Y-128417000D01*
X165168703Y-128405566D01*
X165185790Y-128384746D01*
X165348921Y-128079550D01*
X165449376Y-127748393D01*
X165483296Y-127404001D01*
X165483296Y-126753999D01*
X165449376Y-126409607D01*
X165348921Y-126078450D01*
X165335852Y-126054000D01*
X165348921Y-126029550D01*
X165449376Y-125698393D01*
X165483296Y-125354001D01*
X165483296Y-124703999D01*
X165449376Y-124359607D01*
X165348921Y-124028450D01*
X165185790Y-123723254D01*
X164966253Y-123455747D01*
X164698746Y-123236210D01*
X164393550Y-123073079D01*
X164062393Y-122972624D01*
X163766905Y-122943521D01*
X163795416Y-122915010D01*
X164058942Y-122520616D01*
X164240462Y-122082388D01*
X164333000Y-121617167D01*
X164333000Y-121142833D01*
X164240462Y-120677612D01*
X164058942Y-120239384D01*
X163795416Y-119844990D01*
X163460010Y-119509584D01*
X163065616Y-119246058D01*
X162627388Y-119064538D01*
X162162167Y-118972000D01*
X161687833Y-118972000D01*
X161222612Y-119064538D01*
X160784384Y-119246058D01*
X160389990Y-119509584D01*
X160054584Y-119844990D01*
X159791058Y-120239384D01*
X159609538Y-120677612D01*
X159565313Y-120899946D01*
X157599877Y-122865383D01*
X157523261Y-122928260D01*
X157272331Y-123234018D01*
X157085874Y-123582854D01*
X157041116Y-123730402D01*
X157032210Y-123741254D01*
X156869079Y-124046450D01*
X156768624Y-124377607D01*
X156734704Y-124721999D01*
X156734704Y-125372001D01*
X156768624Y-125716393D01*
X156869079Y-126047550D01*
X156882148Y-126072000D01*
X156869079Y-126096450D01*
X156768624Y-126427607D01*
X156734704Y-126771999D01*
X156734704Y-126812010D01*
X154044935Y-126812010D01*
X154098253Y-126768253D01*
X154317790Y-126500746D01*
X154480921Y-126195550D01*
X154581376Y-125864393D01*
X154615296Y-125520001D01*
X154615296Y-124869999D01*
X154581376Y-124525607D01*
X154480921Y-124194450D01*
X154408000Y-124058025D01*
X154408000Y-122709101D01*
X154533942Y-122520616D01*
X154715462Y-122082388D01*
X154808000Y-121617167D01*
X154808000Y-121142833D01*
X154715462Y-120677612D01*
X154625207Y-120459716D01*
X154699951Y-120319879D01*
X154786180Y-120035620D01*
X154815296Y-119740000D01*
X154815296Y-117940000D01*
X154786180Y-117644380D01*
X154699951Y-117360121D01*
X154559923Y-117098147D01*
X154371476Y-116868524D01*
X154141853Y-116680077D01*
X153879879Y-116540049D01*
X153595620Y-116453820D01*
X153300000Y-116424704D01*
X151975751Y-116424704D01*
X151975751Y-109017244D01*
X245885245Y-109017244D01*
X246253691Y-108980955D01*
X246604495Y-108874540D01*
X246612037Y-108874540D01*
X246907657Y-108845424D01*
X247191916Y-108759195D01*
X247453890Y-108619167D01*
X247683513Y-108430720D01*
X247871960Y-108201097D01*
X248011988Y-107939123D01*
X248098217Y-107654864D01*
X248127333Y-107359244D01*
X248127333Y-107351702D01*
X248233748Y-107000898D01*
X248282172Y-106509244D01*
X248233748Y-106017590D01*
X248127333Y-105666786D01*
X248127333Y-105659244D01*
X248098217Y-105363624D01*
X248011988Y-105079365D01*
X247871960Y-104817391D01*
X247683513Y-104587768D01*
X247453890Y-104399321D01*
X247191916Y-104259293D01*
X246907657Y-104173064D01*
X246612037Y-104143948D01*
X246604495Y-104143948D01*
X246253691Y-104037533D01*
X245885245Y-104001244D01*
X143587233Y-104001244D01*
X143641711Y-103821654D01*
X143678000Y-103453208D01*
X143690135Y-103330000D01*
X143688681Y-103315241D01*
X143678000Y-103206791D01*
X143678000Y-100913208D01*
X143690135Y-100790000D01*
X143641711Y-100298346D01*
X143498301Y-99825586D01*
X143265416Y-99389888D01*
X142952005Y-99007995D01*
X142570112Y-98694584D01*
X142134414Y-98461699D01*
X141661654Y-98318289D01*
X141293208Y-98282000D01*
X141170000Y-98269865D01*
X141138000Y-98273017D01*
X141138000Y-97358334D01*
X141150135Y-97235126D01*
X141101711Y-96743471D01*
X140958301Y-96270712D01*
X140864274Y-96094800D01*
X140725416Y-95835014D01*
X140412005Y-95453121D01*
X140316301Y-95374579D01*
X137064670Y-92122949D01*
X136986123Y-92027239D01*
X136604230Y-91713828D01*
X136341490Y-91573391D01*
X136371446Y-91269244D01*
X136325918Y-90806995D01*
X136191085Y-90362510D01*
X135996916Y-89999244D01*
X136191085Y-89635978D01*
X136325918Y-89191493D01*
X136371446Y-88729244D01*
X145058342Y-88729244D01*
X145103870Y-89191493D01*
X145238703Y-89635978D01*
X145432872Y-89999244D01*
X145238703Y-90362510D01*
X145103870Y-90806995D01*
X145058342Y-91269244D01*
X145103870Y-91731493D01*
X145238703Y-92175978D01*
X145432872Y-92539244D01*
X145238703Y-92902510D01*
X145103870Y-93346995D01*
X145058342Y-93809244D01*
X145103870Y-94271493D01*
X145238703Y-94715978D01*
X145432872Y-95079244D01*
X145238703Y-95442510D01*
X145103870Y-95886995D01*
X145058342Y-96349244D01*
X145103870Y-96811493D01*
X145238703Y-97255978D01*
X145457659Y-97665617D01*
X145752326Y-98024669D01*
X146111378Y-98319336D01*
X146521017Y-98538292D01*
X146965502Y-98673125D01*
X147311915Y-98707244D01*
X147543587Y-98707244D01*
X147890000Y-98673125D01*
X148334485Y-98538292D01*
X148697751Y-98344123D01*
X149061017Y-98538292D01*
X149505502Y-98673125D01*
X149851915Y-98707244D01*
X150083587Y-98707244D01*
X150430000Y-98673125D01*
X150874485Y-98538292D01*
X151284124Y-98319336D01*
X151643176Y-98024669D01*
X151937843Y-97665617D01*
X152156799Y-97255978D01*
X152291632Y-96811493D01*
X152337160Y-96349244D01*
X152291632Y-95886995D01*
X152156799Y-95442510D01*
X151962630Y-95079244D01*
X152156799Y-94715978D01*
X152291632Y-94271493D01*
X152337160Y-93809244D01*
X152291632Y-93346995D01*
X152156799Y-92902510D01*
X151962630Y-92539244D01*
X152156799Y-92175978D01*
X152291632Y-91731493D01*
X152337160Y-91269244D01*
X152291632Y-90806995D01*
X152156799Y-90362510D01*
X151962630Y-89999244D01*
X152156799Y-89635978D01*
X152291632Y-89191493D01*
X152337160Y-88729244D01*
X161024056Y-88729244D01*
X161069584Y-89191493D01*
X161204417Y-89635978D01*
X161398586Y-89999244D01*
X161204417Y-90362510D01*
X161069584Y-90806995D01*
X161024056Y-91269244D01*
X161069584Y-91731493D01*
X161204417Y-92175978D01*
X161398586Y-92539244D01*
X161204417Y-92902510D01*
X161069584Y-93346995D01*
X161024056Y-93809244D01*
X161069584Y-94271493D01*
X161204417Y-94715978D01*
X161398586Y-95079244D01*
X161204417Y-95442510D01*
X161069584Y-95886995D01*
X161024056Y-96349244D01*
X161069584Y-96811493D01*
X161204417Y-97255978D01*
X161423373Y-97665617D01*
X161718040Y-98024669D01*
X162077092Y-98319336D01*
X162486731Y-98538292D01*
X162931216Y-98673125D01*
X163277629Y-98707244D01*
X163509301Y-98707244D01*
X163855714Y-98673125D01*
X164300199Y-98538292D01*
X164663465Y-98344123D01*
X165026731Y-98538292D01*
X165471216Y-98673125D01*
X165817629Y-98707244D01*
X166049301Y-98707244D01*
X166395714Y-98673125D01*
X166840199Y-98538292D01*
X167249838Y-98319336D01*
X167608890Y-98024669D01*
X167903557Y-97665617D01*
X168122513Y-97255978D01*
X168257346Y-96811493D01*
X168302874Y-96349244D01*
X168257346Y-95886995D01*
X168122513Y-95442510D01*
X167928344Y-95079244D01*
X168122513Y-94715978D01*
X168257346Y-94271493D01*
X168302874Y-93809244D01*
X168257346Y-93346995D01*
X168122513Y-92902510D01*
X167928344Y-92539244D01*
X168122513Y-92175978D01*
X168257346Y-91731493D01*
X168302874Y-91269244D01*
X168257346Y-90806995D01*
X168122513Y-90362510D01*
X167928344Y-89999244D01*
X168122513Y-89635978D01*
X168257346Y-89191493D01*
X168302874Y-88729244D01*
X176989770Y-88729244D01*
X177035298Y-89191493D01*
X177170131Y-89635978D01*
X177364300Y-89999244D01*
X177170131Y-90362510D01*
X177035298Y-90806995D01*
X176989770Y-91269244D01*
X177035298Y-91731493D01*
X177170131Y-92175978D01*
X177364300Y-92539244D01*
X177170131Y-92902510D01*
X177035298Y-93346995D01*
X176989770Y-93809244D01*
X177035298Y-94271493D01*
X177170131Y-94715978D01*
X177364300Y-95079244D01*
X177170131Y-95442510D01*
X177035298Y-95886995D01*
X176989770Y-96349244D01*
X177035298Y-96811493D01*
X177170131Y-97255978D01*
X177389087Y-97665617D01*
X177683754Y-98024669D01*
X178042806Y-98319336D01*
X178452445Y-98538292D01*
X178896930Y-98673125D01*
X179243343Y-98707244D01*
X179475015Y-98707244D01*
X179821428Y-98673125D01*
X180265913Y-98538292D01*
X180629179Y-98344123D01*
X180992445Y-98538292D01*
X181436930Y-98673125D01*
X181783343Y-98707244D01*
X182015015Y-98707244D01*
X182361428Y-98673125D01*
X182805913Y-98538292D01*
X183215552Y-98319336D01*
X183574604Y-98024669D01*
X183869271Y-97665617D01*
X184088227Y-97255978D01*
X184223060Y-96811493D01*
X184268588Y-96349244D01*
X184223060Y-95886995D01*
X184088227Y-95442510D01*
X183894058Y-95079244D01*
X184088227Y-94715978D01*
X184223060Y-94271493D01*
X184268588Y-93809244D01*
X184223060Y-93346995D01*
X184088227Y-92902510D01*
X183894058Y-92539244D01*
X184088227Y-92175978D01*
X184223060Y-91731493D01*
X184268588Y-91269244D01*
X184223060Y-90806995D01*
X184088227Y-90362510D01*
X183894058Y-89999244D01*
X184088227Y-89635978D01*
X184223060Y-89191493D01*
X184268588Y-88729244D01*
X192955484Y-88729244D01*
X193001012Y-89191493D01*
X193135845Y-89635978D01*
X193330014Y-89999244D01*
X193135845Y-90362510D01*
X193001012Y-90806995D01*
X192955484Y-91269244D01*
X193001012Y-91731493D01*
X193135845Y-92175978D01*
X193330014Y-92539244D01*
X193135845Y-92902510D01*
X193001012Y-93346995D01*
X192955484Y-93809244D01*
X193001012Y-94271493D01*
X193135845Y-94715978D01*
X193330014Y-95079244D01*
X193135845Y-95442510D01*
X193001012Y-95886995D01*
X192955484Y-96349244D01*
X193001012Y-96811493D01*
X193135845Y-97255978D01*
X193354801Y-97665617D01*
X193649468Y-98024669D01*
X194008520Y-98319336D01*
X194418159Y-98538292D01*
X194862644Y-98673125D01*
X195209057Y-98707244D01*
X195440729Y-98707244D01*
X195787142Y-98673125D01*
X196231627Y-98538292D01*
X196594893Y-98344123D01*
X196958159Y-98538292D01*
X197402644Y-98673125D01*
X197749057Y-98707244D01*
X197980729Y-98707244D01*
X198327142Y-98673125D01*
X198771627Y-98538292D01*
X199181266Y-98319336D01*
X199540318Y-98024669D01*
X199834985Y-97665617D01*
X200053941Y-97255978D01*
X200188774Y-96811493D01*
X200234302Y-96349244D01*
X200188774Y-95886995D01*
X200053941Y-95442510D01*
X199859772Y-95079244D01*
X200053941Y-94715978D01*
X200188774Y-94271493D01*
X200234302Y-93809244D01*
X200188774Y-93346995D01*
X200053941Y-92902510D01*
X199859772Y-92539244D01*
X200053941Y-92175978D01*
X200188774Y-91731493D01*
X200234302Y-91269244D01*
X200188774Y-90806995D01*
X200053941Y-90362510D01*
X199859772Y-89999244D01*
X200053941Y-89635978D01*
X200188774Y-89191493D01*
X200234302Y-88729244D01*
X208921198Y-88729244D01*
X208966726Y-89191493D01*
X209101559Y-89635978D01*
X209295728Y-89999244D01*
X209101559Y-90362510D01*
X208966726Y-90806995D01*
X208921198Y-91269244D01*
X208966726Y-91731493D01*
X209101559Y-92175978D01*
X209295728Y-92539244D01*
X209101559Y-92902510D01*
X208966726Y-93346995D01*
X208921198Y-93809244D01*
X208966726Y-94271493D01*
X209101559Y-94715978D01*
X209295728Y-95079244D01*
X209101559Y-95442510D01*
X208966726Y-95886995D01*
X208921198Y-96349244D01*
X208966726Y-96811493D01*
X209101559Y-97255978D01*
X209320515Y-97665617D01*
X209615182Y-98024669D01*
X209974234Y-98319336D01*
X210383873Y-98538292D01*
X210828358Y-98673125D01*
X211174771Y-98707244D01*
X211406443Y-98707244D01*
X211752856Y-98673125D01*
X212197341Y-98538292D01*
X212560607Y-98344123D01*
X212923873Y-98538292D01*
X213368358Y-98673125D01*
X213714771Y-98707244D01*
X213946443Y-98707244D01*
X214292856Y-98673125D01*
X214737341Y-98538292D01*
X215146980Y-98319336D01*
X215506032Y-98024669D01*
X215800699Y-97665617D01*
X216019655Y-97255978D01*
X216154488Y-96811493D01*
X216200016Y-96349244D01*
X216154488Y-95886995D01*
X216019655Y-95442510D01*
X215825486Y-95079244D01*
X216019655Y-94715978D01*
X216154488Y-94271493D01*
X216200016Y-93809244D01*
X216154488Y-93346995D01*
X216019655Y-92902510D01*
X215825486Y-92539244D01*
X216019655Y-92175978D01*
X216154488Y-91731493D01*
X216200016Y-91269244D01*
X216154488Y-90806995D01*
X216019655Y-90362510D01*
X215825486Y-89999244D01*
X216019655Y-89635978D01*
X216154488Y-89191493D01*
X216200016Y-88729244D01*
X224886912Y-88729244D01*
X224932440Y-89191493D01*
X225067273Y-89635978D01*
X225261442Y-89999244D01*
X225067273Y-90362510D01*
X224932440Y-90806995D01*
X224886912Y-91269244D01*
X224932440Y-91731493D01*
X225067273Y-92175978D01*
X225261442Y-92539244D01*
X225067273Y-92902510D01*
X224932440Y-93346995D01*
X224886912Y-93809244D01*
X224932440Y-94271493D01*
X225067273Y-94715978D01*
X225261442Y-95079244D01*
X225067273Y-95442510D01*
X224932440Y-95886995D01*
X224886912Y-96349244D01*
X224932440Y-96811493D01*
X225067273Y-97255978D01*
X225286229Y-97665617D01*
X225580896Y-98024669D01*
X225939948Y-98319336D01*
X226349587Y-98538292D01*
X226794072Y-98673125D01*
X227140485Y-98707244D01*
X227372157Y-98707244D01*
X227718570Y-98673125D01*
X228163055Y-98538292D01*
X228526321Y-98344123D01*
X228889587Y-98538292D01*
X229334072Y-98673125D01*
X229680485Y-98707244D01*
X229912157Y-98707244D01*
X230258570Y-98673125D01*
X230703055Y-98538292D01*
X231112694Y-98319336D01*
X231471746Y-98024669D01*
X231766413Y-97665617D01*
X231985369Y-97255978D01*
X232120202Y-96811493D01*
X232165730Y-96349244D01*
X232120202Y-95886995D01*
X231985369Y-95442510D01*
X231791200Y-95079244D01*
X231985369Y-94715978D01*
X232120202Y-94271493D01*
X232165730Y-93809244D01*
X232120202Y-93346995D01*
X231985369Y-92902510D01*
X231791200Y-92539244D01*
X231985369Y-92175978D01*
X232120202Y-91731493D01*
X232165730Y-91269244D01*
X232120202Y-90806995D01*
X231985369Y-90362510D01*
X231791200Y-89999244D01*
X231985369Y-89635978D01*
X232120202Y-89191493D01*
X232165730Y-88729244D01*
X232120202Y-88266995D01*
X231985369Y-87822510D01*
X231766413Y-87412871D01*
X231471746Y-87053819D01*
X231112694Y-86759152D01*
X230703055Y-86540196D01*
X230258570Y-86405363D01*
X229912157Y-86371244D01*
X229680485Y-86371244D01*
X229334072Y-86405363D01*
X228889587Y-86540196D01*
X228526321Y-86734365D01*
X228163055Y-86540196D01*
X227718570Y-86405363D01*
X227372157Y-86371244D01*
X227140485Y-86371244D01*
X226794072Y-86405363D01*
X226349587Y-86540196D01*
X225939948Y-86759152D01*
X225580896Y-87053819D01*
X225286229Y-87412871D01*
X225067273Y-87822510D01*
X224932440Y-88266995D01*
X224886912Y-88729244D01*
X216200016Y-88729244D01*
X216154488Y-88266995D01*
X216019655Y-87822510D01*
X215800699Y-87412871D01*
X215506032Y-87053819D01*
X215146980Y-86759152D01*
X214737341Y-86540196D01*
X214292856Y-86405363D01*
X213946443Y-86371244D01*
X213714771Y-86371244D01*
X213368358Y-86405363D01*
X212923873Y-86540196D01*
X212560607Y-86734365D01*
X212197341Y-86540196D01*
X211752856Y-86405363D01*
X211406443Y-86371244D01*
X211174771Y-86371244D01*
X210828358Y-86405363D01*
X210383873Y-86540196D01*
X209974234Y-86759152D01*
X209615182Y-87053819D01*
X209320515Y-87412871D01*
X209101559Y-87822510D01*
X208966726Y-88266995D01*
X208921198Y-88729244D01*
X200234302Y-88729244D01*
X200188774Y-88266995D01*
X200053941Y-87822510D01*
X199834985Y-87412871D01*
X199540318Y-87053819D01*
X199181266Y-86759152D01*
X198771627Y-86540196D01*
X198327142Y-86405363D01*
X197980729Y-86371244D01*
X197749057Y-86371244D01*
X197402644Y-86405363D01*
X196958159Y-86540196D01*
X196594893Y-86734365D01*
X196231627Y-86540196D01*
X195787142Y-86405363D01*
X195440729Y-86371244D01*
X195209057Y-86371244D01*
X194862644Y-86405363D01*
X194418159Y-86540196D01*
X194008520Y-86759152D01*
X193649468Y-87053819D01*
X193354801Y-87412871D01*
X193135845Y-87822510D01*
X193001012Y-88266995D01*
X192955484Y-88729244D01*
X184268588Y-88729244D01*
X184223060Y-88266995D01*
X184088227Y-87822510D01*
X183869271Y-87412871D01*
X183574604Y-87053819D01*
X183215552Y-86759152D01*
X182805913Y-86540196D01*
X182361428Y-86405363D01*
X182015015Y-86371244D01*
X181783343Y-86371244D01*
X181436930Y-86405363D01*
X180992445Y-86540196D01*
X180629179Y-86734365D01*
X180265913Y-86540196D01*
X179821428Y-86405363D01*
X179475015Y-86371244D01*
X179243343Y-86371244D01*
X178896930Y-86405363D01*
X178452445Y-86540196D01*
X178042806Y-86759152D01*
X177683754Y-87053819D01*
X177389087Y-87412871D01*
X177170131Y-87822510D01*
X177035298Y-88266995D01*
X176989770Y-88729244D01*
X168302874Y-88729244D01*
X168257346Y-88266995D01*
X168122513Y-87822510D01*
X167903557Y-87412871D01*
X167608890Y-87053819D01*
X167249838Y-86759152D01*
X166840199Y-86540196D01*
X166395714Y-86405363D01*
X166049301Y-86371244D01*
X165817629Y-86371244D01*
X165471216Y-86405363D01*
X165026731Y-86540196D01*
X164663465Y-86734365D01*
X164300199Y-86540196D01*
X163855714Y-86405363D01*
X163509301Y-86371244D01*
X163277629Y-86371244D01*
X162931216Y-86405363D01*
X162486731Y-86540196D01*
X162077092Y-86759152D01*
X161718040Y-87053819D01*
X161423373Y-87412871D01*
X161204417Y-87822510D01*
X161069584Y-88266995D01*
X161024056Y-88729244D01*
X152337160Y-88729244D01*
X152291632Y-88266995D01*
X152156799Y-87822510D01*
X151937843Y-87412871D01*
X151643176Y-87053819D01*
X151284124Y-86759152D01*
X150874485Y-86540196D01*
X150430000Y-86405363D01*
X150083587Y-86371244D01*
X149851915Y-86371244D01*
X149505502Y-86405363D01*
X149061017Y-86540196D01*
X148697751Y-86734365D01*
X148334485Y-86540196D01*
X147890000Y-86405363D01*
X147543587Y-86371244D01*
X147311915Y-86371244D01*
X146965502Y-86405363D01*
X146521017Y-86540196D01*
X146111378Y-86759152D01*
X145752326Y-87053819D01*
X145457659Y-87412871D01*
X145238703Y-87822510D01*
X145103870Y-88266995D01*
X145058342Y-88729244D01*
X136371446Y-88729244D01*
X136325918Y-88266995D01*
X136191085Y-87822510D01*
X135972129Y-87412871D01*
X135677462Y-87053819D01*
X135318410Y-86759152D01*
X134908771Y-86540196D01*
X134464286Y-86405363D01*
X134117873Y-86371244D01*
X133886201Y-86371244D01*
X133539788Y-86405363D01*
X133095303Y-86540196D01*
X132732037Y-86734365D01*
X132368771Y-86540196D01*
X131924286Y-86405363D01*
X131577873Y-86371244D01*
X131346201Y-86371244D01*
X130999788Y-86405363D01*
X130555303Y-86540196D01*
X130145664Y-86759152D01*
X129786612Y-87053819D01*
X129491945Y-87412871D01*
X129272989Y-87822510D01*
X129138156Y-88266995D01*
X129092628Y-88729244D01*
X129138156Y-89191493D01*
X129272989Y-89635978D01*
X129467158Y-89999244D01*
X129272989Y-90362510D01*
X129138156Y-90806995D01*
X129092628Y-91269244D01*
X129138156Y-91731493D01*
X129272989Y-92175978D01*
X129467158Y-92539244D01*
X129272989Y-92902510D01*
X129138156Y-93346995D01*
X129092628Y-93809244D01*
X129138156Y-94271493D01*
X129272989Y-94715978D01*
X129467158Y-95079244D01*
X129272989Y-95442510D01*
X129138156Y-95886995D01*
X129092628Y-96349244D01*
X129138156Y-96811493D01*
X129272989Y-97255978D01*
X129491945Y-97665617D01*
X129786612Y-98024669D01*
X130145664Y-98319336D01*
X130555303Y-98538292D01*
X130999788Y-98673125D01*
X131346201Y-98707244D01*
X131577873Y-98707244D01*
X131924286Y-98673125D01*
X132368771Y-98538292D01*
X132732037Y-98344123D01*
X133095303Y-98538292D01*
X133539788Y-98673125D01*
X133886201Y-98707244D01*
X134117873Y-98707244D01*
X134464286Y-98673125D01*
X134908771Y-98538292D01*
X135318410Y-98319336D01*
X135677462Y-98024669D01*
X135765464Y-97917438D01*
X136122000Y-98273974D01*
X136122000Y-100666792D01*
X136109865Y-100790000D01*
X136122000Y-100913208D01*
X136122000Y-103206792D01*
X136109865Y-103330000D01*
X136158289Y-103821654D01*
X136212767Y-104001244D01*
X132442929Y-104001244D01*
X132423659Y-103990944D01*
X131950899Y-103847534D01*
X131616666Y-103814615D01*
X131583747Y-103480381D01*
X131440337Y-103007622D01*
X131382016Y-102898511D01*
X131207452Y-102571924D01*
X130894041Y-102190031D01*
X130798337Y-102111489D01*
X120818000Y-92131153D01*
X120818000Y-92023208D01*
X120830135Y-91900000D01*
X120781711Y-91408345D01*
X120638301Y-90935586D01*
X120615755Y-90893405D01*
X120405416Y-90499888D01*
X120092005Y-90117995D01*
X119996296Y-90039449D01*
X118817352Y-88860505D01*
X118738805Y-88764795D01*
X118356912Y-88451384D01*
X117921214Y-88218499D01*
X117448454Y-88075089D01*
X117080008Y-88038800D01*
X116956800Y-88026665D01*
X116833592Y-88038800D01*
X115690447Y-88038800D01*
X121153548Y-82575699D01*
X183692000Y-82575699D01*
X183692000Y-83424301D01*
X183857554Y-84256597D01*
X184182300Y-85040603D01*
X184653758Y-85746190D01*
X185253810Y-86346242D01*
X185959397Y-86817700D01*
X186743403Y-87142446D01*
X187575699Y-87308000D01*
X188424301Y-87308000D01*
X189256597Y-87142446D01*
X190040603Y-86817700D01*
X190746190Y-86346242D01*
X191346242Y-85746190D01*
X191817700Y-85040603D01*
X192142446Y-84256597D01*
X192308000Y-83424301D01*
X192308000Y-82575699D01*
X192142446Y-81743403D01*
X191817700Y-80959397D01*
X191346242Y-80253810D01*
X190746190Y-79653758D01*
X190040603Y-79182300D01*
X189256597Y-78857554D01*
X188424301Y-78692000D01*
X187575699Y-78692000D01*
X186743403Y-78857554D01*
X185959397Y-79182300D01*
X185253810Y-79653758D01*
X184653758Y-80253810D01*
X184182300Y-80959397D01*
X183857554Y-81743403D01*
X183692000Y-82575699D01*
X121153548Y-82575699D01*
X125192004Y-78537244D01*
X245842001Y-78537244D01*
X245842001Y-86371244D01*
M02*
