G04 #@! TF.GenerationSoftware,KiCad,Pcbnew,(5.1.4)-1*
G04 #@! TF.CreationDate,2019-10-17T20:01:31+02:00*
G04 #@! TF.ProjectId,psu-30w,7073752d-3330-4772-9e6b-696361645f70,rev?*
G04 #@! TF.SameCoordinates,Original*
G04 #@! TF.FileFunction,Soldermask,Bot*
G04 #@! TF.FilePolarity,Negative*
%FSLAX46Y46*%
G04 Gerber Fmt 4.6, Leading zero omitted, Abs format (unit mm)*
G04 Created by KiCad (PCBNEW (5.1.4)-1) date 2019-10-17 20:01:31*
%MOMM*%
%LPD*%
G04 APERTURE LIST*
%ADD10C,0.300000*%
%ADD11C,0.100000*%
%ADD12O,1.700000X1.700000*%
%ADD13R,1.700000X1.700000*%
%ADD14C,4.000000*%
%ADD15C,2.200000*%
%ADD16C,3.000000*%
%ADD17O,20.000000X2.000000*%
%ADD18C,1.300000*%
%ADD19R,1.300000X1.300000*%
%ADD20R,3.200000X3.200000*%
%ADD21O,3.200000X3.200000*%
%ADD22C,1.800000*%
%ADD23R,1.800000X1.800000*%
%ADD24C,5.600000*%
G04 APERTURE END LIST*
D10*
X60652000Y-69982000D03*
D11*
G36*
X60652000Y-68982000D02*
G01*
X61402000Y-69482000D01*
X61402000Y-70482000D01*
X59902000Y-70482000D01*
X59902000Y-69482000D01*
X60652000Y-68982000D01*
X60652000Y-68982000D01*
G37*
D10*
X60652000Y-68532000D03*
D11*
G36*
X61402000Y-68032000D02*
G01*
X61402000Y-69182000D01*
X60652000Y-68682000D01*
X59902000Y-69182000D01*
X59902000Y-68032000D01*
X61402000Y-68032000D01*
X61402000Y-68032000D01*
G37*
D12*
X56080000Y-70310000D03*
D13*
X56080000Y-67770000D03*
D12*
X101800000Y-124920000D03*
X99260000Y-124920000D03*
D13*
X96720000Y-124920000D03*
D12*
X92910000Y-63960000D03*
D13*
X92910000Y-61420000D03*
D14*
X82750000Y-61826400D03*
X82750000Y-55826400D03*
X78050000Y-58826400D03*
D15*
X82750000Y-51326400D03*
D16*
X63915600Y-82926800D03*
X63915600Y-88006800D03*
X63915600Y-93086800D03*
X63915600Y-98166800D03*
X109635600Y-110866800D03*
X109635600Y-100706800D03*
X109635600Y-90546800D03*
X109635600Y-80386800D03*
D17*
X86915600Y-80426800D03*
X86915600Y-90426800D03*
X86915600Y-100426800D03*
X86915600Y-110426800D03*
D18*
X126234800Y-121110000D03*
D19*
X126234800Y-123650000D03*
D18*
X126234800Y-118570000D03*
D13*
X245762037Y-76029244D03*
D12*
X243222037Y-76029244D03*
X245762037Y-73489244D03*
X243222037Y-73489244D03*
X245762037Y-70949244D03*
X243222037Y-70949244D03*
X245762037Y-68409244D03*
X243222037Y-68409244D03*
X245762037Y-65869244D03*
X243222037Y-65869244D03*
X245762037Y-63329244D03*
X243222037Y-63329244D03*
X245762037Y-60789244D03*
X243222037Y-60789244D03*
X245762037Y-58249244D03*
X243222037Y-58249244D03*
D20*
X56080000Y-90630000D03*
D21*
X56080000Y-75390000D03*
D22*
X152400000Y-121380000D03*
D23*
X152400000Y-118840000D03*
X100530000Y-53800000D03*
D22*
X100530000Y-56340000D03*
D23*
X171450000Y-118840000D03*
D22*
X171450000Y-121380000D03*
X161925000Y-121380000D03*
D23*
X161925000Y-118840000D03*
D12*
X243222037Y-88729244D03*
X245762037Y-88729244D03*
X243222037Y-91269244D03*
X245762037Y-91269244D03*
X243222037Y-93809244D03*
X245762037Y-93809244D03*
X243222037Y-96349244D03*
X245762037Y-96349244D03*
X243222037Y-98889244D03*
X245762037Y-98889244D03*
X243222037Y-101429244D03*
X245762037Y-101429244D03*
X243222037Y-103969244D03*
X245762037Y-103969244D03*
X243222037Y-106509244D03*
D13*
X245762037Y-106509244D03*
X229796321Y-106509244D03*
D12*
X227256321Y-106509244D03*
X229796321Y-103969244D03*
X227256321Y-103969244D03*
X229796321Y-101429244D03*
X227256321Y-101429244D03*
X229796321Y-98889244D03*
X227256321Y-98889244D03*
X229796321Y-96349244D03*
X227256321Y-96349244D03*
X229796321Y-93809244D03*
X227256321Y-93809244D03*
X229796321Y-91269244D03*
X227256321Y-91269244D03*
X229796321Y-88729244D03*
X227256321Y-88729244D03*
D13*
X213830607Y-106509244D03*
D12*
X211290607Y-106509244D03*
X213830607Y-103969244D03*
X211290607Y-103969244D03*
X213830607Y-101429244D03*
X211290607Y-101429244D03*
X213830607Y-98889244D03*
X211290607Y-98889244D03*
X213830607Y-96349244D03*
X211290607Y-96349244D03*
X213830607Y-93809244D03*
X211290607Y-93809244D03*
X213830607Y-91269244D03*
X211290607Y-91269244D03*
X213830607Y-88729244D03*
X211290607Y-88729244D03*
X195324893Y-88729244D03*
X197864893Y-88729244D03*
X195324893Y-91269244D03*
X197864893Y-91269244D03*
X195324893Y-93809244D03*
X197864893Y-93809244D03*
X195324893Y-96349244D03*
X197864893Y-96349244D03*
X195324893Y-98889244D03*
X197864893Y-98889244D03*
X195324893Y-101429244D03*
X197864893Y-101429244D03*
X195324893Y-103969244D03*
X197864893Y-103969244D03*
X195324893Y-106509244D03*
D13*
X197864893Y-106509244D03*
X181899179Y-106509244D03*
D12*
X179359179Y-106509244D03*
X181899179Y-103969244D03*
X179359179Y-103969244D03*
X181899179Y-101429244D03*
X179359179Y-101429244D03*
X181899179Y-98889244D03*
X179359179Y-98889244D03*
X181899179Y-96349244D03*
X179359179Y-96349244D03*
X181899179Y-93809244D03*
X179359179Y-93809244D03*
X181899179Y-91269244D03*
X179359179Y-91269244D03*
X181899179Y-88729244D03*
X179359179Y-88729244D03*
D13*
X165933465Y-106509244D03*
D12*
X163393465Y-106509244D03*
X165933465Y-103969244D03*
X163393465Y-103969244D03*
X165933465Y-101429244D03*
X163393465Y-101429244D03*
X165933465Y-98889244D03*
X163393465Y-98889244D03*
X165933465Y-96349244D03*
X163393465Y-96349244D03*
X165933465Y-93809244D03*
X163393465Y-93809244D03*
X165933465Y-91269244D03*
X163393465Y-91269244D03*
X165933465Y-88729244D03*
X163393465Y-88729244D03*
X147427751Y-88729244D03*
X149967751Y-88729244D03*
X147427751Y-91269244D03*
X149967751Y-91269244D03*
X147427751Y-93809244D03*
X149967751Y-93809244D03*
X147427751Y-96349244D03*
X149967751Y-96349244D03*
X147427751Y-98889244D03*
X149967751Y-98889244D03*
X147427751Y-101429244D03*
X149967751Y-101429244D03*
X147427751Y-103969244D03*
X149967751Y-103969244D03*
X147427751Y-106509244D03*
D13*
X149967751Y-106509244D03*
D12*
X131462037Y-88729244D03*
X134002037Y-88729244D03*
X131462037Y-91269244D03*
X134002037Y-91269244D03*
X131462037Y-93809244D03*
X134002037Y-93809244D03*
X131462037Y-96349244D03*
X134002037Y-96349244D03*
X131462037Y-98889244D03*
X134002037Y-98889244D03*
X131462037Y-101429244D03*
X134002037Y-101429244D03*
X131462037Y-103969244D03*
X134002037Y-103969244D03*
X131462037Y-106509244D03*
D13*
X134002037Y-106509244D03*
X229796321Y-76029244D03*
D12*
X227256321Y-76029244D03*
X229796321Y-73489244D03*
X227256321Y-73489244D03*
X229796321Y-70949244D03*
X227256321Y-70949244D03*
X229796321Y-68409244D03*
X227256321Y-68409244D03*
X229796321Y-65869244D03*
X227256321Y-65869244D03*
X229796321Y-63329244D03*
X227256321Y-63329244D03*
X229796321Y-60789244D03*
X227256321Y-60789244D03*
X229796321Y-58249244D03*
X227256321Y-58249244D03*
X211290607Y-58249244D03*
X213830607Y-58249244D03*
X211290607Y-60789244D03*
X213830607Y-60789244D03*
X211290607Y-63329244D03*
X213830607Y-63329244D03*
X211290607Y-65869244D03*
X213830607Y-65869244D03*
X211290607Y-68409244D03*
X213830607Y-68409244D03*
X211290607Y-70949244D03*
X213830607Y-70949244D03*
X211290607Y-73489244D03*
X213830607Y-73489244D03*
X211290607Y-76029244D03*
D13*
X213830607Y-76029244D03*
D12*
X195324893Y-58249244D03*
X197864893Y-58249244D03*
X195324893Y-60789244D03*
X197864893Y-60789244D03*
X195324893Y-63329244D03*
X197864893Y-63329244D03*
X195324893Y-65869244D03*
X197864893Y-65869244D03*
X195324893Y-68409244D03*
X197864893Y-68409244D03*
X195324893Y-70949244D03*
X197864893Y-70949244D03*
X195324893Y-73489244D03*
X197864893Y-73489244D03*
X195324893Y-76029244D03*
D13*
X197864893Y-76029244D03*
X181899179Y-76029244D03*
D12*
X179359179Y-76029244D03*
X181899179Y-73489244D03*
X179359179Y-73489244D03*
X181899179Y-70949244D03*
X179359179Y-70949244D03*
X181899179Y-68409244D03*
X179359179Y-68409244D03*
X181899179Y-65869244D03*
X179359179Y-65869244D03*
X181899179Y-63329244D03*
X179359179Y-63329244D03*
X181899179Y-60789244D03*
X179359179Y-60789244D03*
X181899179Y-58249244D03*
X179359179Y-58249244D03*
D13*
X165933465Y-76029244D03*
D12*
X163393465Y-76029244D03*
X165933465Y-73489244D03*
X163393465Y-73489244D03*
X165933465Y-70949244D03*
X163393465Y-70949244D03*
X165933465Y-68409244D03*
X163393465Y-68409244D03*
X165933465Y-65869244D03*
X163393465Y-65869244D03*
X165933465Y-63329244D03*
X163393465Y-63329244D03*
X165933465Y-60789244D03*
X163393465Y-60789244D03*
X165933465Y-58249244D03*
X163393465Y-58249244D03*
X147427751Y-58249244D03*
X149967751Y-58249244D03*
X147427751Y-60789244D03*
X149967751Y-60789244D03*
X147427751Y-63329244D03*
X149967751Y-63329244D03*
X147427751Y-65869244D03*
X149967751Y-65869244D03*
X147427751Y-68409244D03*
X149967751Y-68409244D03*
X147427751Y-70949244D03*
X149967751Y-70949244D03*
X147427751Y-73489244D03*
X149967751Y-73489244D03*
X147427751Y-76029244D03*
D13*
X149967751Y-76029244D03*
D12*
X131462037Y-58249244D03*
X134002037Y-58249244D03*
X131462037Y-60789244D03*
X134002037Y-60789244D03*
X131462037Y-63329244D03*
X134002037Y-63329244D03*
X131462037Y-65869244D03*
X134002037Y-65869244D03*
X131462037Y-68409244D03*
X134002037Y-68409244D03*
X131462037Y-70949244D03*
X134002037Y-70949244D03*
X131462037Y-73489244D03*
X134002037Y-73489244D03*
X131462037Y-76029244D03*
D13*
X134002037Y-76029244D03*
D24*
X55000000Y-126000000D03*
X55000000Y-53000000D03*
X247000000Y-126000000D03*
X247000000Y-53000000D03*
X124000000Y-53000000D03*
X188000000Y-126000000D03*
X188000000Y-83000000D03*
X188000000Y-53000000D03*
M02*
