G04 #@! TF.GenerationSoftware,KiCad,Pcbnew,(5.1.4)-1*
G04 #@! TF.CreationDate,2019-10-17T20:01:31+02:00*
G04 #@! TF.ProjectId,psu-30w,7073752d-3330-4772-9e6b-696361645f70,rev?*
G04 #@! TF.SameCoordinates,Original*
G04 #@! TF.FileFunction,Legend,Top*
G04 #@! TF.FilePolarity,Positive*
%FSLAX46Y46*%
G04 Gerber Fmt 4.6, Leading zero omitted, Abs format (unit mm)*
G04 Created by KiCad (PCBNEW (5.1.4)-1) date 2019-10-17 20:01:31*
%MOMM*%
%LPD*%
G04 APERTURE LIST*
%ADD10C,0.150000*%
%ADD11C,0.100000*%
%ADD12C,0.300000*%
%ADD13C,0.010000*%
%ADD14C,0.120000*%
G04 APERTURE END LIST*
D10*
X104792380Y-125920000D02*
X103792380Y-125920000D01*
X104744761Y-125491428D02*
X104792380Y-125348571D01*
X104792380Y-125110476D01*
X104744761Y-125015238D01*
X104697142Y-124967619D01*
X104601904Y-124920000D01*
X104506666Y-124920000D01*
X104411428Y-124967619D01*
X104363809Y-125015238D01*
X104316190Y-125110476D01*
X104268571Y-125300952D01*
X104220952Y-125396190D01*
X104173333Y-125443809D01*
X104078095Y-125491428D01*
X103982857Y-125491428D01*
X103887619Y-125443809D01*
X103840000Y-125396190D01*
X103792380Y-125300952D01*
X103792380Y-125062857D01*
X103840000Y-124920000D01*
X103792380Y-124300952D02*
X103792380Y-124110476D01*
X103840000Y-124015238D01*
X103935238Y-123920000D01*
X104125714Y-123872380D01*
X104459047Y-123872380D01*
X104649523Y-123920000D01*
X104744761Y-124015238D01*
X104792380Y-124110476D01*
X104792380Y-124300952D01*
X104744761Y-124396190D01*
X104649523Y-124491428D01*
X104459047Y-124539047D01*
X104125714Y-124539047D01*
X103935238Y-124491428D01*
X103840000Y-124396190D01*
X103792380Y-124300952D01*
D11*
G36*
X249120000Y-110950000D02*
G01*
X127200000Y-110950000D01*
X127200000Y-109680000D01*
X249120000Y-109680000D01*
X249120000Y-110950000D01*
G37*
X249120000Y-110950000D02*
X127200000Y-110950000D01*
X127200000Y-109680000D01*
X249120000Y-109680000D01*
X249120000Y-110950000D01*
G36*
X249120000Y-80470000D02*
G01*
X127200000Y-80470000D01*
X127200000Y-79200000D01*
X249120000Y-79200000D01*
X249120000Y-80470000D01*
G37*
X249120000Y-80470000D02*
X127200000Y-80470000D01*
X127200000Y-79200000D01*
X249120000Y-79200000D01*
X249120000Y-80470000D01*
D12*
X115564285Y-108695714D02*
X117850000Y-108695714D01*
X120850000Y-110219523D02*
X119135714Y-110219523D01*
X119992857Y-110219523D02*
X119992857Y-106219523D01*
X119707142Y-106790952D01*
X119421428Y-107171904D01*
X119135714Y-107362380D01*
X121992857Y-106600476D02*
X122135714Y-106410000D01*
X122421428Y-106219523D01*
X123135714Y-106219523D01*
X123421428Y-106410000D01*
X123564285Y-106600476D01*
X123707142Y-106981428D01*
X123707142Y-107362380D01*
X123564285Y-107933809D01*
X121850000Y-110219523D01*
X123707142Y-110219523D01*
X124564285Y-106219523D02*
X125564285Y-110219523D01*
X126564285Y-106219523D01*
D10*
X249120000Y-109680000D02*
X249120000Y-104600000D01*
X127200000Y-109680000D02*
X249120000Y-109680000D01*
X127200000Y-104600000D02*
X127200000Y-109680000D01*
D12*
X115564285Y-78215714D02*
X117850000Y-78215714D01*
X120850000Y-79739523D02*
X119135714Y-79739523D01*
X119992857Y-79739523D02*
X119992857Y-75739523D01*
X119707142Y-76310952D01*
X119421428Y-76691904D01*
X119135714Y-76882380D01*
X121992857Y-76120476D02*
X122135714Y-75930000D01*
X122421428Y-75739523D01*
X123135714Y-75739523D01*
X123421428Y-75930000D01*
X123564285Y-76120476D01*
X123707142Y-76501428D01*
X123707142Y-76882380D01*
X123564285Y-77453809D01*
X121850000Y-79739523D01*
X123707142Y-79739523D01*
X124564285Y-75739523D02*
X125564285Y-79739523D01*
X126564285Y-75739523D01*
D10*
X249120000Y-79200000D02*
X249120000Y-74120000D01*
X127200000Y-79200000D02*
X249120000Y-79200000D01*
X127200000Y-74120000D02*
X127200000Y-79200000D01*
X53629801Y-71557780D02*
X53677420Y-71414922D01*
X53677420Y-71176827D01*
X53629801Y-71081589D01*
X53582182Y-71033970D01*
X53486944Y-70986351D01*
X53391706Y-70986351D01*
X53296468Y-71033970D01*
X53248849Y-71081589D01*
X53201230Y-71176827D01*
X53153611Y-71367303D01*
X53105992Y-71462541D01*
X53058373Y-71510160D01*
X52963135Y-71557780D01*
X52867897Y-71557780D01*
X52772659Y-71510160D01*
X52725040Y-71462541D01*
X52677420Y-71367303D01*
X52677420Y-71129208D01*
X52725040Y-70986351D01*
X52677420Y-70653018D02*
X53677420Y-70414922D01*
X52963135Y-70224446D01*
X53677420Y-70033970D01*
X52677420Y-69795875D01*
X53677420Y-69414922D02*
X52677420Y-69414922D01*
X52677420Y-69081589D02*
X52677420Y-68510160D01*
X53677420Y-68795875D02*
X52677420Y-68795875D01*
X53582182Y-67605399D02*
X53629801Y-67653018D01*
X53677420Y-67795875D01*
X53677420Y-67891113D01*
X53629801Y-68033970D01*
X53534563Y-68129208D01*
X53439325Y-68176827D01*
X53248849Y-68224446D01*
X53105992Y-68224446D01*
X52915516Y-68176827D01*
X52820278Y-68129208D01*
X52725040Y-68033970D01*
X52677420Y-67891113D01*
X52677420Y-67795875D01*
X52725040Y-67653018D01*
X52772659Y-67605399D01*
X53677420Y-67176827D02*
X52677420Y-67176827D01*
X53153611Y-67176827D02*
X53153611Y-66605399D01*
X53677420Y-66605399D02*
X52677420Y-66605399D01*
D12*
X94688571Y-128646571D02*
X94688571Y-127146571D01*
X95260000Y-127146571D01*
X95402857Y-127218000D01*
X95474285Y-127289428D01*
X95545714Y-127432285D01*
X95545714Y-127646571D01*
X95474285Y-127789428D01*
X95402857Y-127860857D01*
X95260000Y-127932285D01*
X94688571Y-127932285D01*
X96045714Y-127146571D02*
X96402857Y-128646571D01*
X96688571Y-127575142D01*
X96974285Y-128646571D01*
X97331428Y-127146571D01*
X98760000Y-128646571D02*
X98260000Y-127932285D01*
X97902857Y-128646571D02*
X97902857Y-127146571D01*
X98474285Y-127146571D01*
X98617142Y-127218000D01*
X98688571Y-127289428D01*
X98760000Y-127432285D01*
X98760000Y-127646571D01*
X98688571Y-127789428D01*
X98617142Y-127860857D01*
X98474285Y-127932285D01*
X97902857Y-127932285D01*
X100474285Y-128575142D02*
X100688571Y-128646571D01*
X101045714Y-128646571D01*
X101188571Y-128575142D01*
X101260000Y-128503714D01*
X101331428Y-128360857D01*
X101331428Y-128218000D01*
X101260000Y-128075142D01*
X101188571Y-128003714D01*
X101045714Y-127932285D01*
X100760000Y-127860857D01*
X100617142Y-127789428D01*
X100545714Y-127718000D01*
X100474285Y-127575142D01*
X100474285Y-127432285D01*
X100545714Y-127289428D01*
X100617142Y-127218000D01*
X100760000Y-127146571D01*
X101117142Y-127146571D01*
X101331428Y-127218000D01*
X101974285Y-127860857D02*
X102474285Y-127860857D01*
X102688571Y-128646571D02*
X101974285Y-128646571D01*
X101974285Y-127146571D01*
X102688571Y-127146571D01*
X104045714Y-128646571D02*
X103331428Y-128646571D01*
X103331428Y-127146571D01*
X99800000Y-60574571D02*
X99800000Y-59074571D01*
X100371428Y-59074571D01*
X100514285Y-59146000D01*
X100585714Y-59217428D01*
X100657142Y-59360285D01*
X100657142Y-59574571D01*
X100585714Y-59717428D01*
X100514285Y-59788857D01*
X100371428Y-59860285D01*
X99800000Y-59860285D01*
X101157142Y-59074571D02*
X101514285Y-60574571D01*
X101800000Y-59503142D01*
X102085714Y-60574571D01*
X102442857Y-59074571D01*
X103871428Y-60574571D02*
X103371428Y-59860285D01*
X103014285Y-60574571D02*
X103014285Y-59074571D01*
X103585714Y-59074571D01*
X103728571Y-59146000D01*
X103800000Y-59217428D01*
X103871428Y-59360285D01*
X103871428Y-59574571D01*
X103800000Y-59717428D01*
X103728571Y-59788857D01*
X103585714Y-59860285D01*
X103014285Y-59860285D01*
X80496000Y-67686571D02*
X80496000Y-66186571D01*
X81067428Y-66186571D01*
X81210285Y-66258000D01*
X81281714Y-66329428D01*
X81353142Y-66472285D01*
X81353142Y-66686571D01*
X81281714Y-66829428D01*
X81210285Y-66900857D01*
X81067428Y-66972285D01*
X80496000Y-66972285D01*
X81853142Y-66186571D02*
X82210285Y-67686571D01*
X82496000Y-66615142D01*
X82781714Y-67686571D01*
X83138857Y-66186571D01*
X84567428Y-67686571D02*
X84067428Y-66972285D01*
X83710285Y-67686571D02*
X83710285Y-66186571D01*
X84281714Y-66186571D01*
X84424571Y-66258000D01*
X84496000Y-66329428D01*
X84567428Y-66472285D01*
X84567428Y-66686571D01*
X84496000Y-66829428D01*
X84424571Y-66900857D01*
X84281714Y-66972285D01*
X83710285Y-66972285D01*
X97139571Y-68460000D02*
X95639571Y-68460000D01*
X97068142Y-67817142D02*
X97139571Y-67674285D01*
X97139571Y-67388571D01*
X97068142Y-67245714D01*
X96925285Y-67174285D01*
X96853857Y-67174285D01*
X96711000Y-67245714D01*
X96639571Y-67388571D01*
X96639571Y-67602857D01*
X96568142Y-67745714D01*
X96425285Y-67817142D01*
X96353857Y-67817142D01*
X96211000Y-67745714D01*
X96139571Y-67602857D01*
X96139571Y-67388571D01*
X96211000Y-67245714D01*
X97139571Y-66317142D02*
X97068142Y-66460000D01*
X96996714Y-66531428D01*
X96853857Y-66602857D01*
X96425285Y-66602857D01*
X96282428Y-66531428D01*
X96211000Y-66460000D01*
X96139571Y-66317142D01*
X96139571Y-66102857D01*
X96211000Y-65960000D01*
X96282428Y-65888571D01*
X96425285Y-65817142D01*
X96853857Y-65817142D01*
X96996714Y-65888571D01*
X97068142Y-65960000D01*
X97139571Y-66102857D01*
X97139571Y-66317142D01*
X97139571Y-64960000D02*
X97068142Y-65102857D01*
X96925285Y-65174285D01*
X95639571Y-65174285D01*
X97139571Y-63745714D02*
X96353857Y-63745714D01*
X96211000Y-63817142D01*
X96139571Y-63960000D01*
X96139571Y-64245714D01*
X96211000Y-64388571D01*
X97068142Y-63745714D02*
X97139571Y-63888571D01*
X97139571Y-64245714D01*
X97068142Y-64388571D01*
X96925285Y-64460000D01*
X96782428Y-64460000D01*
X96639571Y-64388571D01*
X96568142Y-64245714D01*
X96568142Y-63888571D01*
X96496714Y-63745714D01*
X96139571Y-63245714D02*
X96139571Y-62674285D01*
X95639571Y-63031428D02*
X96925285Y-63031428D01*
X97068142Y-62960000D01*
X97139571Y-62817142D01*
X97139571Y-62674285D01*
X97139571Y-62174285D02*
X96139571Y-62174285D01*
X95639571Y-62174285D02*
X95711000Y-62245714D01*
X95782428Y-62174285D01*
X95711000Y-62102857D01*
X95639571Y-62174285D01*
X95782428Y-62174285D01*
X97139571Y-61245714D02*
X97068142Y-61388571D01*
X96996714Y-61460000D01*
X96853857Y-61531428D01*
X96425285Y-61531428D01*
X96282428Y-61460000D01*
X96211000Y-61388571D01*
X96139571Y-61245714D01*
X96139571Y-61031428D01*
X96211000Y-60888571D01*
X96282428Y-60817142D01*
X96425285Y-60745714D01*
X96853857Y-60745714D01*
X96996714Y-60817142D01*
X97068142Y-60888571D01*
X97139571Y-61031428D01*
X97139571Y-61245714D01*
X96139571Y-60102857D02*
X97139571Y-60102857D01*
X96282428Y-60102857D02*
X96211000Y-60031428D01*
X96139571Y-59888571D01*
X96139571Y-59674285D01*
X96211000Y-59531428D01*
X96353857Y-59460000D01*
X97139571Y-59460000D01*
X98189571Y-66102857D02*
X98189571Y-65817142D01*
X98261000Y-65674285D01*
X98403857Y-65531428D01*
X98689571Y-65460000D01*
X99189571Y-65460000D01*
X99475285Y-65531428D01*
X99618142Y-65674285D01*
X99689571Y-65817142D01*
X99689571Y-66102857D01*
X99618142Y-66245714D01*
X99475285Y-66388571D01*
X99189571Y-66460000D01*
X98689571Y-66460000D01*
X98403857Y-66388571D01*
X98261000Y-66245714D01*
X98189571Y-66102857D01*
X98689571Y-64817142D02*
X100189571Y-64817142D01*
X98761000Y-64817142D02*
X98689571Y-64674285D01*
X98689571Y-64388571D01*
X98761000Y-64245714D01*
X98832428Y-64174285D01*
X98975285Y-64102857D01*
X99403857Y-64102857D01*
X99546714Y-64174285D01*
X99618142Y-64245714D01*
X99689571Y-64388571D01*
X99689571Y-64674285D01*
X99618142Y-64817142D01*
X99618142Y-62888571D02*
X99689571Y-63031428D01*
X99689571Y-63317142D01*
X99618142Y-63460000D01*
X99475285Y-63531428D01*
X98903857Y-63531428D01*
X98761000Y-63460000D01*
X98689571Y-63317142D01*
X98689571Y-63031428D01*
X98761000Y-62888571D01*
X98903857Y-62817142D01*
X99046714Y-62817142D01*
X99189571Y-63531428D01*
X98689571Y-62174285D02*
X99689571Y-62174285D01*
X98832428Y-62174285D02*
X98761000Y-62102857D01*
X98689571Y-61960000D01*
X98689571Y-61745714D01*
X98761000Y-61602857D01*
X98903857Y-61531428D01*
X99689571Y-61531428D01*
X168357142Y-115107142D02*
X169500000Y-115107142D01*
X168928571Y-115678571D02*
X168928571Y-114535714D01*
X171000000Y-115678571D02*
X170142857Y-115678571D01*
X170571428Y-115678571D02*
X170571428Y-114178571D01*
X170428571Y-114392857D01*
X170285714Y-114535714D01*
X170142857Y-114607142D01*
X171571428Y-114321428D02*
X171642857Y-114250000D01*
X171785714Y-114178571D01*
X172142857Y-114178571D01*
X172285714Y-114250000D01*
X172357142Y-114321428D01*
X172428571Y-114464285D01*
X172428571Y-114607142D01*
X172357142Y-114821428D01*
X171500000Y-115678571D01*
X172428571Y-115678571D01*
X172857142Y-114178571D02*
X173357142Y-115678571D01*
X173857142Y-114178571D01*
X161714285Y-114178571D02*
X161000000Y-114178571D01*
X160928571Y-114892857D01*
X161000000Y-114821428D01*
X161142857Y-114750000D01*
X161500000Y-114750000D01*
X161642857Y-114821428D01*
X161714285Y-114892857D01*
X161785714Y-115035714D01*
X161785714Y-115392857D01*
X161714285Y-115535714D01*
X161642857Y-115607142D01*
X161500000Y-115678571D01*
X161142857Y-115678571D01*
X161000000Y-115607142D01*
X160928571Y-115535714D01*
X162214285Y-114178571D02*
X162714285Y-115678571D01*
X163214285Y-114178571D01*
X149052142Y-115107142D02*
X150195000Y-115107142D01*
X151695000Y-115678571D02*
X150837857Y-115678571D01*
X151266428Y-115678571D02*
X151266428Y-114178571D01*
X151123571Y-114392857D01*
X150980714Y-114535714D01*
X150837857Y-114607142D01*
X152266428Y-114321428D02*
X152337857Y-114250000D01*
X152480714Y-114178571D01*
X152837857Y-114178571D01*
X152980714Y-114250000D01*
X153052142Y-114321428D01*
X153123571Y-114464285D01*
X153123571Y-114607142D01*
X153052142Y-114821428D01*
X152195000Y-115678571D01*
X153123571Y-115678571D01*
X153552142Y-114178571D02*
X154052142Y-115678571D01*
X154552142Y-114178571D01*
D13*
G36*
X228015421Y-123633543D02*
G01*
X228128215Y-123651563D01*
X228222932Y-123686400D01*
X228311220Y-123741984D01*
X228380108Y-123799547D01*
X228469385Y-123880203D01*
X228460164Y-124473973D01*
X228456492Y-124656321D01*
X228451585Y-124816298D01*
X228445659Y-124949558D01*
X228438931Y-125051757D01*
X228431615Y-125118548D01*
X228427082Y-125139675D01*
X228362439Y-125269607D01*
X228263556Y-125375950D01*
X228132634Y-125456655D01*
X228052816Y-125487747D01*
X227955801Y-125510203D01*
X227831581Y-125525817D01*
X227694869Y-125533670D01*
X227560377Y-125532842D01*
X227460150Y-125524799D01*
X227377500Y-125509646D01*
X227300894Y-125487922D01*
X227263689Y-125472538D01*
X227194228Y-125436381D01*
X227248551Y-125347312D01*
X227284251Y-125288677D01*
X227312551Y-125242016D01*
X227320636Y-125228601D01*
X227339336Y-125211899D01*
X227374083Y-125210475D01*
X227435104Y-125223309D01*
X227534832Y-125240520D01*
X227647666Y-125247705D01*
X227760221Y-125245205D01*
X227859112Y-125233360D01*
X227930954Y-125212511D01*
X227934895Y-125210586D01*
X228024029Y-125142818D01*
X228081404Y-125049245D01*
X228094004Y-125007420D01*
X228107601Y-124947097D01*
X227995542Y-124965087D01*
X227800311Y-124980690D01*
X227626487Y-124960966D01*
X227476913Y-124908213D01*
X227341731Y-124823689D01*
X227241408Y-124718720D01*
X227174643Y-124590853D01*
X227140135Y-124437633D01*
X227137877Y-124340756D01*
X227491900Y-124340756D01*
X227508419Y-124431292D01*
X227551740Y-124526553D01*
X227612500Y-124609249D01*
X227659071Y-124649531D01*
X227742800Y-124684287D01*
X227847121Y-124697723D01*
X227955625Y-124689085D01*
X228032329Y-124666657D01*
X228105733Y-124635987D01*
X228105733Y-124311915D01*
X228105416Y-124181191D01*
X228102675Y-124086418D01*
X228094825Y-124021215D01*
X228079179Y-123979202D01*
X228053052Y-123953998D01*
X228013758Y-123939222D01*
X227958611Y-123928493D01*
X227943261Y-123925903D01*
X227818926Y-123924102D01*
X227707574Y-123959241D01*
X227614259Y-124026675D01*
X227544034Y-124121760D01*
X227501953Y-124239852D01*
X227491900Y-124340756D01*
X227137877Y-124340756D01*
X227136113Y-124265082D01*
X227161720Y-124095670D01*
X227220369Y-123951799D01*
X227313611Y-123831198D01*
X227442996Y-123731598D01*
X227533267Y-123683467D01*
X227593102Y-123657797D01*
X227648655Y-123641522D01*
X227712614Y-123632585D01*
X227797664Y-123628929D01*
X227872900Y-123628410D01*
X228015421Y-123633543D01*
X228015421Y-123633543D01*
G37*
X228015421Y-123633543D02*
X228128215Y-123651563D01*
X228222932Y-123686400D01*
X228311220Y-123741984D01*
X228380108Y-123799547D01*
X228469385Y-123880203D01*
X228460164Y-124473973D01*
X228456492Y-124656321D01*
X228451585Y-124816298D01*
X228445659Y-124949558D01*
X228438931Y-125051757D01*
X228431615Y-125118548D01*
X228427082Y-125139675D01*
X228362439Y-125269607D01*
X228263556Y-125375950D01*
X228132634Y-125456655D01*
X228052816Y-125487747D01*
X227955801Y-125510203D01*
X227831581Y-125525817D01*
X227694869Y-125533670D01*
X227560377Y-125532842D01*
X227460150Y-125524799D01*
X227377500Y-125509646D01*
X227300894Y-125487922D01*
X227263689Y-125472538D01*
X227194228Y-125436381D01*
X227248551Y-125347312D01*
X227284251Y-125288677D01*
X227312551Y-125242016D01*
X227320636Y-125228601D01*
X227339336Y-125211899D01*
X227374083Y-125210475D01*
X227435104Y-125223309D01*
X227534832Y-125240520D01*
X227647666Y-125247705D01*
X227760221Y-125245205D01*
X227859112Y-125233360D01*
X227930954Y-125212511D01*
X227934895Y-125210586D01*
X228024029Y-125142818D01*
X228081404Y-125049245D01*
X228094004Y-125007420D01*
X228107601Y-124947097D01*
X227995542Y-124965087D01*
X227800311Y-124980690D01*
X227626487Y-124960966D01*
X227476913Y-124908213D01*
X227341731Y-124823689D01*
X227241408Y-124718720D01*
X227174643Y-124590853D01*
X227140135Y-124437633D01*
X227137877Y-124340756D01*
X227491900Y-124340756D01*
X227508419Y-124431292D01*
X227551740Y-124526553D01*
X227612500Y-124609249D01*
X227659071Y-124649531D01*
X227742800Y-124684287D01*
X227847121Y-124697723D01*
X227955625Y-124689085D01*
X228032329Y-124666657D01*
X228105733Y-124635987D01*
X228105733Y-124311915D01*
X228105416Y-124181191D01*
X228102675Y-124086418D01*
X228094825Y-124021215D01*
X228079179Y-123979202D01*
X228053052Y-123953998D01*
X228013758Y-123939222D01*
X227958611Y-123928493D01*
X227943261Y-123925903D01*
X227818926Y-123924102D01*
X227707574Y-123959241D01*
X227614259Y-124026675D01*
X227544034Y-124121760D01*
X227501953Y-124239852D01*
X227491900Y-124340756D01*
X227137877Y-124340756D01*
X227136113Y-124265082D01*
X227161720Y-124095670D01*
X227220369Y-123951799D01*
X227313611Y-123831198D01*
X227442996Y-123731598D01*
X227533267Y-123683467D01*
X227593102Y-123657797D01*
X227648655Y-123641522D01*
X227712614Y-123632585D01*
X227797664Y-123628929D01*
X227872900Y-123628410D01*
X228015421Y-123633543D01*
G36*
X203446566Y-125078327D02*
G01*
X203044400Y-125078327D01*
X203044400Y-124697327D01*
X203446566Y-124697327D01*
X203446566Y-125078327D01*
X203446566Y-125078327D01*
G37*
X203446566Y-125078327D02*
X203044400Y-125078327D01*
X203044400Y-124697327D01*
X203446566Y-124697327D01*
X203446566Y-125078327D01*
G36*
X232889400Y-125078327D02*
G01*
X232487233Y-125078327D01*
X232487233Y-124697327D01*
X232889400Y-124697327D01*
X232889400Y-125078327D01*
X232889400Y-125078327D01*
G37*
X232889400Y-125078327D02*
X232487233Y-125078327D01*
X232487233Y-124697327D01*
X232889400Y-124697327D01*
X232889400Y-125078327D01*
G36*
X204626787Y-123612017D02*
G01*
X204703030Y-123621731D01*
X204772485Y-123641994D01*
X204837967Y-123669403D01*
X204928511Y-123712691D01*
X204982080Y-123747020D01*
X205001304Y-123778391D01*
X204988811Y-123812801D01*
X204947231Y-123856250D01*
X204927489Y-123873668D01*
X204856740Y-123931304D01*
X204804771Y-123961261D01*
X204760998Y-123966351D01*
X204714835Y-123949386D01*
X204691985Y-123936236D01*
X204589204Y-123896796D01*
X204478857Y-123893632D01*
X204370924Y-123924493D01*
X204275385Y-123987130D01*
X204226588Y-124041160D01*
X204188320Y-124121324D01*
X204165490Y-124227510D01*
X204158260Y-124346259D01*
X204166792Y-124464113D01*
X204191249Y-124567612D01*
X204219533Y-124626800D01*
X204286747Y-124695397D01*
X204382011Y-124747344D01*
X204478651Y-124773342D01*
X204544209Y-124777531D01*
X204604126Y-124764799D01*
X204676986Y-124731667D01*
X204783773Y-124676264D01*
X204908920Y-124774584D01*
X204968786Y-124822188D01*
X205013050Y-124858471D01*
X205033535Y-124876707D01*
X205034066Y-124877553D01*
X205016608Y-124895443D01*
X204971686Y-124924490D01*
X204910475Y-124958564D01*
X204844153Y-124991532D01*
X204783897Y-125017263D01*
X204771004Y-125021876D01*
X204669292Y-125044272D01*
X204545465Y-125053959D01*
X204417936Y-125050449D01*
X204308779Y-125034130D01*
X204160224Y-124978465D01*
X204026980Y-124884374D01*
X203983326Y-124841949D01*
X203908826Y-124755296D01*
X203858909Y-124671614D01*
X203825288Y-124574246D01*
X203806596Y-124486745D01*
X203793404Y-124306741D01*
X203818783Y-124136749D01*
X203880375Y-123981454D01*
X203975819Y-123845542D01*
X204102756Y-123733699D01*
X204219150Y-123667536D01*
X204293702Y-123636744D01*
X204361489Y-123618985D01*
X204439746Y-123610997D01*
X204526066Y-123609452D01*
X204626787Y-123612017D01*
X204626787Y-123612017D01*
G37*
X204626787Y-123612017D02*
X204703030Y-123621731D01*
X204772485Y-123641994D01*
X204837967Y-123669403D01*
X204928511Y-123712691D01*
X204982080Y-123747020D01*
X205001304Y-123778391D01*
X204988811Y-123812801D01*
X204947231Y-123856250D01*
X204927489Y-123873668D01*
X204856740Y-123931304D01*
X204804771Y-123961261D01*
X204760998Y-123966351D01*
X204714835Y-123949386D01*
X204691985Y-123936236D01*
X204589204Y-123896796D01*
X204478857Y-123893632D01*
X204370924Y-123924493D01*
X204275385Y-123987130D01*
X204226588Y-124041160D01*
X204188320Y-124121324D01*
X204165490Y-124227510D01*
X204158260Y-124346259D01*
X204166792Y-124464113D01*
X204191249Y-124567612D01*
X204219533Y-124626800D01*
X204286747Y-124695397D01*
X204382011Y-124747344D01*
X204478651Y-124773342D01*
X204544209Y-124777531D01*
X204604126Y-124764799D01*
X204676986Y-124731667D01*
X204783773Y-124676264D01*
X204908920Y-124774584D01*
X204968786Y-124822188D01*
X205013050Y-124858471D01*
X205033535Y-124876707D01*
X205034066Y-124877553D01*
X205016608Y-124895443D01*
X204971686Y-124924490D01*
X204910475Y-124958564D01*
X204844153Y-124991532D01*
X204783897Y-125017263D01*
X204771004Y-125021876D01*
X204669292Y-125044272D01*
X204545465Y-125053959D01*
X204417936Y-125050449D01*
X204308779Y-125034130D01*
X204160224Y-124978465D01*
X204026980Y-124884374D01*
X203983326Y-124841949D01*
X203908826Y-124755296D01*
X203858909Y-124671614D01*
X203825288Y-124574246D01*
X203806596Y-124486745D01*
X203793404Y-124306741D01*
X203818783Y-124136749D01*
X203880375Y-123981454D01*
X203975819Y-123845542D01*
X204102756Y-123733699D01*
X204219150Y-123667536D01*
X204293702Y-123636744D01*
X204361489Y-123618985D01*
X204439746Y-123610997D01*
X204526066Y-123609452D01*
X204626787Y-123612017D01*
G36*
X207247291Y-123641846D02*
G01*
X207271555Y-123650134D01*
X207402534Y-123722103D01*
X207511609Y-123827176D01*
X207595682Y-123960530D01*
X207651654Y-124117341D01*
X207675731Y-124279285D01*
X207685339Y-124443327D01*
X207206369Y-124443327D01*
X207052234Y-124443450D01*
X206935299Y-124444127D01*
X206850430Y-124445822D01*
X206792494Y-124448997D01*
X206756356Y-124454115D01*
X206736884Y-124461639D01*
X206728943Y-124472031D01*
X206727401Y-124485754D01*
X206727400Y-124486503D01*
X206736789Y-124531602D01*
X206760326Y-124592907D01*
X206770980Y-124615105D01*
X206821152Y-124685177D01*
X206891178Y-124730747D01*
X206987888Y-124754879D01*
X207095512Y-124760827D01*
X207176615Y-124758116D01*
X207231185Y-124747146D01*
X207274832Y-124723659D01*
X207297669Y-124705698D01*
X207363186Y-124650569D01*
X207431584Y-124704330D01*
X207494521Y-124754426D01*
X207556386Y-124804582D01*
X207561491Y-124808781D01*
X207623000Y-124859471D01*
X207549769Y-124915328D01*
X207459733Y-124974702D01*
X207366431Y-125014153D01*
X207257433Y-125037440D01*
X207120309Y-125048319D01*
X207108400Y-125048744D01*
X207012512Y-125049959D01*
X206925831Y-125047546D01*
X206861820Y-125042021D01*
X206843816Y-125038609D01*
X206704839Y-124981862D01*
X206579491Y-124892820D01*
X206476661Y-124779669D01*
X206405240Y-124650592D01*
X206396591Y-124626853D01*
X206368395Y-124496715D01*
X206360643Y-124347973D01*
X206372005Y-124210494D01*
X206724547Y-124210494D01*
X207342039Y-124210494D01*
X207328677Y-124152285D01*
X207287011Y-124045711D01*
X207221878Y-123966645D01*
X207140603Y-123916805D01*
X207050510Y-123897906D01*
X206958923Y-123911665D01*
X206873166Y-123959798D01*
X206809267Y-124030577D01*
X206771700Y-124091662D01*
X206744227Y-124146436D01*
X206738221Y-124162869D01*
X206724547Y-124210494D01*
X206372005Y-124210494D01*
X206372965Y-124198885D01*
X206404990Y-124067707D01*
X206408133Y-124059213D01*
X206478336Y-123924910D01*
X206577289Y-123804748D01*
X206694421Y-123710737D01*
X206735372Y-123687443D01*
X206853299Y-123644282D01*
X206988726Y-123621544D01*
X207125457Y-123620356D01*
X207247291Y-123641846D01*
X207247291Y-123641846D01*
G37*
X207247291Y-123641846D02*
X207271555Y-123650134D01*
X207402534Y-123722103D01*
X207511609Y-123827176D01*
X207595682Y-123960530D01*
X207651654Y-124117341D01*
X207675731Y-124279285D01*
X207685339Y-124443327D01*
X207206369Y-124443327D01*
X207052234Y-124443450D01*
X206935299Y-124444127D01*
X206850430Y-124445822D01*
X206792494Y-124448997D01*
X206756356Y-124454115D01*
X206736884Y-124461639D01*
X206728943Y-124472031D01*
X206727401Y-124485754D01*
X206727400Y-124486503D01*
X206736789Y-124531602D01*
X206760326Y-124592907D01*
X206770980Y-124615105D01*
X206821152Y-124685177D01*
X206891178Y-124730747D01*
X206987888Y-124754879D01*
X207095512Y-124760827D01*
X207176615Y-124758116D01*
X207231185Y-124747146D01*
X207274832Y-124723659D01*
X207297669Y-124705698D01*
X207363186Y-124650569D01*
X207431584Y-124704330D01*
X207494521Y-124754426D01*
X207556386Y-124804582D01*
X207561491Y-124808781D01*
X207623000Y-124859471D01*
X207549769Y-124915328D01*
X207459733Y-124974702D01*
X207366431Y-125014153D01*
X207257433Y-125037440D01*
X207120309Y-125048319D01*
X207108400Y-125048744D01*
X207012512Y-125049959D01*
X206925831Y-125047546D01*
X206861820Y-125042021D01*
X206843816Y-125038609D01*
X206704839Y-124981862D01*
X206579491Y-124892820D01*
X206476661Y-124779669D01*
X206405240Y-124650592D01*
X206396591Y-124626853D01*
X206368395Y-124496715D01*
X206360643Y-124347973D01*
X206372005Y-124210494D01*
X206724547Y-124210494D01*
X207342039Y-124210494D01*
X207328677Y-124152285D01*
X207287011Y-124045711D01*
X207221878Y-123966645D01*
X207140603Y-123916805D01*
X207050510Y-123897906D01*
X206958923Y-123911665D01*
X206873166Y-123959798D01*
X206809267Y-124030577D01*
X206771700Y-124091662D01*
X206744227Y-124146436D01*
X206738221Y-124162869D01*
X206724547Y-124210494D01*
X206372005Y-124210494D01*
X206372965Y-124198885D01*
X206404990Y-124067707D01*
X206408133Y-124059213D01*
X206478336Y-123924910D01*
X206577289Y-123804748D01*
X206694421Y-123710737D01*
X206735372Y-123687443D01*
X206853299Y-123644282D01*
X206988726Y-123621544D01*
X207125457Y-123620356D01*
X207247291Y-123641846D01*
G36*
X208702456Y-123624417D02*
G01*
X208845238Y-123657467D01*
X208958616Y-123714943D01*
X209046294Y-123798603D01*
X209101191Y-123887126D01*
X209117871Y-123923362D01*
X209130509Y-123959597D01*
X209139788Y-124002447D01*
X209146395Y-124058532D01*
X209151013Y-124134468D01*
X209154329Y-124236875D01*
X209157026Y-124372370D01*
X209158077Y-124436765D01*
X209165171Y-124885287D01*
X209061316Y-124937914D01*
X208872783Y-125010861D01*
X208667116Y-125049262D01*
X208534094Y-125054705D01*
X208448938Y-125052347D01*
X208376171Y-125048365D01*
X208329637Y-125043552D01*
X208325483Y-125042742D01*
X208206762Y-125008022D01*
X208115600Y-124961122D01*
X208068586Y-124924777D01*
X207990745Y-124841254D01*
X207945587Y-124750639D01*
X207927354Y-124639730D01*
X207926360Y-124602077D01*
X208293733Y-124602077D01*
X208310658Y-124679585D01*
X208361128Y-124731318D01*
X208416921Y-124752063D01*
X208466821Y-124764261D01*
X208494816Y-124772777D01*
X208529215Y-124775871D01*
X208589547Y-124773521D01*
X208659976Y-124767163D01*
X208724663Y-124758231D01*
X208767772Y-124748161D01*
X208768182Y-124748006D01*
X208788211Y-124720292D01*
X208800378Y-124664646D01*
X208804678Y-124594732D01*
X208801109Y-124524209D01*
X208789668Y-124466741D01*
X208770352Y-124435989D01*
X208768252Y-124435008D01*
X208714938Y-124425237D01*
X208636307Y-124422646D01*
X208548679Y-124426780D01*
X208468375Y-124437183D01*
X208437322Y-124444243D01*
X208355311Y-124477904D01*
X208309284Y-124526314D01*
X208293813Y-124595440D01*
X208293733Y-124602077D01*
X207926360Y-124602077D01*
X207926266Y-124598532D01*
X207930126Y-124513411D01*
X207945712Y-124450211D01*
X207978316Y-124389013D01*
X207984390Y-124379696D01*
X208061064Y-124299056D01*
X208170460Y-124233302D01*
X208304787Y-124185042D01*
X208456255Y-124156881D01*
X208617071Y-124151428D01*
X208658858Y-124154003D01*
X208734415Y-124159470D01*
X208777152Y-124158608D01*
X208796413Y-124148865D01*
X208801544Y-124127692D01*
X208801733Y-124115008D01*
X208784251Y-124028554D01*
X208736975Y-123958729D01*
X208700826Y-123932361D01*
X208623096Y-123908662D01*
X208524563Y-123902747D01*
X208422394Y-123913683D01*
X208333759Y-123940540D01*
X208308988Y-123953606D01*
X208229094Y-124002983D01*
X208160872Y-123949356D01*
X208097637Y-123899017D01*
X208035215Y-123848408D01*
X208030380Y-123844433D01*
X207968111Y-123793136D01*
X208051547Y-123738054D01*
X208157456Y-123678052D01*
X208265943Y-123639671D01*
X208390141Y-123619482D01*
X208526566Y-123614032D01*
X208702456Y-123624417D01*
X208702456Y-123624417D01*
G37*
X208702456Y-123624417D02*
X208845238Y-123657467D01*
X208958616Y-123714943D01*
X209046294Y-123798603D01*
X209101191Y-123887126D01*
X209117871Y-123923362D01*
X209130509Y-123959597D01*
X209139788Y-124002447D01*
X209146395Y-124058532D01*
X209151013Y-124134468D01*
X209154329Y-124236875D01*
X209157026Y-124372370D01*
X209158077Y-124436765D01*
X209165171Y-124885287D01*
X209061316Y-124937914D01*
X208872783Y-125010861D01*
X208667116Y-125049262D01*
X208534094Y-125054705D01*
X208448938Y-125052347D01*
X208376171Y-125048365D01*
X208329637Y-125043552D01*
X208325483Y-125042742D01*
X208206762Y-125008022D01*
X208115600Y-124961122D01*
X208068586Y-124924777D01*
X207990745Y-124841254D01*
X207945587Y-124750639D01*
X207927354Y-124639730D01*
X207926360Y-124602077D01*
X208293733Y-124602077D01*
X208310658Y-124679585D01*
X208361128Y-124731318D01*
X208416921Y-124752063D01*
X208466821Y-124764261D01*
X208494816Y-124772777D01*
X208529215Y-124775871D01*
X208589547Y-124773521D01*
X208659976Y-124767163D01*
X208724663Y-124758231D01*
X208767772Y-124748161D01*
X208768182Y-124748006D01*
X208788211Y-124720292D01*
X208800378Y-124664646D01*
X208804678Y-124594732D01*
X208801109Y-124524209D01*
X208789668Y-124466741D01*
X208770352Y-124435989D01*
X208768252Y-124435008D01*
X208714938Y-124425237D01*
X208636307Y-124422646D01*
X208548679Y-124426780D01*
X208468375Y-124437183D01*
X208437322Y-124444243D01*
X208355311Y-124477904D01*
X208309284Y-124526314D01*
X208293813Y-124595440D01*
X208293733Y-124602077D01*
X207926360Y-124602077D01*
X207926266Y-124598532D01*
X207930126Y-124513411D01*
X207945712Y-124450211D01*
X207978316Y-124389013D01*
X207984390Y-124379696D01*
X208061064Y-124299056D01*
X208170460Y-124233302D01*
X208304787Y-124185042D01*
X208456255Y-124156881D01*
X208617071Y-124151428D01*
X208658858Y-124154003D01*
X208734415Y-124159470D01*
X208777152Y-124158608D01*
X208796413Y-124148865D01*
X208801544Y-124127692D01*
X208801733Y-124115008D01*
X208784251Y-124028554D01*
X208736975Y-123958729D01*
X208700826Y-123932361D01*
X208623096Y-123908662D01*
X208524563Y-123902747D01*
X208422394Y-123913683D01*
X208333759Y-123940540D01*
X208308988Y-123953606D01*
X208229094Y-124002983D01*
X208160872Y-123949356D01*
X208097637Y-123899017D01*
X208035215Y-123848408D01*
X208030380Y-123844433D01*
X207968111Y-123793136D01*
X208051547Y-123738054D01*
X208157456Y-123678052D01*
X208265943Y-123639671D01*
X208390141Y-123619482D01*
X208526566Y-123614032D01*
X208702456Y-123624417D01*
G36*
X209892606Y-123213760D02*
G01*
X209898801Y-123247333D01*
X209901660Y-123308619D01*
X209902396Y-123404605D01*
X209902400Y-123415317D01*
X209902400Y-123638994D01*
X210495066Y-123638994D01*
X210495066Y-123914160D01*
X209902400Y-123914160D01*
X209902400Y-124258700D01*
X209903234Y-124400413D01*
X209906922Y-124506369D01*
X209915238Y-124583133D01*
X209929957Y-124637268D01*
X209952854Y-124675337D01*
X209985704Y-124703904D01*
X210029633Y-124729198D01*
X210100189Y-124753894D01*
X210183757Y-124758356D01*
X210290079Y-124742543D01*
X210351477Y-124727891D01*
X210418708Y-124711668D01*
X210467119Y-124702246D01*
X210484879Y-124701432D01*
X210493098Y-124723712D01*
X210508171Y-124775191D01*
X210524050Y-124834169D01*
X210540618Y-124901493D01*
X210543819Y-124945735D01*
X210527433Y-124974297D01*
X210485238Y-124994584D01*
X210411013Y-125014001D01*
X210363888Y-125024797D01*
X210166512Y-125051932D01*
X209974617Y-125043939D01*
X209962996Y-125042230D01*
X209877067Y-125013759D01*
X209783211Y-124958708D01*
X209695113Y-124886896D01*
X209626461Y-124808143D01*
X209617410Y-124794287D01*
X209553150Y-124690165D01*
X209546820Y-123975989D01*
X209540491Y-123261813D01*
X209599737Y-123250044D01*
X209661119Y-123238794D01*
X209733845Y-123226658D01*
X209743650Y-123225119D01*
X209807702Y-123214100D01*
X209858359Y-123203593D01*
X209865358Y-123201802D01*
X209881862Y-123200913D01*
X209892606Y-123213760D01*
X209892606Y-123213760D01*
G37*
X209892606Y-123213760D02*
X209898801Y-123247333D01*
X209901660Y-123308619D01*
X209902396Y-123404605D01*
X209902400Y-123415317D01*
X209902400Y-123638994D01*
X210495066Y-123638994D01*
X210495066Y-123914160D01*
X209902400Y-123914160D01*
X209902400Y-124258700D01*
X209903234Y-124400413D01*
X209906922Y-124506369D01*
X209915238Y-124583133D01*
X209929957Y-124637268D01*
X209952854Y-124675337D01*
X209985704Y-124703904D01*
X210029633Y-124729198D01*
X210100189Y-124753894D01*
X210183757Y-124758356D01*
X210290079Y-124742543D01*
X210351477Y-124727891D01*
X210418708Y-124711668D01*
X210467119Y-124702246D01*
X210484879Y-124701432D01*
X210493098Y-124723712D01*
X210508171Y-124775191D01*
X210524050Y-124834169D01*
X210540618Y-124901493D01*
X210543819Y-124945735D01*
X210527433Y-124974297D01*
X210485238Y-124994584D01*
X210411013Y-125014001D01*
X210363888Y-125024797D01*
X210166512Y-125051932D01*
X209974617Y-125043939D01*
X209962996Y-125042230D01*
X209877067Y-125013759D01*
X209783211Y-124958708D01*
X209695113Y-124886896D01*
X209626461Y-124808143D01*
X209617410Y-124794287D01*
X209553150Y-124690165D01*
X209546820Y-123975989D01*
X209540491Y-123261813D01*
X209599737Y-123250044D01*
X209661119Y-123238794D01*
X209733845Y-123226658D01*
X209743650Y-123225119D01*
X209807702Y-123214100D01*
X209858359Y-123203593D01*
X209865358Y-123201802D01*
X209881862Y-123200913D01*
X209892606Y-123213760D01*
G36*
X213743455Y-123635722D02*
G01*
X213880110Y-123685434D01*
X213993733Y-123769577D01*
X214087187Y-123889834D01*
X214109904Y-123929783D01*
X214157711Y-124043893D01*
X214194949Y-124179595D01*
X214216682Y-124316526D01*
X214220240Y-124385119D01*
X214220400Y-124443327D01*
X213245926Y-124443327D01*
X213259496Y-124501535D01*
X213300047Y-124614611D01*
X213362996Y-124693602D01*
X213451925Y-124741230D01*
X213570418Y-124760221D01*
X213600505Y-124760827D01*
X213708244Y-124754629D01*
X213785390Y-124733776D01*
X213842156Y-124694883D01*
X213860566Y-124674599D01*
X213878215Y-124657146D01*
X213897754Y-124654746D01*
X213927075Y-124671199D01*
X213974068Y-124710302D01*
X214019316Y-124751015D01*
X214081476Y-124808312D01*
X214116294Y-124844866D01*
X214127995Y-124868146D01*
X214120804Y-124885617D01*
X214103983Y-124900677D01*
X214061612Y-124928476D01*
X213997010Y-124963978D01*
X213946450Y-124988905D01*
X213834164Y-125026269D01*
X213698632Y-125048521D01*
X213555643Y-125054863D01*
X213420984Y-125044500D01*
X213320653Y-125020480D01*
X213172413Y-124946826D01*
X213053887Y-124843984D01*
X212966377Y-124714151D01*
X212911186Y-124559524D01*
X212889618Y-124382299D01*
X212891183Y-124296540D01*
X212908602Y-124188647D01*
X213267900Y-124188647D01*
X213288634Y-124198152D01*
X213349249Y-124205075D01*
X213447356Y-124209243D01*
X213566879Y-124210494D01*
X213865858Y-124210494D01*
X213852384Y-124141702D01*
X213815669Y-124047513D01*
X213751211Y-123970931D01*
X213668402Y-123918979D01*
X213576631Y-123898680D01*
X213532185Y-123902236D01*
X213452234Y-123933759D01*
X213376064Y-123991609D01*
X213313736Y-124064886D01*
X213275309Y-124142687D01*
X213267900Y-124188647D01*
X212908602Y-124188647D01*
X212919760Y-124119538D01*
X212981637Y-123964021D01*
X213073448Y-123833297D01*
X213191826Y-123730673D01*
X213333406Y-123659458D01*
X213494821Y-123622960D01*
X213580902Y-123618756D01*
X213743455Y-123635722D01*
X213743455Y-123635722D01*
G37*
X213743455Y-123635722D02*
X213880110Y-123685434D01*
X213993733Y-123769577D01*
X214087187Y-123889834D01*
X214109904Y-123929783D01*
X214157711Y-124043893D01*
X214194949Y-124179595D01*
X214216682Y-124316526D01*
X214220240Y-124385119D01*
X214220400Y-124443327D01*
X213245926Y-124443327D01*
X213259496Y-124501535D01*
X213300047Y-124614611D01*
X213362996Y-124693602D01*
X213451925Y-124741230D01*
X213570418Y-124760221D01*
X213600505Y-124760827D01*
X213708244Y-124754629D01*
X213785390Y-124733776D01*
X213842156Y-124694883D01*
X213860566Y-124674599D01*
X213878215Y-124657146D01*
X213897754Y-124654746D01*
X213927075Y-124671199D01*
X213974068Y-124710302D01*
X214019316Y-124751015D01*
X214081476Y-124808312D01*
X214116294Y-124844866D01*
X214127995Y-124868146D01*
X214120804Y-124885617D01*
X214103983Y-124900677D01*
X214061612Y-124928476D01*
X213997010Y-124963978D01*
X213946450Y-124988905D01*
X213834164Y-125026269D01*
X213698632Y-125048521D01*
X213555643Y-125054863D01*
X213420984Y-125044500D01*
X213320653Y-125020480D01*
X213172413Y-124946826D01*
X213053887Y-124843984D01*
X212966377Y-124714151D01*
X212911186Y-124559524D01*
X212889618Y-124382299D01*
X212891183Y-124296540D01*
X212908602Y-124188647D01*
X213267900Y-124188647D01*
X213288634Y-124198152D01*
X213349249Y-124205075D01*
X213447356Y-124209243D01*
X213566879Y-124210494D01*
X213865858Y-124210494D01*
X213852384Y-124141702D01*
X213815669Y-124047513D01*
X213751211Y-123970931D01*
X213668402Y-123918979D01*
X213576631Y-123898680D01*
X213532185Y-123902236D01*
X213452234Y-123933759D01*
X213376064Y-123991609D01*
X213313736Y-124064886D01*
X213275309Y-124142687D01*
X213267900Y-124188647D01*
X212908602Y-124188647D01*
X212919760Y-124119538D01*
X212981637Y-123964021D01*
X213073448Y-123833297D01*
X213191826Y-123730673D01*
X213333406Y-123659458D01*
X213494821Y-123622960D01*
X213580902Y-123618756D01*
X213743455Y-123635722D01*
G36*
X215807900Y-123638994D02*
G01*
X216400566Y-123638994D01*
X216400566Y-123914160D01*
X215807900Y-123914160D01*
X215807900Y-124615917D01*
X215868687Y-124676704D01*
X215923947Y-124720635D01*
X215981263Y-124750085D01*
X215989851Y-124752646D01*
X216044511Y-124756462D01*
X216125907Y-124750712D01*
X216219985Y-124737165D01*
X216312693Y-124717587D01*
X216350000Y-124707346D01*
X216377984Y-124704334D01*
X216396676Y-124722171D01*
X216413010Y-124769685D01*
X216419749Y-124796169D01*
X216436595Y-124863444D01*
X216450703Y-124917341D01*
X216455157Y-124933218D01*
X216450526Y-124958975D01*
X216415497Y-124982890D01*
X216364242Y-125002994D01*
X216283724Y-125023126D01*
X216180905Y-125038265D01*
X216070291Y-125047379D01*
X215966390Y-125049439D01*
X215883707Y-125043411D01*
X215860816Y-125038773D01*
X215725850Y-124984272D01*
X215611950Y-124901047D01*
X215526116Y-124795454D01*
X215480685Y-124693648D01*
X215471076Y-124653629D01*
X215463459Y-124602233D01*
X215457631Y-124534627D01*
X215453387Y-124445980D01*
X215450525Y-124331461D01*
X215448838Y-124186238D01*
X215448125Y-124005479D01*
X215448066Y-123920902D01*
X215448228Y-123758208D01*
X215448688Y-123609965D01*
X215449405Y-123481239D01*
X215450339Y-123377099D01*
X215451449Y-123302613D01*
X215452694Y-123262848D01*
X215453358Y-123257570D01*
X215475178Y-123254222D01*
X215528711Y-123245669D01*
X215603888Y-123233525D01*
X215633275Y-123228753D01*
X215807900Y-123200358D01*
X215807900Y-123638994D01*
X215807900Y-123638994D01*
G37*
X215807900Y-123638994D02*
X216400566Y-123638994D01*
X216400566Y-123914160D01*
X215807900Y-123914160D01*
X215807900Y-124615917D01*
X215868687Y-124676704D01*
X215923947Y-124720635D01*
X215981263Y-124750085D01*
X215989851Y-124752646D01*
X216044511Y-124756462D01*
X216125907Y-124750712D01*
X216219985Y-124737165D01*
X216312693Y-124717587D01*
X216350000Y-124707346D01*
X216377984Y-124704334D01*
X216396676Y-124722171D01*
X216413010Y-124769685D01*
X216419749Y-124796169D01*
X216436595Y-124863444D01*
X216450703Y-124917341D01*
X216455157Y-124933218D01*
X216450526Y-124958975D01*
X216415497Y-124982890D01*
X216364242Y-125002994D01*
X216283724Y-125023126D01*
X216180905Y-125038265D01*
X216070291Y-125047379D01*
X215966390Y-125049439D01*
X215883707Y-125043411D01*
X215860816Y-125038773D01*
X215725850Y-124984272D01*
X215611950Y-124901047D01*
X215526116Y-124795454D01*
X215480685Y-124693648D01*
X215471076Y-124653629D01*
X215463459Y-124602233D01*
X215457631Y-124534627D01*
X215453387Y-124445980D01*
X215450525Y-124331461D01*
X215448838Y-124186238D01*
X215448125Y-124005479D01*
X215448066Y-123920902D01*
X215448228Y-123758208D01*
X215448688Y-123609965D01*
X215449405Y-123481239D01*
X215450339Y-123377099D01*
X215451449Y-123302613D01*
X215452694Y-123262848D01*
X215453358Y-123257570D01*
X215475178Y-123254222D01*
X215528711Y-123245669D01*
X215603888Y-123233525D01*
X215633275Y-123228753D01*
X215807900Y-123200358D01*
X215807900Y-123638994D01*
G36*
X217441156Y-123622178D02*
G01*
X217495694Y-123635109D01*
X217555042Y-123660024D01*
X217573554Y-123668954D01*
X217707410Y-123757025D01*
X217812541Y-123875181D01*
X217887630Y-124021249D01*
X217931361Y-124193050D01*
X217940255Y-124275149D01*
X217951782Y-124443327D01*
X217472507Y-124443327D01*
X217318312Y-124443452D01*
X217201319Y-124444134D01*
X217116396Y-124445834D01*
X217058411Y-124449011D01*
X217022234Y-124454128D01*
X217002734Y-124461643D01*
X216994777Y-124472018D01*
X216993234Y-124485714D01*
X216993233Y-124486340D01*
X217010764Y-124570628D01*
X217056270Y-124653400D01*
X217119120Y-124715769D01*
X217124251Y-124719106D01*
X217169643Y-124742450D01*
X217220365Y-124754746D01*
X217290034Y-124758188D01*
X217356741Y-124756528D01*
X217445368Y-124750949D01*
X217503908Y-124740646D01*
X217544579Y-124722427D01*
X217572182Y-124700271D01*
X217599958Y-124675869D01*
X217623900Y-124665412D01*
X217651919Y-124671913D01*
X217691926Y-124698382D01*
X217751831Y-124747830D01*
X217795277Y-124785179D01*
X217884931Y-124862448D01*
X217810147Y-124919488D01*
X217706277Y-124978229D01*
X217574677Y-125022169D01*
X217428009Y-125049178D01*
X217278936Y-125057128D01*
X217140121Y-125043888D01*
X217109650Y-125037299D01*
X216972548Y-124983477D01*
X216847547Y-124896158D01*
X216744024Y-124783844D01*
X216671356Y-124655037D01*
X216662763Y-124632160D01*
X216629586Y-124488247D01*
X216621631Y-124331086D01*
X216635890Y-124199230D01*
X216993233Y-124199230D01*
X217013154Y-124203226D01*
X217067938Y-124206598D01*
X217150116Y-124209070D01*
X217252219Y-124210366D01*
X217297899Y-124210494D01*
X217602565Y-124210494D01*
X217580752Y-124124558D01*
X217537823Y-124027805D01*
X217469764Y-123956228D01*
X217385035Y-123912321D01*
X217292101Y-123898577D01*
X217199422Y-123917489D01*
X217115462Y-123971550D01*
X217103189Y-123983855D01*
X217072147Y-124026267D01*
X217038178Y-124085678D01*
X217009427Y-124146133D01*
X216994040Y-124191676D01*
X216993233Y-124199230D01*
X216635890Y-124199230D01*
X216638358Y-124176408D01*
X216679228Y-124039948D01*
X216683393Y-124030577D01*
X216772118Y-123878609D01*
X216883508Y-123762301D01*
X217018537Y-123680991D01*
X217178178Y-123634017D01*
X217283960Y-123622159D01*
X217375791Y-123618703D01*
X217441156Y-123622178D01*
X217441156Y-123622178D01*
G37*
X217441156Y-123622178D02*
X217495694Y-123635109D01*
X217555042Y-123660024D01*
X217573554Y-123668954D01*
X217707410Y-123757025D01*
X217812541Y-123875181D01*
X217887630Y-124021249D01*
X217931361Y-124193050D01*
X217940255Y-124275149D01*
X217951782Y-124443327D01*
X217472507Y-124443327D01*
X217318312Y-124443452D01*
X217201319Y-124444134D01*
X217116396Y-124445834D01*
X217058411Y-124449011D01*
X217022234Y-124454128D01*
X217002734Y-124461643D01*
X216994777Y-124472018D01*
X216993234Y-124485714D01*
X216993233Y-124486340D01*
X217010764Y-124570628D01*
X217056270Y-124653400D01*
X217119120Y-124715769D01*
X217124251Y-124719106D01*
X217169643Y-124742450D01*
X217220365Y-124754746D01*
X217290034Y-124758188D01*
X217356741Y-124756528D01*
X217445368Y-124750949D01*
X217503908Y-124740646D01*
X217544579Y-124722427D01*
X217572182Y-124700271D01*
X217599958Y-124675869D01*
X217623900Y-124665412D01*
X217651919Y-124671913D01*
X217691926Y-124698382D01*
X217751831Y-124747830D01*
X217795277Y-124785179D01*
X217884931Y-124862448D01*
X217810147Y-124919488D01*
X217706277Y-124978229D01*
X217574677Y-125022169D01*
X217428009Y-125049178D01*
X217278936Y-125057128D01*
X217140121Y-125043888D01*
X217109650Y-125037299D01*
X216972548Y-124983477D01*
X216847547Y-124896158D01*
X216744024Y-124783844D01*
X216671356Y-124655037D01*
X216662763Y-124632160D01*
X216629586Y-124488247D01*
X216621631Y-124331086D01*
X216635890Y-124199230D01*
X216993233Y-124199230D01*
X217013154Y-124203226D01*
X217067938Y-124206598D01*
X217150116Y-124209070D01*
X217252219Y-124210366D01*
X217297899Y-124210494D01*
X217602565Y-124210494D01*
X217580752Y-124124558D01*
X217537823Y-124027805D01*
X217469764Y-123956228D01*
X217385035Y-123912321D01*
X217292101Y-123898577D01*
X217199422Y-123917489D01*
X217115462Y-123971550D01*
X217103189Y-123983855D01*
X217072147Y-124026267D01*
X217038178Y-124085678D01*
X217009427Y-124146133D01*
X216994040Y-124191676D01*
X216993233Y-124199230D01*
X216635890Y-124199230D01*
X216638358Y-124176408D01*
X216679228Y-124039948D01*
X216683393Y-124030577D01*
X216772118Y-123878609D01*
X216883508Y-123762301D01*
X217018537Y-123680991D01*
X217178178Y-123634017D01*
X217283960Y-123622159D01*
X217375791Y-123618703D01*
X217441156Y-123622178D01*
G36*
X219088733Y-123617019D02*
G01*
X219160993Y-123635929D01*
X219241018Y-123664830D01*
X219318714Y-123698970D01*
X219383990Y-123733597D01*
X219426750Y-123763958D01*
X219437983Y-123781457D01*
X219422658Y-123804521D01*
X219382348Y-123845010D01*
X219325546Y-123894444D01*
X219321457Y-123897788D01*
X219204931Y-123992710D01*
X219122495Y-123940537D01*
X219021112Y-123899740D01*
X218911014Y-123893836D01*
X218802823Y-123920057D01*
X218707163Y-123975638D01*
X218634656Y-124057813D01*
X218628038Y-124069287D01*
X218608536Y-124118710D01*
X218596911Y-124186166D01*
X218591827Y-124281424D01*
X218591316Y-124337494D01*
X218592828Y-124438218D01*
X218598649Y-124508178D01*
X218610709Y-124558878D01*
X218630939Y-124601820D01*
X218637479Y-124612660D01*
X218715454Y-124701256D01*
X218813628Y-124755874D01*
X218924560Y-124774601D01*
X219040811Y-124755523D01*
X219098599Y-124731214D01*
X219153294Y-124704496D01*
X219194347Y-124692877D01*
X219232004Y-124699226D01*
X219276510Y-124726412D01*
X219338111Y-124777305D01*
X219373578Y-124808215D01*
X219457339Y-124881421D01*
X219370340Y-124938994D01*
X219231912Y-125007287D01*
X219072907Y-125046779D01*
X218905059Y-125056019D01*
X218740103Y-125033557D01*
X218698260Y-125022076D01*
X218544945Y-124954312D01*
X218416314Y-124854740D01*
X218316815Y-124727809D01*
X218250899Y-124577966D01*
X218249617Y-124573611D01*
X218226668Y-124446231D01*
X218223582Y-124303701D01*
X218239311Y-124162505D01*
X218272806Y-124039127D01*
X218285515Y-124009410D01*
X218373159Y-123872181D01*
X218490510Y-123759740D01*
X218630796Y-123675397D01*
X218787244Y-123622459D01*
X218953082Y-123604235D01*
X219088733Y-123617019D01*
X219088733Y-123617019D01*
G37*
X219088733Y-123617019D02*
X219160993Y-123635929D01*
X219241018Y-123664830D01*
X219318714Y-123698970D01*
X219383990Y-123733597D01*
X219426750Y-123763958D01*
X219437983Y-123781457D01*
X219422658Y-123804521D01*
X219382348Y-123845010D01*
X219325546Y-123894444D01*
X219321457Y-123897788D01*
X219204931Y-123992710D01*
X219122495Y-123940537D01*
X219021112Y-123899740D01*
X218911014Y-123893836D01*
X218802823Y-123920057D01*
X218707163Y-123975638D01*
X218634656Y-124057813D01*
X218628038Y-124069287D01*
X218608536Y-124118710D01*
X218596911Y-124186166D01*
X218591827Y-124281424D01*
X218591316Y-124337494D01*
X218592828Y-124438218D01*
X218598649Y-124508178D01*
X218610709Y-124558878D01*
X218630939Y-124601820D01*
X218637479Y-124612660D01*
X218715454Y-124701256D01*
X218813628Y-124755874D01*
X218924560Y-124774601D01*
X219040811Y-124755523D01*
X219098599Y-124731214D01*
X219153294Y-124704496D01*
X219194347Y-124692877D01*
X219232004Y-124699226D01*
X219276510Y-124726412D01*
X219338111Y-124777305D01*
X219373578Y-124808215D01*
X219457339Y-124881421D01*
X219370340Y-124938994D01*
X219231912Y-125007287D01*
X219072907Y-125046779D01*
X218905059Y-125056019D01*
X218740103Y-125033557D01*
X218698260Y-125022076D01*
X218544945Y-124954312D01*
X218416314Y-124854740D01*
X218316815Y-124727809D01*
X218250899Y-124577966D01*
X218249617Y-124573611D01*
X218226668Y-124446231D01*
X218223582Y-124303701D01*
X218239311Y-124162505D01*
X218272806Y-124039127D01*
X218285515Y-124009410D01*
X218373159Y-123872181D01*
X218490510Y-123759740D01*
X218630796Y-123675397D01*
X218787244Y-123622459D01*
X218953082Y-123604235D01*
X219088733Y-123617019D01*
G36*
X223658342Y-123621958D02*
G01*
X223808296Y-123635394D01*
X223928132Y-123663917D01*
X224028656Y-123711783D01*
X224120675Y-123783248D01*
X224156215Y-123818049D01*
X224249166Y-123935934D01*
X224309348Y-124067708D01*
X224339458Y-124220824D01*
X224344163Y-124337494D01*
X224331859Y-124517548D01*
X224296535Y-124665544D01*
X224235653Y-124786475D01*
X224146674Y-124885332D01*
X224027059Y-124967107D01*
X224022739Y-124969475D01*
X223956408Y-125003853D01*
X223900890Y-125026020D01*
X223842627Y-125039115D01*
X223768055Y-125046278D01*
X223673489Y-125050324D01*
X223557639Y-125051900D01*
X223469005Y-125046680D01*
X223392800Y-125033139D01*
X223329537Y-125014864D01*
X223192650Y-124952653D01*
X223078375Y-124865695D01*
X222993439Y-124760249D01*
X222949471Y-124661214D01*
X222928812Y-124552742D01*
X222920159Y-124421324D01*
X222921776Y-124337494D01*
X223279733Y-124337494D01*
X223286338Y-124431640D01*
X223303839Y-124528552D01*
X223328767Y-124613711D01*
X223357652Y-124672599D01*
X223360810Y-124676712D01*
X223424106Y-124725260D01*
X223513982Y-124758031D01*
X223617175Y-124773548D01*
X223720419Y-124770336D01*
X223810452Y-124746918D01*
X223841849Y-124730238D01*
X223904355Y-124667754D01*
X223946684Y-124573877D01*
X223970102Y-124445442D01*
X223973553Y-124400994D01*
X223970288Y-124238347D01*
X223940244Y-124106094D01*
X223884371Y-124005379D01*
X223803618Y-123937344D01*
X223698934Y-123903133D01*
X223571269Y-123903889D01*
X223561922Y-123905217D01*
X223453313Y-123940192D01*
X223370677Y-124008346D01*
X223314342Y-124109176D01*
X223284637Y-124242176D01*
X223279733Y-124337494D01*
X222921776Y-124337494D01*
X222922873Y-124280629D01*
X222936316Y-124144326D01*
X222959851Y-124026083D01*
X222982159Y-123960988D01*
X223058143Y-123832292D01*
X223159382Y-123734752D01*
X223287487Y-123667562D01*
X223444064Y-123629914D01*
X223630724Y-123621003D01*
X223658342Y-123621958D01*
X223658342Y-123621958D01*
G37*
X223658342Y-123621958D02*
X223808296Y-123635394D01*
X223928132Y-123663917D01*
X224028656Y-123711783D01*
X224120675Y-123783248D01*
X224156215Y-123818049D01*
X224249166Y-123935934D01*
X224309348Y-124067708D01*
X224339458Y-124220824D01*
X224344163Y-124337494D01*
X224331859Y-124517548D01*
X224296535Y-124665544D01*
X224235653Y-124786475D01*
X224146674Y-124885332D01*
X224027059Y-124967107D01*
X224022739Y-124969475D01*
X223956408Y-125003853D01*
X223900890Y-125026020D01*
X223842627Y-125039115D01*
X223768055Y-125046278D01*
X223673489Y-125050324D01*
X223557639Y-125051900D01*
X223469005Y-125046680D01*
X223392800Y-125033139D01*
X223329537Y-125014864D01*
X223192650Y-124952653D01*
X223078375Y-124865695D01*
X222993439Y-124760249D01*
X222949471Y-124661214D01*
X222928812Y-124552742D01*
X222920159Y-124421324D01*
X222921776Y-124337494D01*
X223279733Y-124337494D01*
X223286338Y-124431640D01*
X223303839Y-124528552D01*
X223328767Y-124613711D01*
X223357652Y-124672599D01*
X223360810Y-124676712D01*
X223424106Y-124725260D01*
X223513982Y-124758031D01*
X223617175Y-124773548D01*
X223720419Y-124770336D01*
X223810452Y-124746918D01*
X223841849Y-124730238D01*
X223904355Y-124667754D01*
X223946684Y-124573877D01*
X223970102Y-124445442D01*
X223973553Y-124400994D01*
X223970288Y-124238347D01*
X223940244Y-124106094D01*
X223884371Y-124005379D01*
X223803618Y-123937344D01*
X223698934Y-123903133D01*
X223571269Y-123903889D01*
X223561922Y-123905217D01*
X223453313Y-123940192D01*
X223370677Y-124008346D01*
X223314342Y-124109176D01*
X223284637Y-124242176D01*
X223279733Y-124337494D01*
X222921776Y-124337494D01*
X222922873Y-124280629D01*
X222936316Y-124144326D01*
X222959851Y-124026083D01*
X222982159Y-123960988D01*
X223058143Y-123832292D01*
X223159382Y-123734752D01*
X223287487Y-123667562D01*
X223444064Y-123629914D01*
X223630724Y-123621003D01*
X223658342Y-123621958D01*
G36*
X224994040Y-122955394D02*
G01*
X225000086Y-122973930D01*
X225004951Y-123007406D01*
X225008813Y-123059526D01*
X225011853Y-123133995D01*
X225014251Y-123234518D01*
X225016186Y-123364800D01*
X225017840Y-123528547D01*
X225019392Y-123729463D01*
X225020014Y-123819584D01*
X225025983Y-124701097D01*
X225075953Y-124741545D01*
X225133633Y-124770772D01*
X225195411Y-124781994D01*
X225264900Y-124781994D01*
X225245812Y-124871952D01*
X225227142Y-124959870D01*
X225212929Y-125014432D01*
X225197634Y-125043420D01*
X225175720Y-125054614D01*
X225141650Y-125055796D01*
X225115538Y-125054994D01*
X225040493Y-125049707D01*
X224970991Y-125039480D01*
X224961015Y-125037282D01*
X224846609Y-124991536D01*
X224758973Y-124917553D01*
X224718617Y-124855148D01*
X224708303Y-124831956D01*
X224699834Y-124806262D01*
X224693027Y-124773891D01*
X224687702Y-124730665D01*
X224683679Y-124672410D01*
X224680777Y-124594948D01*
X224678814Y-124494105D01*
X224677609Y-124365703D01*
X224676983Y-124205566D01*
X224676755Y-124009519D01*
X224676733Y-123887737D01*
X224676486Y-123669501D01*
X224676216Y-123489789D01*
X224676625Y-123344796D01*
X224678417Y-123230720D01*
X224682296Y-123143757D01*
X224688964Y-123080103D01*
X224699127Y-123035954D01*
X224713486Y-123007508D01*
X224732746Y-122990960D01*
X224757611Y-122982507D01*
X224788783Y-122978345D01*
X224826966Y-122974671D01*
X224846066Y-122972244D01*
X224912628Y-122961609D01*
X224965691Y-122951286D01*
X224977681Y-122948319D01*
X224986632Y-122948092D01*
X224994040Y-122955394D01*
X224994040Y-122955394D01*
G37*
X224994040Y-122955394D02*
X225000086Y-122973930D01*
X225004951Y-123007406D01*
X225008813Y-123059526D01*
X225011853Y-123133995D01*
X225014251Y-123234518D01*
X225016186Y-123364800D01*
X225017840Y-123528547D01*
X225019392Y-123729463D01*
X225020014Y-123819584D01*
X225025983Y-124701097D01*
X225075953Y-124741545D01*
X225133633Y-124770772D01*
X225195411Y-124781994D01*
X225264900Y-124781994D01*
X225245812Y-124871952D01*
X225227142Y-124959870D01*
X225212929Y-125014432D01*
X225197634Y-125043420D01*
X225175720Y-125054614D01*
X225141650Y-125055796D01*
X225115538Y-125054994D01*
X225040493Y-125049707D01*
X224970991Y-125039480D01*
X224961015Y-125037282D01*
X224846609Y-124991536D01*
X224758973Y-124917553D01*
X224718617Y-124855148D01*
X224708303Y-124831956D01*
X224699834Y-124806262D01*
X224693027Y-124773891D01*
X224687702Y-124730665D01*
X224683679Y-124672410D01*
X224680777Y-124594948D01*
X224678814Y-124494105D01*
X224677609Y-124365703D01*
X224676983Y-124205566D01*
X224676755Y-124009519D01*
X224676733Y-123887737D01*
X224676486Y-123669501D01*
X224676216Y-123489789D01*
X224676625Y-123344796D01*
X224678417Y-123230720D01*
X224682296Y-123143757D01*
X224688964Y-123080103D01*
X224699127Y-123035954D01*
X224713486Y-123007508D01*
X224732746Y-122990960D01*
X224757611Y-122982507D01*
X224788783Y-122978345D01*
X224826966Y-122974671D01*
X224846066Y-122972244D01*
X224912628Y-122961609D01*
X224965691Y-122951286D01*
X224977681Y-122948319D01*
X224986632Y-122948092D01*
X224994040Y-122955394D01*
G36*
X226237426Y-123629146D02*
G01*
X226316830Y-123632506D01*
X226375814Y-123640218D01*
X226425330Y-123654010D01*
X226476330Y-123675610D01*
X226500910Y-123687467D01*
X226626840Y-123767616D01*
X226727952Y-123874636D01*
X226810632Y-124015327D01*
X226812375Y-124019028D01*
X226839324Y-124082414D01*
X226855651Y-124140948D01*
X226863732Y-124208783D01*
X226865939Y-124300071D01*
X226865785Y-124337494D01*
X226852467Y-124523225D01*
X226814488Y-124676810D01*
X226749983Y-124801772D01*
X226657087Y-124901637D01*
X226533934Y-124979929D01*
X226522964Y-124985250D01*
X226456115Y-125013823D01*
X226391662Y-125032172D01*
X226315606Y-125043016D01*
X226213952Y-125049076D01*
X226190150Y-125049926D01*
X226049951Y-125050066D01*
X225943324Y-125040364D01*
X225893816Y-125028801D01*
X225729935Y-124958555D01*
X225603483Y-124869402D01*
X225514747Y-124761580D01*
X225478015Y-124683267D01*
X225463345Y-124614821D01*
X225453738Y-124509428D01*
X225449615Y-124372220D01*
X225449488Y-124337687D01*
X225815143Y-124337687D01*
X225820474Y-124475918D01*
X225836875Y-124579250D01*
X225867751Y-124654417D01*
X225916503Y-124708151D01*
X225986536Y-124747186D01*
X226030163Y-124763156D01*
X226102760Y-124774571D01*
X226192088Y-124772076D01*
X226280734Y-124757737D01*
X226351280Y-124733619D01*
X226368821Y-124722993D01*
X226418399Y-124678213D01*
X226452382Y-124624396D01*
X226473335Y-124553129D01*
X226483828Y-124455996D01*
X226486449Y-124337494D01*
X226482455Y-124204393D01*
X226468735Y-124105632D01*
X226442609Y-124033806D01*
X226401398Y-123981513D01*
X226343250Y-123941789D01*
X226264753Y-123915313D01*
X226168942Y-123904723D01*
X226071598Y-123909702D01*
X225988507Y-123929932D01*
X225951505Y-123949670D01*
X225891544Y-124003134D01*
X225851237Y-124064044D01*
X225827333Y-124141646D01*
X225816584Y-124245190D01*
X225815143Y-124337687D01*
X225449488Y-124337687D01*
X225449487Y-124337494D01*
X225450500Y-124221216D01*
X225454269Y-124136921D01*
X225462154Y-124074279D01*
X225475515Y-124022963D01*
X225495710Y-123972645D01*
X225498247Y-123967077D01*
X225567524Y-123847349D01*
X225656630Y-123755458D01*
X225766816Y-123684645D01*
X225815564Y-123660473D01*
X225860492Y-123644408D01*
X225912069Y-123634816D01*
X225980762Y-123630060D01*
X226077040Y-123628503D01*
X226126650Y-123628410D01*
X226237426Y-123629146D01*
X226237426Y-123629146D01*
G37*
X226237426Y-123629146D02*
X226316830Y-123632506D01*
X226375814Y-123640218D01*
X226425330Y-123654010D01*
X226476330Y-123675610D01*
X226500910Y-123687467D01*
X226626840Y-123767616D01*
X226727952Y-123874636D01*
X226810632Y-124015327D01*
X226812375Y-124019028D01*
X226839324Y-124082414D01*
X226855651Y-124140948D01*
X226863732Y-124208783D01*
X226865939Y-124300071D01*
X226865785Y-124337494D01*
X226852467Y-124523225D01*
X226814488Y-124676810D01*
X226749983Y-124801772D01*
X226657087Y-124901637D01*
X226533934Y-124979929D01*
X226522964Y-124985250D01*
X226456115Y-125013823D01*
X226391662Y-125032172D01*
X226315606Y-125043016D01*
X226213952Y-125049076D01*
X226190150Y-125049926D01*
X226049951Y-125050066D01*
X225943324Y-125040364D01*
X225893816Y-125028801D01*
X225729935Y-124958555D01*
X225603483Y-124869402D01*
X225514747Y-124761580D01*
X225478015Y-124683267D01*
X225463345Y-124614821D01*
X225453738Y-124509428D01*
X225449615Y-124372220D01*
X225449488Y-124337687D01*
X225815143Y-124337687D01*
X225820474Y-124475918D01*
X225836875Y-124579250D01*
X225867751Y-124654417D01*
X225916503Y-124708151D01*
X225986536Y-124747186D01*
X226030163Y-124763156D01*
X226102760Y-124774571D01*
X226192088Y-124772076D01*
X226280734Y-124757737D01*
X226351280Y-124733619D01*
X226368821Y-124722993D01*
X226418399Y-124678213D01*
X226452382Y-124624396D01*
X226473335Y-124553129D01*
X226483828Y-124455996D01*
X226486449Y-124337494D01*
X226482455Y-124204393D01*
X226468735Y-124105632D01*
X226442609Y-124033806D01*
X226401398Y-123981513D01*
X226343250Y-123941789D01*
X226264753Y-123915313D01*
X226168942Y-123904723D01*
X226071598Y-123909702D01*
X225988507Y-123929932D01*
X225951505Y-123949670D01*
X225891544Y-124003134D01*
X225851237Y-124064044D01*
X225827333Y-124141646D01*
X225816584Y-124245190D01*
X225815143Y-124337687D01*
X225449488Y-124337687D01*
X225449487Y-124337494D01*
X225450500Y-124221216D01*
X225454269Y-124136921D01*
X225462154Y-124074279D01*
X225475515Y-124022963D01*
X225495710Y-123972645D01*
X225498247Y-123967077D01*
X225567524Y-123847349D01*
X225656630Y-123755458D01*
X225766816Y-123684645D01*
X225815564Y-123660473D01*
X225860492Y-123644408D01*
X225912069Y-123634816D01*
X225980762Y-123630060D01*
X226077040Y-123628503D01*
X226126650Y-123628410D01*
X226237426Y-123629146D01*
G36*
X230458115Y-123645116D02*
G01*
X230561600Y-123694440D01*
X230645786Y-123759477D01*
X230752219Y-123876923D01*
X230824048Y-124009502D01*
X230864395Y-124164131D01*
X230874589Y-124266411D01*
X230883875Y-124443327D01*
X230404971Y-124443327D01*
X230244334Y-124443267D01*
X230121734Y-124444133D01*
X230032879Y-124447492D01*
X229973478Y-124454915D01*
X229939239Y-124467968D01*
X229925870Y-124488220D01*
X229929080Y-124517240D01*
X229944577Y-124556596D01*
X229966179Y-124603683D01*
X230016318Y-124679187D01*
X230089206Y-124728715D01*
X230190329Y-124754904D01*
X230292766Y-124760827D01*
X230374292Y-124758168D01*
X230429035Y-124747442D01*
X230472362Y-124724523D01*
X230495509Y-124706393D01*
X230530838Y-124678567D01*
X230559659Y-124666994D01*
X230591282Y-124674303D01*
X230635019Y-124703124D01*
X230700178Y-124756087D01*
X230714846Y-124768343D01*
X230815710Y-124852663D01*
X230770972Y-124900284D01*
X230725761Y-124935998D01*
X230659306Y-124975011D01*
X230617192Y-124995145D01*
X230522759Y-125023996D01*
X230403406Y-125043311D01*
X230274140Y-125052267D01*
X230149971Y-125050040D01*
X230045907Y-125035807D01*
X230017595Y-125028029D01*
X229864882Y-124958918D01*
X229743175Y-124861261D01*
X229650990Y-124733654D01*
X229608752Y-124640853D01*
X229579328Y-124525185D01*
X229566800Y-124389928D01*
X229570774Y-124249968D01*
X229576881Y-124210494D01*
X229925498Y-124210494D01*
X230232699Y-124210494D01*
X230359879Y-124209551D01*
X230449408Y-124206458D01*
X230505934Y-124200812D01*
X230534102Y-124192214D01*
X230539435Y-124184035D01*
X230526478Y-124131214D01*
X230495300Y-124063602D01*
X230455346Y-123998447D01*
X230416062Y-123952998D01*
X230410628Y-123948818D01*
X230315919Y-123907351D01*
X230209284Y-123903999D01*
X230150338Y-123918174D01*
X230075071Y-123956712D01*
X230015378Y-124020359D01*
X229963913Y-124117253D01*
X229958099Y-124131119D01*
X229925498Y-124210494D01*
X229576881Y-124210494D01*
X229590855Y-124120189D01*
X229625215Y-124018394D01*
X229718774Y-123867714D01*
X229835519Y-123751911D01*
X229974140Y-123671895D01*
X230133329Y-123628577D01*
X230194424Y-123622205D01*
X230339448Y-123622171D01*
X230458115Y-123645116D01*
X230458115Y-123645116D01*
G37*
X230458115Y-123645116D02*
X230561600Y-123694440D01*
X230645786Y-123759477D01*
X230752219Y-123876923D01*
X230824048Y-124009502D01*
X230864395Y-124164131D01*
X230874589Y-124266411D01*
X230883875Y-124443327D01*
X230404971Y-124443327D01*
X230244334Y-124443267D01*
X230121734Y-124444133D01*
X230032879Y-124447492D01*
X229973478Y-124454915D01*
X229939239Y-124467968D01*
X229925870Y-124488220D01*
X229929080Y-124517240D01*
X229944577Y-124556596D01*
X229966179Y-124603683D01*
X230016318Y-124679187D01*
X230089206Y-124728715D01*
X230190329Y-124754904D01*
X230292766Y-124760827D01*
X230374292Y-124758168D01*
X230429035Y-124747442D01*
X230472362Y-124724523D01*
X230495509Y-124706393D01*
X230530838Y-124678567D01*
X230559659Y-124666994D01*
X230591282Y-124674303D01*
X230635019Y-124703124D01*
X230700178Y-124756087D01*
X230714846Y-124768343D01*
X230815710Y-124852663D01*
X230770972Y-124900284D01*
X230725761Y-124935998D01*
X230659306Y-124975011D01*
X230617192Y-124995145D01*
X230522759Y-125023996D01*
X230403406Y-125043311D01*
X230274140Y-125052267D01*
X230149971Y-125050040D01*
X230045907Y-125035807D01*
X230017595Y-125028029D01*
X229864882Y-124958918D01*
X229743175Y-124861261D01*
X229650990Y-124733654D01*
X229608752Y-124640853D01*
X229579328Y-124525185D01*
X229566800Y-124389928D01*
X229570774Y-124249968D01*
X229576881Y-124210494D01*
X229925498Y-124210494D01*
X230232699Y-124210494D01*
X230359879Y-124209551D01*
X230449408Y-124206458D01*
X230505934Y-124200812D01*
X230534102Y-124192214D01*
X230539435Y-124184035D01*
X230526478Y-124131214D01*
X230495300Y-124063602D01*
X230455346Y-123998447D01*
X230416062Y-123952998D01*
X230410628Y-123948818D01*
X230315919Y-123907351D01*
X230209284Y-123903999D01*
X230150338Y-123918174D01*
X230075071Y-123956712D01*
X230015378Y-124020359D01*
X229963913Y-124117253D01*
X229958099Y-124131119D01*
X229925498Y-124210494D01*
X229576881Y-124210494D01*
X229590855Y-124120189D01*
X229625215Y-124018394D01*
X229718774Y-123867714D01*
X229835519Y-123751911D01*
X229974140Y-123671895D01*
X230133329Y-123628577D01*
X230194424Y-123622205D01*
X230339448Y-123622171D01*
X230458115Y-123645116D01*
G36*
X231866333Y-123619835D02*
G01*
X231939361Y-123632985D01*
X232022011Y-123652037D01*
X232102041Y-123673641D01*
X232167210Y-123694447D01*
X232205277Y-123711106D01*
X232208312Y-123713410D01*
X232201131Y-123732808D01*
X232175803Y-123777911D01*
X232137687Y-123839219D01*
X232134998Y-123843378D01*
X232094844Y-123905510D01*
X232065151Y-123951752D01*
X232052056Y-123972541D01*
X232051945Y-123972745D01*
X232032932Y-123968166D01*
X231987733Y-123950181D01*
X231955926Y-123936168D01*
X231858061Y-123904411D01*
X231757547Y-123893089D01*
X231662628Y-123900466D01*
X231581547Y-123924803D01*
X231522547Y-123964362D01*
X231493873Y-124017406D01*
X231492400Y-124033891D01*
X231502693Y-124090469D01*
X231537304Y-124133882D01*
X231601825Y-124168133D01*
X231701852Y-124197224D01*
X231729248Y-124203344D01*
X231847290Y-124235435D01*
X231966383Y-124279454D01*
X232076637Y-124330654D01*
X232168164Y-124384290D01*
X232231075Y-124435616D01*
X232242904Y-124449873D01*
X232271433Y-124506591D01*
X232283259Y-124581211D01*
X232284001Y-124629790D01*
X232265726Y-124762783D01*
X232214050Y-124870187D01*
X232127475Y-124954236D01*
X232031861Y-125006257D01*
X231951881Y-125028568D01*
X231843112Y-125043245D01*
X231718483Y-125049865D01*
X231590917Y-125048007D01*
X231473343Y-125037249D01*
X231413368Y-125026437D01*
X231301104Y-124994140D01*
X231213511Y-124955145D01*
X231157524Y-124912948D01*
X231142896Y-124890116D01*
X231151001Y-124856290D01*
X231190239Y-124802133D01*
X231234949Y-124754198D01*
X231339167Y-124649980D01*
X231399908Y-124694575D01*
X231475185Y-124732348D01*
X231575510Y-124759530D01*
X231684244Y-124772912D01*
X231784750Y-124769287D01*
X231786268Y-124769063D01*
X231871677Y-124744005D01*
X231929521Y-124702331D01*
X231955974Y-124650311D01*
X231947207Y-124594216D01*
X231916992Y-124554876D01*
X231881373Y-124533813D01*
X231814643Y-124504659D01*
X231726310Y-124471247D01*
X231625883Y-124437410D01*
X231624681Y-124437029D01*
X231468409Y-124383540D01*
X231349456Y-124332101D01*
X231263264Y-124278584D01*
X231205272Y-124218860D01*
X231170921Y-124148798D01*
X231155650Y-124064269D01*
X231153733Y-124010522D01*
X231157050Y-123936844D01*
X231171938Y-123885385D01*
X231205803Y-123836240D01*
X231227993Y-123810918D01*
X231332905Y-123724194D01*
X231465767Y-123660302D01*
X231617239Y-123622040D01*
X231777980Y-123612204D01*
X231866333Y-123619835D01*
X231866333Y-123619835D01*
G37*
X231866333Y-123619835D02*
X231939361Y-123632985D01*
X232022011Y-123652037D01*
X232102041Y-123673641D01*
X232167210Y-123694447D01*
X232205277Y-123711106D01*
X232208312Y-123713410D01*
X232201131Y-123732808D01*
X232175803Y-123777911D01*
X232137687Y-123839219D01*
X232134998Y-123843378D01*
X232094844Y-123905510D01*
X232065151Y-123951752D01*
X232052056Y-123972541D01*
X232051945Y-123972745D01*
X232032932Y-123968166D01*
X231987733Y-123950181D01*
X231955926Y-123936168D01*
X231858061Y-123904411D01*
X231757547Y-123893089D01*
X231662628Y-123900466D01*
X231581547Y-123924803D01*
X231522547Y-123964362D01*
X231493873Y-124017406D01*
X231492400Y-124033891D01*
X231502693Y-124090469D01*
X231537304Y-124133882D01*
X231601825Y-124168133D01*
X231701852Y-124197224D01*
X231729248Y-124203344D01*
X231847290Y-124235435D01*
X231966383Y-124279454D01*
X232076637Y-124330654D01*
X232168164Y-124384290D01*
X232231075Y-124435616D01*
X232242904Y-124449873D01*
X232271433Y-124506591D01*
X232283259Y-124581211D01*
X232284001Y-124629790D01*
X232265726Y-124762783D01*
X232214050Y-124870187D01*
X232127475Y-124954236D01*
X232031861Y-125006257D01*
X231951881Y-125028568D01*
X231843112Y-125043245D01*
X231718483Y-125049865D01*
X231590917Y-125048007D01*
X231473343Y-125037249D01*
X231413368Y-125026437D01*
X231301104Y-124994140D01*
X231213511Y-124955145D01*
X231157524Y-124912948D01*
X231142896Y-124890116D01*
X231151001Y-124856290D01*
X231190239Y-124802133D01*
X231234949Y-124754198D01*
X231339167Y-124649980D01*
X231399908Y-124694575D01*
X231475185Y-124732348D01*
X231575510Y-124759530D01*
X231684244Y-124772912D01*
X231784750Y-124769287D01*
X231786268Y-124769063D01*
X231871677Y-124744005D01*
X231929521Y-124702331D01*
X231955974Y-124650311D01*
X231947207Y-124594216D01*
X231916992Y-124554876D01*
X231881373Y-124533813D01*
X231814643Y-124504659D01*
X231726310Y-124471247D01*
X231625883Y-124437410D01*
X231624681Y-124437029D01*
X231468409Y-124383540D01*
X231349456Y-124332101D01*
X231263264Y-124278584D01*
X231205272Y-124218860D01*
X231170921Y-124148798D01*
X231155650Y-124064269D01*
X231153733Y-124010522D01*
X231157050Y-123936844D01*
X231171938Y-123885385D01*
X231205803Y-123836240D01*
X231227993Y-123810918D01*
X231332905Y-123724194D01*
X231465767Y-123660302D01*
X231617239Y-123622040D01*
X231777980Y-123612204D01*
X231866333Y-123619835D01*
G36*
X234582733Y-124866395D02*
G01*
X234494602Y-124930236D01*
X234417674Y-124976274D01*
X234329749Y-125015652D01*
X234300261Y-125025619D01*
X234194564Y-125046343D01*
X234066071Y-125055787D01*
X233930632Y-125054157D01*
X233804095Y-125041661D01*
X233702310Y-125018508D01*
X233700079Y-125017746D01*
X233539103Y-124943304D01*
X233411555Y-124842949D01*
X233317651Y-124717017D01*
X233257608Y-124565845D01*
X233231641Y-124389771D01*
X233231706Y-124287849D01*
X233231778Y-124287345D01*
X233591552Y-124287345D01*
X233597861Y-124434522D01*
X233635771Y-124558882D01*
X233703674Y-124657160D01*
X233799960Y-124726090D01*
X233810150Y-124730826D01*
X233887470Y-124751436D01*
X233985573Y-124759106D01*
X234084814Y-124753452D01*
X234156241Y-124737590D01*
X234222900Y-124714352D01*
X234222900Y-123985501D01*
X234148098Y-123949830D01*
X234057499Y-123922909D01*
X233950059Y-123914581D01*
X233844134Y-123924691D01*
X233758080Y-123953083D01*
X233757971Y-123953141D01*
X233681228Y-124017787D01*
X233626472Y-124115495D01*
X233595867Y-124241924D01*
X233591552Y-124287345D01*
X233231778Y-124287345D01*
X233257566Y-124107597D01*
X233316156Y-123951866D01*
X233405040Y-123823055D01*
X233521779Y-123723562D01*
X233663937Y-123655787D01*
X233829077Y-123622127D01*
X233911485Y-123618756D01*
X234001197Y-123623278D01*
X234085889Y-123634181D01*
X234143525Y-123648012D01*
X234222900Y-123676338D01*
X234222900Y-123340166D01*
X234223214Y-123226224D01*
X234224083Y-123128761D01*
X234225395Y-123054901D01*
X234227037Y-123011764D01*
X234228191Y-123003570D01*
X234250011Y-123000222D01*
X234303544Y-122991669D01*
X234378722Y-122979525D01*
X234408108Y-122974753D01*
X234582733Y-122946358D01*
X234582733Y-124866395D01*
X234582733Y-124866395D01*
G37*
X234582733Y-124866395D02*
X234494602Y-124930236D01*
X234417674Y-124976274D01*
X234329749Y-125015652D01*
X234300261Y-125025619D01*
X234194564Y-125046343D01*
X234066071Y-125055787D01*
X233930632Y-125054157D01*
X233804095Y-125041661D01*
X233702310Y-125018508D01*
X233700079Y-125017746D01*
X233539103Y-124943304D01*
X233411555Y-124842949D01*
X233317651Y-124717017D01*
X233257608Y-124565845D01*
X233231641Y-124389771D01*
X233231706Y-124287849D01*
X233231778Y-124287345D01*
X233591552Y-124287345D01*
X233597861Y-124434522D01*
X233635771Y-124558882D01*
X233703674Y-124657160D01*
X233799960Y-124726090D01*
X233810150Y-124730826D01*
X233887470Y-124751436D01*
X233985573Y-124759106D01*
X234084814Y-124753452D01*
X234156241Y-124737590D01*
X234222900Y-124714352D01*
X234222900Y-123985501D01*
X234148098Y-123949830D01*
X234057499Y-123922909D01*
X233950059Y-123914581D01*
X233844134Y-123924691D01*
X233758080Y-123953083D01*
X233757971Y-123953141D01*
X233681228Y-124017787D01*
X233626472Y-124115495D01*
X233595867Y-124241924D01*
X233591552Y-124287345D01*
X233231778Y-124287345D01*
X233257566Y-124107597D01*
X233316156Y-123951866D01*
X233405040Y-123823055D01*
X233521779Y-123723562D01*
X233663937Y-123655787D01*
X233829077Y-123622127D01*
X233911485Y-123618756D01*
X234001197Y-123623278D01*
X234085889Y-123634181D01*
X234143525Y-123648012D01*
X234222900Y-123676338D01*
X234222900Y-123340166D01*
X234223214Y-123226224D01*
X234224083Y-123128761D01*
X234225395Y-123054901D01*
X234227037Y-123011764D01*
X234228191Y-123003570D01*
X234250011Y-123000222D01*
X234303544Y-122991669D01*
X234378722Y-122979525D01*
X234408108Y-122974753D01*
X234582733Y-122946358D01*
X234582733Y-124866395D01*
G36*
X235719217Y-123623602D02*
G01*
X235824485Y-123643836D01*
X235835032Y-123647384D01*
X235958905Y-123713513D01*
X236064596Y-123814577D01*
X236149211Y-123946037D01*
X236209857Y-124103350D01*
X236243641Y-124281978D01*
X236244428Y-124289869D01*
X236259196Y-124443327D01*
X235276644Y-124443327D01*
X235289690Y-124495310D01*
X235319250Y-124588117D01*
X235357947Y-124655118D01*
X235396743Y-124696983D01*
X235434927Y-124726044D01*
X235480688Y-124743590D01*
X235547135Y-124753375D01*
X235607537Y-124757348D01*
X235708569Y-124755858D01*
X235795190Y-124742294D01*
X235859172Y-124718995D01*
X235892286Y-124688301D01*
X235895066Y-124675617D01*
X235908145Y-124655845D01*
X235947103Y-124669041D01*
X236011525Y-124714999D01*
X236064400Y-124760146D01*
X236123442Y-124813725D01*
X236154914Y-124847350D01*
X236163079Y-124868974D01*
X236152200Y-124886548D01*
X236138483Y-124898313D01*
X236096225Y-124926267D01*
X236031790Y-124962202D01*
X235980950Y-124987751D01*
X235866359Y-125026565D01*
X235728308Y-125049212D01*
X235582784Y-125054889D01*
X235445773Y-125042795D01*
X235351770Y-125019334D01*
X235201789Y-124945876D01*
X235083525Y-124844670D01*
X234997470Y-124716548D01*
X234944112Y-124562346D01*
X234923941Y-124382897D01*
X234925802Y-124294486D01*
X234945300Y-124173452D01*
X235302479Y-124173452D01*
X235305983Y-124188125D01*
X235320821Y-124198345D01*
X235353369Y-124204901D01*
X235410003Y-124208583D01*
X235497099Y-124210182D01*
X235601379Y-124210494D01*
X235900358Y-124210494D01*
X235886884Y-124141702D01*
X235850054Y-124046584D01*
X235786242Y-123972209D01*
X235704194Y-123922208D01*
X235612656Y-123900214D01*
X235520372Y-123909860D01*
X235436353Y-123954562D01*
X235389114Y-124004319D01*
X235344814Y-124068415D01*
X235312877Y-124131446D01*
X235302479Y-124173452D01*
X234945300Y-124173452D01*
X234954438Y-124116732D01*
X235017138Y-123960156D01*
X235111609Y-123828078D01*
X235235559Y-123723821D01*
X235364952Y-123658573D01*
X235471273Y-123631403D01*
X235595420Y-123619602D01*
X235719217Y-123623602D01*
X235719217Y-123623602D01*
G37*
X235719217Y-123623602D02*
X235824485Y-123643836D01*
X235835032Y-123647384D01*
X235958905Y-123713513D01*
X236064596Y-123814577D01*
X236149211Y-123946037D01*
X236209857Y-124103350D01*
X236243641Y-124281978D01*
X236244428Y-124289869D01*
X236259196Y-124443327D01*
X235276644Y-124443327D01*
X235289690Y-124495310D01*
X235319250Y-124588117D01*
X235357947Y-124655118D01*
X235396743Y-124696983D01*
X235434927Y-124726044D01*
X235480688Y-124743590D01*
X235547135Y-124753375D01*
X235607537Y-124757348D01*
X235708569Y-124755858D01*
X235795190Y-124742294D01*
X235859172Y-124718995D01*
X235892286Y-124688301D01*
X235895066Y-124675617D01*
X235908145Y-124655845D01*
X235947103Y-124669041D01*
X236011525Y-124714999D01*
X236064400Y-124760146D01*
X236123442Y-124813725D01*
X236154914Y-124847350D01*
X236163079Y-124868974D01*
X236152200Y-124886548D01*
X236138483Y-124898313D01*
X236096225Y-124926267D01*
X236031790Y-124962202D01*
X235980950Y-124987751D01*
X235866359Y-125026565D01*
X235728308Y-125049212D01*
X235582784Y-125054889D01*
X235445773Y-125042795D01*
X235351770Y-125019334D01*
X235201789Y-124945876D01*
X235083525Y-124844670D01*
X234997470Y-124716548D01*
X234944112Y-124562346D01*
X234923941Y-124382897D01*
X234925802Y-124294486D01*
X234945300Y-124173452D01*
X235302479Y-124173452D01*
X235305983Y-124188125D01*
X235320821Y-124198345D01*
X235353369Y-124204901D01*
X235410003Y-124208583D01*
X235497099Y-124210182D01*
X235601379Y-124210494D01*
X235900358Y-124210494D01*
X235886884Y-124141702D01*
X235850054Y-124046584D01*
X235786242Y-123972209D01*
X235704194Y-123922208D01*
X235612656Y-123900214D01*
X235520372Y-123909860D01*
X235436353Y-123954562D01*
X235389114Y-124004319D01*
X235344814Y-124068415D01*
X235312877Y-124131446D01*
X235302479Y-124173452D01*
X234945300Y-124173452D01*
X234954438Y-124116732D01*
X235017138Y-123960156D01*
X235111609Y-123828078D01*
X235235559Y-123723821D01*
X235364952Y-123658573D01*
X235471273Y-123631403D01*
X235595420Y-123619602D01*
X235719217Y-123623602D01*
G36*
X197157761Y-123996901D02*
G01*
X197208576Y-124201000D01*
X197252218Y-124366606D01*
X197288489Y-124493054D01*
X197317192Y-124579685D01*
X197338131Y-124625834D01*
X197347142Y-124633827D01*
X197361767Y-124614928D01*
X197388760Y-124561995D01*
X197425734Y-124480673D01*
X197470303Y-124376608D01*
X197520082Y-124255444D01*
X197572684Y-124122827D01*
X197625723Y-123984402D01*
X197655784Y-123903577D01*
X197749125Y-123649577D01*
X197930845Y-123643461D01*
X198012560Y-123642015D01*
X198075224Y-123643390D01*
X198109182Y-123647265D01*
X198112566Y-123649481D01*
X198103947Y-123684077D01*
X198079788Y-123751031D01*
X198042634Y-123844427D01*
X197995031Y-123958348D01*
X197939524Y-124086878D01*
X197878658Y-124224098D01*
X197814981Y-124364093D01*
X197751036Y-124500946D01*
X197705008Y-124596785D01*
X197491184Y-125035994D01*
X197206996Y-125035994D01*
X197175352Y-124956619D01*
X197153192Y-124894813D01*
X197123932Y-124804636D01*
X197090752Y-124696893D01*
X197056831Y-124582389D01*
X197025350Y-124471928D01*
X196999489Y-124376316D01*
X196982428Y-124306356D01*
X196979113Y-124289869D01*
X196966586Y-124239001D01*
X196953301Y-124211877D01*
X196950359Y-124210494D01*
X196938592Y-124229397D01*
X196914351Y-124282354D01*
X196879905Y-124363736D01*
X196837524Y-124467914D01*
X196789476Y-124589258D01*
X196738032Y-124722140D01*
X196685460Y-124860930D01*
X196653827Y-124946035D01*
X196620650Y-125035994D01*
X196335098Y-125035994D01*
X196262283Y-124891401D01*
X196145159Y-124638102D01*
X196029134Y-124346053D01*
X195915628Y-124018834D01*
X195911537Y-124006228D01*
X195875785Y-123894651D01*
X195845170Y-123796897D01*
X195821895Y-123720179D01*
X195808164Y-123671713D01*
X195805399Y-123658709D01*
X195824964Y-123649931D01*
X195877273Y-123643201D01*
X195952752Y-123639529D01*
X195990608Y-123639143D01*
X196175816Y-123639292D01*
X196247749Y-123909018D01*
X196288463Y-124057399D01*
X196329726Y-124200091D01*
X196369717Y-124331492D01*
X196406613Y-124446001D01*
X196438593Y-124538017D01*
X196463836Y-124601939D01*
X196480519Y-124632164D01*
X196483470Y-124633827D01*
X196498837Y-124614731D01*
X196524723Y-124561671D01*
X196558702Y-124480989D01*
X196598350Y-124379025D01*
X196641238Y-124262122D01*
X196684943Y-124136620D01*
X196727038Y-124008861D01*
X196747430Y-123943821D01*
X196777776Y-123845127D01*
X196803934Y-123760077D01*
X196823199Y-123697459D01*
X196832869Y-123666063D01*
X196833058Y-123665452D01*
X196859697Y-123648177D01*
X196923365Y-123639702D01*
X196955919Y-123638994D01*
X197070601Y-123638994D01*
X197157761Y-123996901D01*
X197157761Y-123996901D01*
G37*
X197157761Y-123996901D02*
X197208576Y-124201000D01*
X197252218Y-124366606D01*
X197288489Y-124493054D01*
X197317192Y-124579685D01*
X197338131Y-124625834D01*
X197347142Y-124633827D01*
X197361767Y-124614928D01*
X197388760Y-124561995D01*
X197425734Y-124480673D01*
X197470303Y-124376608D01*
X197520082Y-124255444D01*
X197572684Y-124122827D01*
X197625723Y-123984402D01*
X197655784Y-123903577D01*
X197749125Y-123649577D01*
X197930845Y-123643461D01*
X198012560Y-123642015D01*
X198075224Y-123643390D01*
X198109182Y-123647265D01*
X198112566Y-123649481D01*
X198103947Y-123684077D01*
X198079788Y-123751031D01*
X198042634Y-123844427D01*
X197995031Y-123958348D01*
X197939524Y-124086878D01*
X197878658Y-124224098D01*
X197814981Y-124364093D01*
X197751036Y-124500946D01*
X197705008Y-124596785D01*
X197491184Y-125035994D01*
X197206996Y-125035994D01*
X197175352Y-124956619D01*
X197153192Y-124894813D01*
X197123932Y-124804636D01*
X197090752Y-124696893D01*
X197056831Y-124582389D01*
X197025350Y-124471928D01*
X196999489Y-124376316D01*
X196982428Y-124306356D01*
X196979113Y-124289869D01*
X196966586Y-124239001D01*
X196953301Y-124211877D01*
X196950359Y-124210494D01*
X196938592Y-124229397D01*
X196914351Y-124282354D01*
X196879905Y-124363736D01*
X196837524Y-124467914D01*
X196789476Y-124589258D01*
X196738032Y-124722140D01*
X196685460Y-124860930D01*
X196653827Y-124946035D01*
X196620650Y-125035994D01*
X196335098Y-125035994D01*
X196262283Y-124891401D01*
X196145159Y-124638102D01*
X196029134Y-124346053D01*
X195915628Y-124018834D01*
X195911537Y-124006228D01*
X195875785Y-123894651D01*
X195845170Y-123796897D01*
X195821895Y-123720179D01*
X195808164Y-123671713D01*
X195805399Y-123658709D01*
X195824964Y-123649931D01*
X195877273Y-123643201D01*
X195952752Y-123639529D01*
X195990608Y-123639143D01*
X196175816Y-123639292D01*
X196247749Y-123909018D01*
X196288463Y-124057399D01*
X196329726Y-124200091D01*
X196369717Y-124331492D01*
X196406613Y-124446001D01*
X196438593Y-124538017D01*
X196463836Y-124601939D01*
X196480519Y-124632164D01*
X196483470Y-124633827D01*
X196498837Y-124614731D01*
X196524723Y-124561671D01*
X196558702Y-124480989D01*
X196598350Y-124379025D01*
X196641238Y-124262122D01*
X196684943Y-124136620D01*
X196727038Y-124008861D01*
X196747430Y-123943821D01*
X196777776Y-123845127D01*
X196803934Y-123760077D01*
X196823199Y-123697459D01*
X196832869Y-123666063D01*
X196833058Y-123665452D01*
X196859697Y-123648177D01*
X196923365Y-123639702D01*
X196955919Y-123638994D01*
X197070601Y-123638994D01*
X197157761Y-123996901D01*
G36*
X199337279Y-123643353D02*
G01*
X199453034Y-123649577D01*
X199542214Y-124009410D01*
X199588173Y-124193240D01*
X199625706Y-124339360D01*
X199655873Y-124451319D01*
X199679736Y-124532663D01*
X199698355Y-124586941D01*
X199712791Y-124617699D01*
X199724104Y-124628484D01*
X199727284Y-124628282D01*
X199744042Y-124606173D01*
X199772805Y-124550592D01*
X199810927Y-124467787D01*
X199855762Y-124364004D01*
X199904663Y-124245488D01*
X199954986Y-124118487D01*
X200004085Y-123989247D01*
X200040966Y-123887702D01*
X200129164Y-123638994D01*
X200306199Y-123638994D01*
X200391495Y-123641332D01*
X200452774Y-123647710D01*
X200481919Y-123657167D01*
X200483233Y-123659914D01*
X200474589Y-123697770D01*
X200450367Y-123767831D01*
X200413133Y-123864052D01*
X200365455Y-123980391D01*
X200309899Y-124110804D01*
X200249030Y-124249247D01*
X200185416Y-124389678D01*
X200121623Y-124526051D01*
X200071276Y-124630011D01*
X199870999Y-125035994D01*
X199580425Y-125035994D01*
X199481867Y-124723785D01*
X199445730Y-124607405D01*
X199412773Y-124497761D01*
X199385865Y-124404654D01*
X199367876Y-124337888D01*
X199363651Y-124319970D01*
X199346068Y-124249787D01*
X199330637Y-124219138D01*
X199314874Y-124225478D01*
X199300472Y-124255183D01*
X199286333Y-124291532D01*
X199259974Y-124359479D01*
X199224452Y-124451140D01*
X199182822Y-124558632D01*
X199153713Y-124633827D01*
X199110224Y-124746115D01*
X199071297Y-124846479D01*
X199039844Y-124927424D01*
X199018776Y-124981453D01*
X199011885Y-124998952D01*
X198995762Y-125019428D01*
X198961618Y-125030857D01*
X198899826Y-125035504D01*
X198854446Y-125035994D01*
X198711854Y-125035994D01*
X198602921Y-124806592D01*
X198458745Y-124476054D01*
X198326471Y-124118716D01*
X198251917Y-123886874D01*
X198180008Y-123649577D01*
X198360619Y-123643422D01*
X198443291Y-123641499D01*
X198508084Y-123641675D01*
X198544735Y-123643855D01*
X198549146Y-123645185D01*
X198557243Y-123667311D01*
X198574266Y-123722972D01*
X198598064Y-123804845D01*
X198626487Y-123905605D01*
X198641066Y-123958256D01*
X198692235Y-124139433D01*
X198739166Y-124296322D01*
X198780754Y-124425664D01*
X198815889Y-124524197D01*
X198843466Y-124588662D01*
X198862375Y-124615799D01*
X198864652Y-124616465D01*
X198881757Y-124597674D01*
X198909176Y-124544625D01*
X198944529Y-124463446D01*
X198985436Y-124360266D01*
X199029517Y-124241212D01*
X199074392Y-124112412D01*
X199117680Y-123979994D01*
X199140234Y-123906902D01*
X199221525Y-123637128D01*
X199337279Y-123643353D01*
X199337279Y-123643353D01*
G37*
X199337279Y-123643353D02*
X199453034Y-123649577D01*
X199542214Y-124009410D01*
X199588173Y-124193240D01*
X199625706Y-124339360D01*
X199655873Y-124451319D01*
X199679736Y-124532663D01*
X199698355Y-124586941D01*
X199712791Y-124617699D01*
X199724104Y-124628484D01*
X199727284Y-124628282D01*
X199744042Y-124606173D01*
X199772805Y-124550592D01*
X199810927Y-124467787D01*
X199855762Y-124364004D01*
X199904663Y-124245488D01*
X199954986Y-124118487D01*
X200004085Y-123989247D01*
X200040966Y-123887702D01*
X200129164Y-123638994D01*
X200306199Y-123638994D01*
X200391495Y-123641332D01*
X200452774Y-123647710D01*
X200481919Y-123657167D01*
X200483233Y-123659914D01*
X200474589Y-123697770D01*
X200450367Y-123767831D01*
X200413133Y-123864052D01*
X200365455Y-123980391D01*
X200309899Y-124110804D01*
X200249030Y-124249247D01*
X200185416Y-124389678D01*
X200121623Y-124526051D01*
X200071276Y-124630011D01*
X199870999Y-125035994D01*
X199580425Y-125035994D01*
X199481867Y-124723785D01*
X199445730Y-124607405D01*
X199412773Y-124497761D01*
X199385865Y-124404654D01*
X199367876Y-124337888D01*
X199363651Y-124319970D01*
X199346068Y-124249787D01*
X199330637Y-124219138D01*
X199314874Y-124225478D01*
X199300472Y-124255183D01*
X199286333Y-124291532D01*
X199259974Y-124359479D01*
X199224452Y-124451140D01*
X199182822Y-124558632D01*
X199153713Y-124633827D01*
X199110224Y-124746115D01*
X199071297Y-124846479D01*
X199039844Y-124927424D01*
X199018776Y-124981453D01*
X199011885Y-124998952D01*
X198995762Y-125019428D01*
X198961618Y-125030857D01*
X198899826Y-125035504D01*
X198854446Y-125035994D01*
X198711854Y-125035994D01*
X198602921Y-124806592D01*
X198458745Y-124476054D01*
X198326471Y-124118716D01*
X198251917Y-123886874D01*
X198180008Y-123649577D01*
X198360619Y-123643422D01*
X198443291Y-123641499D01*
X198508084Y-123641675D01*
X198544735Y-123643855D01*
X198549146Y-123645185D01*
X198557243Y-123667311D01*
X198574266Y-123722972D01*
X198598064Y-123804845D01*
X198626487Y-123905605D01*
X198641066Y-123958256D01*
X198692235Y-124139433D01*
X198739166Y-124296322D01*
X198780754Y-124425664D01*
X198815889Y-124524197D01*
X198843466Y-124588662D01*
X198862375Y-124615799D01*
X198864652Y-124616465D01*
X198881757Y-124597674D01*
X198909176Y-124544625D01*
X198944529Y-124463446D01*
X198985436Y-124360266D01*
X199029517Y-124241212D01*
X199074392Y-124112412D01*
X199117680Y-123979994D01*
X199140234Y-123906902D01*
X199221525Y-123637128D01*
X199337279Y-123643353D01*
G36*
X201936305Y-124066710D02*
G01*
X201970642Y-124200478D01*
X202003654Y-124324634D01*
X202033262Y-124431690D01*
X202057386Y-124514161D01*
X202073945Y-124564561D01*
X202076249Y-124570327D01*
X202107909Y-124644410D01*
X202173479Y-124506827D01*
X202203021Y-124440644D01*
X202243249Y-124344617D01*
X202290162Y-124228604D01*
X202339755Y-124102465D01*
X202375443Y-124009410D01*
X202511836Y-123649577D01*
X202693451Y-123643461D01*
X202775148Y-123641558D01*
X202837786Y-123641715D01*
X202871704Y-123643836D01*
X202875066Y-123645233D01*
X202866596Y-123677878D01*
X202842938Y-123742794D01*
X202806725Y-123833852D01*
X202760587Y-123944923D01*
X202707154Y-124069876D01*
X202649059Y-124202582D01*
X202588931Y-124336912D01*
X202529402Y-124466737D01*
X202473103Y-124585926D01*
X202457186Y-124618796D01*
X202252968Y-125037681D01*
X202104339Y-125031546D01*
X201955710Y-125025410D01*
X201866923Y-124750244D01*
X201830917Y-124634922D01*
X201797350Y-124520706D01*
X201769834Y-124420317D01*
X201751980Y-124346473D01*
X201751218Y-124342785D01*
X201735400Y-124274711D01*
X201720550Y-124226962D01*
X201710600Y-124210494D01*
X201699237Y-124229319D01*
X201675355Y-124281901D01*
X201641404Y-124362396D01*
X201599833Y-124464959D01*
X201553089Y-124583749D01*
X201539859Y-124617952D01*
X201382816Y-125025410D01*
X201233234Y-125031551D01*
X201083653Y-125037692D01*
X200981115Y-124809301D01*
X200928815Y-124688493D01*
X200872937Y-124551935D01*
X200815743Y-124405939D01*
X200759498Y-124256819D01*
X200706462Y-124110885D01*
X200658901Y-123974451D01*
X200619076Y-123853830D01*
X200589250Y-123755333D01*
X200571686Y-123685273D01*
X200567900Y-123656607D01*
X200587428Y-123648621D01*
X200639599Y-123643734D01*
X200714789Y-123642637D01*
X200750578Y-123643461D01*
X200933257Y-123649577D01*
X201032651Y-123998827D01*
X201090699Y-124199920D01*
X201139090Y-124361188D01*
X201178253Y-124483918D01*
X201208616Y-124569398D01*
X201230609Y-124618917D01*
X201244016Y-124633827D01*
X201258926Y-124614789D01*
X201284450Y-124562037D01*
X201318101Y-124482113D01*
X201357395Y-124381559D01*
X201399847Y-124266917D01*
X201442973Y-124144729D01*
X201484286Y-124021537D01*
X201521303Y-123903883D01*
X201521396Y-123903577D01*
X201598092Y-123649577D01*
X201713057Y-123643376D01*
X201828022Y-123637176D01*
X201936305Y-124066710D01*
X201936305Y-124066710D01*
G37*
X201936305Y-124066710D02*
X201970642Y-124200478D01*
X202003654Y-124324634D01*
X202033262Y-124431690D01*
X202057386Y-124514161D01*
X202073945Y-124564561D01*
X202076249Y-124570327D01*
X202107909Y-124644410D01*
X202173479Y-124506827D01*
X202203021Y-124440644D01*
X202243249Y-124344617D01*
X202290162Y-124228604D01*
X202339755Y-124102465D01*
X202375443Y-124009410D01*
X202511836Y-123649577D01*
X202693451Y-123643461D01*
X202775148Y-123641558D01*
X202837786Y-123641715D01*
X202871704Y-123643836D01*
X202875066Y-123645233D01*
X202866596Y-123677878D01*
X202842938Y-123742794D01*
X202806725Y-123833852D01*
X202760587Y-123944923D01*
X202707154Y-124069876D01*
X202649059Y-124202582D01*
X202588931Y-124336912D01*
X202529402Y-124466737D01*
X202473103Y-124585926D01*
X202457186Y-124618796D01*
X202252968Y-125037681D01*
X202104339Y-125031546D01*
X201955710Y-125025410D01*
X201866923Y-124750244D01*
X201830917Y-124634922D01*
X201797350Y-124520706D01*
X201769834Y-124420317D01*
X201751980Y-124346473D01*
X201751218Y-124342785D01*
X201735400Y-124274711D01*
X201720550Y-124226962D01*
X201710600Y-124210494D01*
X201699237Y-124229319D01*
X201675355Y-124281901D01*
X201641404Y-124362396D01*
X201599833Y-124464959D01*
X201553089Y-124583749D01*
X201539859Y-124617952D01*
X201382816Y-125025410D01*
X201233234Y-125031551D01*
X201083653Y-125037692D01*
X200981115Y-124809301D01*
X200928815Y-124688493D01*
X200872937Y-124551935D01*
X200815743Y-124405939D01*
X200759498Y-124256819D01*
X200706462Y-124110885D01*
X200658901Y-123974451D01*
X200619076Y-123853830D01*
X200589250Y-123755333D01*
X200571686Y-123685273D01*
X200567900Y-123656607D01*
X200587428Y-123648621D01*
X200639599Y-123643734D01*
X200714789Y-123642637D01*
X200750578Y-123643461D01*
X200933257Y-123649577D01*
X201032651Y-123998827D01*
X201090699Y-124199920D01*
X201139090Y-124361188D01*
X201178253Y-124483918D01*
X201208616Y-124569398D01*
X201230609Y-124618917D01*
X201244016Y-124633827D01*
X201258926Y-124614789D01*
X201284450Y-124562037D01*
X201318101Y-124482113D01*
X201357395Y-124381559D01*
X201399847Y-124266917D01*
X201442973Y-124144729D01*
X201484286Y-124021537D01*
X201521303Y-123903883D01*
X201521396Y-123903577D01*
X201598092Y-123649577D01*
X201713057Y-123643376D01*
X201828022Y-123637176D01*
X201936305Y-124066710D01*
G36*
X205964315Y-123621774D02*
G01*
X206068127Y-123630692D01*
X206150334Y-123643924D01*
X206202257Y-123660305D01*
X206212331Y-123667203D01*
X206213574Y-123691795D01*
X206206299Y-123745534D01*
X206193115Y-123811929D01*
X206175737Y-123883936D01*
X206160715Y-123922917D01*
X206142424Y-123937422D01*
X206115237Y-123935998D01*
X206111902Y-123935327D01*
X206069618Y-123930876D01*
X205996648Y-123927349D01*
X205904637Y-123925194D01*
X205838400Y-123924744D01*
X205616150Y-123924744D01*
X205610506Y-124480369D01*
X205604863Y-125035994D01*
X205245733Y-125035994D01*
X205245733Y-123704125D01*
X205325108Y-123683486D01*
X205588022Y-123633201D01*
X205847579Y-123618332D01*
X205964315Y-123621774D01*
X205964315Y-123621774D01*
G37*
X205964315Y-123621774D02*
X206068127Y-123630692D01*
X206150334Y-123643924D01*
X206202257Y-123660305D01*
X206212331Y-123667203D01*
X206213574Y-123691795D01*
X206206299Y-123745534D01*
X206193115Y-123811929D01*
X206175737Y-123883936D01*
X206160715Y-123922917D01*
X206142424Y-123937422D01*
X206115237Y-123935998D01*
X206111902Y-123935327D01*
X206069618Y-123930876D01*
X205996648Y-123927349D01*
X205904637Y-123925194D01*
X205838400Y-123924744D01*
X205616150Y-123924744D01*
X205610506Y-124480369D01*
X205604863Y-125035994D01*
X205245733Y-125035994D01*
X205245733Y-123704125D01*
X205325108Y-123683486D01*
X205588022Y-123633201D01*
X205847579Y-123618332D01*
X205964315Y-123621774D01*
G36*
X211130066Y-125035994D02*
G01*
X210770233Y-125035994D01*
X210770233Y-123638994D01*
X211130066Y-123638994D01*
X211130066Y-125035994D01*
X211130066Y-125035994D01*
G37*
X211130066Y-125035994D02*
X210770233Y-125035994D01*
X210770233Y-123638994D01*
X211130066Y-123638994D01*
X211130066Y-125035994D01*
G36*
X212684917Y-123803035D02*
G01*
X212662610Y-123871526D01*
X212628413Y-123971295D01*
X212585278Y-124093975D01*
X212536161Y-124231197D01*
X212484014Y-124374595D01*
X212462624Y-124432744D01*
X212412449Y-124568938D01*
X212366031Y-124695454D01*
X212325783Y-124805673D01*
X212294121Y-124892973D01*
X212273456Y-124950734D01*
X212267758Y-124967202D01*
X212244797Y-125035994D01*
X211897522Y-125035994D01*
X211768994Y-124755535D01*
X211715816Y-124637749D01*
X211662556Y-124516750D01*
X211614955Y-124405771D01*
X211578757Y-124318043D01*
X211574919Y-124308353D01*
X211548198Y-124238376D01*
X211515150Y-124148843D01*
X211478609Y-124047801D01*
X211441410Y-123943294D01*
X211406386Y-123843369D01*
X211376372Y-123756071D01*
X211354202Y-123689447D01*
X211342711Y-123651541D01*
X211341733Y-123646400D01*
X211361274Y-123642993D01*
X211413481Y-123641621D01*
X211488728Y-123642437D01*
X211524635Y-123643461D01*
X211707536Y-123649577D01*
X211776746Y-123892994D01*
X211815777Y-124022838D01*
X211859093Y-124154473D01*
X211904397Y-124282182D01*
X211949392Y-124400250D01*
X211991780Y-124502961D01*
X212029263Y-124584598D01*
X212059546Y-124639447D01*
X212080329Y-124661790D01*
X212085258Y-124660569D01*
X212096194Y-124635509D01*
X212116411Y-124576092D01*
X212143985Y-124488781D01*
X212176992Y-124380042D01*
X212213507Y-124256341D01*
X212251609Y-124124142D01*
X212289371Y-123989911D01*
X212324872Y-123860113D01*
X212337283Y-123813619D01*
X212383537Y-123638994D01*
X212735304Y-123638994D01*
X212684917Y-123803035D01*
X212684917Y-123803035D01*
G37*
X212684917Y-123803035D02*
X212662610Y-123871526D01*
X212628413Y-123971295D01*
X212585278Y-124093975D01*
X212536161Y-124231197D01*
X212484014Y-124374595D01*
X212462624Y-124432744D01*
X212412449Y-124568938D01*
X212366031Y-124695454D01*
X212325783Y-124805673D01*
X212294121Y-124892973D01*
X212273456Y-124950734D01*
X212267758Y-124967202D01*
X212244797Y-125035994D01*
X211897522Y-125035994D01*
X211768994Y-124755535D01*
X211715816Y-124637749D01*
X211662556Y-124516750D01*
X211614955Y-124405771D01*
X211578757Y-124318043D01*
X211574919Y-124308353D01*
X211548198Y-124238376D01*
X211515150Y-124148843D01*
X211478609Y-124047801D01*
X211441410Y-123943294D01*
X211406386Y-123843369D01*
X211376372Y-123756071D01*
X211354202Y-123689447D01*
X211342711Y-123651541D01*
X211341733Y-123646400D01*
X211361274Y-123642993D01*
X211413481Y-123641621D01*
X211488728Y-123642437D01*
X211524635Y-123643461D01*
X211707536Y-123649577D01*
X211776746Y-123892994D01*
X211815777Y-124022838D01*
X211859093Y-124154473D01*
X211904397Y-124282182D01*
X211949392Y-124400250D01*
X211991780Y-124502961D01*
X212029263Y-124584598D01*
X212059546Y-124639447D01*
X212080329Y-124661790D01*
X212085258Y-124660569D01*
X212096194Y-124635509D01*
X212116411Y-124576092D01*
X212143985Y-124488781D01*
X212176992Y-124380042D01*
X212213507Y-124256341D01*
X212251609Y-124124142D01*
X212289371Y-123989911D01*
X212324872Y-123860113D01*
X212337283Y-123813619D01*
X212383537Y-123638994D01*
X212735304Y-123638994D01*
X212684917Y-123803035D01*
G36*
X220020066Y-123632552D02*
G01*
X220227814Y-123622548D01*
X220416515Y-123625251D01*
X220572952Y-123653809D01*
X220699120Y-123709207D01*
X220797015Y-123792432D01*
X220868631Y-123904469D01*
X220886994Y-123948349D01*
X220901094Y-123989619D01*
X220911778Y-124032407D01*
X220919510Y-124083175D01*
X220924754Y-124148384D01*
X220927975Y-124234495D01*
X220929638Y-124347970D01*
X220930206Y-124495270D01*
X220930233Y-124549954D01*
X220930233Y-125035994D01*
X220591566Y-125035994D01*
X220591444Y-124660285D01*
X220590085Y-124476509D01*
X220585622Y-124329894D01*
X220577271Y-124215332D01*
X220564247Y-124127714D01*
X220545770Y-124061932D01*
X220521054Y-124012877D01*
X220489317Y-123975441D01*
X220485980Y-123972369D01*
X220447349Y-123941500D01*
X220408118Y-123923985D01*
X220354609Y-123916180D01*
X220273143Y-123914443D01*
X220268441Y-123914449D01*
X220185196Y-123916326D01*
X220113290Y-123920974D01*
X220068098Y-123927394D01*
X220067691Y-123927501D01*
X220020066Y-123940264D01*
X220020066Y-125035994D01*
X219681400Y-125035994D01*
X219681400Y-122982827D01*
X220020066Y-122982827D01*
X220020066Y-123632552D01*
X220020066Y-123632552D01*
G37*
X220020066Y-123632552D02*
X220227814Y-123622548D01*
X220416515Y-123625251D01*
X220572952Y-123653809D01*
X220699120Y-123709207D01*
X220797015Y-123792432D01*
X220868631Y-123904469D01*
X220886994Y-123948349D01*
X220901094Y-123989619D01*
X220911778Y-124032407D01*
X220919510Y-124083175D01*
X220924754Y-124148384D01*
X220927975Y-124234495D01*
X220929638Y-124347970D01*
X220930206Y-124495270D01*
X220930233Y-124549954D01*
X220930233Y-125035994D01*
X220591566Y-125035994D01*
X220591444Y-124660285D01*
X220590085Y-124476509D01*
X220585622Y-124329894D01*
X220577271Y-124215332D01*
X220564247Y-124127714D01*
X220545770Y-124061932D01*
X220521054Y-124012877D01*
X220489317Y-123975441D01*
X220485980Y-123972369D01*
X220447349Y-123941500D01*
X220408118Y-123923985D01*
X220354609Y-123916180D01*
X220273143Y-123914443D01*
X220268441Y-123914449D01*
X220185196Y-123916326D01*
X220113290Y-123920974D01*
X220068098Y-123927394D01*
X220067691Y-123927501D01*
X220020066Y-123940264D01*
X220020066Y-125035994D01*
X219681400Y-125035994D01*
X219681400Y-122982827D01*
X220020066Y-122982827D01*
X220020066Y-123632552D01*
G36*
X222016247Y-123628941D02*
G01*
X222105421Y-123630571D01*
X222169411Y-123634868D01*
X222216794Y-123643037D01*
X222256144Y-123656282D01*
X222296037Y-123675808D01*
X222319442Y-123688622D01*
X222388792Y-123733513D01*
X222448892Y-123783358D01*
X222474118Y-123811120D01*
X222508338Y-123860913D01*
X222535149Y-123910823D01*
X222555573Y-123966922D01*
X222570633Y-124035278D01*
X222581349Y-124121959D01*
X222588745Y-124233035D01*
X222593843Y-124374576D01*
X222597506Y-124543869D01*
X222606360Y-125035994D01*
X222242566Y-125035994D01*
X222242566Y-124591922D01*
X222241359Y-124404524D01*
X222236182Y-124255145D01*
X222224701Y-124139500D01*
X222204581Y-124053308D01*
X222173488Y-123992284D01*
X222129089Y-123952146D01*
X222069047Y-123928610D01*
X221991030Y-123917392D01*
X221892703Y-123914210D01*
X221873201Y-123914160D01*
X221692233Y-123914160D01*
X221692233Y-125035994D01*
X221332400Y-125035994D01*
X221332400Y-123684328D01*
X221454108Y-123656733D01*
X221525542Y-123645793D01*
X221628603Y-123637036D01*
X221752609Y-123631140D01*
X221886881Y-123628786D01*
X221893316Y-123628774D01*
X222016247Y-123628941D01*
X222016247Y-123628941D01*
G37*
X222016247Y-123628941D02*
X222105421Y-123630571D01*
X222169411Y-123634868D01*
X222216794Y-123643037D01*
X222256144Y-123656282D01*
X222296037Y-123675808D01*
X222319442Y-123688622D01*
X222388792Y-123733513D01*
X222448892Y-123783358D01*
X222474118Y-123811120D01*
X222508338Y-123860913D01*
X222535149Y-123910823D01*
X222555573Y-123966922D01*
X222570633Y-124035278D01*
X222581349Y-124121959D01*
X222588745Y-124233035D01*
X222593843Y-124374576D01*
X222597506Y-124543869D01*
X222606360Y-125035994D01*
X222242566Y-125035994D01*
X222242566Y-124591922D01*
X222241359Y-124404524D01*
X222236182Y-124255145D01*
X222224701Y-124139500D01*
X222204581Y-124053308D01*
X222173488Y-123992284D01*
X222129089Y-123952146D01*
X222069047Y-123928610D01*
X221991030Y-123917392D01*
X221892703Y-123914210D01*
X221873201Y-123914160D01*
X221692233Y-123914160D01*
X221692233Y-125035994D01*
X221332400Y-125035994D01*
X221332400Y-123684328D01*
X221454108Y-123656733D01*
X221525542Y-123645793D01*
X221628603Y-123637036D01*
X221752609Y-123631140D01*
X221886881Y-123628786D01*
X221893316Y-123628774D01*
X222016247Y-123628941D01*
G36*
X229206400Y-125035994D02*
G01*
X228846566Y-125035994D01*
X228846566Y-123638994D01*
X229206400Y-123638994D01*
X229206400Y-125035994D01*
X229206400Y-125035994D01*
G37*
X229206400Y-125035994D02*
X228846566Y-125035994D01*
X228846566Y-123638994D01*
X229206400Y-123638994D01*
X229206400Y-125035994D01*
G36*
X214807775Y-124067151D02*
G01*
X215204650Y-124072910D01*
X215210868Y-124226369D01*
X215217087Y-124379827D01*
X214410900Y-124379827D01*
X214410900Y-124061393D01*
X214807775Y-124067151D01*
X214807775Y-124067151D01*
G37*
X214807775Y-124067151D02*
X215204650Y-124072910D01*
X215210868Y-124226369D01*
X215217087Y-124379827D01*
X214410900Y-124379827D01*
X214410900Y-124061393D01*
X214807775Y-124067151D01*
G36*
X211130066Y-123427327D02*
G01*
X210770233Y-123427327D01*
X210770233Y-123088660D01*
X211130066Y-123088660D01*
X211130066Y-123427327D01*
X211130066Y-123427327D01*
G37*
X211130066Y-123427327D02*
X210770233Y-123427327D01*
X210770233Y-123088660D01*
X211130066Y-123088660D01*
X211130066Y-123427327D01*
G36*
X229206400Y-123427327D02*
G01*
X228846566Y-123427327D01*
X228846566Y-123088660D01*
X229206400Y-123088660D01*
X229206400Y-123427327D01*
X229206400Y-123427327D01*
G37*
X229206400Y-123427327D02*
X228846566Y-123427327D01*
X228846566Y-123088660D01*
X229206400Y-123088660D01*
X229206400Y-123427327D01*
G36*
X204483733Y-114783944D02*
G01*
X204483390Y-115036402D01*
X204482397Y-115279166D01*
X204480812Y-115508133D01*
X204478690Y-115719201D01*
X204476088Y-115908268D01*
X204473061Y-116071231D01*
X204469665Y-116203989D01*
X204465957Y-116302439D01*
X204462171Y-116360709D01*
X204400143Y-116795483D01*
X204301121Y-117210436D01*
X204164258Y-117607789D01*
X203988703Y-117989760D01*
X203773606Y-118358570D01*
X203603677Y-118603847D01*
X203567856Y-118649941D01*
X203520661Y-118706262D01*
X203460422Y-118774543D01*
X203385471Y-118856516D01*
X203294138Y-118953915D01*
X203184754Y-119068472D01*
X203055651Y-119201920D01*
X202905158Y-119355993D01*
X202731608Y-119532424D01*
X202533330Y-119732945D01*
X202308656Y-119959290D01*
X202055917Y-120213191D01*
X201988780Y-120280544D01*
X201780156Y-120489419D01*
X201577858Y-120691241D01*
X201384152Y-120883788D01*
X201201305Y-121064838D01*
X201031585Y-121232171D01*
X200877258Y-121383564D01*
X200740591Y-121516797D01*
X200623851Y-121629647D01*
X200529304Y-121719893D01*
X200459218Y-121785314D01*
X200415859Y-121823689D01*
X200407271Y-121830424D01*
X200261972Y-121922672D01*
X200094434Y-122009035D01*
X199924579Y-122079790D01*
X199837650Y-122108453D01*
X199807202Y-122116391D01*
X199772060Y-122123155D01*
X199728696Y-122128854D01*
X199673579Y-122133594D01*
X199603182Y-122137483D01*
X199513976Y-122140626D01*
X199402431Y-122143132D01*
X199265018Y-122145108D01*
X199098210Y-122146659D01*
X198898477Y-122147894D01*
X198662290Y-122148920D01*
X198482983Y-122149539D01*
X198255927Y-122149946D01*
X198039264Y-122149710D01*
X197837103Y-122148876D01*
X197653552Y-122147490D01*
X197492721Y-122145600D01*
X197358717Y-122143251D01*
X197255650Y-122140488D01*
X197187629Y-122137359D01*
X197161658Y-122134716D01*
X196907782Y-122062817D01*
X196668904Y-121953747D01*
X196449082Y-121811047D01*
X196252377Y-121638255D01*
X196082846Y-121438912D01*
X195944549Y-121216556D01*
X195845866Y-120987430D01*
X195813544Y-120882832D01*
X195788054Y-120773562D01*
X195768896Y-120653797D01*
X195755568Y-120517715D01*
X195747566Y-120359494D01*
X195744391Y-120173311D01*
X195745539Y-119953343D01*
X195747293Y-119843883D01*
X195750946Y-119668239D01*
X195754952Y-119528443D01*
X195759808Y-119418005D01*
X195766014Y-119330441D01*
X195774070Y-119259263D01*
X195784474Y-119197984D01*
X195797727Y-119140117D01*
X195803012Y-119119910D01*
X195894159Y-118857482D01*
X196019977Y-118618012D01*
X196178730Y-118403676D01*
X196368682Y-118216650D01*
X196588096Y-118059111D01*
X196699190Y-117996756D01*
X196770149Y-117960249D01*
X196833686Y-117928871D01*
X196893549Y-117902196D01*
X196953486Y-117879800D01*
X197017245Y-117861256D01*
X197088573Y-117846139D01*
X197171219Y-117834024D01*
X197268930Y-117824485D01*
X197385455Y-117817097D01*
X197524541Y-117811433D01*
X197689936Y-117807070D01*
X197885388Y-117803580D01*
X198114644Y-117800539D01*
X198381454Y-117797520D01*
X198461816Y-117796639D01*
X198727533Y-117793613D01*
X198954392Y-117790735D01*
X199145868Y-117787878D01*
X199305436Y-117784912D01*
X199436572Y-117781708D01*
X199542749Y-117778139D01*
X199627442Y-117774075D01*
X199694127Y-117769387D01*
X199746278Y-117763948D01*
X199787370Y-117757627D01*
X199820877Y-117750298D01*
X199837650Y-117745697D01*
X199972106Y-117699120D01*
X200118105Y-117636836D01*
X200257814Y-117567068D01*
X200370513Y-117499981D01*
X200397749Y-117476865D01*
X200453038Y-117425594D01*
X200534532Y-117347986D01*
X200640384Y-117245855D01*
X200768746Y-117121016D01*
X200917772Y-116975285D01*
X201085613Y-116810477D01*
X201270422Y-116628406D01*
X201470353Y-116430889D01*
X201683557Y-116219740D01*
X201908188Y-115996774D01*
X202142398Y-115763808D01*
X202384339Y-115522655D01*
X202478191Y-115428977D01*
X204483733Y-113426381D01*
X204483733Y-114783944D01*
X204483733Y-114783944D01*
G37*
X204483733Y-114783944D02*
X204483390Y-115036402D01*
X204482397Y-115279166D01*
X204480812Y-115508133D01*
X204478690Y-115719201D01*
X204476088Y-115908268D01*
X204473061Y-116071231D01*
X204469665Y-116203989D01*
X204465957Y-116302439D01*
X204462171Y-116360709D01*
X204400143Y-116795483D01*
X204301121Y-117210436D01*
X204164258Y-117607789D01*
X203988703Y-117989760D01*
X203773606Y-118358570D01*
X203603677Y-118603847D01*
X203567856Y-118649941D01*
X203520661Y-118706262D01*
X203460422Y-118774543D01*
X203385471Y-118856516D01*
X203294138Y-118953915D01*
X203184754Y-119068472D01*
X203055651Y-119201920D01*
X202905158Y-119355993D01*
X202731608Y-119532424D01*
X202533330Y-119732945D01*
X202308656Y-119959290D01*
X202055917Y-120213191D01*
X201988780Y-120280544D01*
X201780156Y-120489419D01*
X201577858Y-120691241D01*
X201384152Y-120883788D01*
X201201305Y-121064838D01*
X201031585Y-121232171D01*
X200877258Y-121383564D01*
X200740591Y-121516797D01*
X200623851Y-121629647D01*
X200529304Y-121719893D01*
X200459218Y-121785314D01*
X200415859Y-121823689D01*
X200407271Y-121830424D01*
X200261972Y-121922672D01*
X200094434Y-122009035D01*
X199924579Y-122079790D01*
X199837650Y-122108453D01*
X199807202Y-122116391D01*
X199772060Y-122123155D01*
X199728696Y-122128854D01*
X199673579Y-122133594D01*
X199603182Y-122137483D01*
X199513976Y-122140626D01*
X199402431Y-122143132D01*
X199265018Y-122145108D01*
X199098210Y-122146659D01*
X198898477Y-122147894D01*
X198662290Y-122148920D01*
X198482983Y-122149539D01*
X198255927Y-122149946D01*
X198039264Y-122149710D01*
X197837103Y-122148876D01*
X197653552Y-122147490D01*
X197492721Y-122145600D01*
X197358717Y-122143251D01*
X197255650Y-122140488D01*
X197187629Y-122137359D01*
X197161658Y-122134716D01*
X196907782Y-122062817D01*
X196668904Y-121953747D01*
X196449082Y-121811047D01*
X196252377Y-121638255D01*
X196082846Y-121438912D01*
X195944549Y-121216556D01*
X195845866Y-120987430D01*
X195813544Y-120882832D01*
X195788054Y-120773562D01*
X195768896Y-120653797D01*
X195755568Y-120517715D01*
X195747566Y-120359494D01*
X195744391Y-120173311D01*
X195745539Y-119953343D01*
X195747293Y-119843883D01*
X195750946Y-119668239D01*
X195754952Y-119528443D01*
X195759808Y-119418005D01*
X195766014Y-119330441D01*
X195774070Y-119259263D01*
X195784474Y-119197984D01*
X195797727Y-119140117D01*
X195803012Y-119119910D01*
X195894159Y-118857482D01*
X196019977Y-118618012D01*
X196178730Y-118403676D01*
X196368682Y-118216650D01*
X196588096Y-118059111D01*
X196699190Y-117996756D01*
X196770149Y-117960249D01*
X196833686Y-117928871D01*
X196893549Y-117902196D01*
X196953486Y-117879800D01*
X197017245Y-117861256D01*
X197088573Y-117846139D01*
X197171219Y-117834024D01*
X197268930Y-117824485D01*
X197385455Y-117817097D01*
X197524541Y-117811433D01*
X197689936Y-117807070D01*
X197885388Y-117803580D01*
X198114644Y-117800539D01*
X198381454Y-117797520D01*
X198461816Y-117796639D01*
X198727533Y-117793613D01*
X198954392Y-117790735D01*
X199145868Y-117787878D01*
X199305436Y-117784912D01*
X199436572Y-117781708D01*
X199542749Y-117778139D01*
X199627442Y-117774075D01*
X199694127Y-117769387D01*
X199746278Y-117763948D01*
X199787370Y-117757627D01*
X199820877Y-117750298D01*
X199837650Y-117745697D01*
X199972106Y-117699120D01*
X200118105Y-117636836D01*
X200257814Y-117567068D01*
X200370513Y-117499981D01*
X200397749Y-117476865D01*
X200453038Y-117425594D01*
X200534532Y-117347986D01*
X200640384Y-117245855D01*
X200768746Y-117121016D01*
X200917772Y-116975285D01*
X201085613Y-116810477D01*
X201270422Y-116628406D01*
X201470353Y-116430889D01*
X201683557Y-116219740D01*
X201908188Y-115996774D01*
X202142398Y-115763808D01*
X202384339Y-115522655D01*
X202478191Y-115428977D01*
X204483733Y-113426381D01*
X204483733Y-114783944D01*
G36*
X210527052Y-113569592D02*
G01*
X210545006Y-113569963D01*
X210747979Y-113575384D01*
X210917305Y-113582933D01*
X211061661Y-113593738D01*
X211189721Y-113608926D01*
X211310162Y-113629626D01*
X211431658Y-113656964D01*
X211562885Y-113692070D01*
X211627212Y-113710640D01*
X211845542Y-113781307D01*
X212074836Y-113867392D01*
X212306778Y-113964974D01*
X212533052Y-114070136D01*
X212745344Y-114178958D01*
X212935337Y-114287523D01*
X213094716Y-114391911D01*
X213133655Y-114420564D01*
X213221661Y-114487364D01*
X212747041Y-115009762D01*
X212633405Y-115134342D01*
X212528605Y-115248286D01*
X212436066Y-115347944D01*
X212359213Y-115429666D01*
X212301470Y-115489801D01*
X212266264Y-115524699D01*
X212256869Y-115532157D01*
X212233389Y-115521398D01*
X212183134Y-115492508D01*
X212114733Y-115450561D01*
X212071983Y-115423429D01*
X211825734Y-115275660D01*
X211580462Y-115148294D01*
X211343182Y-115044467D01*
X211120912Y-114967317D01*
X210964141Y-114928013D01*
X210856030Y-114912635D01*
X210718345Y-114902605D01*
X210560299Y-114897697D01*
X210391104Y-114897688D01*
X210219974Y-114902351D01*
X210056121Y-114911464D01*
X209908757Y-114924800D01*
X209787095Y-114942135D01*
X209715315Y-114958479D01*
X209482772Y-115047812D01*
X209255431Y-115175966D01*
X209037679Y-115339438D01*
X208833904Y-115534725D01*
X208648492Y-115758323D01*
X208566546Y-115875833D01*
X208486066Y-116000963D01*
X208423780Y-116106011D01*
X208372603Y-116204856D01*
X208325453Y-116311374D01*
X208275249Y-116439445D01*
X208265096Y-116466514D01*
X208225017Y-116580099D01*
X208193107Y-116687297D01*
X208168496Y-116795051D01*
X208150311Y-116910307D01*
X208137680Y-117040009D01*
X208129733Y-117191101D01*
X208125597Y-117370526D01*
X208124400Y-117585231D01*
X208124400Y-117587269D01*
X208125585Y-117819399D01*
X208129643Y-118016933D01*
X208137324Y-118187558D01*
X208149382Y-118338958D01*
X208166567Y-118478818D01*
X208189632Y-118614825D01*
X208219328Y-118754662D01*
X208251565Y-118887077D01*
X208349075Y-119215010D01*
X208466430Y-119507350D01*
X208605445Y-119766802D01*
X208767932Y-119996075D01*
X208955708Y-120197876D01*
X209170587Y-120374912D01*
X209312205Y-120469709D01*
X209393164Y-120519242D01*
X209464133Y-120559607D01*
X209530579Y-120591739D01*
X209597970Y-120616572D01*
X209671772Y-120635040D01*
X209757452Y-120648076D01*
X209860477Y-120656615D01*
X209986313Y-120661591D01*
X210140429Y-120663937D01*
X210328290Y-120664588D01*
X210452733Y-120664558D01*
X210646799Y-120664272D01*
X210803857Y-120663538D01*
X210929231Y-120662067D01*
X211028247Y-120659569D01*
X211106230Y-120655758D01*
X211168505Y-120650343D01*
X211220396Y-120643038D01*
X211267228Y-120633553D01*
X211314326Y-120621600D01*
X211331150Y-120616978D01*
X211449498Y-120577216D01*
X211596295Y-120516616D01*
X211765025Y-120438204D01*
X211949168Y-120345004D01*
X212137781Y-120242530D01*
X212309412Y-120146162D01*
X212714572Y-120706013D01*
X212812228Y-120841466D01*
X212901408Y-120966149D01*
X212979187Y-121075892D01*
X213042639Y-121166530D01*
X213088838Y-121233892D01*
X213114858Y-121273812D01*
X213119574Y-121282971D01*
X213101660Y-121298494D01*
X213052276Y-121329620D01*
X212977778Y-121372936D01*
X212884520Y-121425033D01*
X212778856Y-121482500D01*
X212667140Y-121541926D01*
X212555727Y-121599900D01*
X212450972Y-121653011D01*
X212359228Y-121697850D01*
X212286851Y-121731004D01*
X212277124Y-121735152D01*
X212129858Y-121790631D01*
X211954921Y-121846348D01*
X211766768Y-121898334D01*
X211579852Y-121942621D01*
X211408627Y-121975241D01*
X211394650Y-121977443D01*
X211296439Y-121988914D01*
X211163912Y-121999017D01*
X211005069Y-122007590D01*
X210827910Y-122014473D01*
X210640434Y-122019503D01*
X210450643Y-122022520D01*
X210266535Y-122023363D01*
X210096111Y-122021870D01*
X209947371Y-122017880D01*
X209828315Y-122011233D01*
X209807150Y-122009421D01*
X209517557Y-121970700D01*
X209251912Y-121908654D01*
X208996464Y-121819225D01*
X208737466Y-121698354D01*
X208717066Y-121687671D01*
X208399488Y-121505243D01*
X208114899Y-121308631D01*
X207855047Y-121090884D01*
X207611678Y-120845054D01*
X207376542Y-120564193D01*
X207364766Y-120548993D01*
X207210245Y-120336004D01*
X207076501Y-120122076D01*
X206958612Y-119897579D01*
X206851659Y-119652883D01*
X206750719Y-119378359D01*
X206721037Y-119289244D01*
X206659126Y-119087835D01*
X206608570Y-118894992D01*
X206568556Y-118703852D01*
X206538274Y-118507550D01*
X206516910Y-118299222D01*
X206503653Y-118072005D01*
X206497690Y-117819035D01*
X206498211Y-117533447D01*
X206499861Y-117419518D01*
X206504301Y-117213151D01*
X206510489Y-117041684D01*
X206519448Y-116897692D01*
X206532204Y-116773746D01*
X206549781Y-116662420D01*
X206573205Y-116556287D01*
X206603500Y-116447921D01*
X206641691Y-116329895D01*
X206655973Y-116288221D01*
X206790888Y-115959679D01*
X206965310Y-115636286D01*
X207176460Y-115321177D01*
X207421559Y-115017488D01*
X207697829Y-114728353D01*
X208002491Y-114456908D01*
X208332766Y-114206286D01*
X208685876Y-113979624D01*
X208719753Y-113959887D01*
X208905325Y-113857540D01*
X209079223Y-113773245D01*
X209248083Y-113705586D01*
X209418541Y-113653145D01*
X209597233Y-113614504D01*
X209790794Y-113588246D01*
X210005860Y-113572953D01*
X210249068Y-113567208D01*
X210527052Y-113569592D01*
X210527052Y-113569592D01*
G37*
X210527052Y-113569592D02*
X210545006Y-113569963D01*
X210747979Y-113575384D01*
X210917305Y-113582933D01*
X211061661Y-113593738D01*
X211189721Y-113608926D01*
X211310162Y-113629626D01*
X211431658Y-113656964D01*
X211562885Y-113692070D01*
X211627212Y-113710640D01*
X211845542Y-113781307D01*
X212074836Y-113867392D01*
X212306778Y-113964974D01*
X212533052Y-114070136D01*
X212745344Y-114178958D01*
X212935337Y-114287523D01*
X213094716Y-114391911D01*
X213133655Y-114420564D01*
X213221661Y-114487364D01*
X212747041Y-115009762D01*
X212633405Y-115134342D01*
X212528605Y-115248286D01*
X212436066Y-115347944D01*
X212359213Y-115429666D01*
X212301470Y-115489801D01*
X212266264Y-115524699D01*
X212256869Y-115532157D01*
X212233389Y-115521398D01*
X212183134Y-115492508D01*
X212114733Y-115450561D01*
X212071983Y-115423429D01*
X211825734Y-115275660D01*
X211580462Y-115148294D01*
X211343182Y-115044467D01*
X211120912Y-114967317D01*
X210964141Y-114928013D01*
X210856030Y-114912635D01*
X210718345Y-114902605D01*
X210560299Y-114897697D01*
X210391104Y-114897688D01*
X210219974Y-114902351D01*
X210056121Y-114911464D01*
X209908757Y-114924800D01*
X209787095Y-114942135D01*
X209715315Y-114958479D01*
X209482772Y-115047812D01*
X209255431Y-115175966D01*
X209037679Y-115339438D01*
X208833904Y-115534725D01*
X208648492Y-115758323D01*
X208566546Y-115875833D01*
X208486066Y-116000963D01*
X208423780Y-116106011D01*
X208372603Y-116204856D01*
X208325453Y-116311374D01*
X208275249Y-116439445D01*
X208265096Y-116466514D01*
X208225017Y-116580099D01*
X208193107Y-116687297D01*
X208168496Y-116795051D01*
X208150311Y-116910307D01*
X208137680Y-117040009D01*
X208129733Y-117191101D01*
X208125597Y-117370526D01*
X208124400Y-117585231D01*
X208124400Y-117587269D01*
X208125585Y-117819399D01*
X208129643Y-118016933D01*
X208137324Y-118187558D01*
X208149382Y-118338958D01*
X208166567Y-118478818D01*
X208189632Y-118614825D01*
X208219328Y-118754662D01*
X208251565Y-118887077D01*
X208349075Y-119215010D01*
X208466430Y-119507350D01*
X208605445Y-119766802D01*
X208767932Y-119996075D01*
X208955708Y-120197876D01*
X209170587Y-120374912D01*
X209312205Y-120469709D01*
X209393164Y-120519242D01*
X209464133Y-120559607D01*
X209530579Y-120591739D01*
X209597970Y-120616572D01*
X209671772Y-120635040D01*
X209757452Y-120648076D01*
X209860477Y-120656615D01*
X209986313Y-120661591D01*
X210140429Y-120663937D01*
X210328290Y-120664588D01*
X210452733Y-120664558D01*
X210646799Y-120664272D01*
X210803857Y-120663538D01*
X210929231Y-120662067D01*
X211028247Y-120659569D01*
X211106230Y-120655758D01*
X211168505Y-120650343D01*
X211220396Y-120643038D01*
X211267228Y-120633553D01*
X211314326Y-120621600D01*
X211331150Y-120616978D01*
X211449498Y-120577216D01*
X211596295Y-120516616D01*
X211765025Y-120438204D01*
X211949168Y-120345004D01*
X212137781Y-120242530D01*
X212309412Y-120146162D01*
X212714572Y-120706013D01*
X212812228Y-120841466D01*
X212901408Y-120966149D01*
X212979187Y-121075892D01*
X213042639Y-121166530D01*
X213088838Y-121233892D01*
X213114858Y-121273812D01*
X213119574Y-121282971D01*
X213101660Y-121298494D01*
X213052276Y-121329620D01*
X212977778Y-121372936D01*
X212884520Y-121425033D01*
X212778856Y-121482500D01*
X212667140Y-121541926D01*
X212555727Y-121599900D01*
X212450972Y-121653011D01*
X212359228Y-121697850D01*
X212286851Y-121731004D01*
X212277124Y-121735152D01*
X212129858Y-121790631D01*
X211954921Y-121846348D01*
X211766768Y-121898334D01*
X211579852Y-121942621D01*
X211408627Y-121975241D01*
X211394650Y-121977443D01*
X211296439Y-121988914D01*
X211163912Y-121999017D01*
X211005069Y-122007590D01*
X210827910Y-122014473D01*
X210640434Y-122019503D01*
X210450643Y-122022520D01*
X210266535Y-122023363D01*
X210096111Y-122021870D01*
X209947371Y-122017880D01*
X209828315Y-122011233D01*
X209807150Y-122009421D01*
X209517557Y-121970700D01*
X209251912Y-121908654D01*
X208996464Y-121819225D01*
X208737466Y-121698354D01*
X208717066Y-121687671D01*
X208399488Y-121505243D01*
X208114899Y-121308631D01*
X207855047Y-121090884D01*
X207611678Y-120845054D01*
X207376542Y-120564193D01*
X207364766Y-120548993D01*
X207210245Y-120336004D01*
X207076501Y-120122076D01*
X206958612Y-119897579D01*
X206851659Y-119652883D01*
X206750719Y-119378359D01*
X206721037Y-119289244D01*
X206659126Y-119087835D01*
X206608570Y-118894992D01*
X206568556Y-118703852D01*
X206538274Y-118507550D01*
X206516910Y-118299222D01*
X206503653Y-118072005D01*
X206497690Y-117819035D01*
X206498211Y-117533447D01*
X206499861Y-117419518D01*
X206504301Y-117213151D01*
X206510489Y-117041684D01*
X206519448Y-116897692D01*
X206532204Y-116773746D01*
X206549781Y-116662420D01*
X206573205Y-116556287D01*
X206603500Y-116447921D01*
X206641691Y-116329895D01*
X206655973Y-116288221D01*
X206790888Y-115959679D01*
X206965310Y-115636286D01*
X207176460Y-115321177D01*
X207421559Y-115017488D01*
X207697829Y-114728353D01*
X208002491Y-114456908D01*
X208332766Y-114206286D01*
X208685876Y-113979624D01*
X208719753Y-113959887D01*
X208905325Y-113857540D01*
X209079223Y-113773245D01*
X209248083Y-113705586D01*
X209418541Y-113653145D01*
X209597233Y-113614504D01*
X209790794Y-113588246D01*
X210005860Y-113572953D01*
X210249068Y-113567208D01*
X210527052Y-113569592D01*
G36*
X233491668Y-113575522D02*
G01*
X233688273Y-113579252D01*
X233856682Y-113586489D01*
X234003945Y-113598106D01*
X234137111Y-113614976D01*
X234263232Y-113637972D01*
X234389358Y-113667968D01*
X234522538Y-113705837D01*
X234653126Y-113747003D01*
X234806335Y-113801921D01*
X234973461Y-113870621D01*
X235147978Y-113949643D01*
X235323359Y-114035527D01*
X235493078Y-114124812D01*
X235650608Y-114214039D01*
X235789425Y-114299747D01*
X235903000Y-114378477D01*
X235984809Y-114446767D01*
X235997791Y-114459935D01*
X236046785Y-114512086D01*
X235545162Y-115053727D01*
X235043538Y-115595367D01*
X234966594Y-115535541D01*
X234910443Y-115493450D01*
X234834902Y-115438842D01*
X234755590Y-115382995D01*
X234749710Y-115378922D01*
X234551527Y-115246029D01*
X234376130Y-115139273D01*
X234215292Y-115055971D01*
X234060786Y-114993444D01*
X233904386Y-114949012D01*
X233737866Y-114919992D01*
X233553001Y-114903706D01*
X233341563Y-114897471D01*
X233271310Y-114897160D01*
X233006220Y-114903387D01*
X232775244Y-114923692D01*
X232571795Y-114960516D01*
X232389284Y-115016298D01*
X232221125Y-115093477D01*
X232060729Y-115194493D01*
X231901509Y-115321784D01*
X231756531Y-115458077D01*
X231550869Y-115688280D01*
X231372351Y-115942926D01*
X231219600Y-116224743D01*
X231091237Y-116536463D01*
X230985883Y-116880816D01*
X230938748Y-117078206D01*
X230923388Y-117152580D01*
X230911654Y-117221610D01*
X230903076Y-117292669D01*
X230897184Y-117373129D01*
X230893510Y-117470364D01*
X230891582Y-117591747D01*
X230890932Y-117744650D01*
X230890933Y-117828744D01*
X230892277Y-118035857D01*
X230896539Y-118209463D01*
X230904626Y-118358341D01*
X230917448Y-118491268D01*
X230935911Y-118617022D01*
X230960925Y-118744383D01*
X230993398Y-118882128D01*
X231004403Y-118925513D01*
X231098656Y-119224049D01*
X231221671Y-119501408D01*
X231371062Y-119754140D01*
X231544442Y-119978797D01*
X231739424Y-120171928D01*
X231953622Y-120330084D01*
X231992375Y-120353597D01*
X232117449Y-120418316D01*
X232268785Y-120483000D01*
X232430722Y-120541719D01*
X232587600Y-120588545D01*
X232656566Y-120605069D01*
X232757347Y-120621010D01*
X232889048Y-120633041D01*
X233045043Y-120641301D01*
X233218699Y-120645925D01*
X233403390Y-120647053D01*
X233592484Y-120644823D01*
X233779354Y-120639371D01*
X233957369Y-120630835D01*
X234119899Y-120619355D01*
X234260317Y-120605066D01*
X234371992Y-120588107D01*
X234448295Y-120568616D01*
X234450513Y-120567788D01*
X234498623Y-120549496D01*
X234487483Y-119098744D01*
X234217608Y-119092819D01*
X233947733Y-119086895D01*
X233947733Y-117669994D01*
X236149066Y-117669994D01*
X236149066Y-121626368D01*
X236006191Y-121668853D01*
X235649380Y-121762763D01*
X235256945Y-121843359D01*
X234833676Y-121909932D01*
X234384362Y-121961771D01*
X233913793Y-121998167D01*
X233714064Y-122008539D01*
X233535624Y-122016206D01*
X233391846Y-122021551D01*
X233275125Y-122024654D01*
X233177858Y-122025591D01*
X233092441Y-122024440D01*
X233011270Y-122021279D01*
X232931733Y-122016523D01*
X232506960Y-121969581D01*
X232101346Y-121887608D01*
X231716444Y-121771314D01*
X231353806Y-121621413D01*
X231014986Y-121438616D01*
X230701536Y-121223636D01*
X230415011Y-120977185D01*
X230219006Y-120772447D01*
X229978263Y-120468809D01*
X229764670Y-120137368D01*
X229582796Y-119786125D01*
X229437209Y-119423084D01*
X229420684Y-119373910D01*
X229345361Y-119122050D01*
X229286831Y-118872937D01*
X229243402Y-118616154D01*
X229213388Y-118341281D01*
X229195098Y-118037902D01*
X229192481Y-117966327D01*
X229188273Y-117652847D01*
X229198143Y-117361442D01*
X229223467Y-117079109D01*
X229265620Y-116792847D01*
X229325978Y-116489652D01*
X229367684Y-116309929D01*
X229415598Y-116132399D01*
X229471325Y-115969233D01*
X229538396Y-115814420D01*
X229620342Y-115661952D01*
X229720694Y-115505820D01*
X229842982Y-115340014D01*
X229990737Y-115158525D01*
X230156081Y-114968169D01*
X230357074Y-114760237D01*
X230585417Y-114555832D01*
X230833667Y-114359983D01*
X231094382Y-114177716D01*
X231360119Y-114014061D01*
X231623435Y-113874046D01*
X231876888Y-113762699D01*
X232010983Y-113714985D01*
X232134586Y-113676850D01*
X232248594Y-113646129D01*
X232359793Y-113622059D01*
X232474971Y-113603877D01*
X232600913Y-113590818D01*
X232744406Y-113582119D01*
X232912236Y-113577015D01*
X233111189Y-113574744D01*
X233259816Y-113574424D01*
X233491668Y-113575522D01*
X233491668Y-113575522D01*
G37*
X233491668Y-113575522D02*
X233688273Y-113579252D01*
X233856682Y-113586489D01*
X234003945Y-113598106D01*
X234137111Y-113614976D01*
X234263232Y-113637972D01*
X234389358Y-113667968D01*
X234522538Y-113705837D01*
X234653126Y-113747003D01*
X234806335Y-113801921D01*
X234973461Y-113870621D01*
X235147978Y-113949643D01*
X235323359Y-114035527D01*
X235493078Y-114124812D01*
X235650608Y-114214039D01*
X235789425Y-114299747D01*
X235903000Y-114378477D01*
X235984809Y-114446767D01*
X235997791Y-114459935D01*
X236046785Y-114512086D01*
X235545162Y-115053727D01*
X235043538Y-115595367D01*
X234966594Y-115535541D01*
X234910443Y-115493450D01*
X234834902Y-115438842D01*
X234755590Y-115382995D01*
X234749710Y-115378922D01*
X234551527Y-115246029D01*
X234376130Y-115139273D01*
X234215292Y-115055971D01*
X234060786Y-114993444D01*
X233904386Y-114949012D01*
X233737866Y-114919992D01*
X233553001Y-114903706D01*
X233341563Y-114897471D01*
X233271310Y-114897160D01*
X233006220Y-114903387D01*
X232775244Y-114923692D01*
X232571795Y-114960516D01*
X232389284Y-115016298D01*
X232221125Y-115093477D01*
X232060729Y-115194493D01*
X231901509Y-115321784D01*
X231756531Y-115458077D01*
X231550869Y-115688280D01*
X231372351Y-115942926D01*
X231219600Y-116224743D01*
X231091237Y-116536463D01*
X230985883Y-116880816D01*
X230938748Y-117078206D01*
X230923388Y-117152580D01*
X230911654Y-117221610D01*
X230903076Y-117292669D01*
X230897184Y-117373129D01*
X230893510Y-117470364D01*
X230891582Y-117591747D01*
X230890932Y-117744650D01*
X230890933Y-117828744D01*
X230892277Y-118035857D01*
X230896539Y-118209463D01*
X230904626Y-118358341D01*
X230917448Y-118491268D01*
X230935911Y-118617022D01*
X230960925Y-118744383D01*
X230993398Y-118882128D01*
X231004403Y-118925513D01*
X231098656Y-119224049D01*
X231221671Y-119501408D01*
X231371062Y-119754140D01*
X231544442Y-119978797D01*
X231739424Y-120171928D01*
X231953622Y-120330084D01*
X231992375Y-120353597D01*
X232117449Y-120418316D01*
X232268785Y-120483000D01*
X232430722Y-120541719D01*
X232587600Y-120588545D01*
X232656566Y-120605069D01*
X232757347Y-120621010D01*
X232889048Y-120633041D01*
X233045043Y-120641301D01*
X233218699Y-120645925D01*
X233403390Y-120647053D01*
X233592484Y-120644823D01*
X233779354Y-120639371D01*
X233957369Y-120630835D01*
X234119899Y-120619355D01*
X234260317Y-120605066D01*
X234371992Y-120588107D01*
X234448295Y-120568616D01*
X234450513Y-120567788D01*
X234498623Y-120549496D01*
X234487483Y-119098744D01*
X234217608Y-119092819D01*
X233947733Y-119086895D01*
X233947733Y-117669994D01*
X236149066Y-117669994D01*
X236149066Y-121626368D01*
X236006191Y-121668853D01*
X235649380Y-121762763D01*
X235256945Y-121843359D01*
X234833676Y-121909932D01*
X234384362Y-121961771D01*
X233913793Y-121998167D01*
X233714064Y-122008539D01*
X233535624Y-122016206D01*
X233391846Y-122021551D01*
X233275125Y-122024654D01*
X233177858Y-122025591D01*
X233092441Y-122024440D01*
X233011270Y-122021279D01*
X232931733Y-122016523D01*
X232506960Y-121969581D01*
X232101346Y-121887608D01*
X231716444Y-121771314D01*
X231353806Y-121621413D01*
X231014986Y-121438616D01*
X230701536Y-121223636D01*
X230415011Y-120977185D01*
X230219006Y-120772447D01*
X229978263Y-120468809D01*
X229764670Y-120137368D01*
X229582796Y-119786125D01*
X229437209Y-119423084D01*
X229420684Y-119373910D01*
X229345361Y-119122050D01*
X229286831Y-118872937D01*
X229243402Y-118616154D01*
X229213388Y-118341281D01*
X229195098Y-118037902D01*
X229192481Y-117966327D01*
X229188273Y-117652847D01*
X229198143Y-117361442D01*
X229223467Y-117079109D01*
X229265620Y-116792847D01*
X229325978Y-116489652D01*
X229367684Y-116309929D01*
X229415598Y-116132399D01*
X229471325Y-115969233D01*
X229538396Y-115814420D01*
X229620342Y-115661952D01*
X229720694Y-115505820D01*
X229842982Y-115340014D01*
X229990737Y-115158525D01*
X230156081Y-114968169D01*
X230357074Y-114760237D01*
X230585417Y-114555832D01*
X230833667Y-114359983D01*
X231094382Y-114177716D01*
X231360119Y-114014061D01*
X231623435Y-113874046D01*
X231876888Y-113762699D01*
X232010983Y-113714985D01*
X232134586Y-113676850D01*
X232248594Y-113646129D01*
X232359793Y-113622059D01*
X232474971Y-113603877D01*
X232600913Y-113590818D01*
X232744406Y-113582119D01*
X232912236Y-113577015D01*
X233111189Y-113574744D01*
X233259816Y-113574424D01*
X233491668Y-113575522D01*
G36*
X220739733Y-115087660D02*
G01*
X218051566Y-115087660D01*
X218051566Y-121860994D01*
X216421733Y-121860994D01*
X216421733Y-115087660D01*
X213733566Y-115087660D01*
X213733566Y-113732994D01*
X220739733Y-113732994D01*
X220739733Y-115087660D01*
X220739733Y-115087660D01*
G37*
X220739733Y-115087660D02*
X218051566Y-115087660D01*
X218051566Y-121860994D01*
X216421733Y-121860994D01*
X216421733Y-115087660D01*
X213733566Y-115087660D01*
X213733566Y-113732994D01*
X220739733Y-113732994D01*
X220739733Y-115087660D01*
G36*
X224800730Y-113737966D02*
G01*
X225404340Y-113743577D01*
X225528729Y-114018744D01*
X225777870Y-114574347D01*
X226032756Y-115151687D01*
X226294281Y-115752888D01*
X226563344Y-116380076D01*
X226840838Y-117035374D01*
X227127662Y-117720907D01*
X227424710Y-118438800D01*
X227732879Y-119191178D01*
X228053066Y-119980166D01*
X228269367Y-120516910D01*
X228355779Y-120731560D01*
X228438472Y-120936319D01*
X228515935Y-121127492D01*
X228586659Y-121301382D01*
X228649133Y-121454292D01*
X228701848Y-121582527D01*
X228743293Y-121682390D01*
X228771959Y-121750185D01*
X228786029Y-121781619D01*
X228826260Y-121860994D01*
X227057684Y-121860994D01*
X226927588Y-121527348D01*
X226885392Y-121417309D01*
X226832477Y-121276457D01*
X226772203Y-121113903D01*
X226707929Y-120938759D01*
X226643015Y-120760134D01*
X226580822Y-120587141D01*
X226580212Y-120585432D01*
X226362932Y-119977160D01*
X224773708Y-119977215D01*
X223184483Y-119977270D01*
X222844808Y-120913840D01*
X222505134Y-121850410D01*
X221647031Y-121855936D01*
X220788928Y-121861463D01*
X221343477Y-120480103D01*
X221586200Y-119876739D01*
X221815463Y-119309516D01*
X222032731Y-118774960D01*
X222094427Y-118624145D01*
X223618400Y-118624145D01*
X223639119Y-118628283D01*
X223699494Y-118632027D01*
X223796845Y-118635330D01*
X223928497Y-118638147D01*
X224091772Y-118640434D01*
X224283992Y-118642145D01*
X224502481Y-118643234D01*
X224744560Y-118643656D01*
X224770843Y-118643660D01*
X225923286Y-118643660D01*
X225884330Y-118532535D01*
X225772162Y-118213560D01*
X225661485Y-117900746D01*
X225553787Y-117598210D01*
X225450553Y-117310067D01*
X225353271Y-117040433D01*
X225263426Y-116793425D01*
X225182504Y-116573159D01*
X225111993Y-116383751D01*
X225053379Y-116229317D01*
X225041633Y-116198910D01*
X224986798Y-116057139D01*
X224934881Y-115922172D01*
X224888577Y-115801067D01*
X224850578Y-115700883D01*
X224823576Y-115628677D01*
X224813488Y-115600914D01*
X224789977Y-115543403D01*
X224769818Y-115509607D01*
X224759916Y-115505664D01*
X224743314Y-115535936D01*
X224714057Y-115602308D01*
X224673547Y-115700949D01*
X224623189Y-115828028D01*
X224564382Y-115979714D01*
X224498531Y-116152176D01*
X224427037Y-116341582D01*
X224351303Y-116544102D01*
X224272731Y-116755904D01*
X224192724Y-116973157D01*
X224112683Y-117192030D01*
X224034012Y-117408692D01*
X223958113Y-117619312D01*
X223886387Y-117820058D01*
X223820238Y-118007100D01*
X223761068Y-118176606D01*
X223710279Y-118324746D01*
X223669274Y-118447687D01*
X223639455Y-118541599D01*
X223622224Y-118602651D01*
X223618400Y-118624145D01*
X222094427Y-118624145D01*
X222239469Y-118269597D01*
X222437143Y-117789954D01*
X222627218Y-117332555D01*
X222811158Y-116893927D01*
X222990430Y-116470597D01*
X223166499Y-116059090D01*
X223340829Y-115655932D01*
X223514886Y-115257649D01*
X223690136Y-114860768D01*
X223868042Y-114461813D01*
X224050071Y-114057312D01*
X224084411Y-113981383D01*
X224197120Y-113732356D01*
X224800730Y-113737966D01*
X224800730Y-113737966D01*
G37*
X224800730Y-113737966D02*
X225404340Y-113743577D01*
X225528729Y-114018744D01*
X225777870Y-114574347D01*
X226032756Y-115151687D01*
X226294281Y-115752888D01*
X226563344Y-116380076D01*
X226840838Y-117035374D01*
X227127662Y-117720907D01*
X227424710Y-118438800D01*
X227732879Y-119191178D01*
X228053066Y-119980166D01*
X228269367Y-120516910D01*
X228355779Y-120731560D01*
X228438472Y-120936319D01*
X228515935Y-121127492D01*
X228586659Y-121301382D01*
X228649133Y-121454292D01*
X228701848Y-121582527D01*
X228743293Y-121682390D01*
X228771959Y-121750185D01*
X228786029Y-121781619D01*
X228826260Y-121860994D01*
X227057684Y-121860994D01*
X226927588Y-121527348D01*
X226885392Y-121417309D01*
X226832477Y-121276457D01*
X226772203Y-121113903D01*
X226707929Y-120938759D01*
X226643015Y-120760134D01*
X226580822Y-120587141D01*
X226580212Y-120585432D01*
X226362932Y-119977160D01*
X224773708Y-119977215D01*
X223184483Y-119977270D01*
X222844808Y-120913840D01*
X222505134Y-121850410D01*
X221647031Y-121855936D01*
X220788928Y-121861463D01*
X221343477Y-120480103D01*
X221586200Y-119876739D01*
X221815463Y-119309516D01*
X222032731Y-118774960D01*
X222094427Y-118624145D01*
X223618400Y-118624145D01*
X223639119Y-118628283D01*
X223699494Y-118632027D01*
X223796845Y-118635330D01*
X223928497Y-118638147D01*
X224091772Y-118640434D01*
X224283992Y-118642145D01*
X224502481Y-118643234D01*
X224744560Y-118643656D01*
X224770843Y-118643660D01*
X225923286Y-118643660D01*
X225884330Y-118532535D01*
X225772162Y-118213560D01*
X225661485Y-117900746D01*
X225553787Y-117598210D01*
X225450553Y-117310067D01*
X225353271Y-117040433D01*
X225263426Y-116793425D01*
X225182504Y-116573159D01*
X225111993Y-116383751D01*
X225053379Y-116229317D01*
X225041633Y-116198910D01*
X224986798Y-116057139D01*
X224934881Y-115922172D01*
X224888577Y-115801067D01*
X224850578Y-115700883D01*
X224823576Y-115628677D01*
X224813488Y-115600914D01*
X224789977Y-115543403D01*
X224769818Y-115509607D01*
X224759916Y-115505664D01*
X224743314Y-115535936D01*
X224714057Y-115602308D01*
X224673547Y-115700949D01*
X224623189Y-115828028D01*
X224564382Y-115979714D01*
X224498531Y-116152176D01*
X224427037Y-116341582D01*
X224351303Y-116544102D01*
X224272731Y-116755904D01*
X224192724Y-116973157D01*
X224112683Y-117192030D01*
X224034012Y-117408692D01*
X223958113Y-117619312D01*
X223886387Y-117820058D01*
X223820238Y-118007100D01*
X223761068Y-118176606D01*
X223710279Y-118324746D01*
X223669274Y-118447687D01*
X223639455Y-118541599D01*
X223622224Y-118602651D01*
X223618400Y-118624145D01*
X222094427Y-118624145D01*
X222239469Y-118269597D01*
X222437143Y-117789954D01*
X222627218Y-117332555D01*
X222811158Y-116893927D01*
X222990430Y-116470597D01*
X223166499Y-116059090D01*
X223340829Y-115655932D01*
X223514886Y-115257649D01*
X223690136Y-114860768D01*
X223868042Y-114461813D01*
X224050071Y-114057312D01*
X224084411Y-113981383D01*
X224197120Y-113732356D01*
X224800730Y-113737966D01*
D14*
X158240000Y-125810748D02*
X158240000Y-126333252D01*
X159660000Y-125810748D02*
X159660000Y-126333252D01*
X54750000Y-66440000D02*
X56080000Y-66440000D01*
X54750000Y-67770000D02*
X54750000Y-66440000D01*
X54750000Y-69040000D02*
X57410000Y-69040000D01*
X57410000Y-69040000D02*
X57410000Y-71640000D01*
X54750000Y-69040000D02*
X54750000Y-71640000D01*
X54750000Y-71640000D02*
X57410000Y-71640000D01*
X95390000Y-126250000D02*
X95390000Y-124920000D01*
X96720000Y-126250000D02*
X95390000Y-126250000D01*
X97990000Y-126250000D02*
X97990000Y-123590000D01*
X97990000Y-123590000D02*
X103130000Y-123590000D01*
X97990000Y-126250000D02*
X103130000Y-126250000D01*
X103130000Y-126250000D02*
X103130000Y-123590000D01*
X91580000Y-60090000D02*
X92910000Y-60090000D01*
X91580000Y-61420000D02*
X91580000Y-60090000D01*
X91580000Y-62690000D02*
X94240000Y-62690000D01*
X94240000Y-62690000D02*
X94240000Y-65290000D01*
X91580000Y-62690000D02*
X91580000Y-65290000D01*
X91580000Y-65290000D02*
X94240000Y-65290000D01*
D10*
X87250000Y-50326400D02*
X87250000Y-65326400D01*
X87250000Y-65326400D02*
X77750000Y-65326400D01*
X77750000Y-65326400D02*
X77750000Y-50326400D01*
X77750000Y-50326400D02*
X77750000Y-47326400D01*
X77750000Y-47326400D02*
X87250000Y-47326400D01*
X87250000Y-47326400D02*
X87250000Y-50326400D01*
D14*
X162558000Y-125792748D02*
X162558000Y-126315252D01*
X163978000Y-125792748D02*
X163978000Y-126315252D01*
X151690000Y-125958748D02*
X151690000Y-126481252D01*
X153110000Y-125958748D02*
X153110000Y-126481252D01*
X93171252Y-54360000D02*
X92648748Y-54360000D01*
X93171252Y-55780000D02*
X92648748Y-55780000D01*
X172160000Y-126481252D02*
X172160000Y-125958748D01*
X170740000Y-126481252D02*
X170740000Y-125958748D01*
D10*
X61375600Y-98166800D02*
X61375600Y-121026800D01*
X61375600Y-121026800D02*
X112175600Y-121026800D01*
X112175600Y-121026800D02*
X112175600Y-70226800D01*
X112175600Y-70226800D02*
X61375600Y-70226800D01*
X61375600Y-70226800D02*
X61375600Y-98166800D01*
X119634800Y-115210000D02*
X128334800Y-115210000D01*
X119634800Y-127010000D02*
X119634800Y-115210000D01*
X126334800Y-127010000D02*
X119634800Y-127010000D01*
X128334800Y-125110000D02*
X128334800Y-115210000D01*
D14*
X133975000Y-127235000D02*
X135225000Y-127235000D01*
X134600000Y-127860000D02*
X134600000Y-126610000D01*
X141555563Y-126370000D02*
X142620000Y-125305563D01*
X133164437Y-126370000D02*
X132100000Y-125305563D01*
X133164437Y-126370000D02*
X135850000Y-126370000D01*
X141555563Y-126370000D02*
X138870000Y-126370000D01*
X142620000Y-125305563D02*
X142620000Y-115850000D01*
X132100000Y-125305563D02*
X132100000Y-115850000D01*
X132100000Y-115850000D02*
X135850000Y-115850000D01*
X142620000Y-115850000D02*
X138870000Y-115850000D01*
X247092037Y-56919244D02*
X241892037Y-56919244D01*
X247092037Y-74759244D02*
X247092037Y-56919244D01*
X241892037Y-77359244D02*
X241892037Y-56919244D01*
X247092037Y-74759244D02*
X244492037Y-74759244D01*
X244492037Y-74759244D02*
X244492037Y-77359244D01*
X244492037Y-77359244D02*
X241892037Y-77359244D01*
X247092037Y-76029244D02*
X247092037Y-77359244D01*
X247092037Y-77359244D02*
X245762037Y-77359244D01*
X53360000Y-87880000D02*
X58800000Y-87880000D01*
X58800000Y-87880000D02*
X58800000Y-78140000D01*
X58800000Y-78140000D02*
X53360000Y-78140000D01*
X53360000Y-78140000D02*
X53360000Y-87880000D01*
X56080000Y-88790000D02*
X56080000Y-87880000D01*
X56080000Y-77230000D02*
X56080000Y-78140000D01*
X53360000Y-86335000D02*
X58800000Y-86335000D01*
X53360000Y-86215000D02*
X58800000Y-86215000D01*
X53360000Y-86455000D02*
X58800000Y-86455000D01*
X153945000Y-117550000D02*
X150855000Y-117550000D01*
X154900000Y-120110000D02*
G75*
G03X154900000Y-120110000I-2500000J0D01*
G01*
X152400462Y-123100000D02*
G75*
G02X150855170Y-117550000I-462J2990000D01*
G01*
X152399538Y-123100000D02*
G75*
G03X153944830Y-117550000I462J2990000D01*
G01*
X100529538Y-58060000D02*
G75*
G03X102074830Y-52510000I462J2990000D01*
G01*
X100530462Y-58060000D02*
G75*
G02X98985170Y-52510000I-462J2990000D01*
G01*
X103030000Y-55070000D02*
G75*
G03X103030000Y-55070000I-2500000J0D01*
G01*
X102075000Y-52510000D02*
X98985000Y-52510000D01*
X171449538Y-123100000D02*
G75*
G03X172994830Y-117550000I462J2990000D01*
G01*
X171450462Y-123100000D02*
G75*
G02X169905170Y-117550000I-462J2990000D01*
G01*
X173950000Y-120110000D02*
G75*
G03X173950000Y-120110000I-2500000J0D01*
G01*
X172995000Y-117550000D02*
X169905000Y-117550000D01*
X163470000Y-117550000D02*
X160380000Y-117550000D01*
X164425000Y-120110000D02*
G75*
G03X164425000Y-120110000I-2500000J0D01*
G01*
X161925462Y-123100000D02*
G75*
G02X160380170Y-117550000I-462J2990000D01*
G01*
X161924538Y-123100000D02*
G75*
G03X163469830Y-117550000I462J2990000D01*
G01*
X247092037Y-107839244D02*
X245762037Y-107839244D01*
X247092037Y-106509244D02*
X247092037Y-107839244D01*
X244492037Y-107839244D02*
X241892037Y-107839244D01*
X244492037Y-105239244D02*
X244492037Y-107839244D01*
X247092037Y-105239244D02*
X244492037Y-105239244D01*
X241892037Y-107839244D02*
X241892037Y-87399244D01*
X247092037Y-105239244D02*
X247092037Y-87399244D01*
X247092037Y-87399244D02*
X241892037Y-87399244D01*
X231126321Y-87399244D02*
X225926321Y-87399244D01*
X231126321Y-105239244D02*
X231126321Y-87399244D01*
X225926321Y-107839244D02*
X225926321Y-87399244D01*
X231126321Y-105239244D02*
X228526321Y-105239244D01*
X228526321Y-105239244D02*
X228526321Y-107839244D01*
X228526321Y-107839244D02*
X225926321Y-107839244D01*
X231126321Y-106509244D02*
X231126321Y-107839244D01*
X231126321Y-107839244D02*
X229796321Y-107839244D01*
X215160607Y-87399244D02*
X209960607Y-87399244D01*
X215160607Y-105239244D02*
X215160607Y-87399244D01*
X209960607Y-107839244D02*
X209960607Y-87399244D01*
X215160607Y-105239244D02*
X212560607Y-105239244D01*
X212560607Y-105239244D02*
X212560607Y-107839244D01*
X212560607Y-107839244D02*
X209960607Y-107839244D01*
X215160607Y-106509244D02*
X215160607Y-107839244D01*
X215160607Y-107839244D02*
X213830607Y-107839244D01*
X199194893Y-107839244D02*
X197864893Y-107839244D01*
X199194893Y-106509244D02*
X199194893Y-107839244D01*
X196594893Y-107839244D02*
X193994893Y-107839244D01*
X196594893Y-105239244D02*
X196594893Y-107839244D01*
X199194893Y-105239244D02*
X196594893Y-105239244D01*
X193994893Y-107839244D02*
X193994893Y-87399244D01*
X199194893Y-105239244D02*
X199194893Y-87399244D01*
X199194893Y-87399244D02*
X193994893Y-87399244D01*
X183229179Y-87399244D02*
X178029179Y-87399244D01*
X183229179Y-105239244D02*
X183229179Y-87399244D01*
X178029179Y-107839244D02*
X178029179Y-87399244D01*
X183229179Y-105239244D02*
X180629179Y-105239244D01*
X180629179Y-105239244D02*
X180629179Y-107839244D01*
X180629179Y-107839244D02*
X178029179Y-107839244D01*
X183229179Y-106509244D02*
X183229179Y-107839244D01*
X183229179Y-107839244D02*
X181899179Y-107839244D01*
X167263465Y-87399244D02*
X162063465Y-87399244D01*
X167263465Y-105239244D02*
X167263465Y-87399244D01*
X162063465Y-107839244D02*
X162063465Y-87399244D01*
X167263465Y-105239244D02*
X164663465Y-105239244D01*
X164663465Y-105239244D02*
X164663465Y-107839244D01*
X164663465Y-107839244D02*
X162063465Y-107839244D01*
X167263465Y-106509244D02*
X167263465Y-107839244D01*
X167263465Y-107839244D02*
X165933465Y-107839244D01*
X151297751Y-107839244D02*
X149967751Y-107839244D01*
X151297751Y-106509244D02*
X151297751Y-107839244D01*
X148697751Y-107839244D02*
X146097751Y-107839244D01*
X148697751Y-105239244D02*
X148697751Y-107839244D01*
X151297751Y-105239244D02*
X148697751Y-105239244D01*
X146097751Y-107839244D02*
X146097751Y-87399244D01*
X151297751Y-105239244D02*
X151297751Y-87399244D01*
X151297751Y-87399244D02*
X146097751Y-87399244D01*
X135332037Y-107839244D02*
X134002037Y-107839244D01*
X135332037Y-106509244D02*
X135332037Y-107839244D01*
X132732037Y-107839244D02*
X130132037Y-107839244D01*
X132732037Y-105239244D02*
X132732037Y-107839244D01*
X135332037Y-105239244D02*
X132732037Y-105239244D01*
X130132037Y-107839244D02*
X130132037Y-87399244D01*
X135332037Y-105239244D02*
X135332037Y-87399244D01*
X135332037Y-87399244D02*
X130132037Y-87399244D01*
X231126321Y-56919244D02*
X225926321Y-56919244D01*
X231126321Y-74759244D02*
X231126321Y-56919244D01*
X225926321Y-77359244D02*
X225926321Y-56919244D01*
X231126321Y-74759244D02*
X228526321Y-74759244D01*
X228526321Y-74759244D02*
X228526321Y-77359244D01*
X228526321Y-77359244D02*
X225926321Y-77359244D01*
X231126321Y-76029244D02*
X231126321Y-77359244D01*
X231126321Y-77359244D02*
X229796321Y-77359244D01*
X215160607Y-77359244D02*
X213830607Y-77359244D01*
X215160607Y-76029244D02*
X215160607Y-77359244D01*
X212560607Y-77359244D02*
X209960607Y-77359244D01*
X212560607Y-74759244D02*
X212560607Y-77359244D01*
X215160607Y-74759244D02*
X212560607Y-74759244D01*
X209960607Y-77359244D02*
X209960607Y-56919244D01*
X215160607Y-74759244D02*
X215160607Y-56919244D01*
X215160607Y-56919244D02*
X209960607Y-56919244D01*
X199194893Y-77359244D02*
X197864893Y-77359244D01*
X199194893Y-76029244D02*
X199194893Y-77359244D01*
X196594893Y-77359244D02*
X193994893Y-77359244D01*
X196594893Y-74759244D02*
X196594893Y-77359244D01*
X199194893Y-74759244D02*
X196594893Y-74759244D01*
X193994893Y-77359244D02*
X193994893Y-56919244D01*
X199194893Y-74759244D02*
X199194893Y-56919244D01*
X199194893Y-56919244D02*
X193994893Y-56919244D01*
X183229179Y-56919244D02*
X178029179Y-56919244D01*
X183229179Y-74759244D02*
X183229179Y-56919244D01*
X178029179Y-77359244D02*
X178029179Y-56919244D01*
X183229179Y-74759244D02*
X180629179Y-74759244D01*
X180629179Y-74759244D02*
X180629179Y-77359244D01*
X180629179Y-77359244D02*
X178029179Y-77359244D01*
X183229179Y-76029244D02*
X183229179Y-77359244D01*
X183229179Y-77359244D02*
X181899179Y-77359244D01*
X167263465Y-56919244D02*
X162063465Y-56919244D01*
X167263465Y-74759244D02*
X167263465Y-56919244D01*
X162063465Y-77359244D02*
X162063465Y-56919244D01*
X167263465Y-74759244D02*
X164663465Y-74759244D01*
X164663465Y-74759244D02*
X164663465Y-77359244D01*
X164663465Y-77359244D02*
X162063465Y-77359244D01*
X167263465Y-76029244D02*
X167263465Y-77359244D01*
X167263465Y-77359244D02*
X165933465Y-77359244D01*
X151297751Y-77359244D02*
X149967751Y-77359244D01*
X151297751Y-76029244D02*
X151297751Y-77359244D01*
X148697751Y-77359244D02*
X146097751Y-77359244D01*
X148697751Y-74759244D02*
X148697751Y-77359244D01*
X151297751Y-74759244D02*
X148697751Y-74759244D01*
X146097751Y-77359244D02*
X146097751Y-56919244D01*
X151297751Y-74759244D02*
X151297751Y-56919244D01*
X151297751Y-56919244D02*
X146097751Y-56919244D01*
X135332037Y-77359244D02*
X134002037Y-77359244D01*
X135332037Y-76029244D02*
X135332037Y-77359244D01*
X132732037Y-77359244D02*
X130132037Y-77359244D01*
X132732037Y-74759244D02*
X132732037Y-77359244D01*
X135332037Y-74759244D02*
X132732037Y-74759244D01*
X130132037Y-77359244D02*
X130132037Y-56919244D01*
X135332037Y-74759244D02*
X135332037Y-56919244D01*
X135332037Y-56919244D02*
X130132037Y-56919244D01*
D10*
X161052380Y-126238666D02*
X160576190Y-126572000D01*
X161052380Y-126810095D02*
X160052380Y-126810095D01*
X160052380Y-126429142D01*
X160100000Y-126333904D01*
X160147619Y-126286285D01*
X160242857Y-126238666D01*
X160385714Y-126238666D01*
X160480952Y-126286285D01*
X160528571Y-126333904D01*
X160576190Y-126429142D01*
X160576190Y-126810095D01*
X160052380Y-125333904D02*
X160052380Y-125810095D01*
X160528571Y-125857714D01*
X160480952Y-125810095D01*
X160433333Y-125714857D01*
X160433333Y-125476761D01*
X160480952Y-125381523D01*
X160528571Y-125333904D01*
X160623809Y-125286285D01*
X160861904Y-125286285D01*
X160957142Y-125333904D01*
X161004761Y-125381523D01*
X161052380Y-125476761D01*
X161052380Y-125714857D01*
X161004761Y-125810095D01*
X160957142Y-125857714D01*
X55270476Y-64892380D02*
X55270476Y-65606666D01*
X55222857Y-65749523D01*
X55127619Y-65844761D01*
X54984761Y-65892380D01*
X54889523Y-65892380D01*
X56270476Y-65892380D02*
X55699047Y-65892380D01*
X55984761Y-65892380D02*
X55984761Y-64892380D01*
X55889523Y-65035238D01*
X55794285Y-65130476D01*
X55699047Y-65178095D01*
X56841904Y-65320952D02*
X56746666Y-65273333D01*
X56699047Y-65225714D01*
X56651428Y-65130476D01*
X56651428Y-65082857D01*
X56699047Y-64987619D01*
X56746666Y-64940000D01*
X56841904Y-64892380D01*
X57032380Y-64892380D01*
X57127619Y-64940000D01*
X57175238Y-64987619D01*
X57222857Y-65082857D01*
X57222857Y-65130476D01*
X57175238Y-65225714D01*
X57127619Y-65273333D01*
X57032380Y-65320952D01*
X56841904Y-65320952D01*
X56746666Y-65368571D01*
X56699047Y-65416190D01*
X56651428Y-65511428D01*
X56651428Y-65701904D01*
X56699047Y-65797142D01*
X56746666Y-65844761D01*
X56841904Y-65892380D01*
X57032380Y-65892380D01*
X57127619Y-65844761D01*
X57175238Y-65797142D01*
X57222857Y-65701904D01*
X57222857Y-65511428D01*
X57175238Y-65416190D01*
X57127619Y-65368571D01*
X57032380Y-65320952D01*
X93842380Y-125753333D02*
X94556666Y-125753333D01*
X94699523Y-125800952D01*
X94794761Y-125896190D01*
X94842380Y-126039047D01*
X94842380Y-126134285D01*
X94842380Y-125277142D02*
X93842380Y-125277142D01*
X93842380Y-124896190D01*
X93890000Y-124800952D01*
X93937619Y-124753333D01*
X94032857Y-124705714D01*
X94175714Y-124705714D01*
X94270952Y-124753333D01*
X94318571Y-124800952D01*
X94366190Y-124896190D01*
X94366190Y-125277142D01*
X93937619Y-124324761D02*
X93890000Y-124277142D01*
X93842380Y-124181904D01*
X93842380Y-123943809D01*
X93890000Y-123848571D01*
X93937619Y-123800952D01*
X94032857Y-123753333D01*
X94128095Y-123753333D01*
X94270952Y-123800952D01*
X94842380Y-124372380D01*
X94842380Y-123753333D01*
X92076666Y-58542380D02*
X92076666Y-59256666D01*
X92029047Y-59399523D01*
X91933809Y-59494761D01*
X91790952Y-59542380D01*
X91695714Y-59542380D01*
X92552857Y-59542380D02*
X92552857Y-58542380D01*
X92933809Y-58542380D01*
X93029047Y-58590000D01*
X93076666Y-58637619D01*
X93124285Y-58732857D01*
X93124285Y-58875714D01*
X93076666Y-58970952D01*
X93029047Y-59018571D01*
X92933809Y-59066190D01*
X92552857Y-59066190D01*
X94076666Y-59542380D02*
X93505238Y-59542380D01*
X93790952Y-59542380D02*
X93790952Y-58542380D01*
X93695714Y-58685238D01*
X93600476Y-58780476D01*
X93505238Y-58828095D01*
X88202380Y-49659733D02*
X88916666Y-49659733D01*
X89059523Y-49707352D01*
X89154761Y-49802590D01*
X89202380Y-49945447D01*
X89202380Y-50040685D01*
X89202380Y-48659733D02*
X89202380Y-49231161D01*
X89202380Y-48945447D02*
X88202380Y-48945447D01*
X88345238Y-49040685D01*
X88440476Y-49135923D01*
X88488095Y-49231161D01*
X165370380Y-126220666D02*
X164894190Y-126554000D01*
X165370380Y-126792095D02*
X164370380Y-126792095D01*
X164370380Y-126411142D01*
X164418000Y-126315904D01*
X164465619Y-126268285D01*
X164560857Y-126220666D01*
X164703714Y-126220666D01*
X164798952Y-126268285D01*
X164846571Y-126315904D01*
X164894190Y-126411142D01*
X164894190Y-126792095D01*
X164703714Y-125363523D02*
X165370380Y-125363523D01*
X164322761Y-125601619D02*
X165037047Y-125839714D01*
X165037047Y-125220666D01*
X154502380Y-126386666D02*
X154026190Y-126720000D01*
X154502380Y-126958095D02*
X153502380Y-126958095D01*
X153502380Y-126577142D01*
X153550000Y-126481904D01*
X153597619Y-126434285D01*
X153692857Y-126386666D01*
X153835714Y-126386666D01*
X153930952Y-126434285D01*
X153978571Y-126481904D01*
X154026190Y-126577142D01*
X154026190Y-126958095D01*
X153502380Y-126053333D02*
X153502380Y-125434285D01*
X153883333Y-125767619D01*
X153883333Y-125624761D01*
X153930952Y-125529523D01*
X153978571Y-125481904D01*
X154073809Y-125434285D01*
X154311904Y-125434285D01*
X154407142Y-125481904D01*
X154454761Y-125529523D01*
X154502380Y-125624761D01*
X154502380Y-125910476D01*
X154454761Y-126005714D01*
X154407142Y-126053333D01*
X92743333Y-57172380D02*
X92410000Y-56696190D01*
X92171904Y-57172380D02*
X92171904Y-56172380D01*
X92552857Y-56172380D01*
X92648095Y-56220000D01*
X92695714Y-56267619D01*
X92743333Y-56362857D01*
X92743333Y-56505714D01*
X92695714Y-56600952D01*
X92648095Y-56648571D01*
X92552857Y-56696190D01*
X92171904Y-56696190D01*
X93124285Y-56267619D02*
X93171904Y-56220000D01*
X93267142Y-56172380D01*
X93505238Y-56172380D01*
X93600476Y-56220000D01*
X93648095Y-56267619D01*
X93695714Y-56362857D01*
X93695714Y-56458095D01*
X93648095Y-56600952D01*
X93076666Y-57172380D01*
X93695714Y-57172380D01*
X173372380Y-126386666D02*
X172896190Y-126720000D01*
X173372380Y-126958095D02*
X172372380Y-126958095D01*
X172372380Y-126577142D01*
X172420000Y-126481904D01*
X172467619Y-126434285D01*
X172562857Y-126386666D01*
X172705714Y-126386666D01*
X172800952Y-126434285D01*
X172848571Y-126481904D01*
X172896190Y-126577142D01*
X172896190Y-126958095D01*
X173372380Y-125434285D02*
X173372380Y-126005714D01*
X173372380Y-125720000D02*
X172372380Y-125720000D01*
X172515238Y-125815238D01*
X172610476Y-125910476D01*
X172658095Y-126005714D01*
X61725123Y-69409180D02*
X61725123Y-68409180D01*
X61963219Y-68409180D01*
X62106076Y-68456800D01*
X62201314Y-68552038D01*
X62248933Y-68647276D01*
X62296552Y-68837752D01*
X62296552Y-68980609D01*
X62248933Y-69171085D01*
X62201314Y-69266323D01*
X62106076Y-69361561D01*
X61963219Y-69409180D01*
X61725123Y-69409180D01*
X63296552Y-69313942D02*
X63248933Y-69361561D01*
X63106076Y-69409180D01*
X63010838Y-69409180D01*
X62867980Y-69361561D01*
X62772742Y-69266323D01*
X62725123Y-69171085D01*
X62677504Y-68980609D01*
X62677504Y-68837752D01*
X62725123Y-68647276D01*
X62772742Y-68552038D01*
X62867980Y-68456800D01*
X63010838Y-68409180D01*
X63106076Y-68409180D01*
X63248933Y-68456800D01*
X63296552Y-68504419D01*
X64248933Y-69409180D02*
X63677504Y-69409180D01*
X63963219Y-69409180D02*
X63963219Y-68409180D01*
X63867980Y-68552038D01*
X63772742Y-68647276D01*
X63677504Y-68694895D01*
X64867980Y-68409180D02*
X64963219Y-68409180D01*
X65058457Y-68456800D01*
X65106076Y-68504419D01*
X65153695Y-68599657D01*
X65201314Y-68790133D01*
X65201314Y-69028228D01*
X65153695Y-69218704D01*
X65106076Y-69313942D01*
X65058457Y-69361561D01*
X64963219Y-69409180D01*
X64867980Y-69409180D01*
X64772742Y-69361561D01*
X64725123Y-69313942D01*
X64677504Y-69218704D01*
X64629885Y-69028228D01*
X64629885Y-68790133D01*
X64677504Y-68599657D01*
X64725123Y-68504419D01*
X64772742Y-68456800D01*
X64867980Y-68409180D01*
X66153695Y-69409180D02*
X65582266Y-69409180D01*
X65867980Y-69409180D02*
X65867980Y-68409180D01*
X65772742Y-68552038D01*
X65677504Y-68647276D01*
X65582266Y-68694895D01*
X66907980Y-81847276D02*
X66431790Y-82180609D01*
X66907980Y-82418704D02*
X65907980Y-82418704D01*
X65907980Y-82037752D01*
X65955600Y-81942514D01*
X66003219Y-81894895D01*
X66098457Y-81847276D01*
X66241314Y-81847276D01*
X66336552Y-81894895D01*
X66384171Y-81942514D01*
X66431790Y-82037752D01*
X66431790Y-82418704D01*
X66812742Y-80847276D02*
X66860361Y-80894895D01*
X66907980Y-81037752D01*
X66907980Y-81132990D01*
X66860361Y-81275847D01*
X66765123Y-81371085D01*
X66669885Y-81418704D01*
X66479409Y-81466323D01*
X66336552Y-81466323D01*
X66146076Y-81418704D01*
X66050838Y-81371085D01*
X65955600Y-81275847D01*
X65907980Y-81132990D01*
X65907980Y-81037752D01*
X65955600Y-80894895D01*
X66003219Y-80847276D01*
X66907980Y-87522514D02*
X65907980Y-87522514D01*
X66907980Y-86951085D01*
X65907980Y-86951085D01*
X66812742Y-85903466D02*
X66860361Y-85951085D01*
X66907980Y-86093942D01*
X66907980Y-86189180D01*
X66860361Y-86332038D01*
X66765123Y-86427276D01*
X66669885Y-86474895D01*
X66479409Y-86522514D01*
X66336552Y-86522514D01*
X66146076Y-86474895D01*
X66050838Y-86427276D01*
X65955600Y-86332038D01*
X65907980Y-86189180D01*
X65907980Y-86093942D01*
X65955600Y-85951085D01*
X66003219Y-85903466D01*
X65907980Y-93531085D02*
X66907980Y-93197752D01*
X65907980Y-92864419D01*
X66907980Y-92531085D02*
X65907980Y-92531085D01*
X66907980Y-92054895D02*
X65907980Y-92054895D01*
X66907980Y-91483466D01*
X65907980Y-91483466D01*
X66527028Y-91007276D02*
X66527028Y-90245371D01*
X65907980Y-98611085D02*
X66907980Y-98277752D01*
X65907980Y-97944419D01*
X66907980Y-97611085D02*
X65907980Y-97611085D01*
X66907980Y-97134895D02*
X65907980Y-97134895D01*
X66907980Y-96563466D01*
X65907980Y-96563466D01*
X66527028Y-96087276D02*
X66527028Y-95325371D01*
X66907980Y-95706323D02*
X66146076Y-95706323D01*
X105277980Y-113247752D02*
X106277980Y-112914419D01*
X105277980Y-112581085D01*
X105277980Y-112057276D02*
X105277980Y-111866800D01*
X105325600Y-111771561D01*
X105420838Y-111676323D01*
X105611314Y-111628704D01*
X105944647Y-111628704D01*
X106135123Y-111676323D01*
X106230361Y-111771561D01*
X106277980Y-111866800D01*
X106277980Y-112057276D01*
X106230361Y-112152514D01*
X106135123Y-112247752D01*
X105944647Y-112295371D01*
X105611314Y-112295371D01*
X105420838Y-112247752D01*
X105325600Y-112152514D01*
X105277980Y-112057276D01*
X105277980Y-111200133D02*
X106087504Y-111200133D01*
X106182742Y-111152514D01*
X106230361Y-111104895D01*
X106277980Y-111009657D01*
X106277980Y-110819180D01*
X106230361Y-110723942D01*
X106182742Y-110676323D01*
X106087504Y-110628704D01*
X105277980Y-110628704D01*
X105277980Y-110295371D02*
X105277980Y-109723942D01*
X106277980Y-110009657D02*
X105277980Y-110009657D01*
X105897028Y-109390609D02*
X105897028Y-108628704D01*
X106277980Y-109009657D02*
X105516076Y-109009657D01*
X106182742Y-103111561D02*
X106230361Y-103159180D01*
X106277980Y-103302038D01*
X106277980Y-103397276D01*
X106230361Y-103540133D01*
X106135123Y-103635371D01*
X106039885Y-103682990D01*
X105849409Y-103730609D01*
X105706552Y-103730609D01*
X105516076Y-103682990D01*
X105420838Y-103635371D01*
X105325600Y-103540133D01*
X105277980Y-103397276D01*
X105277980Y-103302038D01*
X105325600Y-103159180D01*
X105373219Y-103111561D01*
X105277980Y-102492514D02*
X105277980Y-102302038D01*
X105325600Y-102206800D01*
X105420838Y-102111561D01*
X105611314Y-102063942D01*
X105944647Y-102063942D01*
X106135123Y-102111561D01*
X106230361Y-102206800D01*
X106277980Y-102302038D01*
X106277980Y-102492514D01*
X106230361Y-102587752D01*
X106135123Y-102682990D01*
X105944647Y-102730609D01*
X105611314Y-102730609D01*
X105420838Y-102682990D01*
X105325600Y-102587752D01*
X105277980Y-102492514D01*
X106277980Y-101635371D02*
X105277980Y-101635371D01*
X105992266Y-101302038D01*
X105277980Y-100968704D01*
X106277980Y-100968704D01*
X106277980Y-100492514D02*
X105277980Y-100492514D01*
X105992266Y-100159180D01*
X105277980Y-99825847D01*
X106277980Y-99825847D01*
X105277980Y-99159180D02*
X105277980Y-98968704D01*
X105325600Y-98873466D01*
X105420838Y-98778228D01*
X105611314Y-98730609D01*
X105944647Y-98730609D01*
X106135123Y-98778228D01*
X106230361Y-98873466D01*
X106277980Y-98968704D01*
X106277980Y-99159180D01*
X106230361Y-99254419D01*
X106135123Y-99349657D01*
X105944647Y-99397276D01*
X105611314Y-99397276D01*
X105420838Y-99349657D01*
X105325600Y-99254419D01*
X105277980Y-99159180D01*
X106277980Y-98302038D02*
X105277980Y-98302038D01*
X106277980Y-97730609D01*
X105277980Y-97730609D01*
X105277980Y-92927752D02*
X106277980Y-92594419D01*
X105277980Y-92261085D01*
X105277980Y-91737276D02*
X105277980Y-91546800D01*
X105325600Y-91451561D01*
X105420838Y-91356323D01*
X105611314Y-91308704D01*
X105944647Y-91308704D01*
X106135123Y-91356323D01*
X106230361Y-91451561D01*
X106277980Y-91546800D01*
X106277980Y-91737276D01*
X106230361Y-91832514D01*
X106135123Y-91927752D01*
X105944647Y-91975371D01*
X105611314Y-91975371D01*
X105420838Y-91927752D01*
X105325600Y-91832514D01*
X105277980Y-91737276D01*
X105277980Y-90880133D02*
X106087504Y-90880133D01*
X106182742Y-90832514D01*
X106230361Y-90784895D01*
X106277980Y-90689657D01*
X106277980Y-90499180D01*
X106230361Y-90403942D01*
X106182742Y-90356323D01*
X106087504Y-90308704D01*
X105277980Y-90308704D01*
X105277980Y-89975371D02*
X105277980Y-89403942D01*
X106277980Y-89689657D02*
X105277980Y-89689657D01*
X105897028Y-89070609D02*
X105897028Y-88308704D01*
X105277980Y-81982038D02*
X105277980Y-81410609D01*
X106277980Y-81696323D02*
X105277980Y-81696323D01*
X106277980Y-80505847D02*
X105801790Y-80839180D01*
X106277980Y-81077276D02*
X105277980Y-81077276D01*
X105277980Y-80696323D01*
X105325600Y-80601085D01*
X105373219Y-80553466D01*
X105468457Y-80505847D01*
X105611314Y-80505847D01*
X105706552Y-80553466D01*
X105754171Y-80601085D01*
X105801790Y-80696323D01*
X105801790Y-81077276D01*
X106277980Y-80077276D02*
X105277980Y-80077276D01*
X106277980Y-79601085D02*
X105277980Y-79601085D01*
X105992266Y-79267752D01*
X105277980Y-78934419D01*
X106277980Y-78934419D01*
X128987180Y-121871904D02*
X129796704Y-121871904D01*
X129891942Y-121824285D01*
X129939561Y-121776666D01*
X129987180Y-121681428D01*
X129987180Y-121490952D01*
X129939561Y-121395714D01*
X129891942Y-121348095D01*
X129796704Y-121300476D01*
X128987180Y-121300476D01*
X129987180Y-120300476D02*
X129987180Y-120871904D01*
X129987180Y-120586190D02*
X128987180Y-120586190D01*
X129130038Y-120681428D01*
X129225276Y-120776666D01*
X129272895Y-120871904D01*
X131517142Y-121276666D02*
X131564761Y-121324285D01*
X131612380Y-121467142D01*
X131612380Y-121562380D01*
X131564761Y-121705238D01*
X131469523Y-121800476D01*
X131374285Y-121848095D01*
X131183809Y-121895714D01*
X131040952Y-121895714D01*
X130850476Y-121848095D01*
X130755238Y-121800476D01*
X130660000Y-121705238D01*
X130612380Y-121562380D01*
X130612380Y-121467142D01*
X130660000Y-121324285D01*
X130707619Y-121276666D01*
X130612380Y-120943333D02*
X130612380Y-120324285D01*
X130993333Y-120657619D01*
X130993333Y-120514761D01*
X131040952Y-120419523D01*
X131088571Y-120371904D01*
X131183809Y-120324285D01*
X131421904Y-120324285D01*
X131517142Y-120371904D01*
X131564761Y-120419523D01*
X131612380Y-120514761D01*
X131612380Y-120800476D01*
X131564761Y-120895714D01*
X131517142Y-120943333D01*
X243682513Y-77811624D02*
X243682513Y-78525910D01*
X243634894Y-78668767D01*
X243539656Y-78764005D01*
X243396798Y-78811624D01*
X243301560Y-78811624D01*
X244682513Y-78811624D02*
X244111084Y-78811624D01*
X244396798Y-78811624D02*
X244396798Y-77811624D01*
X244301560Y-77954482D01*
X244206322Y-78049720D01*
X244111084Y-78097339D01*
X245301560Y-77811624D02*
X245396798Y-77811624D01*
X245492037Y-77859244D01*
X245539656Y-77906863D01*
X245587275Y-78002101D01*
X245634894Y-78192577D01*
X245634894Y-78430672D01*
X245587275Y-78621148D01*
X245539656Y-78716386D01*
X245492037Y-78764005D01*
X245396798Y-78811624D01*
X245301560Y-78811624D01*
X245206322Y-78764005D01*
X245158703Y-78716386D01*
X245111084Y-78621148D01*
X245063465Y-78430672D01*
X245063465Y-78192577D01*
X245111084Y-78002101D01*
X245158703Y-77906863D01*
X245206322Y-77859244D01*
X245301560Y-77811624D01*
X52812380Y-83748095D02*
X51812380Y-83748095D01*
X51812380Y-83510000D01*
X51860000Y-83367142D01*
X51955238Y-83271904D01*
X52050476Y-83224285D01*
X52240952Y-83176666D01*
X52383809Y-83176666D01*
X52574285Y-83224285D01*
X52669523Y-83271904D01*
X52764761Y-83367142D01*
X52812380Y-83510000D01*
X52812380Y-83748095D01*
X52812380Y-82224285D02*
X52812380Y-82795714D01*
X52812380Y-82510000D02*
X51812380Y-82510000D01*
X51955238Y-82605238D01*
X52050476Y-82700476D01*
X52098095Y-82795714D01*
X53932380Y-90891904D02*
X52932380Y-90891904D01*
X53932380Y-90320476D02*
X53360952Y-90749047D01*
X52932380Y-90320476D02*
X53503809Y-90891904D01*
X156812380Y-120848095D02*
X155812380Y-120848095D01*
X155812380Y-120610000D01*
X155860000Y-120467142D01*
X155955238Y-120371904D01*
X156050476Y-120324285D01*
X156240952Y-120276666D01*
X156383809Y-120276666D01*
X156574285Y-120324285D01*
X156669523Y-120371904D01*
X156764761Y-120467142D01*
X156812380Y-120610000D01*
X156812380Y-120848095D01*
X155907619Y-119895714D02*
X155860000Y-119848095D01*
X155812380Y-119752857D01*
X155812380Y-119514761D01*
X155860000Y-119419523D01*
X155907619Y-119371904D01*
X156002857Y-119324285D01*
X156098095Y-119324285D01*
X156240952Y-119371904D01*
X156812380Y-119943333D01*
X156812380Y-119324285D01*
X104942380Y-55808095D02*
X103942380Y-55808095D01*
X103942380Y-55570000D01*
X103990000Y-55427142D01*
X104085238Y-55331904D01*
X104180476Y-55284285D01*
X104370952Y-55236666D01*
X104513809Y-55236666D01*
X104704285Y-55284285D01*
X104799523Y-55331904D01*
X104894761Y-55427142D01*
X104942380Y-55570000D01*
X104942380Y-55808095D01*
X103942380Y-54903333D02*
X103942380Y-54284285D01*
X104323333Y-54617619D01*
X104323333Y-54474761D01*
X104370952Y-54379523D01*
X104418571Y-54331904D01*
X104513809Y-54284285D01*
X104751904Y-54284285D01*
X104847142Y-54331904D01*
X104894761Y-54379523D01*
X104942380Y-54474761D01*
X104942380Y-54760476D01*
X104894761Y-54855714D01*
X104847142Y-54903333D01*
X175862380Y-120848095D02*
X174862380Y-120848095D01*
X174862380Y-120610000D01*
X174910000Y-120467142D01*
X175005238Y-120371904D01*
X175100476Y-120324285D01*
X175290952Y-120276666D01*
X175433809Y-120276666D01*
X175624285Y-120324285D01*
X175719523Y-120371904D01*
X175814761Y-120467142D01*
X175862380Y-120610000D01*
X175862380Y-120848095D01*
X175195714Y-119419523D02*
X175862380Y-119419523D01*
X174814761Y-119657619D02*
X175529047Y-119895714D01*
X175529047Y-119276666D01*
X166337380Y-120848095D02*
X165337380Y-120848095D01*
X165337380Y-120610000D01*
X165385000Y-120467142D01*
X165480238Y-120371904D01*
X165575476Y-120324285D01*
X165765952Y-120276666D01*
X165908809Y-120276666D01*
X166099285Y-120324285D01*
X166194523Y-120371904D01*
X166289761Y-120467142D01*
X166337380Y-120610000D01*
X166337380Y-120848095D01*
X165337380Y-119371904D02*
X165337380Y-119848095D01*
X165813571Y-119895714D01*
X165765952Y-119848095D01*
X165718333Y-119752857D01*
X165718333Y-119514761D01*
X165765952Y-119419523D01*
X165813571Y-119371904D01*
X165908809Y-119324285D01*
X166146904Y-119324285D01*
X166242142Y-119371904D01*
X166289761Y-119419523D01*
X166337380Y-119514761D01*
X166337380Y-119752857D01*
X166289761Y-119848095D01*
X166242142Y-119895714D01*
X244158703Y-108291624D02*
X244158703Y-109005910D01*
X244111084Y-109148767D01*
X244015846Y-109244005D01*
X243872989Y-109291624D01*
X243777751Y-109291624D01*
X244587275Y-108386863D02*
X244634894Y-108339244D01*
X244730132Y-108291624D01*
X244968227Y-108291624D01*
X245063465Y-108339244D01*
X245111084Y-108386863D01*
X245158703Y-108482101D01*
X245158703Y-108577339D01*
X245111084Y-108720196D01*
X244539656Y-109291624D01*
X245158703Y-109291624D01*
X228192987Y-108291624D02*
X228192987Y-109005910D01*
X228145368Y-109148767D01*
X228050130Y-109244005D01*
X227907273Y-109291624D01*
X227812035Y-109291624D01*
X228573940Y-108291624D02*
X229192987Y-108291624D01*
X228859654Y-108672577D01*
X229002511Y-108672577D01*
X229097749Y-108720196D01*
X229145368Y-108767815D01*
X229192987Y-108863053D01*
X229192987Y-109101148D01*
X229145368Y-109196386D01*
X229097749Y-109244005D01*
X229002511Y-109291624D01*
X228716797Y-109291624D01*
X228621559Y-109244005D01*
X228573940Y-109196386D01*
X212227273Y-108291624D02*
X212227273Y-109005910D01*
X212179654Y-109148767D01*
X212084416Y-109244005D01*
X211941559Y-109291624D01*
X211846321Y-109291624D01*
X213132035Y-108624958D02*
X213132035Y-109291624D01*
X212893940Y-108244005D02*
X212655845Y-108958291D01*
X213274892Y-108958291D01*
X196261559Y-108291624D02*
X196261559Y-109005910D01*
X196213940Y-109148767D01*
X196118702Y-109244005D01*
X195975845Y-109291624D01*
X195880607Y-109291624D01*
X197213940Y-108291624D02*
X196737750Y-108291624D01*
X196690131Y-108767815D01*
X196737750Y-108720196D01*
X196832988Y-108672577D01*
X197071083Y-108672577D01*
X197166321Y-108720196D01*
X197213940Y-108767815D01*
X197261559Y-108863053D01*
X197261559Y-109101148D01*
X197213940Y-109196386D01*
X197166321Y-109244005D01*
X197071083Y-109291624D01*
X196832988Y-109291624D01*
X196737750Y-109244005D01*
X196690131Y-109196386D01*
X180295845Y-108291624D02*
X180295845Y-109005910D01*
X180248226Y-109148767D01*
X180152988Y-109244005D01*
X180010131Y-109291624D01*
X179914893Y-109291624D01*
X181200607Y-108291624D02*
X181010131Y-108291624D01*
X180914893Y-108339244D01*
X180867274Y-108386863D01*
X180772036Y-108529720D01*
X180724417Y-108720196D01*
X180724417Y-109101148D01*
X180772036Y-109196386D01*
X180819655Y-109244005D01*
X180914893Y-109291624D01*
X181105369Y-109291624D01*
X181200607Y-109244005D01*
X181248226Y-109196386D01*
X181295845Y-109101148D01*
X181295845Y-108863053D01*
X181248226Y-108767815D01*
X181200607Y-108720196D01*
X181105369Y-108672577D01*
X180914893Y-108672577D01*
X180819655Y-108720196D01*
X180772036Y-108767815D01*
X180724417Y-108863053D01*
X164330131Y-108291624D02*
X164330131Y-109005910D01*
X164282512Y-109148767D01*
X164187274Y-109244005D01*
X164044417Y-109291624D01*
X163949179Y-109291624D01*
X164711084Y-108291624D02*
X165377750Y-108291624D01*
X164949179Y-109291624D01*
X148364417Y-108291624D02*
X148364417Y-109005910D01*
X148316798Y-109148767D01*
X148221560Y-109244005D01*
X148078703Y-109291624D01*
X147983465Y-109291624D01*
X148983465Y-108720196D02*
X148888227Y-108672577D01*
X148840608Y-108624958D01*
X148792989Y-108529720D01*
X148792989Y-108482101D01*
X148840608Y-108386863D01*
X148888227Y-108339244D01*
X148983465Y-108291624D01*
X149173941Y-108291624D01*
X149269179Y-108339244D01*
X149316798Y-108386863D01*
X149364417Y-108482101D01*
X149364417Y-108529720D01*
X149316798Y-108624958D01*
X149269179Y-108672577D01*
X149173941Y-108720196D01*
X148983465Y-108720196D01*
X148888227Y-108767815D01*
X148840608Y-108815434D01*
X148792989Y-108910672D01*
X148792989Y-109101148D01*
X148840608Y-109196386D01*
X148888227Y-109244005D01*
X148983465Y-109291624D01*
X149173941Y-109291624D01*
X149269179Y-109244005D01*
X149316798Y-109196386D01*
X149364417Y-109101148D01*
X149364417Y-108910672D01*
X149316798Y-108815434D01*
X149269179Y-108767815D01*
X149173941Y-108720196D01*
X132398703Y-108291624D02*
X132398703Y-109005910D01*
X132351084Y-109148767D01*
X132255846Y-109244005D01*
X132112989Y-109291624D01*
X132017751Y-109291624D01*
X132922513Y-109291624D02*
X133112989Y-109291624D01*
X133208227Y-109244005D01*
X133255846Y-109196386D01*
X133351084Y-109053529D01*
X133398703Y-108863053D01*
X133398703Y-108482101D01*
X133351084Y-108386863D01*
X133303465Y-108339244D01*
X133208227Y-108291624D01*
X133017751Y-108291624D01*
X132922513Y-108339244D01*
X132874894Y-108386863D01*
X132827275Y-108482101D01*
X132827275Y-108720196D01*
X132874894Y-108815434D01*
X132922513Y-108863053D01*
X133017751Y-108910672D01*
X133208227Y-108910672D01*
X133303465Y-108863053D01*
X133351084Y-108815434D01*
X133398703Y-108720196D01*
X227716797Y-77811624D02*
X227716797Y-78525910D01*
X227669178Y-78668767D01*
X227573940Y-78764005D01*
X227431082Y-78811624D01*
X227335844Y-78811624D01*
X228716797Y-78811624D02*
X228145368Y-78811624D01*
X228431082Y-78811624D02*
X228431082Y-77811624D01*
X228335844Y-77954482D01*
X228240606Y-78049720D01*
X228145368Y-78097339D01*
X229669178Y-78811624D02*
X229097749Y-78811624D01*
X229383463Y-78811624D02*
X229383463Y-77811624D01*
X229288225Y-77954482D01*
X229192987Y-78049720D01*
X229097749Y-78097339D01*
X211751083Y-77811624D02*
X211751083Y-78525910D01*
X211703464Y-78668767D01*
X211608226Y-78764005D01*
X211465368Y-78811624D01*
X211370130Y-78811624D01*
X212751083Y-78811624D02*
X212179654Y-78811624D01*
X212465368Y-78811624D02*
X212465368Y-77811624D01*
X212370130Y-77954482D01*
X212274892Y-78049720D01*
X212179654Y-78097339D01*
X213132035Y-77906863D02*
X213179654Y-77859244D01*
X213274892Y-77811624D01*
X213512987Y-77811624D01*
X213608226Y-77859244D01*
X213655845Y-77906863D01*
X213703464Y-78002101D01*
X213703464Y-78097339D01*
X213655845Y-78240196D01*
X213084416Y-78811624D01*
X213703464Y-78811624D01*
X195785369Y-77811624D02*
X195785369Y-78525910D01*
X195737750Y-78668767D01*
X195642512Y-78764005D01*
X195499654Y-78811624D01*
X195404416Y-78811624D01*
X196785369Y-78811624D02*
X196213940Y-78811624D01*
X196499654Y-78811624D02*
X196499654Y-77811624D01*
X196404416Y-77954482D01*
X196309178Y-78049720D01*
X196213940Y-78097339D01*
X197118702Y-77811624D02*
X197737750Y-77811624D01*
X197404416Y-78192577D01*
X197547273Y-78192577D01*
X197642512Y-78240196D01*
X197690131Y-78287815D01*
X197737750Y-78383053D01*
X197737750Y-78621148D01*
X197690131Y-78716386D01*
X197642512Y-78764005D01*
X197547273Y-78811624D01*
X197261559Y-78811624D01*
X197166321Y-78764005D01*
X197118702Y-78716386D01*
X179819655Y-77811624D02*
X179819655Y-78525910D01*
X179772036Y-78668767D01*
X179676798Y-78764005D01*
X179533940Y-78811624D01*
X179438702Y-78811624D01*
X180819655Y-78811624D02*
X180248226Y-78811624D01*
X180533940Y-78811624D02*
X180533940Y-77811624D01*
X180438702Y-77954482D01*
X180343464Y-78049720D01*
X180248226Y-78097339D01*
X181676798Y-78144958D02*
X181676798Y-78811624D01*
X181438702Y-77764005D02*
X181200607Y-78478291D01*
X181819655Y-78478291D01*
X163853941Y-77811624D02*
X163853941Y-78525910D01*
X163806322Y-78668767D01*
X163711084Y-78764005D01*
X163568226Y-78811624D01*
X163472988Y-78811624D01*
X164853941Y-78811624D02*
X164282512Y-78811624D01*
X164568226Y-78811624D02*
X164568226Y-77811624D01*
X164472988Y-77954482D01*
X164377750Y-78049720D01*
X164282512Y-78097339D01*
X165758703Y-77811624D02*
X165282512Y-77811624D01*
X165234893Y-78287815D01*
X165282512Y-78240196D01*
X165377750Y-78192577D01*
X165615845Y-78192577D01*
X165711084Y-78240196D01*
X165758703Y-78287815D01*
X165806322Y-78383053D01*
X165806322Y-78621148D01*
X165758703Y-78716386D01*
X165711084Y-78764005D01*
X165615845Y-78811624D01*
X165377750Y-78811624D01*
X165282512Y-78764005D01*
X165234893Y-78716386D01*
X147888227Y-77811624D02*
X147888227Y-78525910D01*
X147840608Y-78668767D01*
X147745370Y-78764005D01*
X147602512Y-78811624D01*
X147507274Y-78811624D01*
X148888227Y-78811624D02*
X148316798Y-78811624D01*
X148602512Y-78811624D02*
X148602512Y-77811624D01*
X148507274Y-77954482D01*
X148412036Y-78049720D01*
X148316798Y-78097339D01*
X149745370Y-77811624D02*
X149554893Y-77811624D01*
X149459655Y-77859244D01*
X149412036Y-77906863D01*
X149316798Y-78049720D01*
X149269179Y-78240196D01*
X149269179Y-78621148D01*
X149316798Y-78716386D01*
X149364417Y-78764005D01*
X149459655Y-78811624D01*
X149650131Y-78811624D01*
X149745370Y-78764005D01*
X149792989Y-78716386D01*
X149840608Y-78621148D01*
X149840608Y-78383053D01*
X149792989Y-78287815D01*
X149745370Y-78240196D01*
X149650131Y-78192577D01*
X149459655Y-78192577D01*
X149364417Y-78240196D01*
X149316798Y-78287815D01*
X149269179Y-78383053D01*
X131922513Y-77811624D02*
X131922513Y-78525910D01*
X131874894Y-78668767D01*
X131779656Y-78764005D01*
X131636798Y-78811624D01*
X131541560Y-78811624D01*
X132922513Y-78811624D02*
X132351084Y-78811624D01*
X132636798Y-78811624D02*
X132636798Y-77811624D01*
X132541560Y-77954482D01*
X132446322Y-78049720D01*
X132351084Y-78097339D01*
X133255846Y-77811624D02*
X133922513Y-77811624D01*
X133493941Y-78811624D01*
X53714285Y-121652380D02*
X53714285Y-122366666D01*
X53666666Y-122509523D01*
X53571428Y-122604761D01*
X53428571Y-122652380D01*
X53333333Y-122652380D01*
X54714285Y-122652380D02*
X54142857Y-122652380D01*
X54428571Y-122652380D02*
X54428571Y-121652380D01*
X54333333Y-121795238D01*
X54238095Y-121890476D01*
X54142857Y-121938095D01*
X55333333Y-121652380D02*
X55428571Y-121652380D01*
X55523809Y-121700000D01*
X55571428Y-121747619D01*
X55619047Y-121842857D01*
X55666666Y-122033333D01*
X55666666Y-122271428D01*
X55619047Y-122461904D01*
X55571428Y-122557142D01*
X55523809Y-122604761D01*
X55428571Y-122652380D01*
X55333333Y-122652380D01*
X55238095Y-122604761D01*
X55190476Y-122557142D01*
X55142857Y-122461904D01*
X55095238Y-122271428D01*
X55095238Y-122033333D01*
X55142857Y-121842857D01*
X55190476Y-121747619D01*
X55238095Y-121700000D01*
X55333333Y-121652380D01*
X56047619Y-121747619D02*
X56095238Y-121700000D01*
X56190476Y-121652380D01*
X56428571Y-121652380D01*
X56523809Y-121700000D01*
X56571428Y-121747619D01*
X56619047Y-121842857D01*
X56619047Y-121938095D01*
X56571428Y-122080952D01*
X56000000Y-122652380D01*
X56619047Y-122652380D01*
X53714285Y-48652380D02*
X53714285Y-49366666D01*
X53666666Y-49509523D01*
X53571428Y-49604761D01*
X53428571Y-49652380D01*
X53333333Y-49652380D01*
X54714285Y-49652380D02*
X54142857Y-49652380D01*
X54428571Y-49652380D02*
X54428571Y-48652380D01*
X54333333Y-48795238D01*
X54238095Y-48890476D01*
X54142857Y-48938095D01*
X55333333Y-48652380D02*
X55428571Y-48652380D01*
X55523809Y-48700000D01*
X55571428Y-48747619D01*
X55619047Y-48842857D01*
X55666666Y-49033333D01*
X55666666Y-49271428D01*
X55619047Y-49461904D01*
X55571428Y-49557142D01*
X55523809Y-49604761D01*
X55428571Y-49652380D01*
X55333333Y-49652380D01*
X55238095Y-49604761D01*
X55190476Y-49557142D01*
X55142857Y-49461904D01*
X55095238Y-49271428D01*
X55095238Y-49033333D01*
X55142857Y-48842857D01*
X55190476Y-48747619D01*
X55238095Y-48700000D01*
X55333333Y-48652380D01*
X56000000Y-48652380D02*
X56619047Y-48652380D01*
X56285714Y-49033333D01*
X56428571Y-49033333D01*
X56523809Y-49080952D01*
X56571428Y-49128571D01*
X56619047Y-49223809D01*
X56619047Y-49461904D01*
X56571428Y-49557142D01*
X56523809Y-49604761D01*
X56428571Y-49652380D01*
X56142857Y-49652380D01*
X56047619Y-49604761D01*
X56000000Y-49557142D01*
X245714285Y-121652380D02*
X245714285Y-122366666D01*
X245666666Y-122509523D01*
X245571428Y-122604761D01*
X245428571Y-122652380D01*
X245333333Y-122652380D01*
X246714285Y-122652380D02*
X246142857Y-122652380D01*
X246428571Y-122652380D02*
X246428571Y-121652380D01*
X246333333Y-121795238D01*
X246238095Y-121890476D01*
X246142857Y-121938095D01*
X247333333Y-121652380D02*
X247428571Y-121652380D01*
X247523809Y-121700000D01*
X247571428Y-121747619D01*
X247619047Y-121842857D01*
X247666666Y-122033333D01*
X247666666Y-122271428D01*
X247619047Y-122461904D01*
X247571428Y-122557142D01*
X247523809Y-122604761D01*
X247428571Y-122652380D01*
X247333333Y-122652380D01*
X247238095Y-122604761D01*
X247190476Y-122557142D01*
X247142857Y-122461904D01*
X247095238Y-122271428D01*
X247095238Y-122033333D01*
X247142857Y-121842857D01*
X247190476Y-121747619D01*
X247238095Y-121700000D01*
X247333333Y-121652380D01*
X248523809Y-121985714D02*
X248523809Y-122652380D01*
X248285714Y-121604761D02*
X248047619Y-122319047D01*
X248666666Y-122319047D01*
X245714285Y-48652380D02*
X245714285Y-49366666D01*
X245666666Y-49509523D01*
X245571428Y-49604761D01*
X245428571Y-49652380D01*
X245333333Y-49652380D01*
X246714285Y-49652380D02*
X246142857Y-49652380D01*
X246428571Y-49652380D02*
X246428571Y-48652380D01*
X246333333Y-48795238D01*
X246238095Y-48890476D01*
X246142857Y-48938095D01*
X247333333Y-48652380D02*
X247428571Y-48652380D01*
X247523809Y-48700000D01*
X247571428Y-48747619D01*
X247619047Y-48842857D01*
X247666666Y-49033333D01*
X247666666Y-49271428D01*
X247619047Y-49461904D01*
X247571428Y-49557142D01*
X247523809Y-49604761D01*
X247428571Y-49652380D01*
X247333333Y-49652380D01*
X247238095Y-49604761D01*
X247190476Y-49557142D01*
X247142857Y-49461904D01*
X247095238Y-49271428D01*
X247095238Y-49033333D01*
X247142857Y-48842857D01*
X247190476Y-48747619D01*
X247238095Y-48700000D01*
X247333333Y-48652380D01*
X248571428Y-48652380D02*
X248095238Y-48652380D01*
X248047619Y-49128571D01*
X248095238Y-49080952D01*
X248190476Y-49033333D01*
X248428571Y-49033333D01*
X248523809Y-49080952D01*
X248571428Y-49128571D01*
X248619047Y-49223809D01*
X248619047Y-49461904D01*
X248571428Y-49557142D01*
X248523809Y-49604761D01*
X248428571Y-49652380D01*
X248190476Y-49652380D01*
X248095238Y-49604761D01*
X248047619Y-49557142D01*
X122714285Y-48652380D02*
X122714285Y-49366666D01*
X122666666Y-49509523D01*
X122571428Y-49604761D01*
X122428571Y-49652380D01*
X122333333Y-49652380D01*
X123714285Y-49652380D02*
X123142857Y-49652380D01*
X123428571Y-49652380D02*
X123428571Y-48652380D01*
X123333333Y-48795238D01*
X123238095Y-48890476D01*
X123142857Y-48938095D01*
X124333333Y-48652380D02*
X124428571Y-48652380D01*
X124523809Y-48700000D01*
X124571428Y-48747619D01*
X124619047Y-48842857D01*
X124666666Y-49033333D01*
X124666666Y-49271428D01*
X124619047Y-49461904D01*
X124571428Y-49557142D01*
X124523809Y-49604761D01*
X124428571Y-49652380D01*
X124333333Y-49652380D01*
X124238095Y-49604761D01*
X124190476Y-49557142D01*
X124142857Y-49461904D01*
X124095238Y-49271428D01*
X124095238Y-49033333D01*
X124142857Y-48842857D01*
X124190476Y-48747619D01*
X124238095Y-48700000D01*
X124333333Y-48652380D01*
X125523809Y-48652380D02*
X125333333Y-48652380D01*
X125238095Y-48700000D01*
X125190476Y-48747619D01*
X125095238Y-48890476D01*
X125047619Y-49080952D01*
X125047619Y-49461904D01*
X125095238Y-49557142D01*
X125142857Y-49604761D01*
X125238095Y-49652380D01*
X125428571Y-49652380D01*
X125523809Y-49604761D01*
X125571428Y-49557142D01*
X125619047Y-49461904D01*
X125619047Y-49223809D01*
X125571428Y-49128571D01*
X125523809Y-49080952D01*
X125428571Y-49033333D01*
X125238095Y-49033333D01*
X125142857Y-49080952D01*
X125095238Y-49128571D01*
X125047619Y-49223809D01*
X186714285Y-121652380D02*
X186714285Y-122366666D01*
X186666666Y-122509523D01*
X186571428Y-122604761D01*
X186428571Y-122652380D01*
X186333333Y-122652380D01*
X187714285Y-122652380D02*
X187142857Y-122652380D01*
X187428571Y-122652380D02*
X187428571Y-121652380D01*
X187333333Y-121795238D01*
X187238095Y-121890476D01*
X187142857Y-121938095D01*
X188333333Y-121652380D02*
X188428571Y-121652380D01*
X188523809Y-121700000D01*
X188571428Y-121747619D01*
X188619047Y-121842857D01*
X188666666Y-122033333D01*
X188666666Y-122271428D01*
X188619047Y-122461904D01*
X188571428Y-122557142D01*
X188523809Y-122604761D01*
X188428571Y-122652380D01*
X188333333Y-122652380D01*
X188238095Y-122604761D01*
X188190476Y-122557142D01*
X188142857Y-122461904D01*
X188095238Y-122271428D01*
X188095238Y-122033333D01*
X188142857Y-121842857D01*
X188190476Y-121747619D01*
X188238095Y-121700000D01*
X188333333Y-121652380D01*
X189000000Y-121652380D02*
X189666666Y-121652380D01*
X189238095Y-122652380D01*
X186714285Y-78652380D02*
X186714285Y-79366666D01*
X186666666Y-79509523D01*
X186571428Y-79604761D01*
X186428571Y-79652380D01*
X186333333Y-79652380D01*
X187714285Y-79652380D02*
X187142857Y-79652380D01*
X187428571Y-79652380D02*
X187428571Y-78652380D01*
X187333333Y-78795238D01*
X187238095Y-78890476D01*
X187142857Y-78938095D01*
X188333333Y-78652380D02*
X188428571Y-78652380D01*
X188523809Y-78700000D01*
X188571428Y-78747619D01*
X188619047Y-78842857D01*
X188666666Y-79033333D01*
X188666666Y-79271428D01*
X188619047Y-79461904D01*
X188571428Y-79557142D01*
X188523809Y-79604761D01*
X188428571Y-79652380D01*
X188333333Y-79652380D01*
X188238095Y-79604761D01*
X188190476Y-79557142D01*
X188142857Y-79461904D01*
X188095238Y-79271428D01*
X188095238Y-79033333D01*
X188142857Y-78842857D01*
X188190476Y-78747619D01*
X188238095Y-78700000D01*
X188333333Y-78652380D01*
X189238095Y-79080952D02*
X189142857Y-79033333D01*
X189095238Y-78985714D01*
X189047619Y-78890476D01*
X189047619Y-78842857D01*
X189095238Y-78747619D01*
X189142857Y-78700000D01*
X189238095Y-78652380D01*
X189428571Y-78652380D01*
X189523809Y-78700000D01*
X189571428Y-78747619D01*
X189619047Y-78842857D01*
X189619047Y-78890476D01*
X189571428Y-78985714D01*
X189523809Y-79033333D01*
X189428571Y-79080952D01*
X189238095Y-79080952D01*
X189142857Y-79128571D01*
X189095238Y-79176190D01*
X189047619Y-79271428D01*
X189047619Y-79461904D01*
X189095238Y-79557142D01*
X189142857Y-79604761D01*
X189238095Y-79652380D01*
X189428571Y-79652380D01*
X189523809Y-79604761D01*
X189571428Y-79557142D01*
X189619047Y-79461904D01*
X189619047Y-79271428D01*
X189571428Y-79176190D01*
X189523809Y-79128571D01*
X189428571Y-79080952D01*
X186714285Y-48652380D02*
X186714285Y-49366666D01*
X186666666Y-49509523D01*
X186571428Y-49604761D01*
X186428571Y-49652380D01*
X186333333Y-49652380D01*
X187714285Y-49652380D02*
X187142857Y-49652380D01*
X187428571Y-49652380D02*
X187428571Y-48652380D01*
X187333333Y-48795238D01*
X187238095Y-48890476D01*
X187142857Y-48938095D01*
X188333333Y-48652380D02*
X188428571Y-48652380D01*
X188523809Y-48700000D01*
X188571428Y-48747619D01*
X188619047Y-48842857D01*
X188666666Y-49033333D01*
X188666666Y-49271428D01*
X188619047Y-49461904D01*
X188571428Y-49557142D01*
X188523809Y-49604761D01*
X188428571Y-49652380D01*
X188333333Y-49652380D01*
X188238095Y-49604761D01*
X188190476Y-49557142D01*
X188142857Y-49461904D01*
X188095238Y-49271428D01*
X188095238Y-49033333D01*
X188142857Y-48842857D01*
X188190476Y-48747619D01*
X188238095Y-48700000D01*
X188333333Y-48652380D01*
X189142857Y-49652380D02*
X189333333Y-49652380D01*
X189428571Y-49604761D01*
X189476190Y-49557142D01*
X189571428Y-49414285D01*
X189619047Y-49223809D01*
X189619047Y-48842857D01*
X189571428Y-48747619D01*
X189523809Y-48700000D01*
X189428571Y-48652380D01*
X189238095Y-48652380D01*
X189142857Y-48700000D01*
X189095238Y-48747619D01*
X189047619Y-48842857D01*
X189047619Y-49080952D01*
X189095238Y-49176190D01*
X189142857Y-49223809D01*
X189238095Y-49271428D01*
X189428571Y-49271428D01*
X189523809Y-49223809D01*
X189571428Y-49176190D01*
X189619047Y-49080952D01*
M02*
